<svg width="185" height="118" viewBox="0 0 185 118" fill="none" xmlns="http://www.w3.org/2000/svg">
<path d="M32.45 115.9C22.15 115.9 14.5 113.25 9.5 107.95C4.5 102.55 2 95.1 2 85.6V34.45C2 24.15 4.65 16.3 9.95 10.9C15.25 5.40002 22.8 2.65002 32.6 2.65002H56.9C66.4 2.65002 73.65 5.40002 78.65 10.9C83.65 16.3 86.15 24.15 86.15 34.45V85.6C86.15 95 83.6 102.4 78.5 107.8C73.5 113.2 66.25 115.9 56.75 115.9H32.45ZM39.65 89.8H48.65C51.35 89.8 53.4 89.15 54.8 87.85C56.3 86.45 57.05 84.2 57.05 81.1V37.45C57.05 33.95 56.35 31.65 54.95 30.55C53.55 29.35 51.85 28.75 49.85 28.75H38.6C33.6 28.75 31.1 31.65 31.1 37.45V80.95C31.1 84.15 31.8 86.45 33.2 87.85C34.6 89.15 36.75 89.8 39.65 89.8ZM128.544 115.9C118.244 115.9 110.594 113.25 105.594 107.95C100.594 102.55 98.0938 95.1 98.0938 85.6V34.45C98.0938 24.15 100.744 16.3 106.044 10.9C111.344 5.40002 118.894 2.65002 128.694 2.65002H152.994C162.494 2.65002 169.744 5.40002 174.744 10.9C179.744 16.3 182.244 24.15 182.244 34.45V85.6C182.244 95 179.694 102.4 174.594 107.8C169.594 113.2 162.344 115.9 152.844 115.9H128.544ZM135.744 89.8H144.744C147.444 89.8 149.494 89.15 150.894 87.85C152.394 86.45 153.144 84.2 153.144 81.1V37.45C153.144 33.95 152.444 31.65 151.044 30.55C149.644 29.35 147.944 28.75 145.944 28.75H134.694C129.694 28.75 127.194 31.65 127.194 37.45V80.95C127.194 84.15 127.894 86.45 129.294 87.85C130.694 89.15 132.844 89.8 135.744 89.8Z" stroke="#EF8354" stroke-opacity="0.6" stroke-width="4" stroke-linejoin="round"/>
</svg>
