<svg width="145" height="118" viewBox="0 0 145 118" fill="none" xmlns="http://www.w3.org/2000/svg">
<path d="M32.45 115.9C22.15 115.9 14.5 113.25 9.5 107.95C4.5 102.55 2 95.1 2 85.6V34.45C2 24.15 4.65 16.3 9.95 10.9C15.25 5.40002 22.8 2.65002 32.6 2.65002H56.9C66.4 2.65002 73.65 5.40002 78.65 10.9C83.65 16.3 86.15 24.15 86.15 34.45V85.6C86.15 95 83.6 102.4 78.5 107.8C73.5 113.2 66.25 115.9 56.75 115.9H32.45ZM39.65 89.8H48.65C51.35 89.8 53.4 89.15 54.8 87.85C56.3 86.45 57.05 84.2 57.05 81.1V37.45C57.05 33.95 56.35 31.65 54.95 30.55C53.55 29.35 51.85 28.75 49.85 28.75H38.6C33.6 28.75 31.1 31.65 31.1 37.45V80.95C31.1 84.15 31.8 86.45 33.2 87.85C34.6 89.15 36.75 89.8 39.65 89.8ZM113.094 115V30.25H95.3938V11.65L116.394 2.65002H142.194V115H113.094Z" stroke="#EF8354" stroke-opacity="0.6" stroke-width="4" stroke-linejoin="round"/>
</svg>
