<svg width="178" height="118" viewBox="0 0 178 118" fill="none" xmlns="http://www.w3.org/2000/svg">
<path d="M32.45 115.9C22.15 115.9 14.5 113.25 9.5 107.95C4.5 102.55 2 95.1 2 85.6V34.45C2 24.15 4.65 16.3 9.95 10.9C15.25 5.40002 22.8 2.65002 32.6 2.65002H56.9C66.4 2.65002 73.65 5.40002 78.65 10.9C83.65 16.3 86.15 24.15 86.15 34.45V85.6C86.15 95 83.6 102.4 78.5 107.8C73.5 113.2 66.25 115.9 56.75 115.9H32.45ZM39.65 89.8H48.65C51.35 89.8 53.4 89.15 54.8 87.85C56.3 86.45 57.05 84.2 57.05 81.1V37.45C57.05 33.95 56.35 31.65 54.95 30.55C53.55 29.35 51.85 28.75 49.85 28.75H38.6C33.6 28.75 31.1 31.65 31.1 37.45V80.95C31.1 84.15 31.8 86.45 33.2 87.85C34.6 89.15 36.75 89.8 39.65 89.8ZM98.0938 115V91.9L132.744 56.5C135.944 53.3 138.444 50.35 140.244 47.65C142.144 44.85 143.094 42.05 143.094 39.25C143.094 33.25 139.344 30.25 131.844 30.25H99.8938V7.15002C104.794 6.05002 110.244 5.05002 116.244 4.15002C122.344 3.15002 129.394 2.65002 137.394 2.65002C146.194 2.65002 153.094 3.85002 158.094 6.25002C163.194 8.65002 166.794 12.2 168.894 16.9C171.094 21.6 172.194 27.35 172.194 34.15C172.194 41.45 170.744 47.8 167.844 53.2C164.944 58.6 160.894 63.95 155.694 69.25L136.494 88.9H175.194V115H98.0938Z" stroke="#EF8354" stroke-opacity="0.6" stroke-width="4" stroke-linejoin="round"/>
</svg>
