<svg width="176" height="118" viewBox="0 0 176 118" fill="none" xmlns="http://www.w3.org/2000/svg">
<path d="M32.45 115.9C22.15 115.9 14.5 113.25 9.5 107.95C4.5 102.55 2 95.1001 2 85.6001V34.4501C2 24.1501 4.65 16.3001 9.95 10.9001C15.25 5.4001 22.8 2.6501 32.6 2.6501H56.9C66.4 2.6501 73.65 5.4001 78.65 10.9001C83.65 16.3001 86.15 24.1501 86.15 34.4501V85.6001C86.15 95.0001 83.6 102.4 78.5 107.8C73.5 113.2 66.25 115.9 56.75 115.9H32.45ZM39.65 89.8001H48.65C51.35 89.8001 53.4 89.1501 54.8 87.8501C56.3 86.4501 57.05 84.2001 57.05 81.1001V37.4501C57.05 33.9501 56.35 31.6501 54.95 30.5501C53.55 29.3501 51.85 28.7501 49.85 28.7501H38.6C33.6 28.7501 31.1 31.6501 31.1 37.4501V80.9501C31.1 84.1501 31.8 86.4501 33.2 87.8501C34.6 89.1501 36.75 89.8001 39.65 89.8001ZM141.294 115.9C133.294 115.9 125.544 115.55 118.044 114.85C110.544 114.15 103.594 113.15 97.1937 111.85V88.4501H129.894C135.794 88.4501 139.694 88.0001 141.594 87.1001C143.594 86.1001 144.594 84.4501 144.594 82.1501V79.3001C144.594 76.7001 143.594 74.8001 141.594 73.6001C139.594 72.3001 136.744 71.6001 133.044 71.5001L106.344 70.3001V47.8001L131.694 46.1501C135.694 45.8501 138.644 45.2501 140.544 44.3501C142.444 43.4501 143.394 41.8501 143.394 39.5501V38.2001C143.394 35.3001 142.394 33.2501 140.394 32.0501C138.394 30.8501 134.694 30.2501 129.294 30.2501H98.6937V6.8501C105.194 5.75009 112.044 4.75009 119.244 3.85009C126.444 2.85009 133.744 2.4501 141.144 2.6501C150.744 2.7501 158.294 5.1001 163.794 9.7001C169.394 14.3001 172.194 21.4001 172.194 31.0001V38.5001C172.194 43.6001 171.244 47.9001 169.344 51.4001C167.444 54.8001 164.194 57.3501 159.594 59.0501C164.294 60.5501 167.794 63.5001 170.094 67.9001C172.494 72.3001 173.694 77.5001 173.694 83.5001V87.8501C173.694 96.9501 170.794 103.9 164.994 108.7C159.294 113.5 151.394 115.9 141.294 115.9Z" stroke="#EF8354" stroke-opacity="0.6" stroke-width="4" stroke-linejoin="round"/>
</svg>
