<svg width="187" height="118" viewBox="0 0 187 118" fill="none" xmlns="http://www.w3.org/2000/svg">
<path d="M32.45 115.9C22.15 115.9 14.5 113.25 9.5 107.95C4.5 102.55 2 95.0999 2 85.5999V34.4499C2 24.1499 4.65 16.2999 9.95 10.8999C15.25 5.3999 22.8 2.6499 32.6 2.6499H56.9C66.4 2.6499 73.65 5.3999 78.65 10.8999C83.65 16.2999 86.15 24.1499 86.15 34.4499V85.5999C86.15 94.9999 83.6 102.4 78.5 107.8C73.5 113.2 66.25 115.9 56.75 115.9H32.45ZM39.65 89.7999H48.65C51.35 89.7999 53.4 89.1499 54.8 87.8499C56.3 86.4499 57.05 84.1999 57.05 81.0999V37.4499C57.05 33.9499 56.35 31.6499 54.95 30.5499C53.55 29.3499 51.85 28.7499 49.85 28.7499H38.6C33.6 28.7499 31.1 31.6499 31.1 37.4499V80.9499C31.1 84.1499 31.8 86.4499 33.2 87.8499C34.6 89.1499 36.75 89.7999 39.65 89.7999ZM146.694 115V94.4499H100.344L95.2438 81.3999L127.494 3.5499H157.194L129.894 69.8499H146.694V53.3499L152.244 38.9499H175.794V69.8499H184.794V89.9499L175.794 94.4499V115H146.694Z" stroke="#EF8354" stroke-opacity="0.6" stroke-width="4" stroke-linejoin="round"/>
</svg>
