<svg width="179" height="118" viewBox="0 0 179 118" fill="none" xmlns="http://www.w3.org/2000/svg">
<path d="M32.45 115.9C22.15 115.9 14.5 113.25 9.5 107.95C4.5 102.55 2 95.0999 2 85.5999V34.4499C2 24.1499 4.65 16.2999 9.95 10.8999C15.25 5.3999 22.8 2.6499 32.6 2.6499H56.9C66.4 2.6499 73.65 5.3999 78.65 10.8999C83.65 16.2999 86.15 24.1499 86.15 34.4499V85.5999C86.15 94.9999 83.6 102.4 78.5 107.8C73.5 113.2 66.25 115.9 56.75 115.9H32.45ZM39.65 89.7999H48.65C51.35 89.7999 53.4 89.1499 54.8 87.8499C56.3 86.4499 57.05 84.1999 57.05 81.0999V37.4499C57.05 33.9499 56.35 31.6499 54.95 30.5499C53.55 29.3499 51.85 28.7499 49.85 28.7499H38.6C33.6 28.7499 31.1 31.6499 31.1 37.4499V80.9499C31.1 84.1499 31.8 86.4499 33.2 87.8499C34.6 89.1499 36.75 89.7999 39.65 89.7999ZM136.794 115.9C131.194 115.9 124.994 115.6 118.194 115C111.494 114.3 104.944 113.6 98.5437 112.9V89.7999H138.144C141.244 89.7999 143.394 89.2999 144.594 88.2999C145.794 87.1999 146.494 85.9499 146.694 84.5499C146.894 83.0499 146.994 81.7999 146.994 80.7999V76.1499C146.994 73.6499 146.494 71.6999 145.494 70.2999C144.594 68.8999 142.794 68.1999 140.094 68.1999H133.494C131.094 68.1999 129.344 68.6499 128.244 69.5499C127.244 70.4499 126.644 71.7499 126.444 73.4499H98.8438L101.994 3.5499H171.444V29.6499H126.894L126.144 46.5999C127.844 45.2999 129.894 44.4999 132.294 44.1999C134.694 43.7999 137.094 43.5999 139.494 43.5999H150.894C156.694 43.5999 161.444 44.7999 165.144 47.1999C168.844 49.5999 171.594 52.8499 173.394 56.9499C175.194 61.0499 176.094 65.6499 176.094 70.7499V87.0999C176.094 97.3999 172.844 104.8 166.344 109.3C159.944 113.7 150.094 115.9 136.794 115.9Z" stroke="#EF8354" stroke-opacity="0.6" stroke-width="4" stroke-linejoin="round"/>
</svg>
