<svg width="179" height="118" viewBox="0 0 179 118" fill="none" xmlns="http://www.w3.org/2000/svg">
<path d="M32.45 115.9C22.15 115.9 14.5 113.25 9.5 107.95C4.5 102.55 2 95.0999 2 85.5999V34.4499C2 24.1499 4.65 16.2999 9.95 10.8999C15.25 5.3999 22.8 2.6499 32.6 2.6499H56.9C66.4 2.6499 73.65 5.3999 78.65 10.8999C83.65 16.2999 86.15 24.1499 86.15 34.4499V85.5999C86.15 94.9999 83.6 102.4 78.5 107.8C73.5 113.2 66.25 115.9 56.75 115.9H32.45ZM39.65 89.7999H48.65C51.35 89.7999 53.4 89.1499 54.8 87.8499C56.3 86.4499 57.05 84.1999 57.05 81.0999V37.4499C57.05 33.9499 56.35 31.6499 54.95 30.5499C53.55 29.3499 51.85 28.7499 49.85 28.7499H38.6C33.6 28.7499 31.1 31.6499 31.1 37.4499V80.9499C31.1 84.1499 31.8 86.4499 33.2 87.8499C34.6 89.1499 36.75 89.7999 39.65 89.7999ZM132.744 115.9C126.844 115.9 121.694 115.1 117.294 113.5C112.894 111.8 109.244 108.95 106.344 104.95C103.444 100.95 101.244 95.4499 99.7438 88.4499C98.3438 81.3499 97.6438 72.4499 97.6438 61.7499C97.6438 50.2499 98.5938 40.6999 100.494 33.0999C102.494 25.3999 105.394 19.3499 109.194 14.9499C112.994 10.4499 117.594 7.2999 122.994 5.4999C128.394 3.5999 134.544 2.6499 141.444 2.6499C146.744 2.6499 151.844 2.8999 156.744 3.3999C161.744 3.7999 166.244 4.5499 170.244 5.6499V28.7499H144.894C138.094 28.7499 133.344 30.4499 130.644 33.8499C128.044 37.2499 126.744 42.0499 126.744 48.2499C129.544 46.9499 132.444 46.0999 135.444 45.6999C138.444 45.2999 142.694 45.0999 148.194 45.0999C155.994 45.0999 161.944 46.2999 166.044 48.6999C170.244 51.0999 173.094 54.3499 174.594 58.4499C176.094 62.5499 176.844 67.0999 176.844 72.0999V88.2999C176.844 97.9999 174.244 105.05 169.044 109.45C163.844 113.75 156.894 115.9 148.194 115.9H132.744ZM138.744 89.7999H141.294C143.794 89.7999 145.494 89.1499 146.394 87.8499C147.294 86.5499 147.744 84.6499 147.744 82.1499V77.9499C147.744 74.7499 147.194 72.5999 146.094 71.4999C144.994 70.2999 142.844 69.6999 139.644 69.6999H126.744C126.744 77.5999 127.594 82.9499 129.294 85.7499C131.094 88.4499 134.244 89.7999 138.744 89.7999Z" stroke="#EF8354" stroke-opacity="0.6" stroke-width="4" stroke-linejoin="round"/>
</svg>
