<svg width="181" height="118" viewBox="0 0 181 118" fill="none" xmlns="http://www.w3.org/2000/svg">
<path d="M32.45 115.9C22.15 115.9 14.5 113.25 9.5 107.95C4.5 102.55 2 95.0999 2 85.5999V34.4499C2 24.1499 4.65 16.2999 9.95 10.8999C15.25 5.3999 22.8 2.6499 32.6 2.6499H56.9C66.4 2.6499 73.65 5.3999 78.65 10.8999C83.65 16.2999 86.15 24.1499 86.15 34.4499V85.5999C86.15 94.9999 83.6 102.4 78.5 107.8C73.5 113.2 66.25 115.9 56.75 115.9H32.45ZM39.65 89.7999H48.65C51.35 89.7999 53.4 89.1499 54.8 87.8499C56.3 86.4499 57.05 84.1999 57.05 81.0999V37.4499C57.05 33.9499 56.35 31.6499 54.95 30.5499C53.55 29.3499 51.85 28.7499 49.85 28.7499H38.6C33.6 28.7499 31.1 31.6499 31.1 37.4499V80.9499C31.1 84.1499 31.8 86.4499 33.2 87.8499C34.6 89.1499 36.75 89.7999 39.65 89.7999ZM129.294 115.9C125.494 115.9 121.744 115.6 118.044 115C114.344 114.3 110.994 113.05 107.994 111.25C105.094 109.45 102.744 106.9 100.944 103.6C99.2437 100.2 98.3938 95.7499 98.3938 90.2499V75.3999C98.3938 72.9999 98.7437 70.5999 99.4437 68.1999C100.144 65.7999 101.294 63.6499 102.894 61.7499C104.494 59.8499 106.694 58.5999 109.494 57.9999C106.494 56.3999 104.344 54.5999 103.044 52.5999C101.844 50.5999 101.144 48.3999 100.944 45.9999C100.744 43.5999 100.644 41.0999 100.644 38.4999V25.8999C100.644 20.1999 101.894 15.6499 104.394 12.2499C106.994 8.8499 110.344 6.3999 114.444 4.8999C118.644 3.3999 123.094 2.6499 127.794 2.6499H149.094C153.894 2.6499 158.344 3.3999 162.444 4.8999C166.544 6.3999 169.844 8.8499 172.344 12.2499C174.944 15.6499 176.244 20.1999 176.244 25.8999V38.4999C176.244 39.4999 176.144 40.8999 175.944 42.6999C175.744 44.4999 175.344 46.3999 174.744 48.3999C174.144 50.2999 173.244 51.9499 172.044 53.3499C170.844 54.7499 169.244 55.5999 167.244 55.8999C170.744 56.6999 173.244 58.3499 174.744 60.8499C176.344 63.2499 177.344 65.7999 177.744 68.4999C178.244 71.1999 178.494 73.4999 178.494 75.3999V90.2499C178.494 97.5499 177.144 103.05 174.444 106.75C171.744 110.35 168.194 112.8 163.794 114.1C159.394 115.3 154.644 115.9 149.544 115.9H129.294ZM134.544 45.6999H142.344C144.944 45.6999 146.494 45.0999 146.994 43.8999C147.594 42.5999 147.894 40.5499 147.894 37.7499V33.0999C147.894 30.1999 147.294 28.4999 146.094 27.9999C144.994 27.4999 143.744 27.2499 142.344 27.2499H134.544C132.744 27.2499 131.344 27.5499 130.344 28.1499C129.444 28.6499 128.994 30.2999 128.994 33.0999V37.7499C128.994 41.3499 129.394 43.5999 130.194 44.4999C131.094 45.2999 132.544 45.6999 134.544 45.6999ZM134.544 91.2999H142.344C145.644 91.2999 147.644 90.6999 148.344 89.4999C149.044 88.1999 149.394 86.4999 149.394 84.3999V77.3499C149.394 75.3499 148.794 73.6999 147.594 72.3999C146.494 70.9999 144.844 70.2999 142.644 70.2999H134.544C132.144 70.2999 130.344 70.9999 129.144 72.3999C128.044 73.6999 127.494 75.3499 127.494 77.3499V84.3999C127.494 86.9999 127.994 88.7999 128.994 89.7999C130.094 90.7999 131.944 91.2999 134.544 91.2999Z" stroke="#EF8354" stroke-opacity="0.6" stroke-width="4" stroke-linejoin="round"/>
</svg>
