<svg width="182" height="139" viewBox="0 0 182 139" fill="none" xmlns="http://www.w3.org/2000/svg">
<path d="M22.3 22.6L24.0717 23.528L24.0764 23.5188L22.3 22.6ZM40.6 7L39.7595 5.1852L39.7591 5.18538L40.6 7ZM66.1 5.5L65.2742 7.32157L65.2793 7.32384L66.1 5.5ZM72.55 9.09999L70.7611 9.99442C70.7982 10.0686 70.8399 10.1404 70.8859 10.2094L72.55 9.09999ZM73 11.05L71.0201 10.7671V10.7672L73 11.05ZM73 14.2L71.0051 14.3425C71.0504 14.9773 71.3952 15.5526 71.9336 15.8919C72.4719 16.2313 73.1397 16.2942 73.7319 16.0612L73 14.2ZM92.2 21.85L94.0296 21.0421C94.0269 21.0361 94.0242 21.03 94.0215 21.024L92.2 21.85ZM94.9 53.35L96.8839 53.6036C96.8845 53.5987 96.8851 53.5938 96.8857 53.5889L94.9 53.35ZM84.85 87.4L83.0843 86.4608C83.0373 86.5491 82.997 86.6409 82.9637 86.7353L84.85 87.4ZM67.3 116.95L65.7908 115.638C65.7828 115.647 65.7748 115.656 65.767 115.666L67.3 116.95ZM58.6 125.35L57.449 123.714C57.4258 123.731 57.403 123.747 57.3806 123.765L58.6 125.35ZM53.05 128.05L53.4078 126.082C53.1596 126.037 52.9051 126.039 52.6578 126.089L53.05 128.05ZM47.65 129.25L47.1649 127.31C47.1512 127.313 47.1375 127.317 47.1238 127.32L47.65 129.25ZM41.95 130.15V128.15C41.4196 128.15 40.9109 128.361 40.5358 128.736L41.95 130.15ZM41.35 130.6L40.4556 128.811C40.2633 128.907 40.0878 129.034 39.9358 129.186L41.35 130.6ZM41.05 131.05L41.6247 132.966C42.1529 132.807 42.5922 132.438 42.8388 131.944L41.05 131.05ZM36.55 132.4L35.9753 130.484C35.2166 130.712 34.6637 131.366 34.5654 132.152L36.55 132.4ZM32.65 135.7L32.1649 133.76C32.1398 133.766 32.1148 133.773 32.09 133.78L32.65 135.7ZM24.4 136.15L24.1357 138.132L24.1441 138.134L24.4 136.15ZM15.25 133.45L16.0732 131.627C16.0567 131.62 16.0401 131.613 16.0235 131.606L15.25 133.45ZM8.35 127.75L6.52238 128.562C6.55547 128.637 6.59309 128.709 6.63501 128.779L8.35 127.75ZM3.7 114.85L1.73468 115.221C1.73825 115.24 1.74209 115.259 1.7462 115.277L3.7 114.85ZM4.3 74.05L2.32141 73.7581L2.32058 73.7638L4.3 74.05ZM13.9 40.15L15.7291 40.959C15.7328 40.9506 15.7364 40.9422 15.74 40.9337L13.9 40.15ZM50.35 39.55L48.635 38.521C48.6087 38.5649 48.584 38.6098 48.5611 38.6556L50.35 39.55ZM35.5 87.25L33.5213 86.959C33.5202 86.9664 33.5191 86.9738 33.5181 86.9813L35.5 87.25ZM35.05 103.75L33.0595 103.945C33.1599 104.969 34.021 105.75 35.05 105.75V103.75ZM35.35 103.75V105.75C35.8804 105.75 36.3892 105.539 36.7642 105.164L35.35 103.75ZM35.5 103.6L36.9142 105.014C37.0087 104.92 37.0935 104.816 37.1673 104.705L35.5 103.6ZM59.5 51.55L61.4215 52.1049C61.4235 52.0978 61.4255 52.0908 61.4275 52.0838L59.5 51.55ZM61.9 36.1L59.9007 36.1526C59.9012 36.1701 59.9018 36.1876 59.9028 36.2051L61.9 36.1ZM59.95 28.75L61.3015 27.2757C60.5121 26.5521 59.2929 26.5786 58.5358 27.3358L59.95 28.75ZM59.2 29.35L57.4112 30.2444C57.7499 30.922 58.4425 31.35 59.2 31.35V29.35ZM59.05 29.05L60.8388 28.1555C60.7759 28.0296 60.6997 27.9106 60.6117 27.8006L59.05 29.05ZM57.4 28.45L57.1172 26.4701C56.5862 26.5459 56.108 26.8318 55.7899 27.2636L57.4 28.45ZM53.5 34.3L51.785 33.271V33.271L53.5 34.3ZM24.0764 23.5188C25.4246 20.9124 27.6315 18.2583 30.794 15.575L28.206 12.525C24.7685 15.4417 22.1754 18.4875 20.5236 21.6812L24.0764 23.5188ZM30.794 15.575C33.9507 12.8965 37.4971 10.6423 41.4409 8.81462L39.7591 5.18538C35.503 7.15773 31.6493 9.60344 28.206 12.525L30.794 15.575ZM41.4405 8.81479C50.5667 4.58792 58.4415 4.22407 65.2742 7.32156L66.9258 3.67843C58.7585 -0.024086 49.6333 0.612061 39.7595 5.1852L41.4405 8.81479ZM65.2793 7.32384C67.2605 8.21539 68.7372 8.93796 69.7378 9.49639C70.2412 9.77739 70.5827 9.99402 70.794 10.1493C71.0903 10.367 70.9201 10.3124 70.7611 9.99442L74.3389 8.20557C74.0299 7.58759 73.4784 7.15802 73.1623 6.92573C72.7611 6.63097 72.2588 6.32261 71.6872 6.0036C70.5378 5.36203 68.9395 4.58461 66.9207 3.67616L65.2793 7.32384ZM70.8859 10.2094C71.0189 10.4089 71.049 10.5648 71.0201 10.7671L74.9799 11.3329C75.151 10.1352 74.8811 8.99108 74.2141 7.99059L70.8859 10.2094ZM71.0201 10.7672C70.8888 11.6862 70.9028 12.9105 71.0051 14.3425L74.9949 14.0575C74.8972 12.6894 74.9112 11.8138 74.9799 11.3328L71.0201 10.7672ZM73.7319 16.0612C77.8939 14.4245 81.1644 14.3213 83.7347 15.3454C86.2997 16.3674 88.5616 18.6693 90.3785 22.676L94.0215 21.024C91.9384 16.4306 89.0503 13.1575 85.2153 11.6295C81.3856 10.1037 77.0061 10.4755 72.2681 12.3387L73.7319 16.0612ZM90.3704 22.6579C93.5635 29.8892 94.4944 39.9766 92.9143 53.1111L96.8857 53.5889C98.5056 40.1234 97.6365 29.2108 94.0296 21.0421L90.3704 22.6579ZM92.9161 53.0964C91.2392 66.2162 87.9455 77.3216 83.0843 86.4608L86.6158 88.3392C91.7545 78.6784 95.1608 67.0838 96.8839 53.6036L92.9161 53.0964ZM82.9637 86.7353C79.3551 96.9759 73.6412 106.61 65.7908 115.638L68.8092 118.262C76.9588 108.89 82.9449 98.8241 86.7363 88.0647L82.9637 86.7353ZM65.767 115.666C62.7321 119.288 59.958 121.949 57.449 123.714L59.751 126.986C62.642 124.951 65.6679 122.012 68.833 118.234L65.767 115.666ZM57.3806 123.765C56.1327 124.725 55.141 125.36 54.3876 125.727C53.566 126.126 53.3125 126.065 53.4078 126.082L52.6922 130.018C53.8875 130.235 55.109 129.824 56.1374 129.323C57.234 128.79 58.4673 127.975 59.8194 126.935L57.3806 123.765ZM52.6578 126.089C50.6336 126.494 48.8019 126.9 47.1649 127.31L48.1351 131.19C49.6981 130.8 51.4664 130.406 53.4422 130.011L52.6578 126.089ZM47.1238 127.32C45.029 127.892 43.3146 128.15 41.95 128.15V132.15C43.7854 132.15 45.871 131.808 48.1762 131.18L47.1238 127.32ZM40.5358 128.736C40.4942 128.777 40.4652 128.801 40.45 128.812C40.4349 128.824 40.4366 128.821 40.4556 128.811L42.2444 132.389C42.6799 132.171 43.0506 131.878 43.3642 131.564L40.5358 128.736ZM39.9358 129.186C39.6219 129.5 39.4082 129.861 39.2612 130.156L42.8388 131.944C42.8602 131.902 42.8695 131.889 42.8641 131.897C42.8609 131.902 42.852 131.915 42.8367 131.934C42.8215 131.953 42.7977 131.981 42.7642 132.014L39.9358 129.186ZM40.4753 129.134L35.9753 130.484L37.1247 134.316L41.6247 132.966L40.4753 129.134ZM34.5654 132.152C34.5192 132.522 34.259 133.236 32.1649 133.76L33.1351 137.64C35.841 136.964 38.1808 135.478 38.5346 132.648L34.5654 132.152ZM32.09 133.78C30.0121 134.386 27.5488 134.54 24.6559 134.166L24.1441 138.134C27.4512 138.56 30.4879 138.414 33.21 137.62L32.09 133.78ZM24.6643 134.168C21.8796 133.796 19.0173 132.957 16.0732 131.627L14.4268 135.273C17.6827 136.743 20.9204 137.704 24.1357 138.132L24.6643 134.168ZM16.0235 131.606C13.2537 130.444 11.3135 128.802 10.065 126.721L6.63501 128.779C8.38648 131.698 11.0463 133.856 14.4765 135.294L16.0235 131.606ZM10.1776 126.938C7.79629 121.58 6.31056 117.425 5.6538 114.423L1.7462 115.277C2.48944 118.675 4.10371 123.12 6.52238 128.562L10.1776 126.938ZM5.66532 114.479C3.72237 104.182 3.89548 90.8251 6.27942 74.3362L2.32058 73.7638C-0.0954758 90.4749 -0.322366 104.318 1.73468 115.221L5.66532 114.479ZM6.27858 74.3419C8.05448 62.3053 11.2078 51.1809 15.7291 40.959L12.0709 39.341C7.39215 49.9191 4.14552 61.3947 2.32142 73.7581L6.27858 74.3419ZM15.74 40.9337C18.0154 35.5916 20.7914 29.7903 24.0717 23.528L20.5283 21.672C17.2086 28.0097 14.3846 33.9083 12.06 39.3663L15.74 40.9337ZM48.5611 38.6556C41.0626 53.6526 36.051 69.7572 33.5213 86.959L37.4787 87.541C39.949 70.7428 44.8374 55.0474 52.1389 40.4444L48.5611 38.6556ZM33.5181 86.9813C32.7006 93.0109 32.5422 98.6682 33.0595 103.945L37.0405 103.555C36.5578 98.6318 36.6994 93.2891 37.4819 87.5187L33.5181 86.9813ZM35.05 105.75H35.35V101.75H35.05V105.75ZM36.7642 105.164L36.9142 105.014L34.0858 102.186L33.9358 102.336L36.7642 105.164ZM37.1673 104.705C47.881 88.5329 55.966 70.9972 61.4215 52.1049L57.5785 50.9951C52.234 69.5028 44.319 86.6671 33.8327 102.495L37.1673 104.705ZM61.4275 52.0838C63.2478 45.5103 64.1141 40.1154 63.8972 35.9949L59.9028 36.2051C60.0859 39.6846 59.3522 44.5896 57.5725 51.0162L61.4275 52.0838ZM63.8993 36.0474C63.847 34.061 63.65 32.3296 63.2706 30.8996C62.8979 29.4947 62.2994 28.1905 61.3015 27.2757L58.5985 30.2243C58.8006 30.4095 59.1271 30.8803 59.4044 31.9254C59.675 32.9454 59.853 34.339 59.9007 36.1526L63.8993 36.0474ZM58.5358 27.3358C58.355 27.5166 58.2529 27.6064 58.2131 27.6383C58.1904 27.6564 58.228 27.6233 58.3108 27.576C58.3536 27.5516 58.44 27.505 58.561 27.461C58.6708 27.4211 58.8982 27.35 59.2 27.35V31.35C59.7775 31.35 60.1987 31.1042 60.2954 31.049C60.4657 30.9516 60.6096 30.8436 60.7119 30.7617C60.9221 30.5936 61.145 30.3834 61.3642 30.1642L58.5358 27.3358ZM59.2 29.35C60.9888 28.4555 60.9888 28.4555 60.9888 28.4555C60.9888 28.4555 60.9888 28.4555 60.9888 28.4555C60.9888 28.4555 60.9888 28.4555 60.9888 28.4555C60.9888 28.4555 60.9888 28.4555 60.9888 28.4555C60.9888 28.4555 60.9888 28.4555 60.9888 28.4555C60.9888 28.4555 60.9888 28.4555 60.9888 28.4555C60.9888 28.4555 60.9888 28.4555 60.9888 28.4555C60.9888 28.4555 60.9888 28.4555 60.9888 28.4555C60.9888 28.4554 60.9888 28.4554 60.9888 28.4554C60.9888 28.4554 60.9888 28.4554 60.9888 28.4554C60.9888 28.4554 60.9888 28.4554 60.9888 28.4554C60.9888 28.4554 60.9888 28.4554 60.9888 28.4554C60.9887 28.4553 60.9887 28.4553 60.9887 28.4553C60.9887 28.4553 60.9887 28.4553 60.9887 28.4553C60.9887 28.4553 60.9887 28.4553 60.9887 28.4553C60.9887 28.4552 60.9887 28.4552 60.9887 28.4552C60.9887 28.4552 60.9887 28.4552 60.9887 28.4552C60.9887 28.4552 60.9886 28.4551 60.9886 28.4551C60.9886 28.4551 60.9886 28.4551 60.9886 28.4551C60.9886 28.4551 60.9886 28.4551 60.9886 28.455C60.9886 28.455 60.9886 28.455 60.9886 28.455C60.9886 28.455 60.9886 28.455 60.9885 28.4549C60.9885 28.4549 60.9885 28.4549 60.9885 28.4549C60.9885 28.4549 60.9885 28.4548 60.9885 28.4548C60.9885 28.4548 60.9885 28.4548 60.9885 28.4548C60.9884 28.4548 60.9884 28.4547 60.9884 28.4547C60.9884 28.4547 60.9884 28.4547 60.9884 28.4547C60.9884 28.4546 60.9884 28.4546 60.9884 28.4546C60.9884 28.4546 60.9883 28.4545 60.9883 28.4545C60.9883 28.4545 60.9883 28.4545 60.9883 28.4544C60.9883 28.4544 60.9883 28.4544 60.9883 28.4544C60.9883 28.4543 60.9882 28.4543 60.9882 28.4543C60.9882 28.4543 60.9882 28.4542 60.9882 28.4542C60.9882 28.4542 60.9882 28.4542 60.9881 28.4541C60.9881 28.4541 60.9881 28.4541 60.9881 28.4541C60.9881 28.454 60.9881 28.454 60.9881 28.454C60.988 28.4539 60.988 28.4539 60.988 28.4539C60.988 28.4539 60.988 28.4538 60.988 28.4538C60.988 28.4538 60.9879 28.4537 60.9879 28.4537C60.9879 28.4537 60.9879 28.4537 60.9879 28.4536C60.9879 28.4536 60.9879 28.4536 60.9878 28.4535C60.9878 28.4535 60.9878 28.4535 60.9878 28.4534C60.9878 28.4534 60.9878 28.4534 60.9877 28.4533C60.9877 28.4533 60.9877 28.4533 60.9877 28.4532C60.9877 28.4532 60.9877 28.4532 60.9876 28.4531C60.9876 28.4531 60.9876 28.453 60.9876 28.453C60.9876 28.453 60.9875 28.4529 60.9875 28.4529C60.9875 28.4529 60.9875 28.4528 60.9875 28.4528C60.9875 28.4528 60.9874 28.4527 60.9874 28.4527C60.9874 28.4526 60.9874 28.4526 60.9874 28.4526C60.9873 28.4525 60.9873 28.4525 60.9873 28.4525C60.9873 28.4524 60.9873 28.4524 60.9872 28.4523C60.9872 28.4523 60.9872 28.4522 60.9872 28.4522C60.9872 28.4522 60.9871 28.4521 60.9871 28.4521C60.9871 28.452 60.9871 28.452 60.9871 28.452C60.987 28.4519 60.987 28.4519 60.987 28.4518C60.987 28.4518 60.9869 28.4517 60.9869 28.4517C60.9869 28.4517 60.9869 28.4516 60.9869 28.4516C60.9868 28.4515 60.9868 28.4515 60.9868 28.4514C60.9868 28.4514 60.9867 28.4513 60.9867 28.4513C60.9867 28.4512 60.9867 28.4512 60.9866 28.4511C60.9866 28.4511 60.9866 28.451 60.9866 28.451C60.9866 28.451 60.9865 28.4509 60.9865 28.4509C60.9865 28.4508 60.9865 28.4508 60.9864 28.4507C60.9864 28.4507 60.9864 28.4506 60.9864 28.4506C60.9863 28.4505 60.9863 28.4505 60.9863 28.4504C60.9863 28.4504 60.9862 28.4503 60.9862 28.4503C60.9862 28.4502 60.9861 28.4501 60.9861 28.4501C60.9861 28.45 60.9861 28.45 60.986 28.4499C60.986 28.4499 60.986 28.4498 60.986 28.4498C60.9859 28.4497 60.9859 28.4497 60.9859 28.4496C60.9859 28.4496 60.9858 28.4495 60.9858 28.4494C60.9858 28.4494 60.9857 28.4493 60.9857 28.4493C60.9857 28.4492 60.9857 28.4492 60.9856 28.4491C60.9856 28.4491 60.9856 28.449 60.9855 28.4489C60.9855 28.4489 60.9855 28.4488 60.9855 28.4488C60.9854 28.4487 60.9854 28.4486 60.9854 28.4486C60.9853 28.4485 60.9853 28.4485 60.9853 28.4484C60.9852 28.4483 60.9852 28.4483 60.9852 28.4482C60.9852 28.4482 60.9851 28.4481 60.9851 28.448C60.9851 28.448 60.985 28.4479 60.985 28.4479C60.985 28.4478 60.9849 28.4477 60.9849 28.4477C60.9849 28.4476 60.9848 28.4475 60.9848 28.4475C60.9848 28.4474 60.9847 28.4473 60.9847 28.4473C60.9847 28.4472 60.9846 28.4471 60.9846 28.4471C60.9846 28.447 60.9846 28.4469 60.9845 28.4469C60.9845 28.4468 60.9845 28.4467 60.9844 28.4467C60.9844 28.4466 60.9843 28.4465 60.9843 28.4465C60.9843 28.4464 60.9842 28.4463 60.9842 28.4463C60.9842 28.4462 60.9841 28.4461 60.9841 28.4461C60.9841 28.446 60.984 28.4459 60.984 28.4459C60.984 28.4458 60.9839 28.4457 60.9839 28.4456C60.9839 28.4456 60.9838 28.4455 60.9838 28.4454C60.9838 28.4454 60.9837 28.4453 60.9837 28.4452C60.9836 28.4451 60.9836 28.4451 60.9836 28.445C60.9835 28.4449 60.9835 28.4448 60.9835 28.4448C60.9834 28.4447 60.9834 28.4446 60.9834 28.4446C60.9833 28.4445 60.9833 28.4444 60.9832 28.4443C60.9832 28.4443 60.9832 28.4442 60.9831 28.4441C60.9831 28.444 60.983 28.4439 60.983 28.4439C60.983 28.4438 60.9829 28.4437 60.9829 28.4436C60.9829 28.4436 60.9828 28.4435 60.9828 28.4434C60.9827 28.4433 60.9827 28.4432 60.9827 28.4432C60.9826 28.4431 60.9826 28.443 60.9825 28.4429C60.9825 28.4428 60.9825 28.4428 60.9824 28.4427C60.9824 28.4426 60.9823 28.4425 60.9823 28.4424C60.9823 28.4424 60.9822 28.4423 60.9822 28.4422C60.9821 28.4421 60.9821 28.442 60.982 28.4419C60.982 28.4419 60.982 28.4418 60.9819 28.4417C60.9819 28.4416 60.9818 28.4415 60.9818 28.4414C60.9818 28.4414 60.9817 28.4413 60.9817 28.4412C60.9816 28.4411 60.9816 28.441 60.9815 28.4409C60.9815 28.4408 60.9815 28.4408 60.9814 28.4407C60.9814 28.4406 60.9813 28.4405 60.9813 28.4404C60.9812 28.4403 60.9812 28.4402 60.9811 28.4401C60.9811 28.4401 60.9811 28.44 60.981 28.4399C60.981 28.4398 60.9809 28.4397 60.9809 28.4396C60.9808 28.4395 60.9808 28.4394 60.9807 28.4393C60.9807 28.4392 60.9807 28.4392 60.9806 28.4391C60.9806 28.439 60.9805 28.4389 60.9805 28.4388C60.9804 28.4387 60.9804 28.4386 60.9803 28.4385C60.9803 28.4384 60.9802 28.4383 60.9802 28.4382C60.9801 28.4381 60.9801 28.438 60.98 28.438C60.98 28.4379 60.98 28.4378 60.9799 28.4377C60.9799 28.4376 60.9798 28.4375 60.9798 28.4374C60.9797 28.4373 60.9797 28.4372 60.9796 28.4371C60.9796 28.437 60.9795 28.4369 60.9795 28.4368C60.9794 28.4367 60.9794 28.4366 60.9793 28.4365C60.9793 28.4364 60.9792 28.4363 60.9792 28.4362C60.9791 28.4361 60.9791 28.436 60.979 28.4359C60.979 28.4358 60.9789 28.4357 60.9789 28.4356C60.9788 28.4355 60.9788 28.4354 60.9787 28.4353C60.9787 28.4352 60.9786 28.4351 60.9786 28.435C60.9785 28.4349 60.9785 28.4348 60.9784 28.4347C60.9784 28.4346 60.9783 28.4345 60.9783 28.4344C60.9782 28.4343 60.9782 28.4342 60.9781 28.4341C60.9781 28.434 60.978 28.4339 60.978 28.4338C60.9779 28.4336 60.9778 28.4335 60.9778 28.4334C60.9777 28.4333 60.9777 28.4332 60.9776 28.4331C60.9776 28.433 60.9775 28.4329 60.9775 28.4328C60.9774 28.4327 60.9774 28.4326 60.9773 28.4325C60.9773 28.4324 60.9772 28.4323 60.9771 28.4321C60.9771 28.432 60.977 28.4319 60.977 28.4318C60.9769 28.4317 60.9769 28.4316 60.9768 28.4315C60.9768 28.4314 60.9767 28.4313 60.9767 28.4312C60.9766 28.431 60.9765 28.4309 60.9765 28.4308C60.9764 28.4307 60.9764 28.4306 60.9763 28.4305C60.9763 28.4304 60.9762 28.4303 60.9761 28.4301C60.9761 28.43 60.976 28.4299 60.976 28.4298C60.9759 28.4297 60.9759 28.4296 60.9758 28.4295C60.9757 28.4293 60.9757 28.4292 60.9756 28.4291C60.9756 28.429 60.9755 28.4289 60.9755 28.4288C60.9754 28.4286 60.9753 28.4285 60.9753 28.4284C60.9752 28.4283 60.9752 28.4282 60.9751 28.428C60.975 28.4279 60.975 28.4278 60.9749 28.4277C60.9749 28.4276 60.9748 28.4275 60.9747 28.4273C60.9747 28.4272 60.9746 28.4271 60.9746 28.427C60.9745 28.4269 60.9744 28.4267 60.9744 28.4266C60.9743 28.4265 60.9743 28.4264 60.9742 28.4262C60.9741 28.4261 60.9741 28.426 60.974 28.4259C60.974 28.4258 60.9739 28.4256 60.9738 28.4255C60.9738 28.4254 60.9737 28.4253 60.9736 28.4251C60.9736 28.425 60.9735 28.4249 60.9735 28.4248C60.9734 28.4246 60.9733 28.4245 60.9733 28.4244C60.9732 28.4243 60.9731 28.4241 60.9731 28.424C60.973 28.4239 60.973 28.4238 60.9729 28.4236C60.9728 28.4235 60.9728 28.4234 60.9727 28.4232C60.9726 28.4231 60.9726 28.423 60.9725 28.4229C60.9724 28.4227 60.9724 28.4226 60.9723 28.4225C60.9722 28.4223 60.9722 28.4222 60.9721 28.4221C60.972 28.422 60.972 28.4218 60.9719 28.4217C60.9719 28.4216 60.9718 28.4214 60.9717 28.4213C60.9717 28.4212 60.9716 28.421 60.9715 28.4209C60.9715 28.4208 60.9714 28.4206 60.9713 28.4205C60.9713 28.4204 60.9712 28.4202 60.9711 28.4201C60.9711 28.42 60.971 28.4198 60.9709 28.4197C60.9709 28.4196 60.9708 28.4194 60.9707 28.4193C60.9706 28.4192 60.9706 28.419 60.9705 28.4189C60.9704 28.4187 60.9704 28.4186 60.9703 28.4185C60.9702 28.4183 60.9702 28.4182 60.9701 28.4181C60.97 28.4179 60.97 28.4178 60.9699 28.4176C60.9698 28.4175 60.9698 28.4174 60.9697 28.4172C60.9696 28.4171 60.9695 28.4169 60.9695 28.4168C60.9694 28.4167 60.9693 28.4165 60.9693 28.4164C60.9692 28.4162 60.9691 28.4161 60.9691 28.416C60.969 28.4158 60.9689 28.4157 60.9688 28.4155C60.9688 28.4154 60.9687 28.4152 60.9686 28.4151C60.9686 28.415 60.9685 28.4148 60.9684 28.4147C60.9683 28.4145 60.9683 28.4144 60.9682 28.4142C60.9681 28.4141 60.968 28.4139 60.968 28.4138C60.9679 28.4137 60.9678 28.4135 60.9678 28.4134C60.9677 28.4132 60.9676 28.4131 60.9675 28.4129C60.9675 28.4128 60.9674 28.4126 60.9673 28.4125C60.9672 28.4123 60.9672 28.4122 60.9671 28.412C60.967 28.4119 60.9669 28.4117 60.9669 28.4116C60.9668 28.4114 60.9667 28.4113 60.9666 28.4111C60.9666 28.411 60.9665 28.4108 60.9664 28.4107C60.9663 28.4105 60.9663 28.4104 60.9662 28.4102C60.9661 28.4101 60.966 28.4099 60.966 28.4098C60.9659 28.4096 60.9658 28.4095 60.9657 28.4093C60.9657 28.4092 60.9656 28.409 60.9655 28.4089C60.9654 28.4087 60.9653 28.4085 60.9653 28.4084C60.9652 28.4082 60.9651 28.4081 60.965 28.4079C60.965 28.4078 60.9649 28.4076 60.9648 28.4074C60.9647 28.4073 60.9646 28.4071 60.9646 28.407C60.9645 28.4068 60.9644 28.4067 60.9643 28.4065C60.9642 28.4063 60.9642 28.4062 60.9641 28.406C60.964 28.4059 60.9639 28.4057 60.9639 28.4056C60.9638 28.4054 60.9637 28.4052 60.9636 28.4051C60.9635 28.4049 60.9635 28.4048 60.9634 28.4046C60.9633 28.4044 60.9632 28.4043 60.9631 28.4041C60.963 28.4039 60.963 28.4038 60.9629 28.4036C60.9628 28.4035 60.9627 28.4033 60.9626 28.4031C60.9626 28.403 60.9625 28.4028 60.9624 28.4026C60.9623 28.4025 60.9622 28.4023 60.9622 28.4022C60.9621 28.402 60.962 28.4018 60.9619 28.4017C60.9618 28.4015 60.9617 28.4013 60.9617 28.4012C60.9616 28.401 60.9615 28.4008 60.9614 28.4007C60.9613 28.4005 60.9612 28.4003 60.9612 28.4002C60.9611 28.4 60.961 28.3998 60.9609 28.3997C60.9608 28.3995 60.9607 28.3993 60.9606 28.3991C60.9606 28.399 60.9605 28.3988 60.9604 28.3986C60.9603 28.3985 60.9602 28.3983 60.9601 28.3981C60.96 28.3979 60.96 28.3978 60.9599 28.3976C60.9598 28.3974 60.9597 28.3973 60.9596 28.3971C60.9595 28.3969 60.9594 28.3968 60.9594 28.3966C60.9593 28.3964 60.9592 28.3962 60.9591 28.3961C60.959 28.3959 60.9589 28.3957 60.9588 28.3955C60.9588 28.3954 60.9587 28.3952 60.9586 28.395C60.9585 28.3948 60.9584 28.3947 60.9583 28.3945C60.9582 28.3943 60.9581 28.3941 60.958 28.394C60.958 28.3938 60.9579 28.3936 60.9578 28.3934C60.9577 28.3932 60.9576 28.3931 60.9575 28.3929C60.9574 28.3927 60.9573 28.3925 60.9572 28.3923C60.9572 28.3922 60.9571 28.392 60.957 28.3918C60.9569 28.3916 60.9568 28.3914 60.9567 28.3913C60.9566 28.3911 60.9565 28.3909 60.9564 28.3907C60.9563 28.3905 60.9563 28.3904 60.9562 28.3902C60.9561 28.39 60.956 28.3898 60.9559 28.3896C60.9558 28.3894 60.9557 28.3893 60.9556 28.3891C60.9555 28.3889 60.9554 28.3887 60.9553 28.3885C60.9552 28.3883 60.9552 28.3882 60.9551 28.388C60.955 28.3878 60.9549 28.3876 60.9548 28.3874C60.9547 28.3872 60.9546 28.387 60.9545 28.3868C60.9544 28.3867 60.9543 28.3865 60.9542 28.3863C60.9541 28.3861 60.954 28.3859 60.9539 28.3857C60.9538 28.3855 60.9537 28.3853 60.9537 28.3852C60.9536 28.385 60.9535 28.3848 60.9534 28.3846C60.9533 28.3844 60.9532 28.3842 60.9531 28.384C60.953 28.3838 60.9529 28.3836 60.9528 28.3834C60.9527 28.3833 60.9526 28.3831 60.9525 28.3829C60.9524 28.3827 60.9523 28.3825 60.9522 28.3823C60.9521 28.3821 60.952 28.3819 60.9519 28.3817C60.9518 28.3815 60.9517 28.3813 60.9516 28.3811C60.9515 28.3809 60.9514 28.3807 60.9513 28.3805C60.9512 28.3803 60.9512 28.3802 60.9511 28.38C60.951 28.3798 60.9509 28.3796 60.9508 28.3794C60.9507 28.3792 60.9506 28.379 60.9505 28.3788C60.9504 28.3786 60.9503 28.3784 60.9502 28.3782C60.9501 28.378 60.95 28.3778 60.9499 28.3776C60.9498 28.3774 60.9497 28.3772 60.9496 28.377C60.9495 28.3768 60.9494 28.3766 60.9493 28.3764C60.9492 28.3762 60.9491 28.376 60.949 28.3758C60.9489 28.3756 60.9488 28.3754 60.9487 28.3752C60.9486 28.375 60.9485 28.3748 60.9484 28.3746C60.9483 28.3744 60.9482 28.3742 60.9481 28.374C60.948 28.3738 60.9478 28.3736 60.9478 28.3734C60.9476 28.3731 60.9475 28.3729 60.9474 28.3727C60.9473 28.3725 60.9472 28.3723 60.9471 28.3721C60.947 28.3719 60.9469 28.3717 60.9468 28.3715C60.9467 28.3713 60.9466 28.3711 60.9465 28.3709C60.9464 28.3707 60.9463 28.3705 60.9462 28.3703C60.9461 28.37 60.946 28.3698 60.9459 28.3696C60.9458 28.3694 60.9457 28.3692 60.9456 28.369C60.9455 28.3688 60.9454 28.3686 60.9453 28.3684C60.9452 28.3682 60.945 28.368 60.9449 28.3677C60.9448 28.3675 60.9447 28.3673 60.9446 28.3671C60.9445 28.3669 60.9444 28.3667 60.9443 28.3665C60.9442 28.3662 60.9441 28.366 60.944 28.3658C60.9439 28.3656 60.9438 28.3654 60.9437 28.3652C60.9436 28.365 60.9435 28.3648 60.9433 28.3645C60.9432 28.3643 60.9431 28.3641 60.943 28.3639C60.9429 28.3637 60.9428 28.3635 60.9427 28.3632C60.9426 28.363 60.9425 28.3628 60.9424 28.3626C60.9423 28.3624 60.9422 28.3622 60.942 28.3619C60.9419 28.3617 60.9418 28.3615 60.9417 28.3613C60.9416 28.3611 60.9415 28.3608 60.9414 28.3606C60.9413 28.3604 60.9412 28.3602 60.9411 28.36C60.9409 28.3597 60.9408 28.3595 60.9407 28.3593C60.9406 28.3591 60.9405 28.3589 60.9404 28.3586C60.9403 28.3584 60.9402 28.3582 60.9401 28.358C60.9399 28.3577 60.9398 28.3575 60.9397 28.3573C60.9396 28.3571 60.9395 28.3568 60.9394 28.3566C60.9393 28.3564 60.9392 28.3562 60.939 28.356C60.9389 28.3557 60.9388 28.3555 60.9387 28.3553C60.9386 28.355 60.9385 28.3548 60.9384 28.3546C60.9383 28.3544 60.9381 28.3541 60.938 28.3539C60.9379 28.3537 60.9378 28.3535 60.9377 28.3532C60.9376 28.353 60.9375 28.3528 60.9373 28.3525C60.9372 28.3523 60.9371 28.3521 60.937 28.3519C60.9369 28.3516 60.9368 28.3514 60.9367 28.3512C60.9365 28.3509 60.9364 28.3507 60.9363 28.3505C60.9362 28.3503 60.9361 28.35 60.936 28.3498C60.9358 28.3496 60.9357 28.3493 60.9356 28.3491C60.9355 28.3489 60.9354 28.3486 60.9353 28.3484C60.9352 28.3482 60.935 28.3479 60.9349 28.3477C60.9348 28.3475 60.9347 28.3472 60.9346 28.347C60.9344 28.3467 60.9343 28.3465 60.9342 28.3463C60.9341 28.346 60.934 28.3458 60.9339 28.3456C60.9337 28.3453 60.9336 28.3451 60.9335 28.3449C60.9334 28.3446 60.9333 28.3444 60.9331 28.3441C60.933 28.3439 60.9329 28.3437 60.9328 28.3434C60.9327 28.3432 60.9325 28.3429 60.9324 28.3427C60.9323 28.3425 60.9322 28.3422 60.9321 28.342C60.9319 28.3418 60.9318 28.3415 60.9317 28.3413C60.9316 28.341 60.9315 28.3408 60.9313 28.3405C60.9312 28.3403 60.9311 28.3401 60.931 28.3398C60.9309 28.3396 60.9307 28.3393 60.9306 28.3391C60.9305 28.3388 60.9304 28.3386 60.9303 28.3384C60.9301 28.3381 60.93 28.3379 60.9299 28.3376C60.9298 28.3374 60.9296 28.3371 60.9295 28.3369C60.9294 28.3366 60.9293 28.3364 60.9291 28.3362C60.929 28.3359 60.9289 28.3357 60.9288 28.3354C60.9287 28.3352 60.9285 28.3349 60.9284 28.3347C60.9283 28.3344 60.9282 28.3342 60.928 28.3339C60.9279 28.3337 60.9278 28.3334 60.9277 28.3332C60.9275 28.3329 60.9274 28.3327 60.9273 28.3324C60.9272 28.3322 60.927 28.3319 60.9269 28.3317C60.9268 28.3314 60.9267 28.3312 60.9265 28.3309C60.9264 28.3307 60.9263 28.3304 60.9262 28.3302C60.926 28.3299 60.9259 28.3297 60.9258 28.3294C60.9256 28.3292 60.9255 28.3289 60.9254 28.3286C60.9253 28.3284 60.9251 28.3281 60.925 28.3279C60.9249 28.3276 60.9248 28.3274 60.9246 28.3271C60.9245 28.3269 60.9244 28.3266 60.9242 28.3263C60.9241 28.3261 60.924 28.3258 60.9239 28.3256C60.9237 28.3253 60.9236 28.3251 60.9235 28.3248C60.9233 28.3245 60.9232 28.3243 60.9231 28.324C60.923 28.3238 60.9228 28.3235 60.9227 28.3232C60.9226 28.323 60.9224 28.3227 60.9223 28.3225C60.9222 28.3222 60.9221 28.322 60.9219 28.3217C60.9218 28.3214 60.9217 28.3212 60.9215 28.3209C60.9214 28.3206 60.9213 28.3204 60.9211 28.3201C60.921 28.3199 60.9209 28.3196 60.9207 28.3193C60.9206 28.3191 60.9205 28.3188 60.9203 28.3185C60.9202 28.3183 60.9201 28.318 60.9199 28.3177C60.9198 28.3175 60.9197 28.3172 60.9195 28.317C60.9194 28.3167 60.9193 28.3164 60.9192 28.3162C60.919 28.3159 60.9189 28.3156 60.9188 28.3154C60.9186 28.3151 60.9185 28.3148 60.9184 28.3146C60.9182 28.3143 60.9181 28.314 60.9179 28.3138C60.9178 28.3135 60.9177 28.3132 60.9175 28.3129C60.9174 28.3127 60.9173 28.3124 60.9171 28.3121C60.917 28.3119 60.9169 28.3116 60.9167 28.3113C60.9166 28.3111 60.9165 28.3108 60.9163 28.3105C60.9162 28.3102 60.9161 28.31 60.9159 28.3097C60.9158 28.3094 60.9156 28.3092 60.9155 28.3089C60.9154 28.3086 60.9152 28.3083 60.9151 28.3081C60.915 28.3078 60.9148 28.3075 60.9147 28.3072C60.9146 28.307 60.9144 28.3067 60.9143 28.3064C60.9141 28.3061 60.914 28.3059 60.9139 28.3056C60.9137 28.3053 60.9136 28.305 60.9134 28.3047C60.9133 28.3045 60.9132 28.3042 60.913 28.3039C60.9129 28.3036 60.9128 28.3034 60.9126 28.3031C60.9125 28.3028 60.9123 28.3025 60.9122 28.3022C60.9121 28.302 60.9119 28.3017 60.9118 28.3014C60.9116 28.3011 60.9115 28.3008 60.9114 28.3006C60.9112 28.3003 60.9111 28.3 60.9109 28.2997C60.9108 28.2994 60.9107 28.2992 60.9105 28.2989C60.9104 28.2986 60.9102 28.2983 60.9101 28.298C60.9099 28.2977 60.9098 28.2975 60.9097 28.2972C60.9095 28.2969 60.9094 28.2966 60.9092 28.2963C60.9091 28.296 60.909 28.2958 60.9088 28.2955C60.9087 28.2952 60.9085 28.2949 60.9084 28.2946C60.9082 28.2943 60.9081 28.294 60.908 28.2938C60.9078 28.2935 60.9077 28.2932 60.9075 28.2929C60.9074 28.2926 60.9072 28.2923 60.9071 28.292C60.9069 28.2917 60.9068 28.2915 60.9067 28.2912C60.9065 28.2909 60.9064 28.2906 60.9062 28.2903C60.9061 28.29 60.9059 28.2897 60.9058 28.2894C60.9056 28.2891 60.9055 28.2888 60.9053 28.2886C60.9052 28.2883 60.9051 28.288 60.9049 28.2877C60.9048 28.2874 60.9046 28.2871 60.9045 28.2868C60.9043 28.2865 60.9042 28.2862 60.904 28.2859C60.9039 28.2856 60.9037 28.2853 60.9036 28.285C60.9034 28.2847 60.9033 28.2844 60.9031 28.2841C60.903 28.2839 60.9029 28.2836 60.9027 28.2833C60.9026 28.283 60.9024 28.2827 60.9023 28.2824C60.9021 28.2821 60.902 28.2818 60.9018 28.2815C60.9017 28.2812 60.9015 28.2809 60.9014 28.2806C60.9012 28.2803 60.9011 28.28 60.9009 28.2797C60.9008 28.2794 60.9006 28.2791 60.9005 28.2788C60.9003 28.2785 60.9002 28.2782 60.9 28.2779C60.8999 28.2776 60.8997 28.2773 60.8996 28.277C60.8994 28.2767 60.8993 28.2764 60.8991 28.2761C60.899 28.2758 60.8988 28.2755 60.8987 28.2752C60.8985 28.2749 60.8984 28.2746 60.8982 28.2743C60.8981 28.274 60.8979 28.2737 60.8978 28.2734C60.8976 28.273 60.8974 28.2727 60.8973 28.2724C60.8971 28.2721 60.897 28.2718 60.8968 28.2715C60.8967 28.2712 60.8965 28.2709 60.8964 28.2706C60.8962 28.2703 60.8961 28.27 60.8959 28.2697C60.8958 28.2694 60.8956 28.2691 60.8955 28.2688C60.8953 28.2685 60.8951 28.2681 60.895 28.2678C60.8948 28.2675 60.8947 28.2672 60.8945 28.2669C60.8944 28.2666 60.8942 28.2663 60.8941 28.266C60.8939 28.2657 60.8937 28.2654 60.8936 28.265C60.8934 28.2647 60.8933 28.2644 60.8931 28.2641C60.893 28.2638 60.8928 28.2635 60.8927 28.2632C60.8925 28.2629 60.8923 28.2625 60.8922 28.2622C60.892 28.2619 60.8919 28.2616 60.8917 28.2613C60.8916 28.261 60.8914 28.2607 60.8912 28.2603C60.8911 28.26 60.8909 28.2597 60.8908 28.2594C60.8906 28.2591 60.8905 28.2588 60.8903 28.2585C60.8901 28.2581 60.89 28.2578 60.8898 28.2575C60.8897 28.2572 60.8895 28.2569 60.8893 28.2565C60.8892 28.2562 60.889 28.2559 60.8889 28.2556C60.8887 28.2553 60.8885 28.255 60.8884 28.2546C60.8882 28.2543 60.8881 28.254 60.8879 28.2537C60.8877 28.2533 60.8876 28.253 60.8874 28.2527C60.8873 28.2524 60.8871 28.2521 60.8869 28.2517C60.8868 28.2514 60.8866 28.2511 60.8865 28.2508C60.8863 28.2505 60.8861 28.2501 60.886 28.2498C60.8858 28.2495 60.8857 28.2492 60.8855 28.2488C60.8853 28.2485 60.8852 28.2482 60.885 28.2479C60.8848 28.2475 60.8847 28.2472 60.8845 28.2469C60.8844 28.2466 60.8842 28.2462 60.884 28.2459C60.8839 28.2456 60.8837 28.2453 60.8835 28.2449C60.8834 28.2446 60.8832 28.2443 60.883 28.2439C60.8829 28.2436 60.8827 28.2433 60.8826 28.243C60.8824 28.2426 60.8822 28.2423 60.8821 28.242C60.8819 28.2416 60.8817 28.2413 60.8816 28.241C60.8814 28.2407 60.8812 28.2403 60.8811 28.24C60.8809 28.2397 60.8807 28.2393 60.8806 28.239C60.8804 28.2387 60.8802 28.2383 60.8801 28.238C60.8799 28.2377 60.8797 28.2373 60.8796 28.237C60.8794 28.2367 60.8792 28.2363 60.8791 28.236C60.8789 28.2357 60.8787 28.2353 60.8786 28.235C60.8784 28.2347 60.8782 28.2343 60.8781 28.234C60.8779 28.2337 60.8777 28.2333 60.8776 28.233C60.8774 28.2326 60.8772 28.2323 60.8771 28.232C60.8769 28.2316 60.8767 28.2313 60.8765 28.231C60.8764 28.2306 60.8762 28.2303 60.876 28.2299C60.8759 28.2296 60.8757 28.2293 60.8755 28.2289C60.8754 28.2286 60.8752 28.2282 60.875 28.2279C60.8749 28.2276 60.8747 28.2272 60.8745 28.2269C60.8743 28.2265 60.8742 28.2262 60.874 28.2259C60.8738 28.2255 60.8737 28.2252 60.8735 28.2248C60.8733 28.2245 60.8731 28.2242 60.873 28.2238C60.8728 28.2235 60.8726 28.2231 60.8725 28.2228C60.8723 28.2224 60.8721 28.2221 60.8719 28.2217C60.8718 28.2214 60.8716 28.221 60.8714 28.2207C60.8713 28.2204 60.8711 28.22 60.8709 28.2197C60.8707 28.2193 60.8706 28.219 60.8704 28.2186C60.8702 28.2183 60.87 28.2179 60.8699 28.2176C60.8697 28.2172 60.8695 28.2169 60.8693 28.2165C60.8692 28.2162 60.869 28.2158 60.8688 28.2155C60.8686 28.2151 60.8685 28.2148 60.8683 28.2144C60.8681 28.2141 60.8679 28.2137 60.8678 28.2134C60.8676 28.213 60.8674 28.2127 60.8672 28.2123C60.8671 28.212 60.8669 28.2116 60.8667 28.2113C60.8665 28.2109 60.8664 28.2106 60.8662 28.2102C60.866 28.2099 60.8658 28.2095 60.8657 28.2092C60.8655 28.2088 60.8653 28.2085 60.8651 28.2081C60.8649 28.2077 60.8648 28.2074 60.8646 28.207C60.8644 28.2067 60.8642 28.2063 60.8641 28.206C60.8639 28.2056 60.8637 28.2053 60.8635 28.2049C60.8633 28.2045 60.8632 28.2042 60.863 28.2038C60.8628 28.2035 60.8626 28.2031 60.8624 28.2028C60.8623 28.2024 60.8621 28.202 60.8619 28.2017C60.8617 28.2013 60.8615 28.201 60.8614 28.2006C60.8612 28.2002 60.861 28.1999 60.8608 28.1995C60.8606 28.1992 60.8605 28.1988 60.8603 28.1984C60.8601 28.1981 60.8599 28.1977 60.8597 28.1973C60.8596 28.197 60.8594 28.1966 60.8592 28.1963C60.859 28.1959 60.8588 28.1955 60.8587 28.1952C60.8585 28.1948 60.8583 28.1944 60.8581 28.1941C60.8579 28.1937 60.8577 28.1933 60.8576 28.193C60.8574 28.1926 60.8572 28.1922 60.857 28.1919C60.8568 28.1915 60.8566 28.1911 60.8565 28.1908C60.8563 28.1904 60.8561 28.19 60.8559 28.1897C60.8557 28.1893 60.8555 28.1889 60.8554 28.1886C60.8552 28.1882 60.855 28.1878 60.8548 28.1875C60.8546 28.1871 60.8544 28.1867 60.8542 28.1864C60.8541 28.186 60.8539 28.1856 60.8537 28.1852C60.8535 28.1849 60.8533 28.1845 60.8531 28.1841C60.853 28.1838 60.8528 28.1834 60.8526 28.183C60.8524 28.1826 60.8522 28.1823 60.852 28.1819C60.8518 28.1815 60.8516 28.1812 60.8515 28.1808C60.8513 28.1804 60.8511 28.18 60.8509 28.1796C60.8507 28.1793 60.8505 28.1789 60.8503 28.1785C60.8501 28.1782 60.85 28.1778 60.8498 28.1774C60.8496 28.177 60.8494 28.1767 60.8492 28.1763C60.849 28.1759 60.8488 28.1755 60.8486 28.1751C60.8484 28.1748 60.8483 28.1744 60.8481 28.174C60.8479 28.1736 60.8477 28.1732 60.8475 28.1729C60.8473 28.1725 60.8471 28.1721 60.8469 28.1717C60.8467 28.1713 60.8466 28.171 60.8464 28.1706C60.8462 28.1702 60.846 28.1698 60.8458 28.1694C60.8456 28.1691 60.8454 28.1687 60.8452 28.1683C60.845 28.1679 60.8448 28.1675 60.8446 28.1672C60.8445 28.1668 60.8443 28.1664 60.8441 28.166C60.8439 28.1656 60.8437 28.1652 60.8435 28.1648C60.8433 28.1645 60.8431 28.1641 60.8429 28.1637C60.8427 28.1633 60.8425 28.1629 60.8423 28.1625C60.8421 28.1622 60.842 28.1618 60.8418 28.1614C60.8416 28.161 60.8414 28.1606 60.8412 28.1602C60.841 28.1598 60.8408 28.1594 60.8406 28.159C60.8404 28.1587 60.8402 28.1583 60.84 28.1579C60.8398 28.1575 60.8396 28.1571 60.8394 28.1567C60.8392 28.1563 60.839 28.1559 60.8388 28.1555L57.2612 29.9444C57.2614 29.9448 57.2615 29.9452 57.2617 29.9456C57.2619 29.946 57.2621 29.9464 57.2623 29.9468C57.2625 29.9472 57.2627 29.9476 57.2629 29.948C57.2631 29.9483 57.2633 29.9487 57.2635 29.9491C57.2637 29.9495 57.2639 29.9499 57.2641 29.9503C57.2643 29.9507 57.2645 29.951 57.2647 29.9514C57.2648 29.9518 57.265 29.9522 57.2652 29.9526C57.2654 29.953 57.2656 29.9534 57.2658 29.9538C57.266 29.9541 57.2662 29.9545 57.2664 29.9549C57.2666 29.9553 57.2668 29.9557 57.267 29.956C57.2672 29.9564 57.2673 29.9568 57.2675 29.9572C57.2677 29.9576 57.2679 29.958 57.2681 29.9583C57.2683 29.9587 57.2685 29.9591 57.2687 29.9595C57.2689 29.9599 57.2691 29.9603 57.2692 29.9606C57.2694 29.961 57.2696 29.9614 57.2698 29.9618C57.27 29.9621 57.2702 29.9625 57.2704 29.9629C57.2706 29.9633 57.2708 29.9637 57.271 29.964C57.2711 29.9644 57.2713 29.9648 57.2715 29.9652C57.2717 29.9655 57.2719 29.9659 57.2721 29.9663C57.2723 29.9667 57.2725 29.967 57.2726 29.9674C57.2728 29.9678 57.273 29.9682 57.2732 29.9686C57.2734 29.9689 57.2736 29.9693 57.2738 29.9697C57.274 29.97 57.2741 29.9704 57.2743 29.9708C57.2745 29.9712 57.2747 29.9715 57.2749 29.9719C57.2751 29.9723 57.2753 29.9727 57.2754 29.973C57.2756 29.9734 57.2758 29.9738 57.276 29.9741C57.2762 29.9745 57.2764 29.9749 57.2766 29.9753C57.2767 29.9756 57.2769 29.976 57.2771 29.9764C57.2773 29.9767 57.2775 29.9771 57.2777 29.9775C57.2779 29.9778 57.278 29.9782 57.2782 29.9786C57.2784 29.9789 57.2786 29.9793 57.2788 29.9797C57.279 29.98 57.2791 29.9804 57.2793 29.9808C57.2795 29.9811 57.2797 29.9815 57.2799 29.9819C57.2801 29.9822 57.2802 29.9826 57.2804 29.983C57.2806 29.9833 57.2808 29.9837 57.281 29.9841C57.2811 29.9844 57.2813 29.9848 57.2815 29.9851C57.2817 29.9855 57.2819 29.9859 57.2821 29.9862C57.2822 29.9866 57.2824 29.987 57.2826 29.9873C57.2828 29.9877 57.283 29.988 57.2831 29.9884C57.2833 29.9888 57.2835 29.9891 57.2837 29.9895C57.2839 29.9898 57.284 29.9902 57.2842 29.9906C57.2844 29.9909 57.2846 29.9913 57.2848 29.9916C57.2849 29.992 57.2851 29.9924 57.2853 29.9927C57.2855 29.9931 57.2857 29.9934 57.2858 29.9938C57.286 29.9941 57.2862 29.9945 57.2864 29.9949C57.2865 29.9952 57.2867 29.9956 57.2869 29.9959C57.2871 29.9963 57.2873 29.9966 57.2874 29.997C57.2876 29.9974 57.2878 29.9977 57.288 29.9981C57.2881 29.9984 57.2883 29.9988 57.2885 29.9991C57.2887 29.9995 57.2888 29.9998 57.289 30.0002C57.2892 30.0005 57.2894 30.0009 57.2896 30.0012C57.2897 30.0016 57.2899 30.0019 57.2901 30.0023C57.2903 30.0026 57.2904 30.003 57.2906 30.0033C57.2908 30.0037 57.291 30.004 57.2911 30.0044C57.2913 30.0047 57.2915 30.0051 57.2917 30.0054C57.2918 30.0058 57.292 30.0061 57.2922 30.0065C57.2924 30.0068 57.2925 30.0072 57.2927 30.0075C57.2929 30.0079 57.293 30.0082 57.2932 30.0086C57.2934 30.0089 57.2936 30.0093 57.2937 30.0096C57.2939 30.0099 57.2941 30.0103 57.2943 30.0106C57.2944 30.011 57.2946 30.0113 57.2948 30.0117C57.2949 30.012 57.2951 30.0124 57.2953 30.0127C57.2955 30.013 57.2956 30.0134 57.2958 30.0137C57.296 30.0141 57.2961 30.0144 57.2963 30.0148C57.2965 30.0151 57.2967 30.0154 57.2968 30.0158C57.297 30.0161 57.2972 30.0165 57.2973 30.0168C57.2975 30.0171 57.2977 30.0175 57.2978 30.0178C57.298 30.0182 57.2982 30.0185 57.2984 30.0188C57.2985 30.0192 57.2987 30.0195 57.2989 30.0199C57.299 30.0202 57.2992 30.0205 57.2994 30.0209C57.2995 30.0212 57.2997 30.0215 57.2999 30.0219C57.3 30.0222 57.3002 30.0226 57.3004 30.0229C57.3005 30.0232 57.3007 30.0236 57.3009 30.0239C57.301 30.0242 57.3012 30.0246 57.3014 30.0249C57.3016 30.0252 57.3017 30.0256 57.3019 30.0259C57.3021 30.0262 57.3022 30.0266 57.3024 30.0269C57.3026 30.0272 57.3027 30.0276 57.3029 30.0279C57.303 30.0282 57.3032 30.0286 57.3034 30.0289C57.3035 30.0292 57.3037 30.0295 57.3039 30.0299C57.304 30.0302 57.3042 30.0305 57.3044 30.0309C57.3045 30.0312 57.3047 30.0315 57.3049 30.0319C57.305 30.0322 57.3052 30.0325 57.3054 30.0328C57.3055 30.0332 57.3057 30.0335 57.3058 30.0338C57.306 30.0342 57.3062 30.0345 57.3063 30.0348C57.3065 30.0351 57.3067 30.0355 57.3068 30.0358C57.307 30.0361 57.3072 30.0364 57.3073 30.0368C57.3075 30.0371 57.3076 30.0374 57.3078 30.0377C57.308 30.0381 57.3081 30.0384 57.3083 30.0387C57.3085 30.039 57.3086 30.0394 57.3088 30.0397C57.3089 30.04 57.3091 30.0403 57.3093 30.0406C57.3094 30.041 57.3096 30.0413 57.3097 30.0416C57.3099 30.0419 57.3101 30.0423 57.3102 30.0426C57.3104 30.0429 57.3105 30.0432 57.3107 30.0435C57.3109 30.0439 57.311 30.0442 57.3112 30.0445C57.3113 30.0448 57.3115 30.0451 57.3117 30.0454C57.3118 30.0458 57.312 30.0461 57.3121 30.0464C57.3123 30.0467 57.3125 30.047 57.3126 30.0473C57.3128 30.0477 57.3129 30.048 57.3131 30.0483C57.3132 30.0486 57.3134 30.0489 57.3136 30.0492C57.3137 30.0496 57.3139 30.0499 57.314 30.0502C57.3142 30.0505 57.3143 30.0508 57.3145 30.0511C57.3147 30.0514 57.3148 30.0518 57.315 30.0521C57.3151 30.0524 57.3153 30.0527 57.3154 30.053C57.3156 30.0533 57.3158 30.0536 57.3159 30.0539C57.3161 30.0543 57.3162 30.0546 57.3164 30.0549C57.3165 30.0552 57.3167 30.0555 57.3168 30.0558C57.317 30.0561 57.3171 30.0564 57.3173 30.0567C57.3175 30.057 57.3176 30.0574 57.3178 30.0577C57.3179 30.058 57.3181 30.0583 57.3182 30.0586C57.3184 30.0589 57.3185 30.0592 57.3187 30.0595C57.3188 30.0598 57.319 30.0601 57.3191 30.0604C57.3193 30.0607 57.3195 30.061 57.3196 30.0613C57.3198 30.0616 57.3199 30.062 57.3201 30.0623C57.3202 30.0626 57.3204 30.0629 57.3205 30.0632C57.3207 30.0635 57.3208 30.0638 57.321 30.0641C57.3211 30.0644 57.3213 30.0647 57.3214 30.065C57.3216 30.0653 57.3217 30.0656 57.3219 30.0659C57.322 30.0662 57.3222 30.0665 57.3223 30.0668C57.3225 30.0671 57.3226 30.0674 57.3228 30.0677C57.3229 30.068 57.3231 30.0683 57.3232 30.0686C57.3234 30.0689 57.3235 30.0692 57.3237 30.0695C57.3238 30.0698 57.324 30.0701 57.3241 30.0704C57.3243 30.0707 57.3244 30.071 57.3246 30.0713C57.3247 30.0716 57.3249 30.0719 57.325 30.0722C57.3252 30.0725 57.3253 30.0728 57.3255 30.073C57.3256 30.0733 57.3258 30.0736 57.3259 30.0739C57.326 30.0742 57.3262 30.0745 57.3263 30.0748C57.3265 30.0751 57.3266 30.0754 57.3268 30.0757C57.3269 30.076 57.3271 30.0763 57.3272 30.0766C57.3274 30.0769 57.3275 30.0772 57.3277 30.0774C57.3278 30.0777 57.3279 30.078 57.3281 30.0783C57.3282 30.0786 57.3284 30.0789 57.3285 30.0792C57.3287 30.0795 57.3288 30.0798 57.329 30.0801C57.3291 30.0803 57.3293 30.0806 57.3294 30.0809C57.3295 30.0812 57.3297 30.0815 57.3298 30.0818C57.33 30.0821 57.3301 30.0824 57.3303 30.0826C57.3304 30.0829 57.3305 30.0832 57.3307 30.0835C57.3308 30.0838 57.331 30.0841 57.3311 30.0844C57.3313 30.0847 57.3314 30.0849 57.3315 30.0852C57.3317 30.0855 57.3318 30.0858 57.332 30.0861C57.3321 30.0864 57.3323 30.0866 57.3324 30.0869C57.3325 30.0872 57.3327 30.0875 57.3328 30.0878C57.333 30.0881 57.3331 30.0883 57.3332 30.0886C57.3334 30.0889 57.3335 30.0892 57.3337 30.0895C57.3338 30.0897 57.334 30.09 57.3341 30.0903C57.3342 30.0906 57.3344 30.0909 57.3345 30.0911C57.3346 30.0914 57.3348 30.0917 57.3349 30.092C57.3351 30.0923 57.3352 30.0925 57.3353 30.0928C57.3355 30.0931 57.3356 30.0934 57.3358 30.0936C57.3359 30.0939 57.336 30.0942 57.3362 30.0945C57.3363 30.0947 57.3364 30.095 57.3366 30.0953C57.3367 30.0956 57.3369 30.0959 57.337 30.0961C57.3371 30.0964 57.3373 30.0967 57.3374 30.097C57.3375 30.0972 57.3377 30.0975 57.3378 30.0978C57.338 30.098 57.3381 30.0983 57.3382 30.0986C57.3384 30.0989 57.3385 30.0991 57.3386 30.0994C57.3388 30.0997 57.3389 30.0999 57.339 30.1002C57.3392 30.1005 57.3393 30.1008 57.3395 30.101C57.3396 30.1013 57.3397 30.1016 57.3399 30.1018C57.34 30.1021 57.3401 30.1024 57.3403 30.1026C57.3404 30.1029 57.3405 30.1032 57.3407 30.1035C57.3408 30.1037 57.3409 30.104 57.3411 30.1043C57.3412 30.1045 57.3413 30.1048 57.3415 30.1051C57.3416 30.1053 57.3417 30.1056 57.3419 30.1059C57.342 30.1061 57.3421 30.1064 57.3423 30.1066C57.3424 30.1069 57.3425 30.1072 57.3427 30.1074C57.3428 30.1077 57.3429 30.108 57.3431 30.1082C57.3432 30.1085 57.3433 30.1088 57.3434 30.109C57.3436 30.1093 57.3437 30.1095 57.3438 30.1098C57.344 30.1101 57.3441 30.1103 57.3442 30.1106C57.3444 30.1108 57.3445 30.1111 57.3446 30.1114C57.3448 30.1116 57.3449 30.1119 57.345 30.1122C57.3451 30.1124 57.3453 30.1127 57.3454 30.1129C57.3455 30.1132 57.3457 30.1134 57.3458 30.1137C57.3459 30.114 57.346 30.1142 57.3462 30.1145C57.3463 30.1147 57.3464 30.115 57.3466 30.1152C57.3467 30.1155 57.3468 30.1158 57.3469 30.116C57.3471 30.1163 57.3472 30.1165 57.3473 30.1168C57.3475 30.117 57.3476 30.1173 57.3477 30.1175C57.3478 30.1178 57.348 30.118 57.3481 30.1183C57.3482 30.1186 57.3483 30.1188 57.3485 30.1191C57.3486 30.1193 57.3487 30.1196 57.3488 30.1198C57.349 30.1201 57.3491 30.1203 57.3492 30.1206C57.3493 30.1208 57.3495 30.1211 57.3496 30.1213C57.3497 30.1216 57.3498 30.1218 57.35 30.1221C57.3501 30.1223 57.3502 30.1226 57.3503 30.1228C57.3505 30.1231 57.3506 30.1233 57.3507 30.1236C57.3508 30.1238 57.351 30.1241 57.3511 30.1243C57.3512 30.1246 57.3513 30.1248 57.3515 30.125C57.3516 30.1253 57.3517 30.1255 57.3518 30.1258C57.352 30.126 57.3521 30.1263 57.3522 30.1265C57.3523 30.1268 57.3524 30.127 57.3526 30.1273C57.3527 30.1275 57.3528 30.1277 57.3529 30.128C57.3531 30.1282 57.3532 30.1285 57.3533 30.1287C57.3534 30.129 57.3535 30.1292 57.3537 30.1294C57.3538 30.1297 57.3539 30.1299 57.354 30.1302C57.3541 30.1304 57.3543 30.1306 57.3544 30.1309C57.3545 30.1311 57.3546 30.1314 57.3547 30.1316C57.3549 30.1319 57.355 30.1321 57.3551 30.1323C57.3552 30.1326 57.3553 30.1328 57.3555 30.133C57.3556 30.1333 57.3557 30.1335 57.3558 30.1338C57.3559 30.134 57.3561 30.1342 57.3562 30.1345C57.3563 30.1347 57.3564 30.1349 57.3565 30.1352C57.3566 30.1354 57.3568 30.1356 57.3569 30.1359C57.357 30.1361 57.3571 30.1364 57.3572 30.1366C57.3573 30.1368 57.3575 30.1371 57.3576 30.1373C57.3577 30.1375 57.3578 30.1377 57.3579 30.138C57.358 30.1382 57.3582 30.1385 57.3583 30.1387C57.3584 30.1389 57.3585 30.1391 57.3586 30.1394C57.3587 30.1396 57.3589 30.1398 57.359 30.1401C57.3591 30.1403 57.3592 30.1405 57.3593 30.1408C57.3594 30.141 57.3595 30.1412 57.3597 30.1414C57.3598 30.1417 57.3599 30.1419 57.36 30.1421C57.3601 30.1424 57.3602 30.1426 57.3603 30.1428C57.3605 30.143 57.3606 30.1433 57.3607 30.1435C57.3608 30.1437 57.3609 30.144 57.361 30.1442C57.3611 30.1444 57.3613 30.1446 57.3614 30.1449C57.3615 30.1451 57.3616 30.1453 57.3617 30.1455C57.3618 30.1458 57.3619 30.146 57.362 30.1462C57.3621 30.1464 57.3623 30.1466 57.3624 30.1469C57.3625 30.1471 57.3626 30.1473 57.3627 30.1475C57.3628 30.1478 57.3629 30.148 57.363 30.1482C57.3631 30.1484 57.3633 30.1486 57.3634 30.1489C57.3635 30.1491 57.3636 30.1493 57.3637 30.1495C57.3638 30.1497 57.3639 30.15 57.364 30.1502C57.3641 30.1504 57.3642 30.1506 57.3644 30.1508C57.3645 30.1511 57.3646 30.1513 57.3647 30.1515C57.3648 30.1517 57.3649 30.1519 57.365 30.1521C57.3651 30.1524 57.3652 30.1526 57.3653 30.1528C57.3654 30.153 57.3655 30.1532 57.3657 30.1534C57.3658 30.1536 57.3659 30.1539 57.366 30.1541C57.3661 30.1543 57.3662 30.1545 57.3663 30.1547C57.3664 30.1549 57.3665 30.1552 57.3666 30.1554C57.3667 30.1556 57.3668 30.1558 57.3669 30.156C57.367 30.1562 57.3671 30.1564 57.3673 30.1566C57.3674 30.1568 57.3675 30.1571 57.3676 30.1573C57.3677 30.1575 57.3678 30.1577 57.3679 30.1579C57.368 30.1581 57.3681 30.1583 57.3682 30.1585C57.3683 30.1587 57.3684 30.1589 57.3685 30.1591C57.3686 30.1594 57.3687 30.1596 57.3688 30.1598C57.3689 30.16 57.369 30.1602 57.3691 30.1604C57.3692 30.1606 57.3693 30.1608 57.3694 30.161C57.3695 30.1612 57.3697 30.1614 57.3698 30.1616C57.3699 30.1618 57.37 30.162 57.3701 30.1622C57.3702 30.1625 57.3703 30.1627 57.3704 30.1629C57.3705 30.1631 57.3706 30.1633 57.3707 30.1635C57.3708 30.1637 57.3709 30.1639 57.371 30.1641C57.3711 30.1643 57.3712 30.1645 57.3713 30.1647C57.3714 30.1649 57.3715 30.1651 57.3716 30.1653C57.3717 30.1655 57.3718 30.1657 57.3719 30.1659C57.372 30.1661 57.3721 30.1663 57.3722 30.1665C57.3723 30.1667 57.3724 30.1669 57.3725 30.1671C57.3726 30.1673 57.3727 30.1675 57.3728 30.1677C57.3729 30.1679 57.373 30.1681 57.3731 30.1683C57.3732 30.1685 57.3733 30.1687 57.3734 30.1689C57.3735 30.1691 57.3736 30.1693 57.3737 30.1694C57.3738 30.1696 57.3739 30.1698 57.374 30.17C57.3741 30.1702 57.3741 30.1704 57.3742 30.1706C57.3743 30.1708 57.3744 30.171 57.3745 30.1712C57.3746 30.1714 57.3747 30.1716 57.3748 30.1718C57.3749 30.172 57.375 30.1721 57.3751 30.1723C57.3752 30.1725 57.3753 30.1727 57.3754 30.1729C57.3755 30.1731 57.3756 30.1733 57.3757 30.1735C57.3758 30.1737 57.3759 30.1739 57.376 30.1741C57.3761 30.1742 57.3762 30.1744 57.3763 30.1746C57.3763 30.1748 57.3764 30.175 57.3765 30.1752C57.3766 30.1754 57.3767 30.1756 57.3768 30.1758C57.3769 30.1759 57.377 30.1761 57.3771 30.1763C57.3772 30.1765 57.3773 30.1767 57.3774 30.1769C57.3775 30.1771 57.3776 30.1772 57.3776 30.1774C57.3777 30.1776 57.3778 30.1778 57.3779 30.178C57.378 30.1782 57.3781 30.1783 57.3782 30.1785C57.3783 30.1787 57.3784 30.1789 57.3785 30.1791C57.3786 30.1793 57.3787 30.1794 57.3787 30.1796C57.3788 30.1798 57.3789 30.18 57.379 30.1802C57.3791 30.1803 57.3792 30.1805 57.3793 30.1807C57.3794 30.1809 57.3795 30.1811 57.3796 30.1812C57.3797 30.1814 57.3797 30.1816 57.3798 30.1818C57.3799 30.182 57.38 30.1821 57.3801 30.1823C57.3802 30.1825 57.3803 30.1827 57.3804 30.1828C57.3804 30.183 57.3805 30.1832 57.3806 30.1834C57.3807 30.1835 57.3808 30.1837 57.3809 30.1839C57.381 30.1841 57.3811 30.1842 57.3812 30.1844C57.3812 30.1846 57.3813 30.1848 57.3814 30.185C57.3815 30.1851 57.3816 30.1853 57.3817 30.1855C57.3818 30.1856 57.3818 30.1858 57.3819 30.186C57.382 30.1862 57.3821 30.1863 57.3822 30.1865C57.3823 30.1867 57.3824 30.1869 57.3824 30.187C57.3825 30.1872 57.3826 30.1874 57.3827 30.1875C57.3828 30.1877 57.3829 30.1879 57.383 30.188C57.383 30.1882 57.3831 30.1884 57.3832 30.1885C57.3833 30.1887 57.3834 30.1889 57.3835 30.1891C57.3835 30.1892 57.3836 30.1894 57.3837 30.1896C57.3838 30.1897 57.3839 30.1899 57.384 30.1901C57.384 30.1902 57.3841 30.1904 57.3842 30.1906C57.3843 30.1907 57.3844 30.1909 57.3845 30.191C57.3845 30.1912 57.3846 30.1914 57.3847 30.1915C57.3848 30.1917 57.3849 30.1919 57.385 30.192C57.385 30.1922 57.3851 30.1924 57.3852 30.1925C57.3853 30.1927 57.3854 30.1928 57.3854 30.193C57.3855 30.1932 57.3856 30.1933 57.3857 30.1935C57.3858 30.1936 57.3858 30.1938 57.3859 30.194C57.386 30.1941 57.3861 30.1943 57.3862 30.1945C57.3862 30.1946 57.3863 30.1948 57.3864 30.1949C57.3865 30.1951 57.3866 30.1952 57.3866 30.1954C57.3867 30.1956 57.3868 30.1957 57.3869 30.1959C57.387 30.196 57.387 30.1962 57.3871 30.1964C57.3872 30.1965 57.3873 30.1967 57.3873 30.1968C57.3874 30.197 57.3875 30.1971 57.3876 30.1973C57.3877 30.1974 57.3877 30.1976 57.3878 30.1977C57.3879 30.1979 57.388 30.1981 57.388 30.1982C57.3881 30.1984 57.3882 30.1985 57.3883 30.1987C57.3883 30.1988 57.3884 30.199 57.3885 30.1991C57.3886 30.1993 57.3887 30.1994 57.3887 30.1996C57.3888 30.1997 57.3889 30.1999 57.389 30.2C57.389 30.2002 57.3891 30.2003 57.3892 30.2005C57.3893 30.2006 57.3893 30.2008 57.3894 30.2009C57.3895 30.2011 57.3895 30.2012 57.3896 30.2014C57.3897 30.2015 57.3898 30.2017 57.3898 30.2018C57.3899 30.202 57.39 30.2021 57.3901 30.2023C57.3901 30.2024 57.3902 30.2025 57.3903 30.2027C57.3904 30.2028 57.3904 30.203 57.3905 30.2031C57.3906 30.2033 57.3906 30.2034 57.3907 30.2036C57.3908 30.2037 57.3909 30.2038 57.3909 30.204C57.391 30.2041 57.3911 30.2043 57.3912 30.2044C57.3912 30.2046 57.3913 30.2047 57.3914 30.2048C57.3914 30.205 57.3915 30.2051 57.3916 30.2053C57.3916 30.2054 57.3917 30.2056 57.3918 30.2057C57.3919 30.2058 57.3919 30.206 57.392 30.2061C57.3921 30.2063 57.3921 30.2064 57.3922 30.2065C57.3923 30.2067 57.3923 30.2068 57.3924 30.2069C57.3925 30.2071 57.3926 30.2072 57.3926 30.2074C57.3927 30.2075 57.3928 30.2076 57.3928 30.2078C57.3929 30.2079 57.393 30.208 57.393 30.2082C57.3931 30.2083 57.3932 30.2085 57.3932 30.2086C57.3933 30.2087 57.3934 30.2089 57.3934 30.209C57.3935 30.2091 57.3936 30.2093 57.3936 30.2094C57.3937 30.2095 57.3938 30.2097 57.3938 30.2098C57.3939 30.2099 57.394 30.2101 57.394 30.2102C57.3941 30.2103 57.3942 30.2105 57.3942 30.2106C57.3943 30.2107 57.3944 30.2108 57.3944 30.211C57.3945 30.2111 57.3946 30.2112 57.3946 30.2114C57.3947 30.2115 57.3948 30.2116 57.3948 30.2118C57.3949 30.2119 57.3949 30.212 57.395 30.2121C57.3951 30.2123 57.3951 30.2124 57.3952 30.2125C57.3953 30.2127 57.3953 30.2128 57.3954 30.2129C57.3955 30.213 57.3955 30.2132 57.3956 30.2133C57.3956 30.2134 57.3957 30.2135 57.3958 30.2137C57.3958 30.2138 57.3959 30.2139 57.396 30.214C57.396 30.2142 57.3961 30.2143 57.3961 30.2144C57.3962 30.2145 57.3963 30.2147 57.3963 30.2148C57.3964 30.2149 57.3965 30.215 57.3965 30.2151C57.3966 30.2153 57.3966 30.2154 57.3967 30.2155C57.3968 30.2156 57.3968 30.2158 57.3969 30.2159C57.3969 30.216 57.397 30.2161 57.3971 30.2162C57.3971 30.2164 57.3972 30.2165 57.3972 30.2166C57.3973 30.2167 57.3974 30.2168 57.3974 30.2169C57.3975 30.2171 57.3975 30.2172 57.3976 30.2173C57.3976 30.2174 57.3977 30.2175 57.3978 30.2177C57.3978 30.2178 57.3979 30.2179 57.3979 30.218C57.398 30.2181 57.3981 30.2182 57.3981 30.2183C57.3982 30.2185 57.3982 30.2186 57.3983 30.2187C57.3983 30.2188 57.3984 30.2189 57.3985 30.219C57.3985 30.2191 57.3986 30.2193 57.3986 30.2194C57.3987 30.2195 57.3987 30.2196 57.3988 30.2197C57.3988 30.2198 57.3989 30.2199 57.399 30.22C57.399 30.2202 57.3991 30.2203 57.3991 30.2204C57.3992 30.2205 57.3992 30.2206 57.3993 30.2207C57.3993 30.2208 57.3994 30.2209 57.3995 30.221C57.3995 30.2211 57.3996 30.2213 57.3996 30.2214C57.3997 30.2215 57.3997 30.2216 57.3998 30.2217C57.3998 30.2218 57.3999 30.2219 57.3999 30.222C57.4 30.2221 57.4001 30.2222 57.4001 30.2223C57.4002 30.2224 57.4002 30.2225 57.4003 30.2226C57.4003 30.2228 57.4004 30.2229 57.4004 30.223C57.4005 30.2231 57.4005 30.2232 57.4006 30.2233C57.4006 30.2234 57.4007 30.2235 57.4007 30.2236C57.4008 30.2237 57.4008 30.2238 57.4009 30.2239C57.4009 30.224 57.401 30.2241 57.401 30.2242C57.4011 30.2243 57.4011 30.2244 57.4012 30.2245C57.4012 30.2246 57.4013 30.2247 57.4013 30.2248C57.4014 30.2249 57.4014 30.225 57.4015 30.2251C57.4015 30.2252 57.4016 30.2253 57.4016 30.2254C57.4017 30.2255 57.4017 30.2256 57.4018 30.2257C57.4018 30.2258 57.4019 30.2259 57.4019 30.226C57.402 30.2261 57.402 30.2262 57.4021 30.2263C57.4021 30.2264 57.4022 30.2265 57.4022 30.2266C57.4023 30.2267 57.4023 30.2268 57.4024 30.2268C57.4024 30.2269 57.4025 30.227 57.4025 30.2271C57.4025 30.2272 57.4026 30.2273 57.4026 30.2274C57.4027 30.2275 57.4027 30.2276 57.4028 30.2277C57.4028 30.2278 57.4029 30.2279 57.4029 30.228C57.403 30.2281 57.403 30.2281 57.4031 30.2282C57.4031 30.2283 57.4031 30.2284 57.4032 30.2285C57.4032 30.2286 57.4033 30.2287 57.4033 30.2288C57.4034 30.2289 57.4034 30.229 57.4035 30.229C57.4035 30.2291 57.4035 30.2292 57.4036 30.2293C57.4036 30.2294 57.4037 30.2295 57.4037 30.2296C57.4038 30.2297 57.4038 30.2297 57.4039 30.2298C57.4039 30.2299 57.4039 30.23 57.404 30.2301C57.404 30.2302 57.4041 30.2303 57.4041 30.2303C57.4042 30.2304 57.4042 30.2305 57.4042 30.2306C57.4043 30.2307 57.4043 30.2308 57.4044 30.2308C57.4044 30.2309 57.4044 30.231 57.4045 30.2311C57.4045 30.2312 57.4046 30.2313 57.4046 30.2313C57.4046 30.2314 57.4047 30.2315 57.4047 30.2316C57.4048 30.2317 57.4048 30.2317 57.4049 30.2318C57.4049 30.2319 57.4049 30.232 57.405 30.2321C57.405 30.2321 57.405 30.2322 57.4051 30.2323C57.4051 30.2324 57.4052 30.2325 57.4052 30.2325C57.4052 30.2326 57.4053 30.2327 57.4053 30.2328C57.4054 30.2328 57.4054 30.2329 57.4054 30.233C57.4055 30.2331 57.4055 30.2331 57.4056 30.2332C57.4056 30.2333 57.4056 30.2334 57.4057 30.2335C57.4057 30.2335 57.4057 30.2336 57.4058 30.2337C57.4058 30.2337 57.4058 30.2338 57.4059 30.2339C57.4059 30.234 57.406 30.234 57.406 30.2341C57.406 30.2342 57.4061 30.2343 57.4061 30.2343C57.4061 30.2344 57.4062 30.2345 57.4062 30.2345C57.4062 30.2346 57.4063 30.2347 57.4063 30.2348C57.4064 30.2348 57.4064 30.2349 57.4064 30.235C57.4065 30.235 57.4065 30.2351 57.4065 30.2352C57.4066 30.2352 57.4066 30.2353 57.4066 30.2354C57.4067 30.2354 57.4067 30.2355 57.4067 30.2356C57.4068 30.2356 57.4068 30.2357 57.4068 30.2358C57.4069 30.2358 57.4069 30.2359 57.4069 30.236C57.407 30.236 57.407 30.2361 57.407 30.2362C57.4071 30.2362 57.4071 30.2363 57.4071 30.2364C57.4072 30.2364 57.4072 30.2365 57.4072 30.2366C57.4072 30.2366 57.4073 30.2367 57.4073 30.2367C57.4073 30.2368 57.4074 30.2369 57.4074 30.2369C57.4074 30.237 57.4075 30.2371 57.4075 30.2371C57.4075 30.2372 57.4076 30.2372 57.4076 30.2373C57.4076 30.2374 57.4076 30.2374 57.4077 30.2375C57.4077 30.2375 57.4077 30.2376 57.4078 30.2377C57.4078 30.2377 57.4078 30.2378 57.4079 30.2378C57.4079 30.2379 57.4079 30.2379 57.4079 30.238C57.408 30.2381 57.408 30.2381 57.408 30.2382C57.4081 30.2382 57.4081 30.2383 57.4081 30.2383C57.4081 30.2384 57.4082 30.2385 57.4082 30.2385C57.4082 30.2386 57.4082 30.2386 57.4083 30.2387C57.4083 30.2387 57.4083 30.2388 57.4084 30.2388C57.4084 30.2389 57.4084 30.2389 57.4084 30.239C57.4085 30.239 57.4085 30.2391 57.4085 30.2392C57.4085 30.2392 57.4086 30.2393 57.4086 30.2393C57.4086 30.2394 57.4086 30.2394 57.4087 30.2395C57.4087 30.2395 57.4087 30.2396 57.4087 30.2396C57.4088 30.2397 57.4088 30.2397 57.4088 30.2398C57.4088 30.2398 57.4089 30.2399 57.4089 30.2399C57.4089 30.2399 57.4089 30.24 57.409 30.24C57.409 30.2401 57.409 30.2401 57.409 30.2402C57.4091 30.2402 57.4091 30.2403 57.4091 30.2403C57.4091 30.2404 57.4091 30.2404 57.4092 30.2405C57.4092 30.2405 57.4092 30.2405 57.4092 30.2406C57.4093 30.2406 57.4093 30.2407 57.4093 30.2407C57.4093 30.2408 57.4093 30.2408 57.4094 30.2409C57.4094 30.2409 57.4094 30.2409 57.4094 30.241C57.4095 30.241 57.4095 30.2411 57.4095 30.2411C57.4095 30.2411 57.4095 30.2412 57.4096 30.2412C57.4096 30.2413 57.4096 30.2413 57.4096 30.2413C57.4096 30.2414 57.4097 30.2414 57.4097 30.2415C57.4097 30.2415 57.4097 30.2415 57.4097 30.2416C57.4097 30.2416 57.4098 30.2417 57.4098 30.2417C57.4098 30.2417 57.4098 30.2418 57.4098 30.2418C57.4099 30.2418 57.4099 30.2419 57.4099 30.2419C57.4099 30.242 57.4099 30.242 57.41 30.242C57.41 30.2421 57.41 30.2421 57.41 30.2421C57.41 30.2422 57.41 30.2422 57.4101 30.2422C57.4101 30.2423 57.4101 30.2423 57.4101 30.2423C57.4101 30.2424 57.4101 30.2424 57.4101 30.2424C57.4102 30.2425 57.4102 30.2425 57.4102 30.2425C57.4102 30.2425 57.4102 30.2426 57.4102 30.2426C57.4103 30.2426 57.4103 30.2427 57.4103 30.2427C57.4103 30.2427 57.4103 30.2428 57.4103 30.2428C57.4103 30.2428 57.4104 30.2428 57.4104 30.2429C57.4104 30.2429 57.4104 30.2429 57.4104 30.243C57.4104 30.243 57.4104 30.243 57.4105 30.243C57.4105 30.2431 57.4105 30.2431 57.4105 30.2431C57.4105 30.2431 57.4105 30.2432 57.4105 30.2432C57.4105 30.2432 57.4106 30.2432 57.4106 30.2433C57.4106 30.2433 57.4106 30.2433 57.4106 30.2433C57.4106 30.2434 57.4106 30.2434 57.4106 30.2434C57.4107 30.2434 57.4107 30.2435 57.4107 30.2435C57.4107 30.2435 57.4107 30.2435 57.4107 30.2435C57.4107 30.2436 57.4107 30.2436 57.4107 30.2436C57.4108 30.2436 57.4108 30.2436 57.4108 30.2437C57.4108 30.2437 57.4108 30.2437 57.4108 30.2437C57.4108 30.2437 57.4108 30.2438 57.4108 30.2438C57.4108 30.2438 57.4108 30.2438 57.4109 30.2438C57.4109 30.2439 57.4109 30.2439 57.4109 30.2439C57.4109 30.2439 57.4109 30.2439 57.4109 30.2439C57.4109 30.2439 57.4109 30.244 57.4109 30.244C57.4109 30.244 57.4109 30.244 57.411 30.244C57.411 30.244 57.411 30.2441 57.411 30.2441C57.411 30.2441 57.411 30.2441 57.411 30.2441C57.411 30.2441 57.411 30.2441 57.411 30.2441C57.411 30.2442 57.411 30.2442 57.411 30.2442C57.411 30.2442 57.411 30.2442 57.411 30.2442C57.4111 30.2442 57.4111 30.2442 57.4111 30.2442C57.4111 30.2443 57.4111 30.2443 57.4111 30.2443C57.4111 30.2443 57.4111 30.2443 57.4111 30.2443C57.4111 30.2443 57.4111 30.2443 57.4111 30.2443C57.4111 30.2443 57.4111 30.2443 57.4111 30.2443C57.4111 30.2444 57.4111 30.2444 57.4111 30.2444C57.4111 30.2444 57.4111 30.2444 57.4111 30.2444C57.4111 30.2444 57.4111 30.2444 57.4111 30.2444C57.4111 30.2444 57.4111 30.2444 57.4111 30.2444C57.4111 30.2444 57.4111 30.2444 57.4112 30.2444C57.4112 30.2444 57.4112 30.2444 57.4112 30.2444V30.2444C57.4112 30.2444 57.4112 30.2444 57.4112 30.2444C57.4112 30.2444 57.4112 30.2444 59.2 29.35ZM60.6117 27.8006C59.7165 26.6816 58.4298 26.2826 57.1172 26.4701L57.6828 30.4299C57.7747 30.4168 57.7461 30.4381 57.654 30.4046C57.6104 30.3887 57.5693 30.3663 57.5355 30.3414C57.5026 30.3171 57.4879 30.299 57.4883 30.2994L60.6117 27.8006ZM55.7899 27.2636C54.3529 29.2138 53.0179 31.2163 51.785 33.271L55.215 35.329C56.3821 33.3837 57.6471 31.4862 59.0101 29.6364L55.7899 27.2636ZM51.785 33.271L48.635 38.521L52.065 40.579L55.215 35.329L51.785 33.271ZM136.091 41.95L134.219 41.2477C134.193 41.3154 134.172 41.3843 134.154 41.4543L136.091 41.95ZM123.491 51.55L124.018 53.4795C124.027 53.4771 124.035 53.4746 124.044 53.472L123.491 51.55ZM105.791 50.95L104.958 52.7681C104.976 52.7763 104.994 52.7843 105.012 52.7919L105.791 50.95ZM100.541 46.15L98.7357 47.0099C98.7466 47.0328 98.758 47.0555 98.7697 47.078L100.541 46.15ZM100.991 38.05L99.2186 37.1242C99.1859 37.1868 99.1565 37.2512 99.1306 37.3169L100.991 38.05ZM117.191 15.25L118.617 16.6527C118.624 16.6455 118.631 16.6382 118.638 16.6309L117.191 15.25ZM123.491 9.99999L124.544 11.7005C124.607 11.6613 124.669 11.6186 124.727 11.5726L123.491 9.99999ZM134.141 4.6L134.761 6.50174C134.769 6.49889 134.778 6.49599 134.787 6.49302L134.141 4.6ZM147.791 2.19999L147.755 0.200321L147.749 0.200447L147.791 2.19999ZM173.441 11.2L172.027 12.6142C172.063 12.6497 172.1 12.6839 172.138 12.7166L173.441 11.2ZM180.941 30.25L182.933 30.4311L182.933 30.4288L180.941 30.25ZM159.041 70.45L160.592 71.7129L160.595 71.7094L159.041 70.45ZM139.391 90.85L140.721 92.3437L140.723 92.3426L139.391 90.85ZM118.541 110.05L117.549 111.786C118.317 112.225 119.282 112.108 119.922 111.497L118.541 110.05ZM115.241 106L116.997 106.958C117.009 106.937 117.02 106.916 117.03 106.894L115.241 106ZM120.041 103.15L120.561 105.081L120.041 103.15ZM129.791 101.8L129.894 103.797C129.911 103.797 129.928 103.795 129.945 103.794L129.791 101.8ZM141.341 101.65L141.451 99.653L141.447 99.6528L141.341 101.65ZM157.241 105.55L155.614 106.712C155.769 106.93 155.966 107.113 156.193 107.253L157.241 105.55ZM159.641 110.05L157.66 110.32C157.664 110.35 157.668 110.379 157.674 110.408L159.641 110.05ZM159.341 117.25L161.287 117.712L161.29 117.7L159.341 117.25ZM151.541 130.6L150.302 129.03C150.241 129.079 150.182 129.131 150.127 129.186L151.541 130.6ZM130.691 136.6L130.445 134.615L130.691 136.6ZM100.691 137.05L100.409 139.03C100.419 139.031 100.43 139.033 100.441 139.034L100.691 137.05ZM90.6414 134.2L89.7187 135.974L90.6414 134.2ZM87.9414 129.4L86.0774 128.675C86.0731 128.686 86.0688 128.697 86.0647 128.709L87.9414 129.4ZM87.9414 125.2L89.5799 124.053L87.9414 125.2ZM85.6914 122.05L84.0185 123.146C84.0363 123.173 84.0548 123.2 84.0739 123.226L85.6914 122.05ZM85.9914 111.85L84.2735 110.826C84.2586 110.851 84.2443 110.876 84.2305 110.902L85.9914 111.85ZM94.2414 100.15L92.7718 98.7934L94.2414 100.15ZM101.591 91.75L100.08 90.4401C100.072 90.4499 100.063 90.4597 100.055 90.4696L101.591 91.75ZM110.441 82L109.007 80.6064C109 80.6136 108.993 80.6207 108.986 80.628L110.441 82ZM120.491 71.65L121.927 73.0429C121.932 73.0375 121.937 73.032 121.942 73.0265L120.491 71.65ZM139.391 49.3L141.005 50.4817C141.017 50.465 141.029 50.4481 141.041 50.4311L139.391 49.3ZM144.941 39.55L146.777 40.3452L144.941 39.55ZM146.591 29.5L148.589 29.3921C148.545 28.5894 148.025 27.8907 147.269 27.6183C146.513 27.3459 145.667 27.5528 145.122 28.1434L146.591 29.5ZM143.291 32.8L144.541 34.3617C144.571 34.3375 144.601 34.3125 144.629 34.2866L143.291 32.8ZM140.591 35.35L141.971 36.7983C142.011 36.76 142.049 36.7202 142.086 36.6787L140.591 35.35ZM134.154 41.4543C133.328 44.6822 130.053 47.5814 122.938 49.6279L124.044 53.472C131.53 51.3186 136.655 47.8178 138.029 42.4457L134.154 41.4543ZM122.965 49.6205C116.703 51.3282 111.276 51.0987 106.571 49.1081L105.012 52.7919C110.707 55.2013 117.079 55.3718 124.018 53.4795L122.965 49.6205ZM106.625 49.1319C104.579 48.1943 103.184 46.8849 102.313 45.222L98.7697 47.078C100.099 49.6151 102.204 51.5057 104.958 52.7681L106.625 49.1319ZM102.347 45.2901C101.686 43.9022 101.65 41.8359 102.852 38.783L99.1306 37.3169C97.7332 40.864 97.3966 44.1978 98.7357 47.0099L102.347 45.2901ZM102.764 38.9758C107.388 30.1225 112.677 22.6905 118.617 16.6527L115.766 13.8473C109.506 20.2095 103.995 27.9775 99.2186 37.1242L102.764 38.9758ZM118.638 16.6309C120.647 14.5266 122.617 12.8934 124.544 11.7005L122.439 8.29946C120.166 9.70662 117.936 11.5733 115.745 13.869L118.638 16.6309ZM124.727 11.5726C127.3 9.55087 130.626 7.84781 134.761 6.50174L133.522 2.69826C129.057 4.15219 125.283 6.04913 122.256 8.42735L124.727 11.5726ZM134.787 6.49302C138.99 5.06 143.337 4.29522 147.834 4.19954L147.749 0.200447C142.846 0.30476 138.093 1.13999 133.496 2.70698L134.787 6.49302ZM147.828 4.19966C158.326 4.00704 166.301 6.88752 172.027 12.6142L174.856 9.78578C168.182 3.11247 159.057 -0.00704956 147.755 0.200329L147.828 4.19966ZM172.138 12.7166C177.324 17.1753 179.595 22.8825 178.949 30.0712L182.933 30.4288C183.688 22.0175 180.959 15.0247 174.745 9.68336L172.138 12.7166ZM178.95 30.0689C178.109 39.3194 171.173 52.3094 157.488 69.1905L160.595 71.7094C174.31 54.7906 181.974 40.9806 182.933 30.4311L178.95 30.0689ZM157.491 69.1871C151.864 76.0973 145.389 82.8212 138.06 89.3574L140.723 92.3426C148.194 85.6788 154.819 78.8027 160.592 71.7128L157.491 69.1871ZM138.061 89.3563C130.745 95.8706 123.778 102.286 117.16 108.603L119.922 111.497C126.505 105.214 133.437 98.8294 140.721 92.3437L138.061 89.3563ZM119.534 108.314C118.197 107.55 117.481 106.959 117.167 106.574C117.02 106.394 117.047 106.362 117.07 106.472C117.102 106.629 117.073 106.819 116.997 106.958L113.486 105.042C113.11 105.731 112.993 106.502 113.151 107.272C113.298 107.994 113.663 108.606 114.066 109.101C114.852 110.066 116.086 110.95 117.549 111.786L119.534 108.314ZM117.03 106.894C117.213 106.529 118.023 105.765 120.561 105.081L119.521 101.219C116.859 101.935 114.47 103.071 113.453 105.106L117.03 106.894ZM120.561 105.081C122.979 104.43 126.078 103.993 129.894 103.797L129.689 99.8026C125.705 100.007 122.304 100.47 119.521 101.219L120.561 105.081ZM129.945 103.794C133.761 103.501 137.525 103.452 141.236 103.647L141.447 99.6528C137.558 99.4481 133.622 99.4995 129.638 99.8059L129.945 103.794ZM141.232 103.647C145.728 103.894 149.188 104.335 151.665 104.942C152.902 105.246 153.836 105.577 154.509 105.914C155.195 106.257 155.497 106.549 155.614 106.712L158.869 104.388C158.236 103.501 157.312 102.843 156.298 102.336C155.271 101.823 154.031 101.404 152.618 101.058C149.794 100.365 146.055 99.9059 141.451 99.653L141.232 103.647ZM156.193 107.253C156.784 107.617 157.403 108.435 157.66 110.32L161.623 109.78C161.28 107.265 160.299 105.083 158.29 103.847L156.193 107.253ZM157.674 110.408C158.017 112.294 157.943 114.415 157.393 116.8L161.29 117.7C161.94 114.885 162.066 112.206 161.609 109.692L157.674 110.408ZM157.395 116.788C156.073 122.363 153.667 126.374 150.302 129.03L152.781 132.17C157.016 128.826 159.81 123.937 161.287 117.712L157.395 116.788ZM150.127 129.186C149.203 130.11 147.233 131.147 143.826 132.128C140.491 133.088 136.043 133.922 130.445 134.615L130.937 138.585C136.639 137.878 141.316 137.012 144.932 135.972C148.474 134.953 151.28 133.69 152.956 132.014L150.127 129.186ZM130.445 134.615C119.264 136 109.437 136.14 100.942 135.066L100.441 139.034C109.346 140.16 119.518 140 130.937 138.585L130.445 134.615ZM100.974 135.07C96.8963 134.488 93.7898 133.583 91.5641 132.426L89.7187 135.974C92.493 137.417 96.0865 138.412 100.409 139.03L100.974 135.07ZM91.5641 132.426C90.4878 131.866 90.0175 131.37 89.8346 131.044C89.7037 130.812 89.6472 130.555 89.8181 130.091L86.0647 128.709C85.5356 130.145 85.5791 131.638 86.3483 133.006C87.0653 134.28 88.2951 135.234 89.7187 135.974L91.5641 132.426ZM89.8054 130.125C90.6017 128.077 90.847 125.863 89.5799 124.053L86.3029 126.347C86.4358 126.537 86.6812 127.123 86.0774 128.675L89.8054 130.125ZM89.5799 124.053C88.8722 123.042 88.1152 121.982 87.3089 120.874L84.0739 123.226C84.8676 124.318 85.6106 125.358 86.3029 126.347L89.5799 124.053ZM87.3643 120.954C85.982 118.844 85.8872 116.262 87.7523 112.798L84.2305 110.902C81.8956 115.238 81.6008 119.456 84.0185 123.146L87.3643 120.954ZM87.7093 112.874C90.7807 107.722 93.4483 103.958 95.711 101.507L92.7718 98.7934C90.2345 101.542 87.4021 105.578 84.2735 110.826L87.7093 112.874ZM95.711 101.507C98.1361 98.8793 100.608 96.0537 103.128 93.0304L100.055 90.4696C97.5744 93.4463 95.1467 96.2207 92.7718 98.7934L95.711 101.507ZM103.103 93.0599C105.681 90.0848 108.612 86.8558 111.897 83.372L108.986 80.628C105.671 84.1442 102.702 87.4152 100.08 90.4401L103.103 93.0599ZM111.876 83.3936C115.276 79.8934 118.626 76.4432 121.927 73.0429L119.056 70.257C115.756 73.6568 112.407 77.1066 109.007 80.6064L111.876 83.3936ZM121.942 73.0265C129.388 65.178 135.745 57.663 141.005 50.4817L137.778 48.1183C132.637 55.137 126.394 62.522 119.04 70.2735L121.942 73.0265ZM141.041 50.4311C143.493 46.8547 145.413 43.4916 146.777 40.3452L143.106 38.7548C141.87 41.6084 140.09 44.7453 137.742 48.1689L141.041 50.4311ZM146.777 40.3452C148.215 37.0249 148.803 33.36 148.589 29.3921L144.594 29.6079C144.78 33.04 144.268 36.0751 143.106 38.7548L146.777 40.3452ZM145.122 28.1434C143.951 29.4113 142.896 30.4652 141.953 31.3134L144.629 34.2866C145.687 33.3348 146.831 32.1887 148.061 30.8566L145.122 28.1434ZM142.042 31.2383C140.959 32.1044 139.976 33.0317 139.097 34.0213L142.086 36.6787C142.807 35.8683 143.624 35.0956 144.541 34.3617L142.042 31.2383ZM139.212 33.9017C136.922 36.0825 135.238 38.5299 134.219 41.2477L137.964 42.6522C138.745 40.5701 140.061 38.6175 141.971 36.7983L139.212 33.9017Z" fill="#EF8354" fill-opacity="0.6"/>
</svg>
