<svg width="183" height="138" viewBox="0 0 183 138" fill="none" xmlns="http://www.w3.org/2000/svg">
<path d="M22.3 23.4652L24.0717 24.3933L24.0764 24.3841L22.3 23.4652ZM40.6 7.86523L39.7595 6.05043L39.7591 6.05061L40.6 7.86523ZM66.1 6.36523L65.2742 8.1868L65.2793 8.18907L66.1 6.36523ZM72.55 9.96523L70.7611 10.8597C70.7982 10.9338 70.8399 11.0056 70.8859 11.0746L72.55 9.96523ZM73 11.9152L71.0201 11.6324V11.6324L73 11.9152ZM73 15.0652L71.0051 15.2077C71.0504 15.8425 71.3952 16.4178 71.9336 16.7572C72.4719 17.0965 73.1397 17.1594 73.7319 16.9265L73 15.0652ZM92.2 22.7152L94.0296 21.9074C94.0269 21.9013 94.0242 21.8952 94.0215 21.8892L92.2 22.7152ZM94.9 54.2152L96.8839 54.4688C96.8845 54.4639 96.8851 54.459 96.8857 54.4541L94.9 54.2152ZM84.85 88.2652L83.0843 87.326C83.0373 87.4144 82.997 87.5061 82.9637 87.6005L84.85 88.2652ZM67.3 117.815L65.7908 116.503C65.7828 116.512 65.7748 116.521 65.767 116.531L67.3 117.815ZM58.6 126.215L57.449 124.58C57.4258 124.596 57.403 124.613 57.3806 124.63L58.6 126.215ZM53.05 128.915L53.4078 126.947C53.1596 126.902 52.9051 126.905 52.6578 126.954L53.05 128.915ZM47.65 130.115L47.1649 128.175C47.1512 128.178 47.1375 128.182 47.1238 128.186L47.65 130.115ZM41.95 131.015V129.015C41.4196 129.015 40.9109 129.226 40.5358 129.601L41.95 131.015ZM41.35 131.465L40.4556 129.676C40.2633 129.773 40.0878 129.899 39.9358 130.051L41.35 131.465ZM41.05 131.915L41.6247 133.831C42.1529 133.672 42.5922 133.303 42.8388 132.81L41.05 131.915ZM36.55 133.265L35.9753 131.35C35.2166 131.577 34.6637 132.231 34.5654 133.017L36.55 133.265ZM32.65 136.565L32.1649 134.625C32.1398 134.631 32.1148 134.638 32.09 134.645L32.65 136.565ZM24.4 137.015L24.1357 138.998L24.1441 138.999L24.4 137.015ZM15.25 134.315L16.0732 132.492C16.0567 132.485 16.0401 132.478 16.0235 132.471L15.25 134.315ZM8.35 128.615L6.52238 129.428C6.55547 129.502 6.59309 129.574 6.63501 129.644L8.35 128.615ZM3.7 115.715L1.73468 116.086C1.73825 116.105 1.74209 116.124 1.7462 116.143L3.7 115.715ZM4.3 74.9152L2.32141 74.6233L2.32058 74.6291L4.3 74.9152ZM13.9 41.0152L15.7291 41.8242C15.7328 41.8158 15.7364 41.8074 15.74 41.799L13.9 41.0152ZM50.35 40.4152L48.635 39.3862C48.6087 39.4301 48.584 39.475 48.5611 39.5208L50.35 40.4152ZM35.5 88.1152L33.5213 87.8242C33.5202 87.8317 33.5191 87.8391 33.5181 87.8465L35.5 88.1152ZM35.05 104.615L33.0595 104.81C33.1599 105.834 34.021 106.615 35.05 106.615V104.615ZM35.35 104.615V106.615C35.8804 106.615 36.3892 106.405 36.7642 106.029L35.35 104.615ZM35.5 104.465L36.9142 105.879C37.0087 105.785 37.0935 105.681 37.1673 105.57L35.5 104.465ZM59.5 52.4152L61.4215 52.9701C61.4235 52.9631 61.4255 52.956 61.4275 52.949L59.5 52.4152ZM61.9 36.9652L59.9007 37.0178C59.9012 37.0354 59.9018 37.0529 59.9028 37.0704L61.9 36.9652ZM59.95 29.6152L61.3015 28.1409C60.5121 27.4174 59.2929 27.4439 58.5358 28.201L59.95 29.6152ZM59.2 30.2152L57.4112 31.1097C57.7499 31.7872 58.4425 32.2152 59.2 32.2152V30.2152ZM59.05 29.9152L60.8388 29.0208C60.7759 28.8948 60.6997 28.7758 60.6117 28.6658L59.05 29.9152ZM57.4 29.3152L57.1172 27.3353C56.5862 27.4112 56.108 27.6971 55.7899 28.1288L57.4 29.3152ZM53.5 35.1652L51.785 34.1362V34.1362L53.5 35.1652ZM24.0764 24.3841C25.4246 21.7777 27.6315 19.1236 30.794 16.4402L28.206 13.3902C24.7685 16.3069 22.1754 19.3528 20.5236 22.5464L24.0764 24.3841ZM30.794 16.4402C33.9507 13.7618 37.4971 11.5075 41.4409 9.67985L39.7591 6.05061C35.503 8.02296 31.6493 10.4687 28.206 13.3902L30.794 16.4402ZM41.4405 9.68003C50.5667 5.45316 58.4415 5.08931 65.2742 8.18679L66.9258 4.54367C58.7585 0.841148 49.6333 1.47729 39.7595 6.05043L41.4405 9.68003ZM65.2793 8.18907C67.2605 9.08062 68.7372 9.80319 69.7378 10.3616C70.2412 10.6426 70.5827 10.8593 70.794 11.0145C71.0903 11.2322 70.9201 11.1776 70.7611 10.8597L74.3389 9.0708C74.0299 8.45283 73.4784 8.02325 73.1623 7.79097C72.7611 7.49621 72.2588 7.18784 71.6872 6.86884C70.5378 6.22727 68.9395 5.44984 66.9207 4.54139L65.2793 8.18907ZM70.8859 11.0746C71.0189 11.2741 71.049 11.43 71.0201 11.6324L74.9799 12.1981C75.151 11.0004 74.8811 9.85631 74.2141 8.85582L70.8859 11.0746ZM71.0201 11.6324C70.8888 12.5515 70.9028 13.7758 71.0051 15.2077L74.9949 14.9227C74.8972 13.5547 74.9112 12.679 74.9799 12.1981L71.0201 11.6324ZM73.7319 16.9265C77.8939 15.2897 81.1644 15.1866 83.7347 16.2107C86.2997 17.2327 88.5616 19.5346 90.3785 23.5412L94.0215 21.8892C91.9384 17.2959 89.0503 14.0228 85.2153 12.4948C81.3856 10.9689 77.0061 11.3407 72.2681 13.204L73.7319 16.9265ZM90.3704 23.5231C93.5635 30.7545 94.4944 40.8418 92.9143 53.9763L96.8857 54.4541C98.5056 40.9886 97.6365 30.076 94.0296 21.9074L90.3704 23.5231ZM92.9161 53.9617C91.2392 67.0815 87.9455 78.1868 83.0843 87.326L86.6158 89.2045C91.7545 79.5436 95.1608 67.949 96.8839 54.4688L92.9161 53.9617ZM82.9637 87.6005C79.3551 97.8411 73.6412 107.475 65.7908 116.503L68.8092 119.128C76.9588 109.756 82.9449 99.6893 86.7363 88.9299L82.9637 87.6005ZM65.767 116.531C62.7321 120.153 59.958 122.814 57.449 124.58L59.751 127.851C62.642 125.816 65.6679 122.877 68.833 119.1L65.767 116.531ZM57.3806 124.63C56.1327 125.59 55.141 126.225 54.3876 126.592C53.566 126.991 53.3125 126.93 53.4078 126.947L52.6922 130.883C53.8875 131.1 55.109 130.689 56.1374 130.189C57.234 129.655 58.4673 128.841 59.8194 127.8L57.3806 124.63ZM52.6578 126.954C50.6336 127.359 48.8019 127.766 47.1649 128.175L48.1351 132.056C49.6981 131.665 51.4664 131.272 53.4422 130.876L52.6578 126.954ZM47.1238 128.186C45.029 128.757 43.3146 129.015 41.95 129.015V133.015C43.7854 133.015 45.871 132.673 48.1762 132.045L47.1238 128.186ZM40.5358 129.601C40.4942 129.643 40.4652 129.666 40.45 129.678C40.4349 129.689 40.4366 129.686 40.4556 129.676L42.2444 133.254C42.6799 133.036 43.0506 132.743 43.3642 132.429L40.5358 129.601ZM39.9358 130.051C39.6219 130.365 39.4082 130.727 39.2612 131.021L42.8388 132.81C42.8602 132.767 42.8695 132.754 42.8641 132.762C42.8609 132.767 42.852 132.78 42.8367 132.799C42.8215 132.818 42.7977 132.846 42.7642 132.879L39.9358 130.051ZM40.4753 130L35.9753 131.35L37.1247 135.181L41.6247 133.831L40.4753 130ZM34.5654 133.017C34.5192 133.387 34.259 134.101 32.1649 134.625L33.1351 138.506C35.841 137.829 38.1808 136.343 38.5346 133.513L34.5654 133.017ZM32.09 134.645C30.0121 135.251 27.5488 135.405 24.6559 135.032L24.1441 138.999C27.4512 139.426 30.4879 139.279 33.21 138.485L32.09 134.645ZM24.6643 135.033C21.8796 134.661 19.0173 133.822 16.0732 132.492L14.4268 136.138C17.6827 137.608 20.9204 138.569 24.1357 138.998L24.6643 135.033ZM16.0235 132.471C13.2537 131.309 11.3135 129.667 10.065 127.586L6.63501 129.644C8.38648 132.563 11.0463 134.721 14.4765 136.16L16.0235 132.471ZM10.1776 127.803C7.79629 122.445 6.31056 118.29 5.6538 115.288L1.7462 116.143C2.48944 119.54 4.10371 123.986 6.52238 129.428L10.1776 127.803ZM5.66532 115.344C3.72237 105.047 3.89548 91.6904 6.27942 75.2014L2.32058 74.6291C-0.0954758 91.3401 -0.322366 105.184 1.73468 116.086L5.66532 115.344ZM6.27858 75.2072C8.05448 63.1705 11.2078 52.0461 15.7291 41.8242L12.0709 40.2062C7.39215 50.7843 4.14552 62.2599 2.32142 74.6233L6.27858 75.2072ZM15.74 41.799C18.0154 36.4569 20.7914 30.6555 24.0717 24.3932L20.5283 22.5372C17.2086 28.8749 14.3846 34.7736 12.06 40.2315L15.74 41.799ZM48.5611 39.5208C41.0626 54.5178 36.051 70.6224 33.5213 87.8242L37.4787 88.4062C39.949 71.608 44.8374 55.9126 52.1389 41.3097L48.5611 39.5208ZM33.5181 87.8465C32.7006 93.8761 32.5422 99.5334 33.0595 104.81L37.0405 104.42C36.5578 99.497 36.6994 94.1543 37.4819 88.384L33.5181 87.8465ZM35.05 106.615H35.35V102.615H35.05V106.615ZM36.7642 106.029L36.9142 105.879L34.0858 103.051L33.9358 103.201L36.7642 106.029ZM37.1673 105.57C47.881 89.3981 55.966 71.8624 61.4215 52.9701L57.5785 51.8604C52.234 70.3681 44.319 87.5323 33.8327 103.361L37.1673 105.57ZM61.4275 52.949C63.2478 46.3756 64.1141 40.9807 63.8972 36.8601L59.9028 37.0704C60.0859 40.5498 59.3522 45.4549 57.5725 51.8815L61.4275 52.949ZM63.8993 36.9126C63.847 34.9262 63.65 33.1948 63.2706 31.7649C62.8979 30.3599 62.2994 29.0557 61.3015 28.1409L58.5985 31.0895C58.8006 31.2747 59.1271 31.7456 59.4044 32.7906C59.675 33.8106 59.853 35.2043 59.9007 37.0178L63.8993 36.9126ZM58.5358 28.201C58.355 28.3818 58.2529 28.4716 58.2131 28.5035C58.1904 28.5216 58.228 28.4886 58.3108 28.4412C58.3536 28.4168 58.44 28.3703 58.561 28.3263C58.6708 28.2864 58.8982 28.2152 59.2 28.2152V32.2152C59.7775 32.2152 60.1987 31.9695 60.2954 31.9142C60.4657 31.8169 60.6096 31.7088 60.7119 31.627C60.9221 31.4588 61.145 31.2486 61.3642 31.0294L58.5358 28.201ZM59.2 30.2152C60.9888 29.3208 60.9888 29.3208 60.9888 29.3208C60.9888 29.3208 60.9888 29.3208 60.9888 29.3208C60.9888 29.3208 60.9888 29.3208 60.9888 29.3208C60.9888 29.3208 60.9888 29.3208 60.9888 29.3207C60.9888 29.3207 60.9888 29.3207 60.9888 29.3207C60.9888 29.3207 60.9888 29.3207 60.9888 29.3207C60.9888 29.3207 60.9888 29.3207 60.9888 29.3207C60.9888 29.3207 60.9888 29.3207 60.9888 29.3207C60.9888 29.3207 60.9888 29.3207 60.9888 29.3207C60.9888 29.3207 60.9888 29.3206 60.9888 29.3206C60.9888 29.3206 60.9888 29.3206 60.9888 29.3206C60.9888 29.3206 60.9888 29.3206 60.9888 29.3206C60.9887 29.3206 60.9887 29.3206 60.9887 29.3206C60.9887 29.3205 60.9887 29.3205 60.9887 29.3205C60.9887 29.3205 60.9887 29.3205 60.9887 29.3205C60.9887 29.3205 60.9887 29.3205 60.9887 29.3204C60.9887 29.3204 60.9887 29.3204 60.9887 29.3204C60.9887 29.3204 60.9886 29.3204 60.9886 29.3204C60.9886 29.3204 60.9886 29.3203 60.9886 29.3203C60.9886 29.3203 60.9886 29.3203 60.9886 29.3203C60.9886 29.3203 60.9886 29.3202 60.9886 29.3202C60.9886 29.3202 60.9886 29.3202 60.9885 29.3202C60.9885 29.3202 60.9885 29.3201 60.9885 29.3201C60.9885 29.3201 60.9885 29.3201 60.9885 29.3201C60.9885 29.32 60.9885 29.32 60.9885 29.32C60.9884 29.32 60.9884 29.32 60.9884 29.3199C60.9884 29.3199 60.9884 29.3199 60.9884 29.3199C60.9884 29.3199 60.9884 29.3198 60.9884 29.3198C60.9884 29.3198 60.9883 29.3198 60.9883 29.3197C60.9883 29.3197 60.9883 29.3197 60.9883 29.3197C60.9883 29.3197 60.9883 29.3196 60.9883 29.3196C60.9883 29.3196 60.9882 29.3196 60.9882 29.3195C60.9882 29.3195 60.9882 29.3195 60.9882 29.3195C60.9882 29.3194 60.9882 29.3194 60.9881 29.3194C60.9881 29.3194 60.9881 29.3193 60.9881 29.3193C60.9881 29.3193 60.9881 29.3192 60.9881 29.3192C60.988 29.3192 60.988 29.3192 60.988 29.3191C60.988 29.3191 60.988 29.3191 60.988 29.319C60.988 29.319 60.9879 29.319 60.9879 29.3189C60.9879 29.3189 60.9879 29.3189 60.9879 29.3189C60.9879 29.3188 60.9879 29.3188 60.9878 29.3188C60.9878 29.3187 60.9878 29.3187 60.9878 29.3187C60.9878 29.3186 60.9878 29.3186 60.9877 29.3186C60.9877 29.3185 60.9877 29.3185 60.9877 29.3185C60.9877 29.3184 60.9877 29.3184 60.9876 29.3184C60.9876 29.3183 60.9876 29.3183 60.9876 29.3183C60.9876 29.3182 60.9875 29.3182 60.9875 29.3181C60.9875 29.3181 60.9875 29.3181 60.9875 29.318C60.9875 29.318 60.9874 29.318 60.9874 29.3179C60.9874 29.3179 60.9874 29.3178 60.9874 29.3178C60.9873 29.3178 60.9873 29.3177 60.9873 29.3177C60.9873 29.3176 60.9873 29.3176 60.9872 29.3176C60.9872 29.3175 60.9872 29.3175 60.9872 29.3174C60.9872 29.3174 60.9871 29.3174 60.9871 29.3173C60.9871 29.3173 60.9871 29.3172 60.9871 29.3172C60.987 29.3171 60.987 29.3171 60.987 29.3171C60.987 29.317 60.9869 29.317 60.9869 29.3169C60.9869 29.3169 60.9869 29.3168 60.9869 29.3168C60.9868 29.3167 60.9868 29.3167 60.9868 29.3167C60.9868 29.3166 60.9867 29.3166 60.9867 29.3165C60.9867 29.3165 60.9867 29.3164 60.9866 29.3164C60.9866 29.3163 60.9866 29.3163 60.9866 29.3162C60.9866 29.3162 60.9865 29.3161 60.9865 29.3161C60.9865 29.316 60.9865 29.316 60.9864 29.3159C60.9864 29.3159 60.9864 29.3158 60.9864 29.3158C60.9863 29.3157 60.9863 29.3157 60.9863 29.3156C60.9863 29.3156 60.9862 29.3155 60.9862 29.3155C60.9862 29.3154 60.9861 29.3154 60.9861 29.3153C60.9861 29.3153 60.9861 29.3152 60.986 29.3152C60.986 29.3151 60.986 29.3151 60.986 29.315C60.9859 29.315 60.9859 29.3149 60.9859 29.3148C60.9859 29.3148 60.9858 29.3147 60.9858 29.3147C60.9858 29.3146 60.9857 29.3146 60.9857 29.3145C60.9857 29.3145 60.9857 29.3144 60.9856 29.3143C60.9856 29.3143 60.9856 29.3142 60.9855 29.3142C60.9855 29.3141 60.9855 29.314 60.9855 29.314C60.9854 29.3139 60.9854 29.3139 60.9854 29.3138C60.9853 29.3138 60.9853 29.3137 60.9853 29.3136C60.9852 29.3136 60.9852 29.3135 60.9852 29.3135C60.9852 29.3134 60.9851 29.3133 60.9851 29.3133C60.9851 29.3132 60.985 29.3131 60.985 29.3131C60.985 29.313 60.9849 29.313 60.9849 29.3129C60.9849 29.3128 60.9848 29.3128 60.9848 29.3127C60.9848 29.3126 60.9847 29.3126 60.9847 29.3125C60.9847 29.3124 60.9846 29.3124 60.9846 29.3123C60.9846 29.3122 60.9846 29.3122 60.9845 29.3121C60.9845 29.312 60.9845 29.312 60.9844 29.3119C60.9844 29.3119 60.9843 29.3118 60.9843 29.3117C60.9843 29.3116 60.9842 29.3116 60.9842 29.3115C60.9842 29.3114 60.9841 29.3114 60.9841 29.3113C60.9841 29.3112 60.984 29.3112 60.984 29.3111C60.984 29.311 60.9839 29.311 60.9839 29.3109C60.9839 29.3108 60.9838 29.3107 60.9838 29.3107C60.9838 29.3106 60.9837 29.3105 60.9837 29.3104C60.9836 29.3104 60.9836 29.3103 60.9836 29.3102C60.9835 29.3102 60.9835 29.3101 60.9835 29.31C60.9834 29.3099 60.9834 29.3099 60.9834 29.3098C60.9833 29.3097 60.9833 29.3096 60.9832 29.3096C60.9832 29.3095 60.9832 29.3094 60.9831 29.3093C60.9831 29.3093 60.983 29.3092 60.983 29.3091C60.983 29.309 60.9829 29.309 60.9829 29.3089C60.9829 29.3088 60.9828 29.3087 60.9828 29.3086C60.9827 29.3086 60.9827 29.3085 60.9827 29.3084C60.9826 29.3083 60.9826 29.3082 60.9825 29.3082C60.9825 29.3081 60.9825 29.308 60.9824 29.3079C60.9824 29.3078 60.9823 29.3078 60.9823 29.3077C60.9823 29.3076 60.9822 29.3075 60.9822 29.3074C60.9821 29.3074 60.9821 29.3073 60.982 29.3072C60.982 29.3071 60.982 29.307 60.9819 29.3069C60.9819 29.3068 60.9818 29.3068 60.9818 29.3067C60.9818 29.3066 60.9817 29.3065 60.9817 29.3064C60.9816 29.3063 60.9816 29.3063 60.9815 29.3062C60.9815 29.3061 60.9815 29.306 60.9814 29.3059C60.9814 29.3058 60.9813 29.3057 60.9813 29.3056C60.9812 29.3056 60.9812 29.3055 60.9811 29.3054C60.9811 29.3053 60.9811 29.3052 60.981 29.3051C60.981 29.305 60.9809 29.3049 60.9809 29.3048C60.9808 29.3048 60.9808 29.3047 60.9807 29.3046C60.9807 29.3045 60.9807 29.3044 60.9806 29.3043C60.9806 29.3042 60.9805 29.3041 60.9805 29.304C60.9804 29.3039 60.9804 29.3038 60.9803 29.3037C60.9803 29.3036 60.9802 29.3036 60.9802 29.3035C60.9801 29.3034 60.9801 29.3033 60.98 29.3032C60.98 29.3031 60.98 29.303 60.9799 29.3029C60.9799 29.3028 60.9798 29.3027 60.9798 29.3026C60.9797 29.3025 60.9797 29.3024 60.9796 29.3023C60.9796 29.3022 60.9795 29.3021 60.9795 29.302C60.9794 29.3019 60.9794 29.3018 60.9793 29.3017C60.9793 29.3016 60.9792 29.3015 60.9792 29.3014C60.9791 29.3013 60.9791 29.3012 60.979 29.3011C60.979 29.301 60.9789 29.3009 60.9789 29.3008C60.9788 29.3007 60.9788 29.3006 60.9787 29.3005C60.9787 29.3004 60.9786 29.3003 60.9786 29.3002C60.9785 29.3001 60.9785 29.3 60.9784 29.2999C60.9784 29.2998 60.9783 29.2997 60.9783 29.2996C60.9782 29.2995 60.9782 29.2994 60.9781 29.2993C60.9781 29.2992 60.978 29.2991 60.978 29.299C60.9779 29.2989 60.9778 29.2988 60.9778 29.2987C60.9777 29.2986 60.9777 29.2985 60.9776 29.2983C60.9776 29.2982 60.9775 29.2981 60.9775 29.298C60.9774 29.2979 60.9774 29.2978 60.9773 29.2977C60.9773 29.2976 60.9772 29.2975 60.9771 29.2974C60.9771 29.2973 60.977 29.2972 60.977 29.2971C60.9769 29.2969 60.9769 29.2968 60.9768 29.2967C60.9768 29.2966 60.9767 29.2965 60.9767 29.2964C60.9766 29.2963 60.9765 29.2962 60.9765 29.2961C60.9764 29.2959 60.9764 29.2958 60.9763 29.2957C60.9763 29.2956 60.9762 29.2955 60.9761 29.2954C60.9761 29.2953 60.976 29.2951 60.976 29.295C60.9759 29.2949 60.9759 29.2948 60.9758 29.2947C60.9757 29.2946 60.9757 29.2945 60.9756 29.2943C60.9756 29.2942 60.9755 29.2941 60.9755 29.294C60.9754 29.2939 60.9753 29.2938 60.9753 29.2936C60.9752 29.2935 60.9752 29.2934 60.9751 29.2933C60.975 29.2932 60.975 29.293 60.9749 29.2929C60.9749 29.2928 60.9748 29.2927 60.9747 29.2926C60.9747 29.2924 60.9746 29.2923 60.9746 29.2922C60.9745 29.2921 60.9744 29.292 60.9744 29.2918C60.9743 29.2917 60.9743 29.2916 60.9742 29.2915C60.9741 29.2914 60.9741 29.2912 60.974 29.2911C60.974 29.291 60.9739 29.2909 60.9738 29.2907C60.9738 29.2906 60.9737 29.2905 60.9736 29.2904C60.9736 29.2903 60.9735 29.2901 60.9735 29.29C60.9734 29.2899 60.9733 29.2897 60.9733 29.2896C60.9732 29.2895 60.9731 29.2894 60.9731 29.2892C60.973 29.2891 60.973 29.289 60.9729 29.2889C60.9728 29.2887 60.9728 29.2886 60.9727 29.2885C60.9726 29.2884 60.9726 29.2882 60.9725 29.2881C60.9724 29.288 60.9724 29.2878 60.9723 29.2877C60.9722 29.2876 60.9722 29.2874 60.9721 29.2873C60.972 29.2872 60.972 29.2871 60.9719 29.2869C60.9719 29.2868 60.9718 29.2867 60.9717 29.2865C60.9717 29.2864 60.9716 29.2863 60.9715 29.2861C60.9715 29.286 60.9714 29.2859 60.9713 29.2857C60.9713 29.2856 60.9712 29.2855 60.9711 29.2853C60.9711 29.2852 60.971 29.2851 60.9709 29.2849C60.9709 29.2848 60.9708 29.2847 60.9707 29.2845C60.9706 29.2844 60.9706 29.2842 60.9705 29.2841C60.9704 29.284 60.9704 29.2838 60.9703 29.2837C60.9702 29.2836 60.9702 29.2834 60.9701 29.2833C60.97 29.2831 60.97 29.283 60.9699 29.2829C60.9698 29.2827 60.9698 29.2826 60.9697 29.2825C60.9696 29.2823 60.9695 29.2822 60.9695 29.282C60.9694 29.2819 60.9693 29.2818 60.9693 29.2816C60.9692 29.2815 60.9691 29.2813 60.9691 29.2812C60.969 29.281 60.9689 29.2809 60.9688 29.2808C60.9688 29.2806 60.9687 29.2805 60.9686 29.2803C60.9686 29.2802 60.9685 29.28 60.9684 29.2799C60.9683 29.2798 60.9683 29.2796 60.9682 29.2795C60.9681 29.2793 60.968 29.2792 60.968 29.279C60.9679 29.2789 60.9678 29.2787 60.9678 29.2786C60.9677 29.2784 60.9676 29.2783 60.9675 29.2782C60.9675 29.278 60.9674 29.2779 60.9673 29.2777C60.9672 29.2776 60.9672 29.2774 60.9671 29.2773C60.967 29.2771 60.9669 29.277 60.9669 29.2768C60.9668 29.2767 60.9667 29.2765 60.9666 29.2764C60.9666 29.2762 60.9665 29.2761 60.9664 29.2759C60.9663 29.2758 60.9663 29.2756 60.9662 29.2755C60.9661 29.2753 60.966 29.2752 60.966 29.275C60.9659 29.2748 60.9658 29.2747 60.9657 29.2745C60.9657 29.2744 60.9656 29.2742 60.9655 29.2741C60.9654 29.2739 60.9653 29.2738 60.9653 29.2736C60.9652 29.2735 60.9651 29.2733 60.965 29.2732C60.965 29.273 60.9649 29.2728 60.9648 29.2727C60.9647 29.2725 60.9646 29.2724 60.9646 29.2722C60.9645 29.2721 60.9644 29.2719 60.9643 29.2717C60.9642 29.2716 60.9642 29.2714 60.9641 29.2713C60.964 29.2711 60.9639 29.271 60.9639 29.2708C60.9638 29.2706 60.9637 29.2705 60.9636 29.2703C60.9635 29.2701 60.9635 29.27 60.9634 29.2698C60.9633 29.2697 60.9632 29.2695 60.9631 29.2693C60.963 29.2692 60.963 29.269 60.9629 29.2689C60.9628 29.2687 60.9627 29.2685 60.9626 29.2684C60.9626 29.2682 60.9625 29.268 60.9624 29.2679C60.9623 29.2677 60.9622 29.2675 60.9622 29.2674C60.9621 29.2672 60.962 29.2671 60.9619 29.2669C60.9618 29.2667 60.9617 29.2666 60.9617 29.2664C60.9616 29.2662 60.9615 29.2661 60.9614 29.2659C60.9613 29.2657 60.9612 29.2656 60.9612 29.2654C60.9611 29.2652 60.961 29.2651 60.9609 29.2649C60.9608 29.2647 60.9607 29.2645 60.9606 29.2644C60.9606 29.2642 60.9605 29.264 60.9604 29.2639C60.9603 29.2637 60.9602 29.2635 60.9601 29.2634C60.96 29.2632 60.96 29.263 60.9599 29.2628C60.9598 29.2627 60.9597 29.2625 60.9596 29.2623C60.9595 29.2622 60.9594 29.262 60.9594 29.2618C60.9593 29.2616 60.9592 29.2615 60.9591 29.2613C60.959 29.2611 60.9589 29.2609 60.9588 29.2608C60.9588 29.2606 60.9587 29.2604 60.9586 29.2602C60.9585 29.2601 60.9584 29.2599 60.9583 29.2597C60.9582 29.2595 60.9581 29.2594 60.958 29.2592C60.958 29.259 60.9579 29.2588 60.9578 29.2587C60.9577 29.2585 60.9576 29.2583 60.9575 29.2581C60.9574 29.2579 60.9573 29.2578 60.9572 29.2576C60.9572 29.2574 60.9571 29.2572 60.957 29.257C60.9569 29.2569 60.9568 29.2567 60.9567 29.2565C60.9566 29.2563 60.9565 29.2561 60.9564 29.256C60.9563 29.2558 60.9563 29.2556 60.9562 29.2554C60.9561 29.2552 60.956 29.255 60.9559 29.2549C60.9558 29.2547 60.9557 29.2545 60.9556 29.2543C60.9555 29.2541 60.9554 29.2539 60.9553 29.2538C60.9552 29.2536 60.9552 29.2534 60.9551 29.2532C60.955 29.253 60.9549 29.2528 60.9548 29.2526C60.9547 29.2525 60.9546 29.2523 60.9545 29.2521C60.9544 29.2519 60.9543 29.2517 60.9542 29.2515C60.9541 29.2513 60.954 29.2512 60.9539 29.251C60.9538 29.2508 60.9537 29.2506 60.9537 29.2504C60.9536 29.2502 60.9535 29.25 60.9534 29.2498C60.9533 29.2496 60.9532 29.2494 60.9531 29.2493C60.953 29.2491 60.9529 29.2489 60.9528 29.2487C60.9527 29.2485 60.9526 29.2483 60.9525 29.2481C60.9524 29.2479 60.9523 29.2477 60.9522 29.2475C60.9521 29.2473 60.952 29.2471 60.9519 29.2469C60.9518 29.2467 60.9517 29.2466 60.9516 29.2464C60.9515 29.2462 60.9514 29.246 60.9513 29.2458C60.9512 29.2456 60.9512 29.2454 60.9511 29.2452C60.951 29.245 60.9509 29.2448 60.9508 29.2446C60.9507 29.2444 60.9506 29.2442 60.9505 29.244C60.9504 29.2438 60.9503 29.2436 60.9502 29.2434C60.9501 29.2432 60.95 29.243 60.9499 29.2428C60.9498 29.2426 60.9497 29.2424 60.9496 29.2422C60.9495 29.242 60.9494 29.2418 60.9493 29.2416C60.9492 29.2414 60.9491 29.2412 60.949 29.241C60.9489 29.2408 60.9488 29.2406 60.9487 29.2404C60.9486 29.2402 60.9485 29.24 60.9484 29.2398C60.9483 29.2396 60.9482 29.2394 60.9481 29.2392C60.948 29.239 60.9478 29.2388 60.9478 29.2386C60.9476 29.2384 60.9475 29.2382 60.9474 29.238C60.9473 29.2378 60.9472 29.2376 60.9471 29.2374C60.947 29.2371 60.9469 29.2369 60.9468 29.2367C60.9467 29.2365 60.9466 29.2363 60.9465 29.2361C60.9464 29.2359 60.9463 29.2357 60.9462 29.2355C60.9461 29.2353 60.946 29.2351 60.9459 29.2349C60.9458 29.2346 60.9457 29.2344 60.9456 29.2342C60.9455 29.234 60.9454 29.2338 60.9453 29.2336C60.9452 29.2334 60.945 29.2332 60.9449 29.233C60.9448 29.2328 60.9447 29.2325 60.9446 29.2323C60.9445 29.2321 60.9444 29.2319 60.9443 29.2317C60.9442 29.2315 60.9441 29.2313 60.944 29.2311C60.9439 29.2308 60.9438 29.2306 60.9437 29.2304C60.9436 29.2302 60.9435 29.23 60.9433 29.2298C60.9432 29.2296 60.9431 29.2293 60.943 29.2291C60.9429 29.2289 60.9428 29.2287 60.9427 29.2285C60.9426 29.2283 60.9425 29.228 60.9424 29.2278C60.9423 29.2276 60.9422 29.2274 60.942 29.2272C60.9419 29.227 60.9418 29.2267 60.9417 29.2265C60.9416 29.2263 60.9415 29.2261 60.9414 29.2259C60.9413 29.2256 60.9412 29.2254 60.9411 29.2252C60.9409 29.225 60.9408 29.2248 60.9407 29.2245C60.9406 29.2243 60.9405 29.2241 60.9404 29.2239C60.9403 29.2236 60.9402 29.2234 60.9401 29.2232C60.9399 29.223 60.9398 29.2228 60.9397 29.2225C60.9396 29.2223 60.9395 29.2221 60.9394 29.2219C60.9393 29.2216 60.9392 29.2214 60.939 29.2212C60.9389 29.221 60.9388 29.2207 60.9387 29.2205C60.9386 29.2203 60.9385 29.2201 60.9384 29.2198C60.9383 29.2196 60.9381 29.2194 60.938 29.2192C60.9379 29.2189 60.9378 29.2187 60.9377 29.2185C60.9376 29.2182 60.9375 29.218 60.9373 29.2178C60.9372 29.2176 60.9371 29.2173 60.937 29.2171C60.9369 29.2169 60.9368 29.2166 60.9367 29.2164C60.9365 29.2162 60.9364 29.2159 60.9363 29.2157C60.9362 29.2155 60.9361 29.2152 60.936 29.215C60.9358 29.2148 60.9357 29.2146 60.9356 29.2143C60.9355 29.2141 60.9354 29.2139 60.9353 29.2136C60.9352 29.2134 60.935 29.2132 60.9349 29.2129C60.9348 29.2127 60.9347 29.2125 60.9346 29.2122C60.9344 29.212 60.9343 29.2117 60.9342 29.2115C60.9341 29.2113 60.934 29.211 60.9339 29.2108C60.9337 29.2106 60.9336 29.2103 60.9335 29.2101C60.9334 29.2099 60.9333 29.2096 60.9331 29.2094C60.933 29.2091 60.9329 29.2089 60.9328 29.2087C60.9327 29.2084 60.9325 29.2082 60.9324 29.2079C60.9323 29.2077 60.9322 29.2075 60.9321 29.2072C60.9319 29.207 60.9318 29.2067 60.9317 29.2065C60.9316 29.2063 60.9315 29.206 60.9313 29.2058C60.9312 29.2055 60.9311 29.2053 60.931 29.2051C60.9309 29.2048 60.9307 29.2046 60.9306 29.2043C60.9305 29.2041 60.9304 29.2038 60.9303 29.2036C60.9301 29.2033 60.93 29.2031 60.9299 29.2029C60.9298 29.2026 60.9296 29.2024 60.9295 29.2021C60.9294 29.2019 60.9293 29.2016 60.9291 29.2014C60.929 29.2011 60.9289 29.2009 60.9288 29.2006C60.9287 29.2004 60.9285 29.2001 60.9284 29.1999C60.9283 29.1997 60.9282 29.1994 60.928 29.1992C60.9279 29.1989 60.9278 29.1987 60.9277 29.1984C60.9275 29.1982 60.9274 29.1979 60.9273 29.1977C60.9272 29.1974 60.927 29.1972 60.9269 29.1969C60.9268 29.1967 60.9267 29.1964 60.9265 29.1962C60.9264 29.1959 60.9263 29.1956 60.9262 29.1954C60.926 29.1951 60.9259 29.1949 60.9258 29.1946C60.9256 29.1944 60.9255 29.1941 60.9254 29.1939C60.9253 29.1936 60.9251 29.1934 60.925 29.1931C60.9249 29.1929 60.9248 29.1926 60.9246 29.1924C60.9245 29.1921 60.9244 29.1918 60.9242 29.1916C60.9241 29.1913 60.924 29.1911 60.9239 29.1908C60.9237 29.1906 60.9236 29.1903 60.9235 29.19C60.9233 29.1898 60.9232 29.1895 60.9231 29.1893C60.923 29.189 60.9228 29.1887 60.9227 29.1885C60.9226 29.1882 60.9224 29.188 60.9223 29.1877C60.9222 29.1874 60.9221 29.1872 60.9219 29.1869C60.9218 29.1867 60.9217 29.1864 60.9215 29.1861C60.9214 29.1859 60.9213 29.1856 60.9211 29.1854C60.921 29.1851 60.9209 29.1848 60.9207 29.1846C60.9206 29.1843 60.9205 29.184 60.9203 29.1838C60.9202 29.1835 60.9201 29.1833 60.9199 29.183C60.9198 29.1827 60.9197 29.1825 60.9195 29.1822C60.9194 29.1819 60.9193 29.1817 60.9192 29.1814C60.919 29.1811 60.9189 29.1809 60.9188 29.1806C60.9186 29.1803 60.9185 29.1801 60.9184 29.1798C60.9182 29.1795 60.9181 29.1793 60.9179 29.179C60.9178 29.1787 60.9177 29.1784 60.9175 29.1782C60.9174 29.1779 60.9173 29.1776 60.9171 29.1774C60.917 29.1771 60.9169 29.1768 60.9167 29.1766C60.9166 29.1763 60.9165 29.176 60.9163 29.1757C60.9162 29.1755 60.9161 29.1752 60.9159 29.1749C60.9158 29.1747 60.9156 29.1744 60.9155 29.1741C60.9154 29.1738 60.9152 29.1736 60.9151 29.1733C60.915 29.173 60.9148 29.1727 60.9147 29.1725C60.9146 29.1722 60.9144 29.1719 60.9143 29.1716C60.9141 29.1714 60.914 29.1711 60.9139 29.1708C60.9137 29.1705 60.9136 29.1703 60.9134 29.17C60.9133 29.1697 60.9132 29.1694 60.913 29.1692C60.9129 29.1689 60.9128 29.1686 60.9126 29.1683C60.9125 29.168 60.9123 29.1678 60.9122 29.1675C60.9121 29.1672 60.9119 29.1669 60.9118 29.1666C60.9116 29.1664 60.9115 29.1661 60.9114 29.1658C60.9112 29.1655 60.9111 29.1652 60.9109 29.165C60.9108 29.1647 60.9107 29.1644 60.9105 29.1641C60.9104 29.1638 60.9102 29.1635 60.9101 29.1633C60.9099 29.163 60.9098 29.1627 60.9097 29.1624C60.9095 29.1621 60.9094 29.1618 60.9092 29.1616C60.9091 29.1613 60.909 29.161 60.9088 29.1607C60.9087 29.1604 60.9085 29.1601 60.9084 29.1599C60.9082 29.1596 60.9081 29.1593 60.908 29.159C60.9078 29.1587 60.9077 29.1584 60.9075 29.1581C60.9074 29.1578 60.9072 29.1576 60.9071 29.1573C60.9069 29.157 60.9068 29.1567 60.9067 29.1564C60.9065 29.1561 60.9064 29.1558 60.9062 29.1555C60.9061 29.1552 60.9059 29.1549 60.9058 29.1547C60.9056 29.1544 60.9055 29.1541 60.9053 29.1538C60.9052 29.1535 60.9051 29.1532 60.9049 29.1529C60.9048 29.1526 60.9046 29.1523 60.9045 29.152C60.9043 29.1517 60.9042 29.1514 60.904 29.1512C60.9039 29.1509 60.9037 29.1506 60.9036 29.1503C60.9034 29.15 60.9033 29.1497 60.9031 29.1494C60.903 29.1491 60.9029 29.1488 60.9027 29.1485C60.9026 29.1482 60.9024 29.1479 60.9023 29.1476C60.9021 29.1473 60.902 29.147 60.9018 29.1467C60.9017 29.1464 60.9015 29.1461 60.9014 29.1458C60.9012 29.1455 60.9011 29.1452 60.9009 29.1449C60.9008 29.1446 60.9006 29.1443 60.9005 29.144C60.9003 29.1437 60.9002 29.1434 60.9 29.1431C60.8999 29.1428 60.8997 29.1425 60.8996 29.1422C60.8994 29.1419 60.8993 29.1416 60.8991 29.1413C60.899 29.141 60.8988 29.1407 60.8987 29.1404C60.8985 29.1401 60.8984 29.1398 60.8982 29.1395C60.8981 29.1392 60.8979 29.1389 60.8978 29.1386C60.8976 29.1383 60.8974 29.138 60.8973 29.1377C60.8971 29.1374 60.897 29.1371 60.8968 29.1368C60.8967 29.1365 60.8965 29.1361 60.8964 29.1358C60.8962 29.1355 60.8961 29.1352 60.8959 29.1349C60.8958 29.1346 60.8956 29.1343 60.8955 29.134C60.8953 29.1337 60.8951 29.1334 60.895 29.1331C60.8948 29.1328 60.8947 29.1325 60.8945 29.1321C60.8944 29.1318 60.8942 29.1315 60.8941 29.1312C60.8939 29.1309 60.8937 29.1306 60.8936 29.1303C60.8934 29.13 60.8933 29.1297 60.8931 29.1293C60.893 29.129 60.8928 29.1287 60.8927 29.1284C60.8925 29.1281 60.8923 29.1278 60.8922 29.1275C60.892 29.1272 60.8919 29.1268 60.8917 29.1265C60.8916 29.1262 60.8914 29.1259 60.8912 29.1256C60.8911 29.1253 60.8909 29.1249 60.8908 29.1246C60.8906 29.1243 60.8905 29.124 60.8903 29.1237C60.8901 29.1234 60.89 29.1231 60.8898 29.1227C60.8897 29.1224 60.8895 29.1221 60.8893 29.1218C60.8892 29.1215 60.889 29.1211 60.8889 29.1208C60.8887 29.1205 60.8885 29.1202 60.8884 29.1199C60.8882 29.1195 60.8881 29.1192 60.8879 29.1189C60.8877 29.1186 60.8876 29.1183 60.8874 29.1179C60.8873 29.1176 60.8871 29.1173 60.8869 29.117C60.8868 29.1167 60.8866 29.1163 60.8865 29.116C60.8863 29.1157 60.8861 29.1154 60.886 29.115C60.8858 29.1147 60.8857 29.1144 60.8855 29.1141C60.8853 29.1137 60.8852 29.1134 60.885 29.1131C60.8848 29.1128 60.8847 29.1124 60.8845 29.1121C60.8844 29.1118 60.8842 29.1115 60.884 29.1111C60.8839 29.1108 60.8837 29.1105 60.8835 29.1102C60.8834 29.1098 60.8832 29.1095 60.883 29.1092C60.8829 29.1088 60.8827 29.1085 60.8826 29.1082C60.8824 29.1079 60.8822 29.1075 60.8821 29.1072C60.8819 29.1069 60.8817 29.1065 60.8816 29.1062C60.8814 29.1059 60.8812 29.1056 60.8811 29.1052C60.8809 29.1049 60.8807 29.1046 60.8806 29.1042C60.8804 29.1039 60.8802 29.1036 60.8801 29.1032C60.8799 29.1029 60.8797 29.1026 60.8796 29.1022C60.8794 29.1019 60.8792 29.1016 60.8791 29.1012C60.8789 29.1009 60.8787 29.1006 60.8786 29.1002C60.8784 29.0999 60.8782 29.0996 60.8781 29.0992C60.8779 29.0989 60.8777 29.0985 60.8776 29.0982C60.8774 29.0979 60.8772 29.0975 60.8771 29.0972C60.8769 29.0969 60.8767 29.0965 60.8765 29.0962C60.8764 29.0959 60.8762 29.0955 60.876 29.0952C60.8759 29.0948 60.8757 29.0945 60.8755 29.0942C60.8754 29.0938 60.8752 29.0935 60.875 29.0931C60.8749 29.0928 60.8747 29.0925 60.8745 29.0921C60.8743 29.0918 60.8742 29.0914 60.874 29.0911C60.8738 29.0908 60.8737 29.0904 60.8735 29.0901C60.8733 29.0897 60.8731 29.0894 60.873 29.089C60.8728 29.0887 60.8726 29.0883 60.8725 29.088C60.8723 29.0877 60.8721 29.0873 60.8719 29.087C60.8718 29.0866 60.8716 29.0863 60.8714 29.0859C60.8713 29.0856 60.8711 29.0853 60.8709 29.0849C60.8707 29.0846 60.8706 29.0842 60.8704 29.0839C60.8702 29.0835 60.87 29.0832 60.8699 29.0828C60.8697 29.0825 60.8695 29.0821 60.8693 29.0818C60.8692 29.0814 60.869 29.0811 60.8688 29.0807C60.8686 29.0804 60.8685 29.08 60.8683 29.0797C60.8681 29.0793 60.8679 29.079 60.8678 29.0786C60.8676 29.0783 60.8674 29.0779 60.8672 29.0776C60.8671 29.0772 60.8669 29.0769 60.8667 29.0765C60.8665 29.0762 60.8664 29.0758 60.8662 29.0755C60.866 29.0751 60.8658 29.0748 60.8657 29.0744C60.8655 29.074 60.8653 29.0737 60.8651 29.0733C60.8649 29.073 60.8648 29.0726 60.8646 29.0723C60.8644 29.0719 60.8642 29.0716 60.8641 29.0712C60.8639 29.0708 60.8637 29.0705 60.8635 29.0701C60.8633 29.0698 60.8632 29.0694 60.863 29.0691C60.8628 29.0687 60.8626 29.0683 60.8624 29.068C60.8623 29.0676 60.8621 29.0673 60.8619 29.0669C60.8617 29.0665 60.8615 29.0662 60.8614 29.0658C60.8612 29.0655 60.861 29.0651 60.8608 29.0647C60.8606 29.0644 60.8605 29.064 60.8603 29.0637C60.8601 29.0633 60.8599 29.0629 60.8597 29.0626C60.8596 29.0622 60.8594 29.0619 60.8592 29.0615C60.859 29.0611 60.8588 29.0608 60.8587 29.0604C60.8585 29.06 60.8583 29.0597 60.8581 29.0593C60.8579 29.0589 60.8577 29.0586 60.8576 29.0582C60.8574 29.0578 60.8572 29.0575 60.857 29.0571C60.8568 29.0567 60.8566 29.0564 60.8565 29.056C60.8563 29.0556 60.8561 29.0553 60.8559 29.0549C60.8557 29.0545 60.8555 29.0542 60.8554 29.0538C60.8552 29.0534 60.855 29.0531 60.8548 29.0527C60.8546 29.0523 60.8544 29.052 60.8542 29.0516C60.8541 29.0512 60.8539 29.0508 60.8537 29.0505C60.8535 29.0501 60.8533 29.0497 60.8531 29.0494C60.853 29.049 60.8528 29.0486 60.8526 29.0482C60.8524 29.0479 60.8522 29.0475 60.852 29.0471C60.8518 29.0468 60.8516 29.0464 60.8515 29.046C60.8513 29.0456 60.8511 29.0453 60.8509 29.0449C60.8507 29.0445 60.8505 29.0441 60.8503 29.0438C60.8501 29.0434 60.85 29.043 60.8498 29.0426C60.8496 29.0423 60.8494 29.0419 60.8492 29.0415C60.849 29.0411 60.8488 29.0407 60.8486 29.0404C60.8484 29.04 60.8483 29.0396 60.8481 29.0392C60.8479 29.0389 60.8477 29.0385 60.8475 29.0381C60.8473 29.0377 60.8471 29.0373 60.8469 29.037C60.8467 29.0366 60.8466 29.0362 60.8464 29.0358C60.8462 29.0354 60.846 29.0351 60.8458 29.0347C60.8456 29.0343 60.8454 29.0339 60.8452 29.0335C60.845 29.0331 60.8448 29.0328 60.8446 29.0324C60.8445 29.032 60.8443 29.0316 60.8441 29.0312C60.8439 29.0309 60.8437 29.0305 60.8435 29.0301C60.8433 29.0297 60.8431 29.0293 60.8429 29.0289C60.8427 29.0285 60.8425 29.0282 60.8423 29.0278C60.8421 29.0274 60.842 29.027 60.8418 29.0266C60.8416 29.0262 60.8414 29.0258 60.8412 29.0255C60.841 29.0251 60.8408 29.0247 60.8406 29.0243C60.8404 29.0239 60.8402 29.0235 60.84 29.0231C60.8398 29.0227 60.8396 29.0223 60.8394 29.0219C60.8392 29.0216 60.839 29.0212 60.8388 29.0208L57.2612 30.8097C57.2614 30.8101 57.2615 30.8105 57.2617 30.8109C57.2619 30.8112 57.2621 30.8116 57.2623 30.812C57.2625 30.8124 57.2627 30.8128 57.2629 30.8132C57.2631 30.8136 57.2633 30.814 57.2635 30.8143C57.2637 30.8147 57.2639 30.8151 57.2641 30.8155C57.2643 30.8159 57.2645 30.8163 57.2647 30.8167C57.2648 30.8171 57.265 30.8174 57.2652 30.8178C57.2654 30.8182 57.2656 30.8186 57.2658 30.819C57.266 30.8194 57.2662 30.8197 57.2664 30.8201C57.2666 30.8205 57.2668 30.8209 57.267 30.8213C57.2672 30.8217 57.2673 30.8221 57.2675 30.8224C57.2677 30.8228 57.2679 30.8232 57.2681 30.8236C57.2683 30.824 57.2685 30.8243 57.2687 30.8247C57.2689 30.8251 57.2691 30.8255 57.2692 30.8259C57.2694 30.8262 57.2696 30.8266 57.2698 30.827C57.27 30.8274 57.2702 30.8278 57.2704 30.8281C57.2706 30.8285 57.2708 30.8289 57.271 30.8293C57.2711 30.8297 57.2713 30.83 57.2715 30.8304C57.2717 30.8308 57.2719 30.8312 57.2721 30.8315C57.2723 30.8319 57.2725 30.8323 57.2726 30.8327C57.2728 30.833 57.273 30.8334 57.2732 30.8338C57.2734 30.8342 57.2736 30.8345 57.2738 30.8349C57.274 30.8353 57.2741 30.8357 57.2743 30.836C57.2745 30.8364 57.2747 30.8368 57.2749 30.8371C57.2751 30.8375 57.2753 30.8379 57.2754 30.8383C57.2756 30.8386 57.2758 30.839 57.276 30.8394C57.2762 30.8397 57.2764 30.8401 57.2766 30.8405C57.2767 30.8409 57.2769 30.8412 57.2771 30.8416C57.2773 30.842 57.2775 30.8423 57.2777 30.8427C57.2779 30.8431 57.278 30.8434 57.2782 30.8438C57.2784 30.8442 57.2786 30.8445 57.2788 30.8449C57.279 30.8453 57.2791 30.8456 57.2793 30.846C57.2795 30.8464 57.2797 30.8467 57.2799 30.8471C57.2801 30.8475 57.2802 30.8478 57.2804 30.8482C57.2806 30.8486 57.2808 30.8489 57.281 30.8493C57.2811 30.8497 57.2813 30.85 57.2815 30.8504C57.2817 30.8507 57.2819 30.8511 57.2821 30.8515C57.2822 30.8518 57.2824 30.8522 57.2826 30.8526C57.2828 30.8529 57.283 30.8533 57.2831 30.8536C57.2833 30.854 57.2835 30.8544 57.2837 30.8547C57.2839 30.8551 57.284 30.8554 57.2842 30.8558C57.2844 30.8562 57.2846 30.8565 57.2848 30.8569C57.2849 30.8572 57.2851 30.8576 57.2853 30.858C57.2855 30.8583 57.2857 30.8587 57.2858 30.859C57.286 30.8594 57.2862 30.8597 57.2864 30.8601C57.2865 30.8605 57.2867 30.8608 57.2869 30.8612C57.2871 30.8615 57.2873 30.8619 57.2874 30.8622C57.2876 30.8626 57.2878 30.8629 57.288 30.8633C57.2881 30.8636 57.2883 30.864 57.2885 30.8644C57.2887 30.8647 57.2888 30.8651 57.289 30.8654C57.2892 30.8658 57.2894 30.8661 57.2896 30.8665C57.2897 30.8668 57.2899 30.8672 57.2901 30.8675C57.2903 30.8679 57.2904 30.8682 57.2906 30.8686C57.2908 30.8689 57.291 30.8693 57.2911 30.8696C57.2913 30.87 57.2915 30.8703 57.2917 30.8707C57.2918 30.871 57.292 30.8714 57.2922 30.8717C57.2924 30.8721 57.2925 30.8724 57.2927 30.8728C57.2929 30.8731 57.293 30.8735 57.2932 30.8738C57.2934 30.8741 57.2936 30.8745 57.2937 30.8748C57.2939 30.8752 57.2941 30.8755 57.2943 30.8759C57.2944 30.8762 57.2946 30.8766 57.2948 30.8769C57.2949 30.8773 57.2951 30.8776 57.2953 30.8779C57.2955 30.8783 57.2956 30.8786 57.2958 30.879C57.296 30.8793 57.2961 30.8796 57.2963 30.88C57.2965 30.8803 57.2967 30.8807 57.2968 30.881C57.297 30.8814 57.2972 30.8817 57.2973 30.882C57.2975 30.8824 57.2977 30.8827 57.2978 30.8831C57.298 30.8834 57.2982 30.8837 57.2984 30.8841C57.2985 30.8844 57.2987 30.8848 57.2989 30.8851C57.299 30.8854 57.2992 30.8858 57.2994 30.8861C57.2995 30.8864 57.2997 30.8868 57.2999 30.8871C57.3 30.8875 57.3002 30.8878 57.3004 30.8881C57.3005 30.8885 57.3007 30.8888 57.3009 30.8891C57.301 30.8895 57.3012 30.8898 57.3014 30.8901C57.3016 30.8905 57.3017 30.8908 57.3019 30.8911C57.3021 30.8915 57.3022 30.8918 57.3024 30.8921C57.3026 30.8925 57.3027 30.8928 57.3029 30.8931C57.303 30.8935 57.3032 30.8938 57.3034 30.8941C57.3035 30.8945 57.3037 30.8948 57.3039 30.8951C57.304 30.8954 57.3042 30.8958 57.3044 30.8961C57.3045 30.8964 57.3047 30.8968 57.3049 30.8971C57.305 30.8974 57.3052 30.8978 57.3054 30.8981C57.3055 30.8984 57.3057 30.8987 57.3058 30.8991C57.306 30.8994 57.3062 30.8997 57.3063 30.9C57.3065 30.9004 57.3067 30.9007 57.3068 30.901C57.307 30.9013 57.3072 30.9017 57.3073 30.902C57.3075 30.9023 57.3076 30.9026 57.3078 30.903C57.308 30.9033 57.3081 30.9036 57.3083 30.9039C57.3085 30.9043 57.3086 30.9046 57.3088 30.9049C57.3089 30.9052 57.3091 30.9056 57.3093 30.9059C57.3094 30.9062 57.3096 30.9065 57.3097 30.9068C57.3099 30.9072 57.3101 30.9075 57.3102 30.9078C57.3104 30.9081 57.3105 30.9084 57.3107 30.9088C57.3109 30.9091 57.311 30.9094 57.3112 30.9097C57.3113 30.91 57.3115 30.9104 57.3117 30.9107C57.3118 30.911 57.312 30.9113 57.3121 30.9116C57.3123 30.9119 57.3125 30.9123 57.3126 30.9126C57.3128 30.9129 57.3129 30.9132 57.3131 30.9135C57.3132 30.9138 57.3134 30.9142 57.3136 30.9145C57.3137 30.9148 57.3139 30.9151 57.314 30.9154C57.3142 30.9157 57.3143 30.9161 57.3145 30.9164C57.3147 30.9167 57.3148 30.917 57.315 30.9173C57.3151 30.9176 57.3153 30.9179 57.3154 30.9182C57.3156 30.9186 57.3158 30.9189 57.3159 30.9192C57.3161 30.9195 57.3162 30.9198 57.3164 30.9201C57.3165 30.9204 57.3167 30.9207 57.3168 30.921C57.317 30.9213 57.3171 30.9217 57.3173 30.922C57.3175 30.9223 57.3176 30.9226 57.3178 30.9229C57.3179 30.9232 57.3181 30.9235 57.3182 30.9238C57.3184 30.9241 57.3185 30.9244 57.3187 30.9247C57.3188 30.925 57.319 30.9253 57.3191 30.9257C57.3193 30.926 57.3195 30.9263 57.3196 30.9266C57.3198 30.9269 57.3199 30.9272 57.3201 30.9275C57.3202 30.9278 57.3204 30.9281 57.3205 30.9284C57.3207 30.9287 57.3208 30.929 57.321 30.9293C57.3211 30.9296 57.3213 30.9299 57.3214 30.9302C57.3216 30.9305 57.3217 30.9308 57.3219 30.9311C57.322 30.9314 57.3222 30.9317 57.3223 30.932C57.3225 30.9323 57.3226 30.9326 57.3228 30.9329C57.3229 30.9332 57.3231 30.9335 57.3232 30.9338C57.3234 30.9341 57.3235 30.9344 57.3237 30.9347C57.3238 30.935 57.324 30.9353 57.3241 30.9356C57.3243 30.9359 57.3244 30.9362 57.3246 30.9365C57.3247 30.9368 57.3249 30.9371 57.325 30.9374C57.3252 30.9377 57.3253 30.938 57.3255 30.9383C57.3256 30.9386 57.3258 30.9389 57.3259 30.9392C57.326 30.9395 57.3262 30.9398 57.3263 30.94C57.3265 30.9403 57.3266 30.9406 57.3268 30.9409C57.3269 30.9412 57.3271 30.9415 57.3272 30.9418C57.3274 30.9421 57.3275 30.9424 57.3277 30.9427C57.3278 30.943 57.3279 30.9433 57.3281 30.9436C57.3282 30.9438 57.3284 30.9441 57.3285 30.9444C57.3287 30.9447 57.3288 30.945 57.329 30.9453C57.3291 30.9456 57.3293 30.9459 57.3294 30.9462C57.3295 30.9464 57.3297 30.9467 57.3298 30.947C57.33 30.9473 57.3301 30.9476 57.3303 30.9479C57.3304 30.9482 57.3305 30.9485 57.3307 30.9487C57.3308 30.949 57.331 30.9493 57.3311 30.9496C57.3313 30.9499 57.3314 30.9502 57.3315 30.9505C57.3317 30.9507 57.3318 30.951 57.332 30.9513C57.3321 30.9516 57.3323 30.9519 57.3324 30.9522C57.3325 30.9524 57.3327 30.9527 57.3328 30.953C57.333 30.9533 57.3331 30.9536 57.3332 30.9539C57.3334 30.9541 57.3335 30.9544 57.3337 30.9547C57.3338 30.955 57.334 30.9553 57.3341 30.9555C57.3342 30.9558 57.3344 30.9561 57.3345 30.9564C57.3346 30.9567 57.3348 30.9569 57.3349 30.9572C57.3351 30.9575 57.3352 30.9578 57.3353 30.958C57.3355 30.9583 57.3356 30.9586 57.3358 30.9589C57.3359 30.9592 57.336 30.9594 57.3362 30.9597C57.3363 30.96 57.3364 30.9603 57.3366 30.9605C57.3367 30.9608 57.3369 30.9611 57.337 30.9614C57.3371 30.9616 57.3373 30.9619 57.3374 30.9622C57.3375 30.9625 57.3377 30.9627 57.3378 30.963C57.338 30.9633 57.3381 30.9636 57.3382 30.9638C57.3384 30.9641 57.3385 30.9644 57.3386 30.9646C57.3388 30.9649 57.3389 30.9652 57.339 30.9655C57.3392 30.9657 57.3393 30.966 57.3395 30.9663C57.3396 30.9665 57.3397 30.9668 57.3399 30.9671C57.34 30.9673 57.3401 30.9676 57.3403 30.9679C57.3404 30.9681 57.3405 30.9684 57.3407 30.9687C57.3408 30.969 57.3409 30.9692 57.3411 30.9695C57.3412 30.9698 57.3413 30.97 57.3415 30.9703C57.3416 30.9706 57.3417 30.9708 57.3419 30.9711C57.342 30.9714 57.3421 30.9716 57.3423 30.9719C57.3424 30.9721 57.3425 30.9724 57.3427 30.9727C57.3428 30.9729 57.3429 30.9732 57.3431 30.9735C57.3432 30.9737 57.3433 30.974 57.3434 30.9743C57.3436 30.9745 57.3437 30.9748 57.3438 30.975C57.344 30.9753 57.3441 30.9756 57.3442 30.9758C57.3444 30.9761 57.3445 30.9763 57.3446 30.9766C57.3448 30.9769 57.3449 30.9771 57.345 30.9774C57.3451 30.9776 57.3453 30.9779 57.3454 30.9782C57.3455 30.9784 57.3457 30.9787 57.3458 30.9789C57.3459 30.9792 57.346 30.9795 57.3462 30.9797C57.3463 30.98 57.3464 30.9802 57.3466 30.9805C57.3467 30.9807 57.3468 30.981 57.3469 30.9812C57.3471 30.9815 57.3472 30.9818 57.3473 30.982C57.3475 30.9823 57.3476 30.9825 57.3477 30.9828C57.3478 30.983 57.348 30.9833 57.3481 30.9835C57.3482 30.9838 57.3483 30.984 57.3485 30.9843C57.3486 30.9846 57.3487 30.9848 57.3488 30.9851C57.349 30.9853 57.3491 30.9856 57.3492 30.9858C57.3493 30.9861 57.3495 30.9863 57.3496 30.9866C57.3497 30.9868 57.3498 30.9871 57.35 30.9873C57.3501 30.9876 57.3502 30.9878 57.3503 30.9881C57.3505 30.9883 57.3506 30.9885 57.3507 30.9888C57.3508 30.989 57.351 30.9893 57.3511 30.9895C57.3512 30.9898 57.3513 30.99 57.3515 30.9903C57.3516 30.9905 57.3517 30.9908 57.3518 30.991C57.352 30.9913 57.3521 30.9915 57.3522 30.9918C57.3523 30.992 57.3524 30.9922 57.3526 30.9925C57.3527 30.9927 57.3528 30.993 57.3529 30.9932C57.3531 30.9935 57.3532 30.9937 57.3533 30.9939C57.3534 30.9942 57.3535 30.9944 57.3537 30.9947C57.3538 30.9949 57.3539 30.9952 57.354 30.9954C57.3541 30.9956 57.3543 30.9959 57.3544 30.9961C57.3545 30.9964 57.3546 30.9966 57.3547 30.9968C57.3549 30.9971 57.355 30.9973 57.3551 30.9976C57.3552 30.9978 57.3553 30.998 57.3555 30.9983C57.3556 30.9985 57.3557 30.9987 57.3558 30.999C57.3559 30.9992 57.3561 30.9995 57.3562 30.9997C57.3563 30.9999 57.3564 31.0002 57.3565 31.0004C57.3566 31.0006 57.3568 31.0009 57.3569 31.0011C57.357 31.0014 57.3571 31.0016 57.3572 31.0018C57.3573 31.0021 57.3575 31.0023 57.3576 31.0025C57.3577 31.0028 57.3578 31.003 57.3579 31.0032C57.358 31.0034 57.3582 31.0037 57.3583 31.0039C57.3584 31.0042 57.3585 31.0044 57.3586 31.0046C57.3587 31.0048 57.3589 31.0051 57.359 31.0053C57.3591 31.0055 57.3592 31.0058 57.3593 31.006C57.3594 31.0062 57.3595 31.0065 57.3597 31.0067C57.3598 31.0069 57.3599 31.0071 57.36 31.0074C57.3601 31.0076 57.3602 31.0078 57.3603 31.008C57.3605 31.0083 57.3606 31.0085 57.3607 31.0087C57.3608 31.009 57.3609 31.0092 57.361 31.0094C57.3611 31.0096 57.3613 31.0099 57.3614 31.0101C57.3615 31.0103 57.3616 31.0105 57.3617 31.0108C57.3618 31.011 57.3619 31.0112 57.362 31.0114C57.3621 31.0117 57.3623 31.0119 57.3624 31.0121C57.3625 31.0123 57.3626 31.0125 57.3627 31.0128C57.3628 31.013 57.3629 31.0132 57.363 31.0134C57.3631 31.0137 57.3633 31.0139 57.3634 31.0141C57.3635 31.0143 57.3636 31.0145 57.3637 31.0148C57.3638 31.015 57.3639 31.0152 57.364 31.0154C57.3641 31.0156 57.3642 31.0159 57.3644 31.0161C57.3645 31.0163 57.3646 31.0165 57.3647 31.0167C57.3648 31.0169 57.3649 31.0172 57.365 31.0174C57.3651 31.0176 57.3652 31.0178 57.3653 31.018C57.3654 31.0182 57.3655 31.0185 57.3657 31.0187C57.3658 31.0189 57.3659 31.0191 57.366 31.0193C57.3661 31.0195 57.3662 31.0197 57.3663 31.02C57.3664 31.0202 57.3665 31.0204 57.3666 31.0206C57.3667 31.0208 57.3668 31.021 57.3669 31.0212C57.367 31.0214 57.3671 31.0217 57.3673 31.0219C57.3674 31.0221 57.3675 31.0223 57.3676 31.0225C57.3677 31.0227 57.3678 31.0229 57.3679 31.0231C57.368 31.0233 57.3681 31.0236 57.3682 31.0238C57.3683 31.024 57.3684 31.0242 57.3685 31.0244C57.3686 31.0246 57.3687 31.0248 57.3688 31.025C57.3689 31.0252 57.369 31.0254 57.3691 31.0256C57.3692 31.0258 57.3693 31.026 57.3694 31.0263C57.3695 31.0265 57.3697 31.0267 57.3698 31.0269C57.3699 31.0271 57.37 31.0273 57.3701 31.0275C57.3702 31.0277 57.3703 31.0279 57.3704 31.0281C57.3705 31.0283 57.3706 31.0285 57.3707 31.0287C57.3708 31.0289 57.3709 31.0291 57.371 31.0293C57.3711 31.0295 57.3712 31.0297 57.3713 31.0299C57.3714 31.0301 57.3715 31.0303 57.3716 31.0305C57.3717 31.0307 57.3718 31.0309 57.3719 31.0311C57.372 31.0313 57.3721 31.0315 57.3722 31.0317C57.3723 31.0319 57.3724 31.0321 57.3725 31.0323C57.3726 31.0325 57.3727 31.0327 57.3728 31.0329C57.3729 31.0331 57.373 31.0333 57.3731 31.0335C57.3732 31.0337 57.3733 31.0339 57.3734 31.0341C57.3735 31.0343 57.3736 31.0345 57.3737 31.0347C57.3738 31.0349 57.3739 31.0351 57.374 31.0353C57.3741 31.0355 57.3741 31.0357 57.3742 31.0358C57.3743 31.036 57.3744 31.0362 57.3745 31.0364C57.3746 31.0366 57.3747 31.0368 57.3748 31.037C57.3749 31.0372 57.375 31.0374 57.3751 31.0376C57.3752 31.0378 57.3753 31.038 57.3754 31.0382C57.3755 31.0383 57.3756 31.0385 57.3757 31.0387C57.3758 31.0389 57.3759 31.0391 57.376 31.0393C57.3761 31.0395 57.3762 31.0397 57.3763 31.0399C57.3763 31.04 57.3764 31.0402 57.3765 31.0404C57.3766 31.0406 57.3767 31.0408 57.3768 31.041C57.3769 31.0412 57.377 31.0414 57.3771 31.0415C57.3772 31.0417 57.3773 31.0419 57.3774 31.0421C57.3775 31.0423 57.3776 31.0425 57.3776 31.0427C57.3777 31.0428 57.3778 31.043 57.3779 31.0432C57.378 31.0434 57.3781 31.0436 57.3782 31.0438C57.3783 31.0439 57.3784 31.0441 57.3785 31.0443C57.3786 31.0445 57.3787 31.0447 57.3787 31.0449C57.3788 31.045 57.3789 31.0452 57.379 31.0454C57.3791 31.0456 57.3792 31.0458 57.3793 31.0459C57.3794 31.0461 57.3795 31.0463 57.3796 31.0465C57.3797 31.0467 57.3797 31.0468 57.3798 31.047C57.3799 31.0472 57.38 31.0474 57.3801 31.0475C57.3802 31.0477 57.3803 31.0479 57.3804 31.0481C57.3804 31.0483 57.3805 31.0484 57.3806 31.0486C57.3807 31.0488 57.3808 31.049 57.3809 31.0491C57.381 31.0493 57.3811 31.0495 57.3812 31.0497C57.3812 31.0498 57.3813 31.05 57.3814 31.0502C57.3815 31.0504 57.3816 31.0505 57.3817 31.0507C57.3818 31.0509 57.3818 31.0511 57.3819 31.0512C57.382 31.0514 57.3821 31.0516 57.3822 31.0517C57.3823 31.0519 57.3824 31.0521 57.3824 31.0523C57.3825 31.0524 57.3826 31.0526 57.3827 31.0528C57.3828 31.0529 57.3829 31.0531 57.383 31.0533C57.383 31.0534 57.3831 31.0536 57.3832 31.0538C57.3833 31.0539 57.3834 31.0541 57.3835 31.0543C57.3835 31.0545 57.3836 31.0546 57.3837 31.0548C57.3838 31.055 57.3839 31.0551 57.384 31.0553C57.384 31.0555 57.3841 31.0556 57.3842 31.0558C57.3843 31.056 57.3844 31.0561 57.3845 31.0563C57.3845 31.0564 57.3846 31.0566 57.3847 31.0568C57.3848 31.0569 57.3849 31.0571 57.385 31.0573C57.385 31.0574 57.3851 31.0576 57.3852 31.0578C57.3853 31.0579 57.3854 31.0581 57.3854 31.0582C57.3855 31.0584 57.3856 31.0586 57.3857 31.0587C57.3858 31.0589 57.3858 31.0591 57.3859 31.0592C57.386 31.0594 57.3861 31.0595 57.3862 31.0597C57.3862 31.0598 57.3863 31.06 57.3864 31.0602C57.3865 31.0603 57.3866 31.0605 57.3866 31.0606C57.3867 31.0608 57.3868 31.061 57.3869 31.0611C57.387 31.0613 57.387 31.0614 57.3871 31.0616C57.3872 31.0617 57.3873 31.0619 57.3873 31.062C57.3874 31.0622 57.3875 31.0624 57.3876 31.0625C57.3877 31.0627 57.3877 31.0628 57.3878 31.063C57.3879 31.0631 57.388 31.0633 57.388 31.0634C57.3881 31.0636 57.3882 31.0638 57.3883 31.0639C57.3883 31.0641 57.3884 31.0642 57.3885 31.0644C57.3886 31.0645 57.3887 31.0647 57.3887 31.0648C57.3888 31.065 57.3889 31.0651 57.389 31.0653C57.389 31.0654 57.3891 31.0656 57.3892 31.0657C57.3893 31.0659 57.3893 31.066 57.3894 31.0662C57.3895 31.0663 57.3895 31.0665 57.3896 31.0666C57.3897 31.0668 57.3898 31.0669 57.3898 31.067C57.3899 31.0672 57.39 31.0673 57.3901 31.0675C57.3901 31.0676 57.3902 31.0678 57.3903 31.0679C57.3904 31.0681 57.3904 31.0682 57.3905 31.0684C57.3906 31.0685 57.3906 31.0686 57.3907 31.0688C57.3908 31.0689 57.3909 31.0691 57.3909 31.0692C57.391 31.0694 57.3911 31.0695 57.3912 31.0697C57.3912 31.0698 57.3913 31.0699 57.3914 31.0701C57.3914 31.0702 57.3915 31.0704 57.3916 31.0705C57.3916 31.0706 57.3917 31.0708 57.3918 31.0709C57.3919 31.0711 57.3919 31.0712 57.392 31.0714C57.3921 31.0715 57.3921 31.0716 57.3922 31.0718C57.3923 31.0719 57.3923 31.072 57.3924 31.0722C57.3925 31.0723 57.3926 31.0725 57.3926 31.0726C57.3927 31.0727 57.3928 31.0729 57.3928 31.073C57.3929 31.0731 57.393 31.0733 57.393 31.0734C57.3931 31.0736 57.3932 31.0737 57.3932 31.0738C57.3933 31.074 57.3934 31.0741 57.3934 31.0742C57.3935 31.0744 57.3936 31.0745 57.3936 31.0746C57.3937 31.0748 57.3938 31.0749 57.3938 31.075C57.3939 31.0752 57.394 31.0753 57.394 31.0754C57.3941 31.0756 57.3942 31.0757 57.3942 31.0758C57.3943 31.076 57.3944 31.0761 57.3944 31.0762C57.3945 31.0763 57.3946 31.0765 57.3946 31.0766C57.3947 31.0767 57.3948 31.0769 57.3948 31.077C57.3949 31.0771 57.3949 31.0772 57.395 31.0774C57.3951 31.0775 57.3951 31.0776 57.3952 31.0778C57.3953 31.0779 57.3953 31.078 57.3954 31.0781C57.3955 31.0783 57.3955 31.0784 57.3956 31.0785C57.3956 31.0786 57.3957 31.0788 57.3958 31.0789C57.3958 31.079 57.3959 31.0791 57.396 31.0793C57.396 31.0794 57.3961 31.0795 57.3961 31.0796C57.3962 31.0798 57.3963 31.0799 57.3963 31.08C57.3964 31.0801 57.3965 31.0803 57.3965 31.0804C57.3966 31.0805 57.3966 31.0806 57.3967 31.0807C57.3968 31.0809 57.3968 31.081 57.3969 31.0811C57.3969 31.0812 57.397 31.0813 57.3971 31.0815C57.3971 31.0816 57.3972 31.0817 57.3972 31.0818C57.3973 31.0819 57.3974 31.0821 57.3974 31.0822C57.3975 31.0823 57.3975 31.0824 57.3976 31.0825C57.3976 31.0826 57.3977 31.0828 57.3978 31.0829C57.3978 31.083 57.3979 31.0831 57.3979 31.0832C57.398 31.0834 57.3981 31.0835 57.3981 31.0836C57.3982 31.0837 57.3982 31.0838 57.3983 31.0839C57.3983 31.084 57.3984 31.0842 57.3985 31.0843C57.3985 31.0844 57.3986 31.0845 57.3986 31.0846C57.3987 31.0847 57.3987 31.0848 57.3988 31.0849C57.3988 31.0851 57.3989 31.0852 57.399 31.0853C57.399 31.0854 57.3991 31.0855 57.3991 31.0856C57.3992 31.0857 57.3992 31.0858 57.3993 31.0859C57.3993 31.0861 57.3994 31.0862 57.3995 31.0863C57.3995 31.0864 57.3996 31.0865 57.3996 31.0866C57.3997 31.0867 57.3997 31.0868 57.3998 31.0869C57.3998 31.087 57.3999 31.0871 57.3999 31.0872C57.4 31.0873 57.4001 31.0875 57.4001 31.0876C57.4002 31.0877 57.4002 31.0878 57.4003 31.0879C57.4003 31.088 57.4004 31.0881 57.4004 31.0882C57.4005 31.0883 57.4005 31.0884 57.4006 31.0885C57.4006 31.0886 57.4007 31.0887 57.4007 31.0888C57.4008 31.0889 57.4008 31.089 57.4009 31.0891C57.4009 31.0892 57.401 31.0893 57.401 31.0894C57.4011 31.0895 57.4011 31.0896 57.4012 31.0897C57.4012 31.0898 57.4013 31.0899 57.4013 31.09C57.4014 31.0901 57.4014 31.0902 57.4015 31.0903C57.4015 31.0904 57.4016 31.0905 57.4016 31.0906C57.4017 31.0907 57.4017 31.0908 57.4018 31.0909C57.4018 31.091 57.4019 31.0911 57.4019 31.0912C57.402 31.0913 57.402 31.0914 57.4021 31.0915C57.4021 31.0916 57.4022 31.0917 57.4022 31.0918C57.4023 31.0919 57.4023 31.092 57.4024 31.0921C57.4024 31.0922 57.4025 31.0923 57.4025 31.0924C57.4025 31.0925 57.4026 31.0926 57.4026 31.0926C57.4027 31.0927 57.4027 31.0928 57.4028 31.0929C57.4028 31.093 57.4029 31.0931 57.4029 31.0932C57.403 31.0933 57.403 31.0934 57.4031 31.0935C57.4031 31.0936 57.4031 31.0937 57.4032 31.0937C57.4032 31.0938 57.4033 31.0939 57.4033 31.094C57.4034 31.0941 57.4034 31.0942 57.4035 31.0943C57.4035 31.0944 57.4035 31.0945 57.4036 31.0945C57.4036 31.0946 57.4037 31.0947 57.4037 31.0948C57.4038 31.0949 57.4038 31.095 57.4039 31.0951C57.4039 31.0951 57.4039 31.0952 57.404 31.0953C57.404 31.0954 57.4041 31.0955 57.4041 31.0956C57.4042 31.0957 57.4042 31.0957 57.4042 31.0958C57.4043 31.0959 57.4043 31.096 57.4044 31.0961C57.4044 31.0962 57.4044 31.0962 57.4045 31.0963C57.4045 31.0964 57.4046 31.0965 57.4046 31.0966C57.4046 31.0967 57.4047 31.0967 57.4047 31.0968C57.4048 31.0969 57.4048 31.097 57.4049 31.0971C57.4049 31.0971 57.4049 31.0972 57.405 31.0973C57.405 31.0974 57.405 31.0975 57.4051 31.0975C57.4051 31.0976 57.4052 31.0977 57.4052 31.0978C57.4052 31.0978 57.4053 31.0979 57.4053 31.098C57.4054 31.0981 57.4054 31.0982 57.4054 31.0982C57.4055 31.0983 57.4055 31.0984 57.4056 31.0985C57.4056 31.0985 57.4056 31.0986 57.4057 31.0987C57.4057 31.0988 57.4057 31.0988 57.4058 31.0989C57.4058 31.099 57.4058 31.0991 57.4059 31.0991C57.4059 31.0992 57.406 31.0993 57.406 31.0993C57.406 31.0994 57.4061 31.0995 57.4061 31.0996C57.4061 31.0996 57.4062 31.0997 57.4062 31.0998C57.4062 31.0998 57.4063 31.0999 57.4063 31.1C57.4064 31.1001 57.4064 31.1001 57.4064 31.1002C57.4065 31.1003 57.4065 31.1003 57.4065 31.1004C57.4066 31.1005 57.4066 31.1005 57.4066 31.1006C57.4067 31.1007 57.4067 31.1007 57.4067 31.1008C57.4068 31.1009 57.4068 31.1009 57.4068 31.101C57.4069 31.1011 57.4069 31.1011 57.4069 31.1012C57.407 31.1013 57.407 31.1013 57.407 31.1014C57.4071 31.1015 57.4071 31.1015 57.4071 31.1016C57.4072 31.1017 57.4072 31.1017 57.4072 31.1018C57.4072 31.1019 57.4073 31.1019 57.4073 31.102C57.4073 31.102 57.4074 31.1021 57.4074 31.1022C57.4074 31.1022 57.4075 31.1023 57.4075 31.1023C57.4075 31.1024 57.4076 31.1025 57.4076 31.1025C57.4076 31.1026 57.4076 31.1027 57.4077 31.1027C57.4077 31.1028 57.4077 31.1028 57.4078 31.1029C57.4078 31.103 57.4078 31.103 57.4079 31.1031C57.4079 31.1031 57.4079 31.1032 57.4079 31.1032C57.408 31.1033 57.408 31.1034 57.408 31.1034C57.4081 31.1035 57.4081 31.1035 57.4081 31.1036C57.4081 31.1036 57.4082 31.1037 57.4082 31.1037C57.4082 31.1038 57.4082 31.1039 57.4083 31.1039C57.4083 31.104 57.4083 31.104 57.4084 31.1041C57.4084 31.1041 57.4084 31.1042 57.4084 31.1042C57.4085 31.1043 57.4085 31.1043 57.4085 31.1044C57.4085 31.1044 57.4086 31.1045 57.4086 31.1045C57.4086 31.1046 57.4086 31.1046 57.4087 31.1047C57.4087 31.1047 57.4087 31.1048 57.4087 31.1048C57.4088 31.1049 57.4088 31.1049 57.4088 31.105C57.4088 31.105 57.4089 31.1051 57.4089 31.1051C57.4089 31.1052 57.4089 31.1052 57.409 31.1053C57.409 31.1053 57.409 31.1054 57.409 31.1054C57.4091 31.1055 57.4091 31.1055 57.4091 31.1056C57.4091 31.1056 57.4091 31.1056 57.4092 31.1057C57.4092 31.1057 57.4092 31.1058 57.4092 31.1058C57.4093 31.1059 57.4093 31.1059 57.4093 31.106C57.4093 31.106 57.4093 31.106 57.4094 31.1061C57.4094 31.1061 57.4094 31.1062 57.4094 31.1062C57.4095 31.1063 57.4095 31.1063 57.4095 31.1063C57.4095 31.1064 57.4095 31.1064 57.4096 31.1065C57.4096 31.1065 57.4096 31.1065 57.4096 31.1066C57.4096 31.1066 57.4097 31.1067 57.4097 31.1067C57.4097 31.1067 57.4097 31.1068 57.4097 31.1068C57.4097 31.1068 57.4098 31.1069 57.4098 31.1069C57.4098 31.107 57.4098 31.107 57.4098 31.107C57.4099 31.1071 57.4099 31.1071 57.4099 31.1071C57.4099 31.1072 57.4099 31.1072 57.41 31.1073C57.41 31.1073 57.41 31.1073 57.41 31.1074C57.41 31.1074 57.41 31.1074 57.4101 31.1075C57.4101 31.1075 57.4101 31.1075 57.4101 31.1076C57.4101 31.1076 57.4101 31.1076 57.4101 31.1077C57.4102 31.1077 57.4102 31.1077 57.4102 31.1077C57.4102 31.1078 57.4102 31.1078 57.4102 31.1078C57.4103 31.1079 57.4103 31.1079 57.4103 31.1079C57.4103 31.108 57.4103 31.108 57.4103 31.108C57.4103 31.1081 57.4104 31.1081 57.4104 31.1081C57.4104 31.1081 57.4104 31.1082 57.4104 31.1082C57.4104 31.1082 57.4104 31.1082 57.4105 31.1083C57.4105 31.1083 57.4105 31.1083 57.4105 31.1084C57.4105 31.1084 57.4105 31.1084 57.4105 31.1084C57.4105 31.1085 57.4106 31.1085 57.4106 31.1085C57.4106 31.1085 57.4106 31.1086 57.4106 31.1086C57.4106 31.1086 57.4106 31.1086 57.4106 31.1086C57.4107 31.1087 57.4107 31.1087 57.4107 31.1087C57.4107 31.1087 57.4107 31.1088 57.4107 31.1088C57.4107 31.1088 57.4107 31.1088 57.4107 31.1088C57.4108 31.1089 57.4108 31.1089 57.4108 31.1089C57.4108 31.1089 57.4108 31.1089 57.4108 31.109C57.4108 31.109 57.4108 31.109 57.4108 31.109C57.4108 31.109 57.4108 31.1091 57.4109 31.1091C57.4109 31.1091 57.4109 31.1091 57.4109 31.1091C57.4109 31.1091 57.4109 31.1092 57.4109 31.1092C57.4109 31.1092 57.4109 31.1092 57.4109 31.1092C57.4109 31.1092 57.4109 31.1092 57.411 31.1093C57.411 31.1093 57.411 31.1093 57.411 31.1093C57.411 31.1093 57.411 31.1093 57.411 31.1093C57.411 31.1094 57.411 31.1094 57.411 31.1094C57.411 31.1094 57.411 31.1094 57.411 31.1094C57.411 31.1094 57.411 31.1094 57.411 31.1095C57.4111 31.1095 57.4111 31.1095 57.4111 31.1095C57.4111 31.1095 57.4111 31.1095 57.4111 31.1095C57.4111 31.1095 57.4111 31.1095 57.4111 31.1095C57.4111 31.1095 57.4111 31.1096 57.4111 31.1096C57.4111 31.1096 57.4111 31.1096 57.4111 31.1096C57.4111 31.1096 57.4111 31.1096 57.4111 31.1096C57.4111 31.1096 57.4111 31.1096 57.4111 31.1096C57.4111 31.1096 57.4111 31.1096 57.4111 31.1096C57.4111 31.1096 57.4111 31.1096 57.4111 31.1096C57.4111 31.1096 57.4111 31.1097 57.4112 31.1097C57.4112 31.1097 57.4112 31.1097 57.4112 31.1097V31.1097C57.4112 31.1097 57.4112 31.1097 57.4112 31.1097C57.4112 31.1097 57.4112 31.1097 59.2 30.2152ZM60.6117 28.6658C59.7165 27.5468 58.4298 27.1478 57.1172 27.3353L57.6828 31.2951C57.7747 31.282 57.7461 31.3033 57.654 31.2698C57.6104 31.254 57.5693 31.2316 57.5355 31.2066C57.5026 31.1823 57.4879 31.1642 57.4883 31.1646L60.6117 28.6658ZM55.7899 28.1288C54.3529 30.079 53.0179 32.0815 51.785 34.1362L55.215 36.1942C56.3821 34.249 57.6471 32.3514 59.0101 30.5016L55.7899 28.1288ZM51.785 34.1362L48.635 39.3862L52.065 41.4442L55.215 36.1942L51.785 34.1362ZM116.591 81.8152L116.003 83.7268C116.013 83.7297 116.022 83.7325 116.031 83.7352L116.591 81.8152ZM111.491 74.3152L109.516 74.0033C109.513 74.0203 109.511 74.0373 109.508 74.0543L111.491 74.3152ZM118.541 63.0652L119.881 64.55C119.934 64.5023 119.984 64.4519 120.032 64.3988L118.541 63.0652ZM125.441 56.3152L124.132 54.8039C124.123 54.8112 124.115 54.8186 124.106 54.8261L125.441 56.3152ZM134.291 48.2152L132.916 46.7628C132.912 46.7673 132.907 46.7719 132.902 46.7764L134.291 48.2152ZM147.191 31.5652L149.12 32.0955C149.31 31.4047 149.116 30.6651 148.611 30.1565C148.106 29.6479 147.368 29.4482 146.676 29.6328L147.191 31.5652ZM135.791 35.0152L136.405 36.9186C136.424 36.9127 136.442 36.9065 136.46 36.9001L135.791 35.0152ZM127.841 37.2652L128.199 39.233C128.228 39.2278 128.256 39.2219 128.285 39.2155L127.841 37.2652ZM122.141 37.4152L121.749 39.3764C121.757 39.378 121.765 39.3795 121.773 39.381L122.141 37.4152ZM118.241 35.3152L116.762 36.6606C116.783 36.6841 116.805 36.707 116.827 36.7294L118.241 35.3152ZM115.991 31.2652L114.082 31.8618L114.082 31.8618L115.991 31.2652ZM120.791 18.8152L120.399 16.8541C120.372 16.8595 120.345 16.8654 120.319 16.8719L120.791 18.8152ZM123.041 17.4652L121.523 16.1637C121.485 16.2084 121.448 16.2548 121.414 16.3028L123.041 17.4652ZM124.691 15.2152L123.016 14.1227C123.009 14.1335 123.002 14.1443 122.995 14.1552L124.691 15.2152ZM130.091 11.1652L130.466 13.1299C130.569 13.1103 130.67 13.0826 130.769 13.047L130.091 11.1652ZM138.491 8.01523L137.789 6.14257C137.783 6.14504 137.776 6.14755 137.769 6.15009L138.491 8.01523ZM148.391 4.86523L148.903 6.79865L148.909 6.79713L148.391 4.86523ZM175.091 10.2652L176.506 8.85101L175.091 10.2652ZM180.641 29.6152L178.656 29.3731L178.655 29.3788L180.641 29.6152ZM176.291 43.8652L177.985 44.9296C178.033 44.8528 178.076 44.7728 178.113 44.6902L176.291 43.8652ZM169.241 52.4152L170.563 53.9167V53.9167L169.241 52.4152ZM162.341 57.9652L161.179 56.3378C161.166 56.3468 161.154 56.3559 161.141 56.3652L162.341 57.9652ZM155.591 63.0652L154.381 61.4729C153.731 61.9674 153.446 62.808 153.663 63.5959C153.88 64.3839 154.554 64.9606 155.366 65.0525L155.591 63.0652ZM167.591 69.0652L166.025 70.309C166.031 70.3166 166.037 70.3242 166.043 70.3317L167.591 69.0652ZM172.391 81.2152L174.383 81.0323C174.382 81.0242 174.381 81.0161 174.381 81.008L172.391 81.2152ZM163.541 113.315L165.255 114.346C165.259 114.34 165.263 114.333 165.267 114.327L163.541 113.315ZM113.891 135.965L114.034 137.96C114.047 137.959 114.059 137.958 114.072 137.957L113.891 135.965ZM96.3414 133.715L97.1245 131.875L96.3414 133.715ZM88.0914 125.315L90.0438 124.881C90.0235 124.79 89.9969 124.7 89.9641 124.613L88.0914 125.315ZM87.9414 117.965L89.8463 118.575C89.8557 118.545 89.8645 118.515 89.8726 118.485L87.9414 117.965ZM91.3914 111.215L89.9009 109.882C89.8876 109.897 89.8745 109.912 89.8616 109.927L91.3914 111.215ZM97.2414 107.165L97.9249 109.045C97.9497 109.036 97.9743 109.026 97.9987 109.016L97.2414 107.165ZM103.691 107.465L102.763 109.237C102.977 109.349 103.209 109.421 103.448 109.45L103.691 107.465ZM115.241 108.065L115.014 106.078C114.991 106.081 114.968 106.084 114.945 106.087L115.241 108.065ZM129.641 103.115L130.5 104.922C130.512 104.916 130.524 104.91 130.536 104.904L129.641 103.115ZM135.941 98.6152L137.287 100.095C137.299 100.084 137.311 100.073 137.322 100.062L135.941 98.6152ZM141.041 92.3152L139.32 91.2978C139.315 91.3061 139.31 91.3145 139.305 91.323L141.041 92.3152ZM142.541 86.6152L140.576 86.9838L142.541 86.6152ZM138.491 84.0652L138.575 82.067H138.575L138.491 84.0652ZM117.18 79.9037C115.513 79.3907 114.563 78.677 114.045 77.9156C113.539 77.1712 113.271 76.1242 113.474 74.5761L109.508 74.0543C109.212 76.3063 109.544 78.4092 110.738 80.1649C111.92 81.9035 113.77 83.0397 116.003 83.7268L117.18 79.9037ZM113.467 74.6272C113.97 71.44 115.977 68.0737 119.881 64.55L117.201 61.5804C112.906 65.4568 110.213 69.5905 109.516 74.0033L113.467 74.6272ZM120.032 64.3988C121.665 62.574 123.906 60.378 126.776 57.8044L124.106 54.8261C121.177 57.4524 118.818 59.7565 117.051 61.7316L120.032 64.3988ZM126.751 57.8266C129.779 55.2028 132.755 52.4785 135.681 49.654L132.902 46.7764C130.028 49.5519 127.104 52.2277 124.132 54.8039L126.751 57.8266ZM135.666 49.6676C139.46 46.0767 142.488 42.8367 144.722 39.9527C146.937 37.0943 148.469 34.4637 149.12 32.0955L145.263 31.0349C144.814 32.6668 143.646 34.8111 141.56 37.5028C139.495 40.1688 136.623 43.2537 132.916 46.7628L135.666 49.6676ZM146.676 29.6328C142.144 30.8414 138.289 32.0068 135.123 33.1304L136.46 36.9001C139.494 35.8237 143.239 34.6891 147.707 33.4977L146.676 29.6328ZM135.177 33.1118C132.111 34.1009 129.522 34.8324 127.398 35.315L128.285 39.2155C130.561 38.6981 133.272 37.9296 136.405 36.9186L135.177 33.1118ZM127.484 35.2975C125.44 35.669 123.799 35.6911 122.51 35.4495L121.773 39.381C123.684 39.7393 125.843 39.6614 128.199 39.233L127.484 35.2975ZM122.534 35.4541C121.428 35.2329 120.481 34.7269 119.656 33.901L116.827 36.7294C118.201 38.1036 119.855 38.9976 121.749 39.3764L122.534 35.4541ZM119.721 33.9699C118.941 33.1113 118.325 32.0264 117.9 30.6687L114.082 31.8618C114.658 33.7041 115.542 35.3192 116.762 36.6606L119.721 33.9699ZM117.9 30.6687C117.462 29.2645 117.241 27.8158 117.241 26.3152H113.241C113.241 28.2146 113.521 30.0659 114.082 31.8618L117.9 30.6687ZM117.241 26.3152C117.241 24.5579 117.637 23.3655 118.237 22.5549C118.825 21.7603 119.763 21.1236 121.264 20.7586L120.319 16.8719C118.12 17.4068 116.283 18.4702 115.021 20.1755C113.771 21.865 113.241 23.9726 113.241 26.3152H117.241ZM121.184 20.7764C122.584 20.4964 123.82 19.8161 124.669 18.6277L121.414 16.3028C121.263 16.5143 120.999 16.7341 120.399 16.8541L121.184 20.7764ZM124.56 18.7668C125.227 17.9891 125.836 17.1581 126.387 16.2752L122.995 14.1552C122.547 14.8723 122.056 15.5414 121.523 16.1637L124.56 18.7668ZM126.367 16.3078C127.659 14.3268 129.041 13.4012 130.466 13.1299L129.717 9.20055C126.942 9.72922 124.724 11.5037 123.016 14.1227L126.367 16.3078ZM130.769 13.047C133.287 12.1405 136.102 11.0847 139.213 9.88036L137.769 6.15009C134.681 7.34572 131.896 8.38996 129.414 9.28345L130.769 13.047ZM139.194 9.88789C142.329 8.71197 145.566 7.68208 148.903 6.79864L147.88 2.93182C144.417 3.84839 141.053 4.91849 137.789 6.14257L139.194 9.88789ZM148.909 6.79713C159.614 3.92972 167.711 5.71286 173.677 11.6794L176.506 8.85101C169.272 1.61759 159.569 -0.199261 147.874 2.93333L148.909 6.79713ZM173.677 11.6794C177.838 15.84 179.602 21.6202 178.656 29.3731L182.627 29.8573C183.681 21.2103 181.745 14.0905 176.506 8.85101L173.677 11.6794ZM178.655 29.3788C178.187 33.3151 176.814 37.8621 174.469 43.0402L178.113 44.6902C180.568 39.2684 182.096 34.3154 182.627 29.8517L178.655 29.3788ZM174.598 42.8009C172.477 46.1756 170.246 48.8672 167.92 50.9138L170.563 53.9167C173.237 51.5633 175.706 48.5549 177.985 44.9296L174.598 42.8009ZM167.92 50.9138C165.457 53.0812 163.211 54.8864 161.179 56.3378L163.504 59.5927C165.672 58.044 168.026 56.1493 170.563 53.9167L167.92 50.9138ZM161.141 56.3652C159.137 57.8683 156.884 59.571 154.381 61.4729L156.802 64.6576C159.299 62.7595 161.546 61.0621 163.541 59.5652L161.141 56.3652ZM155.366 65.0525C160.267 65.6073 163.728 67.4164 166.025 70.309L169.158 67.8215C166.055 63.914 161.516 61.7232 155.816 61.0779L155.366 65.0525ZM166.043 70.3317C168.464 73.2906 169.937 76.9582 170.402 81.4224L174.381 81.008C173.846 75.8723 172.118 71.4398 169.139 67.7988L166.043 70.3317ZM170.4 81.3981C171.25 90.6541 168.48 100.935 161.816 112.304L165.267 114.327C172.202 102.495 175.333 91.3763 174.383 81.0323L170.4 81.3981ZM161.828 112.284C154.633 124.245 138.918 131.691 113.711 133.973L114.072 137.957C139.665 135.64 157.05 127.986 165.255 114.346L161.828 112.284ZM113.749 133.97C106.953 134.456 101.444 133.713 97.1245 131.875L95.5583 135.556C100.639 137.717 106.83 138.475 114.034 137.96L113.749 133.97ZM97.1245 131.875C92.7717 130.023 90.6543 127.629 90.0438 124.881L86.139 125.749C87.1285 130.202 90.5111 133.408 95.5583 135.556L97.1245 131.875ZM89.9641 124.613C89.2261 122.645 89.1798 120.658 89.8463 118.575L86.0366 117.356C85.103 120.273 85.1567 123.185 86.2188 126.017L89.9641 124.613ZM89.8726 118.485C90.5031 116.143 91.525 114.161 92.9212 112.504L89.8616 109.927C88.0578 112.069 86.7797 114.587 86.0102 117.445L89.8726 118.485ZM92.8819 112.549C94.3821 110.872 96.0619 109.722 97.9249 109.045L96.5579 105.286C94.0209 106.208 91.8007 107.758 89.9009 109.882L92.8819 112.549ZM97.9987 109.016C99.6544 108.339 101.188 108.411 102.763 109.237L104.619 105.694C101.995 104.319 99.2284 104.191 96.4841 105.314L97.9987 109.016ZM103.448 109.45C109.111 110.146 113.227 110.39 115.538 110.043L114.945 106.087C113.256 106.341 109.671 106.185 103.935 105.48L103.448 109.45ZM115.468 110.052C119.306 109.614 124.349 107.846 130.5 104.922L128.783 101.309C122.734 104.185 118.177 105.717 115.014 106.078L115.468 110.052ZM130.536 104.904C132.743 103.8 134.993 102.18 137.287 100.095L134.596 97.1354C132.49 99.05 130.54 100.43 128.747 101.326L130.536 104.904ZM137.322 100.062C139.628 97.8611 141.461 95.612 142.778 93.3075L139.305 91.323C138.222 93.2184 136.655 95.1693 134.56 97.1685L137.322 100.062ZM142.763 93.3327C144.176 90.9417 144.935 88.5298 144.507 86.2467L140.576 86.9838C140.748 87.9007 140.507 89.2888 139.32 91.2978L142.763 93.3327ZM144.507 86.2467C144.257 84.912 143.527 83.8138 142.37 83.0853C141.287 82.4035 139.96 82.1247 138.575 82.067L138.408 86.0635C139.422 86.1058 139.971 86.302 140.238 86.4702C140.431 86.5917 140.526 86.7185 140.576 86.9838L144.507 86.2467ZM138.575 82.067C136.136 81.9654 133.056 81.9152 129.341 81.9152V85.9152C133.027 85.9152 136.046 85.9651 138.408 86.0635L138.575 82.067ZM129.341 81.9152C125.884 81.9152 121.829 81.2595 117.151 79.8952L116.031 83.7352C120.954 85.171 125.399 85.9152 129.341 85.9152V81.9152Z" fill="#EF8354" fill-opacity="0.6"/>
</svg>
