<svg viewBox="0 0 184 138" fill="none" xmlns="http://www.w3.org/2000/svg">
<path d="M22.3 22.5189L24.0717 23.447L24.0764 23.4378L22.3 22.5189ZM40.6 6.91894L39.7595 5.10414L39.7591 5.10432L40.6 6.91894ZM66.1 5.41894L65.2742 7.24051L65.2793 7.24278L66.1 5.41894ZM72.55 9.01894L70.7611 9.91337C70.7982 9.98755 70.8399 10.0593 70.8859 10.1283L72.55 9.01894ZM73 10.9689L71.0201 10.6861V10.6861L73 10.9689ZM73 14.1189L71.0051 14.2614C71.0504 14.8962 71.3952 15.4715 71.9336 15.8109C72.4719 16.1502 73.1397 16.2131 73.7319 15.9802L73 14.1189ZM92.2 21.7689L94.0296 20.9611C94.0269 20.955 94.0242 20.949 94.0215 20.9429L92.2 21.7689ZM94.9 53.2689L96.8839 53.5225C96.8845 53.5176 96.8851 53.5127 96.8857 53.5078L94.9 53.2689ZM84.85 87.3189L83.0843 86.3797C83.0373 86.4681 82.997 86.5598 82.9637 86.6543L84.85 87.3189ZM67.3 116.869L65.7908 115.557C65.7828 115.566 65.7748 115.575 65.767 115.585L67.3 116.869ZM58.6 125.269L57.449 123.633C57.4258 123.65 57.403 123.666 57.3806 123.684L58.6 125.269ZM53.05 127.969L53.4078 126.001C53.1596 125.956 52.9051 125.958 52.6578 126.008L53.05 127.969ZM47.65 129.169L47.1649 127.229C47.1512 127.232 47.1375 127.236 47.1238 127.239L47.65 129.169ZM41.95 130.069V128.069C41.4196 128.069 40.9109 128.28 40.5358 128.655L41.95 130.069ZM41.35 130.519L40.4556 128.73C40.2633 128.826 40.0878 128.953 39.9358 129.105L41.35 130.519ZM41.05 130.969L41.6247 132.885C42.1529 132.726 42.5922 132.357 42.8388 131.863L41.05 130.969ZM36.55 132.319L35.9753 130.403C35.2166 130.631 34.6637 131.285 34.5654 132.071L36.55 132.319ZM32.65 135.619L32.1649 133.679C32.1398 133.685 32.1148 133.692 32.09 133.699L32.65 135.619ZM24.4 136.069L24.1357 138.051L24.1441 138.053L24.4 136.069ZM15.25 133.369L16.0732 131.546C16.0567 131.539 16.0401 131.532 16.0235 131.525L15.25 133.369ZM8.35 127.669L6.52238 128.481C6.55547 128.556 6.59309 128.628 6.63501 128.698L8.35 127.669ZM3.7 114.769L1.73468 115.14C1.73825 115.159 1.74209 115.178 1.7462 115.196L3.7 114.769ZM4.3 73.9689L2.32141 73.677L2.32058 73.6828L4.3 73.9689ZM13.9 40.0689L15.7291 40.878C15.7328 40.8696 15.7364 40.8611 15.74 40.8527L13.9 40.0689ZM50.35 39.4689L48.635 38.4399C48.6087 38.4838 48.584 38.5287 48.5611 38.5745L50.35 39.4689ZM35.5 87.1689L33.5213 86.878C33.5202 86.8854 33.5191 86.8928 33.5181 86.9002L35.5 87.1689ZM35.05 103.669L33.0595 103.864C33.1599 104.888 34.021 105.669 35.05 105.669V103.669ZM35.35 103.669V105.669C35.8804 105.669 36.3892 105.458 36.7642 105.083L35.35 103.669ZM35.5 103.519L36.9142 104.933C37.0087 104.839 37.0935 104.735 37.1673 104.624L35.5 103.519ZM59.5 51.4689L61.4215 52.0238C61.4235 52.0168 61.4255 52.0098 61.4275 52.0027L59.5 51.4689ZM61.9 36.0189L59.9007 36.0716C59.9012 36.0891 59.9018 36.1066 59.9028 36.1241L61.9 36.0189ZM59.95 28.6689L61.3015 27.1946C60.5121 26.4711 59.2929 26.4976 58.5358 27.2547L59.95 28.6689ZM59.2 29.2689L57.4112 30.1634C57.7499 30.8409 58.4425 31.2689 59.2 31.2689V29.2689ZM59.05 28.9689L60.8388 28.0745C60.7759 27.9485 60.6997 27.8295 60.6117 27.7196L59.05 28.9689ZM57.4 28.3689L57.1172 26.389C56.5862 26.4649 56.108 26.7508 55.7899 27.1825L57.4 28.3689ZM53.5 34.2189L51.785 33.1899V33.1899L53.5 34.2189ZM24.0764 23.4378C25.4246 20.8314 27.6315 18.1773 30.794 15.494L28.206 12.4439C24.7685 15.3606 22.1754 18.4065 20.5236 21.6001L24.0764 23.4378ZM30.794 15.494C33.9507 12.8155 37.4971 10.5612 41.4409 8.73356L39.7591 5.10432C35.503 7.07667 31.6493 9.52239 28.206 12.4439L30.794 15.494ZM41.4405 8.73374C50.5667 4.50687 58.4415 4.14302 65.2742 7.24051L66.9258 3.59738C58.7585 -0.105141 49.6333 0.531006 39.7595 5.10414L41.4405 8.73374ZM65.2793 7.24278C67.2605 8.13433 68.7372 8.8569 69.7378 9.41534C70.2412 9.69633 70.5827 9.91296 70.794 10.0682C71.0903 10.2859 70.9201 10.2313 70.7611 9.91337L74.3389 8.12451C74.0299 7.50654 73.4784 7.07696 73.1623 6.84468C72.7611 6.54992 72.2588 6.24155 71.6872 5.92255C70.5378 5.28098 68.9395 4.50355 66.9207 3.5951L65.2793 7.24278ZM70.8859 10.1283C71.0189 10.3279 71.049 10.4838 71.0201 10.6861L74.9799 11.2518C75.151 10.0541 74.8811 8.91002 74.2141 7.90953L70.8859 10.1283ZM71.0201 10.6861C70.8888 11.6052 70.9028 12.8295 71.0051 14.2614L74.9949 13.9764C74.8972 12.6084 74.9112 11.7327 74.9799 11.2518L71.0201 10.6861ZM73.7319 15.9802C77.8939 14.3435 81.1644 14.2403 83.7347 15.2644C86.2997 16.2864 88.5616 18.5883 90.3785 22.5949L94.0215 20.9429C91.9384 16.3496 89.0503 13.0765 85.2153 11.5485C81.3856 10.0226 77.0061 10.3944 72.2681 12.2577L73.7319 15.9802ZM90.3704 22.5768C93.5635 29.8082 94.4944 39.8955 92.9143 53.0301L96.8857 53.5078C98.5056 40.0424 97.6365 29.1297 94.0296 20.9611L90.3704 22.5768ZM92.9161 53.0154C91.2392 66.1352 87.9455 77.2405 83.0843 86.3797L86.6158 88.2582C91.7545 78.5973 95.1608 67.0027 96.8839 53.5225L92.9161 53.0154ZM82.9637 86.6543C79.3551 96.8949 73.6412 106.529 65.7908 115.557L68.8092 118.181C76.9588 108.809 82.9449 98.743 86.7363 87.9836L82.9637 86.6543ZM65.767 115.585C62.7321 119.207 59.958 121.868 57.449 123.633L59.751 126.905C62.642 124.87 65.6679 121.931 68.833 118.153L65.767 115.585ZM57.3806 123.684C56.1327 124.644 55.141 125.279 54.3876 125.645C53.566 126.045 53.3125 125.984 53.4078 126.001L52.6922 129.937C53.8875 130.154 55.109 129.743 56.1374 129.242C57.234 128.709 58.4673 127.894 59.8194 126.854L57.3806 123.684ZM52.6578 126.008C50.6336 126.413 48.8019 126.819 47.1649 127.229L48.1351 131.109C49.6981 130.718 51.4664 130.325 53.4422 129.93L52.6578 126.008ZM47.1238 127.239C45.029 127.811 43.3146 128.069 41.95 128.069V132.069C43.7854 132.069 45.871 131.727 48.1762 131.098L47.1238 127.239ZM40.5358 128.655C40.4942 128.696 40.4652 128.72 40.45 128.731C40.4349 128.743 40.4366 128.74 40.4556 128.73L42.2444 132.308C42.6799 132.09 43.0506 131.797 43.3642 131.483L40.5358 128.655ZM39.9358 129.105C39.6219 129.419 39.4082 129.78 39.2612 130.075L42.8388 131.863C42.8602 131.821 42.8695 131.808 42.8641 131.816C42.8609 131.821 42.852 131.834 42.8367 131.853C42.8215 131.872 42.7977 131.9 42.7642 131.933L39.9358 129.105ZM40.4753 129.053L35.9753 130.403L37.1247 134.235L41.6247 132.885L40.4753 129.053ZM34.5654 132.071C34.5192 132.441 34.259 133.155 32.1649 133.679L33.1351 137.559C35.841 136.883 38.1808 135.397 38.5346 132.567L34.5654 132.071ZM32.09 133.699C30.0121 134.305 27.5488 134.459 24.6559 134.085L24.1441 138.053C27.4512 138.479 30.4879 138.333 33.21 137.539L32.09 133.699ZM24.6643 134.086C21.8796 133.715 19.0173 132.876 16.0732 131.546L14.4268 135.192C17.6827 136.662 20.9204 137.623 24.1357 138.051L24.6643 134.086ZM16.0235 131.525C13.2537 130.363 11.3135 128.721 10.065 126.64L6.63501 128.698C8.38648 131.617 11.0463 133.775 14.4765 135.213L16.0235 131.525ZM10.1776 126.857C7.79629 121.499 6.31056 117.344 5.6538 114.342L1.7462 115.196C2.48944 118.594 4.10371 123.039 6.52238 128.481L10.1776 126.857ZM5.66532 114.398C3.72237 104.1 3.89548 90.7441 6.27942 74.2551L2.32058 73.6828C-0.0954758 90.3938 -0.322366 104.237 1.73468 115.14L5.66532 114.398ZM6.27858 74.2609C8.05448 62.2242 11.2078 51.0999 15.7291 40.878L12.0709 39.2599C7.39215 49.838 4.14552 61.3137 2.32142 73.677L6.27858 74.2609ZM15.74 40.8527C18.0154 35.5106 20.7914 29.7093 24.0717 23.447L20.5283 21.5909C17.2086 27.9286 14.3846 33.8273 12.06 39.2852L15.74 40.8527ZM48.5611 38.5745C41.0626 53.5715 36.051 69.6762 33.5213 86.878L37.4787 87.4599C39.949 70.6617 44.8374 54.9663 52.1389 40.3634L48.5611 38.5745ZM33.5181 86.9002C32.7006 92.9299 32.5422 98.5872 33.0595 103.864L37.0405 103.474C36.5578 98.5507 36.6994 93.208 37.4819 87.4377L33.5181 86.9002ZM35.05 105.669H35.35V101.669H35.05V105.669ZM36.7642 105.083L36.9142 104.933L34.0858 102.105L33.9358 102.255L36.7642 105.083ZM37.1673 104.624C47.881 88.4518 55.966 70.9161 61.4215 52.0238L57.5785 50.9141C52.234 69.4218 44.319 86.586 33.8327 102.414L37.1673 104.624ZM61.4275 52.0027C63.2478 45.4293 64.1141 40.0344 63.8972 35.9138L59.9028 36.1241C60.0859 39.6035 59.3522 44.5086 57.5725 50.9352L61.4275 52.0027ZM63.8993 35.9663C63.847 33.9799 63.65 32.2485 63.2706 30.8186C62.8979 29.4136 62.2994 28.1094 61.3015 27.1946L58.5985 30.1432C58.8006 30.3285 59.1271 30.7993 59.4044 31.8443C59.675 32.8644 59.853 34.258 59.9007 36.0716L63.8993 35.9663ZM58.5358 27.2547C58.355 27.4356 58.2529 27.5254 58.2131 27.5572C58.1904 27.5753 58.228 27.5423 58.3108 27.495C58.3536 27.4705 58.44 27.424 58.561 27.38C58.6708 27.3401 58.8982 27.2689 59.2 27.2689V31.2689C59.7775 31.2689 60.1987 31.0232 60.2954 30.9679C60.4657 30.8706 60.6096 30.7625 60.7119 30.6807C60.9221 30.5125 61.145 30.3023 61.3642 30.0832L58.5358 27.2547ZM59.2 29.2689C60.9888 28.3745 60.9888 28.3745 60.9888 28.3745C60.9888 28.3745 60.9888 28.3745 60.9888 28.3745C60.9888 28.3745 60.9888 28.3745 60.9888 28.3745C60.9888 28.3745 60.9888 28.3745 60.9888 28.3745C60.9888 28.3745 60.9888 28.3745 60.9888 28.3745C60.9888 28.3744 60.9888 28.3744 60.9888 28.3744C60.9888 28.3744 60.9888 28.3744 60.9888 28.3744C60.9888 28.3744 60.9888 28.3744 60.9888 28.3744C60.9888 28.3744 60.9888 28.3744 60.9888 28.3744C60.9888 28.3744 60.9888 28.3744 60.9888 28.3744C60.9888 28.3743 60.9888 28.3743 60.9888 28.3743C60.9888 28.3743 60.9888 28.3743 60.9888 28.3743C60.9887 28.3743 60.9887 28.3743 60.9887 28.3743C60.9887 28.3743 60.9887 28.3742 60.9887 28.3742C60.9887 28.3742 60.9887 28.3742 60.9887 28.3742C60.9887 28.3742 60.9887 28.3742 60.9887 28.3742C60.9887 28.3741 60.9887 28.3741 60.9887 28.3741C60.9887 28.3741 60.9886 28.3741 60.9886 28.3741C60.9886 28.3741 60.9886 28.374 60.9886 28.374C60.9886 28.374 60.9886 28.374 60.9886 28.374C60.9886 28.374 60.9886 28.374 60.9886 28.3739C60.9886 28.3739 60.9886 28.3739 60.9885 28.3739C60.9885 28.3739 60.9885 28.3738 60.9885 28.3738C60.9885 28.3738 60.9885 28.3738 60.9885 28.3738C60.9885 28.3738 60.9885 28.3737 60.9885 28.3737C60.9884 28.3737 60.9884 28.3737 60.9884 28.3737C60.9884 28.3736 60.9884 28.3736 60.9884 28.3736C60.9884 28.3736 60.9884 28.3736 60.9884 28.3735C60.9884 28.3735 60.9883 28.3735 60.9883 28.3735C60.9883 28.3734 60.9883 28.3734 60.9883 28.3734C60.9883 28.3734 60.9883 28.3733 60.9883 28.3733C60.9883 28.3733 60.9882 28.3733 60.9882 28.3732C60.9882 28.3732 60.9882 28.3732 60.9882 28.3732C60.9882 28.3731 60.9882 28.3731 60.9881 28.3731C60.9881 28.3731 60.9881 28.373 60.9881 28.373C60.9881 28.373 60.9881 28.3729 60.9881 28.3729C60.988 28.3729 60.988 28.3729 60.988 28.3728C60.988 28.3728 60.988 28.3728 60.988 28.3727C60.988 28.3727 60.9879 28.3727 60.9879 28.3727C60.9879 28.3726 60.9879 28.3726 60.9879 28.3726C60.9879 28.3725 60.9879 28.3725 60.9878 28.3725C60.9878 28.3724 60.9878 28.3724 60.9878 28.3724C60.9878 28.3723 60.9878 28.3723 60.9877 28.3723C60.9877 28.3722 60.9877 28.3722 60.9877 28.3722C60.9877 28.3721 60.9877 28.3721 60.9876 28.3721C60.9876 28.372 60.9876 28.372 60.9876 28.372C60.9876 28.3719 60.9875 28.3719 60.9875 28.3719C60.9875 28.3718 60.9875 28.3718 60.9875 28.3717C60.9875 28.3717 60.9874 28.3717 60.9874 28.3716C60.9874 28.3716 60.9874 28.3716 60.9874 28.3715C60.9873 28.3715 60.9873 28.3714 60.9873 28.3714C60.9873 28.3714 60.9873 28.3713 60.9872 28.3713C60.9872 28.3712 60.9872 28.3712 60.9872 28.3712C60.9872 28.3711 60.9871 28.3711 60.9871 28.371C60.9871 28.371 60.9871 28.3709 60.9871 28.3709C60.987 28.3709 60.987 28.3708 60.987 28.3708C60.987 28.3707 60.9869 28.3707 60.9869 28.3706C60.9869 28.3706 60.9869 28.3706 60.9869 28.3705C60.9868 28.3705 60.9868 28.3704 60.9868 28.3704C60.9868 28.3703 60.9867 28.3703 60.9867 28.3702C60.9867 28.3702 60.9867 28.3701 60.9866 28.3701C60.9866 28.37 60.9866 28.37 60.9866 28.3699C60.9866 28.3699 60.9865 28.3699 60.9865 28.3698C60.9865 28.3698 60.9865 28.3697 60.9864 28.3697C60.9864 28.3696 60.9864 28.3696 60.9864 28.3695C60.9863 28.3695 60.9863 28.3694 60.9863 28.3694C60.9863 28.3693 60.9862 28.3692 60.9862 28.3692C60.9862 28.3691 60.9861 28.3691 60.9861 28.369C60.9861 28.369 60.9861 28.3689 60.986 28.3689C60.986 28.3688 60.986 28.3688 60.986 28.3687C60.9859 28.3687 60.9859 28.3686 60.9859 28.3686C60.9859 28.3685 60.9858 28.3684 60.9858 28.3684C60.9858 28.3683 60.9857 28.3683 60.9857 28.3682C60.9857 28.3682 60.9857 28.3681 60.9856 28.368C60.9856 28.368 60.9856 28.3679 60.9855 28.3679C60.9855 28.3678 60.9855 28.3678 60.9855 28.3677C60.9854 28.3676 60.9854 28.3676 60.9854 28.3675C60.9853 28.3675 60.9853 28.3674 60.9853 28.3673C60.9852 28.3673 60.9852 28.3672 60.9852 28.3672C60.9852 28.3671 60.9851 28.367 60.9851 28.367C60.9851 28.3669 60.985 28.3669 60.985 28.3668C60.985 28.3667 60.9849 28.3667 60.9849 28.3666C60.9849 28.3665 60.9848 28.3665 60.9848 28.3664C60.9848 28.3663 60.9847 28.3663 60.9847 28.3662C60.9847 28.3662 60.9846 28.3661 60.9846 28.366C60.9846 28.366 60.9846 28.3659 60.9845 28.3658C60.9845 28.3658 60.9845 28.3657 60.9844 28.3656C60.9844 28.3656 60.9843 28.3655 60.9843 28.3654C60.9843 28.3654 60.9842 28.3653 60.9842 28.3652C60.9842 28.3652 60.9841 28.3651 60.9841 28.365C60.9841 28.3649 60.984 28.3649 60.984 28.3648C60.984 28.3647 60.9839 28.3647 60.9839 28.3646C60.9839 28.3645 60.9838 28.3644 60.9838 28.3644C60.9838 28.3643 60.9837 28.3642 60.9837 28.3642C60.9836 28.3641 60.9836 28.364 60.9836 28.3639C60.9835 28.3639 60.9835 28.3638 60.9835 28.3637C60.9834 28.3636 60.9834 28.3636 60.9834 28.3635C60.9833 28.3634 60.9833 28.3633 60.9832 28.3633C60.9832 28.3632 60.9832 28.3631 60.9831 28.363C60.9831 28.363 60.983 28.3629 60.983 28.3628C60.983 28.3627 60.9829 28.3627 60.9829 28.3626C60.9829 28.3625 60.9828 28.3624 60.9828 28.3624C60.9827 28.3623 60.9827 28.3622 60.9827 28.3621C60.9826 28.362 60.9826 28.362 60.9825 28.3619C60.9825 28.3618 60.9825 28.3617 60.9824 28.3616C60.9824 28.3615 60.9823 28.3615 60.9823 28.3614C60.9823 28.3613 60.9822 28.3612 60.9822 28.3611C60.9821 28.3611 60.9821 28.361 60.982 28.3609C60.982 28.3608 60.982 28.3607 60.9819 28.3606C60.9819 28.3606 60.9818 28.3605 60.9818 28.3604C60.9818 28.3603 60.9817 28.3602 60.9817 28.3601C60.9816 28.36 60.9816 28.36 60.9815 28.3599C60.9815 28.3598 60.9815 28.3597 60.9814 28.3596C60.9814 28.3595 60.9813 28.3594 60.9813 28.3594C60.9812 28.3593 60.9812 28.3592 60.9811 28.3591C60.9811 28.359 60.9811 28.3589 60.981 28.3588C60.981 28.3587 60.9809 28.3586 60.9809 28.3586C60.9808 28.3585 60.9808 28.3584 60.9807 28.3583C60.9807 28.3582 60.9807 28.3581 60.9806 28.358C60.9806 28.3579 60.9805 28.3578 60.9805 28.3577C60.9804 28.3576 60.9804 28.3576 60.9803 28.3575C60.9803 28.3574 60.9802 28.3573 60.9802 28.3572C60.9801 28.3571 60.9801 28.357 60.98 28.3569C60.98 28.3568 60.98 28.3567 60.9799 28.3566C60.9799 28.3565 60.9798 28.3564 60.9798 28.3563C60.9797 28.3562 60.9797 28.3561 60.9796 28.356C60.9796 28.3559 60.9795 28.3558 60.9795 28.3557C60.9794 28.3556 60.9794 28.3555 60.9793 28.3554C60.9793 28.3553 60.9792 28.3552 60.9792 28.3551C60.9791 28.355 60.9791 28.3549 60.979 28.3549C60.979 28.3548 60.9789 28.3547 60.9789 28.3546C60.9788 28.3544 60.9788 28.3543 60.9787 28.3542C60.9787 28.3541 60.9786 28.354 60.9786 28.3539C60.9785 28.3538 60.9785 28.3537 60.9784 28.3536C60.9784 28.3535 60.9783 28.3534 60.9783 28.3533C60.9782 28.3532 60.9782 28.3531 60.9781 28.353C60.9781 28.3529 60.978 28.3528 60.978 28.3527C60.9779 28.3526 60.9778 28.3525 60.9778 28.3524C60.9777 28.3523 60.9777 28.3522 60.9776 28.3521C60.9776 28.352 60.9775 28.3518 60.9775 28.3517C60.9774 28.3516 60.9774 28.3515 60.9773 28.3514C60.9773 28.3513 60.9772 28.3512 60.9771 28.3511C60.9771 28.351 60.977 28.3509 60.977 28.3508C60.9769 28.3506 60.9769 28.3505 60.9768 28.3504C60.9768 28.3503 60.9767 28.3502 60.9767 28.3501C60.9766 28.35 60.9765 28.3499 60.9765 28.3498C60.9764 28.3496 60.9764 28.3495 60.9763 28.3494C60.9763 28.3493 60.9762 28.3492 60.9761 28.3491C60.9761 28.349 60.976 28.3489 60.976 28.3487C60.9759 28.3486 60.9759 28.3485 60.9758 28.3484C60.9757 28.3483 60.9757 28.3482 60.9756 28.3481C60.9756 28.3479 60.9755 28.3478 60.9755 28.3477C60.9754 28.3476 60.9753 28.3475 60.9753 28.3474C60.9752 28.3472 60.9752 28.3471 60.9751 28.347C60.975 28.3469 60.975 28.3468 60.9749 28.3466C60.9749 28.3465 60.9748 28.3464 60.9747 28.3463C60.9747 28.3462 60.9746 28.346 60.9746 28.3459C60.9745 28.3458 60.9744 28.3457 60.9744 28.3456C60.9743 28.3454 60.9743 28.3453 60.9742 28.3452C60.9741 28.3451 60.9741 28.3449 60.974 28.3448C60.974 28.3447 60.9739 28.3446 60.9738 28.3445C60.9738 28.3443 60.9737 28.3442 60.9736 28.3441C60.9736 28.344 60.9735 28.3438 60.9735 28.3437C60.9734 28.3436 60.9733 28.3435 60.9733 28.3433C60.9732 28.3432 60.9731 28.3431 60.9731 28.343C60.973 28.3428 60.973 28.3427 60.9729 28.3426C60.9728 28.3424 60.9728 28.3423 60.9727 28.3422C60.9726 28.3421 60.9726 28.3419 60.9725 28.3418C60.9724 28.3417 60.9724 28.3415 60.9723 28.3414C60.9722 28.3413 60.9722 28.3412 60.9721 28.341C60.972 28.3409 60.972 28.3408 60.9719 28.3406C60.9719 28.3405 60.9718 28.3404 60.9717 28.3402C60.9717 28.3401 60.9716 28.34 60.9715 28.3398C60.9715 28.3397 60.9714 28.3396 60.9713 28.3394C60.9713 28.3393 60.9712 28.3392 60.9711 28.339C60.9711 28.3389 60.971 28.3388 60.9709 28.3386C60.9709 28.3385 60.9708 28.3384 60.9707 28.3382C60.9706 28.3381 60.9706 28.338 60.9705 28.3378C60.9704 28.3377 60.9704 28.3375 60.9703 28.3374C60.9702 28.3373 60.9702 28.3371 60.9701 28.337C60.97 28.3369 60.97 28.3367 60.9699 28.3366C60.9698 28.3364 60.9698 28.3363 60.9697 28.3362C60.9696 28.336 60.9695 28.3359 60.9695 28.3357C60.9694 28.3356 60.9693 28.3355 60.9693 28.3353C60.9692 28.3352 60.9691 28.335 60.9691 28.3349C60.969 28.3348 60.9689 28.3346 60.9688 28.3345C60.9688 28.3343 60.9687 28.3342 60.9686 28.334C60.9686 28.3339 60.9685 28.3338 60.9684 28.3336C60.9683 28.3335 60.9683 28.3333 60.9682 28.3332C60.9681 28.333 60.968 28.3329 60.968 28.3327C60.9679 28.3326 60.9678 28.3325 60.9678 28.3323C60.9677 28.3322 60.9676 28.332 60.9675 28.3319C60.9675 28.3317 60.9674 28.3316 60.9673 28.3314C60.9672 28.3313 60.9672 28.3311 60.9671 28.331C60.967 28.3308 60.9669 28.3307 60.9669 28.3305C60.9668 28.3304 60.9667 28.3302 60.9666 28.3301C60.9666 28.3299 60.9665 28.3298 60.9664 28.3296C60.9663 28.3295 60.9663 28.3293 60.9662 28.3292C60.9661 28.329 60.966 28.3289 60.966 28.3287C60.9659 28.3286 60.9658 28.3284 60.9657 28.3283C60.9657 28.3281 60.9656 28.3279 60.9655 28.3278C60.9654 28.3276 60.9653 28.3275 60.9653 28.3273C60.9652 28.3272 60.9651 28.327 60.965 28.3269C60.965 28.3267 60.9649 28.3266 60.9648 28.3264C60.9647 28.3262 60.9646 28.3261 60.9646 28.3259C60.9645 28.3258 60.9644 28.3256 60.9643 28.3255C60.9642 28.3253 60.9642 28.3251 60.9641 28.325C60.964 28.3248 60.9639 28.3247 60.9639 28.3245C60.9638 28.3243 60.9637 28.3242 60.9636 28.324C60.9635 28.3239 60.9635 28.3237 60.9634 28.3235C60.9633 28.3234 60.9632 28.3232 60.9631 28.3231C60.963 28.3229 60.963 28.3227 60.9629 28.3226C60.9628 28.3224 60.9627 28.3222 60.9626 28.3221C60.9626 28.3219 60.9625 28.3218 60.9624 28.3216C60.9623 28.3214 60.9622 28.3213 60.9622 28.3211C60.9621 28.3209 60.962 28.3208 60.9619 28.3206C60.9618 28.3204 60.9617 28.3203 60.9617 28.3201C60.9616 28.3199 60.9615 28.3198 60.9614 28.3196C60.9613 28.3194 60.9612 28.3193 60.9612 28.3191C60.9611 28.3189 60.961 28.3188 60.9609 28.3186C60.9608 28.3184 60.9607 28.3183 60.9606 28.3181C60.9606 28.3179 60.9605 28.3177 60.9604 28.3176C60.9603 28.3174 60.9602 28.3172 60.9601 28.3171C60.96 28.3169 60.96 28.3167 60.9599 28.3166C60.9598 28.3164 60.9597 28.3162 60.9596 28.316C60.9595 28.3159 60.9594 28.3157 60.9594 28.3155C60.9593 28.3153 60.9592 28.3152 60.9591 28.315C60.959 28.3148 60.9589 28.3147 60.9588 28.3145C60.9588 28.3143 60.9587 28.3141 60.9586 28.3139C60.9585 28.3138 60.9584 28.3136 60.9583 28.3134C60.9582 28.3132 60.9581 28.3131 60.958 28.3129C60.958 28.3127 60.9579 28.3125 60.9578 28.3124C60.9577 28.3122 60.9576 28.312 60.9575 28.3118C60.9574 28.3116 60.9573 28.3115 60.9572 28.3113C60.9572 28.3111 60.9571 28.3109 60.957 28.3108C60.9569 28.3106 60.9568 28.3104 60.9567 28.3102C60.9566 28.31 60.9565 28.3098 60.9564 28.3097C60.9563 28.3095 60.9563 28.3093 60.9562 28.3091C60.9561 28.3089 60.956 28.3088 60.9559 28.3086C60.9558 28.3084 60.9557 28.3082 60.9556 28.308C60.9555 28.3078 60.9554 28.3077 60.9553 28.3075C60.9552 28.3073 60.9552 28.3071 60.9551 28.3069C60.955 28.3067 60.9549 28.3065 60.9548 28.3064C60.9547 28.3062 60.9546 28.306 60.9545 28.3058C60.9544 28.3056 60.9543 28.3054 60.9542 28.3052C60.9541 28.305 60.954 28.3049 60.9539 28.3047C60.9538 28.3045 60.9537 28.3043 60.9537 28.3041C60.9536 28.3039 60.9535 28.3037 60.9534 28.3035C60.9533 28.3033 60.9532 28.3032 60.9531 28.303C60.953 28.3028 60.9529 28.3026 60.9528 28.3024C60.9527 28.3022 60.9526 28.302 60.9525 28.3018C60.9524 28.3016 60.9523 28.3014 60.9522 28.3012C60.9521 28.301 60.952 28.3008 60.9519 28.3007C60.9518 28.3005 60.9517 28.3003 60.9516 28.3001C60.9515 28.2999 60.9514 28.2997 60.9513 28.2995C60.9512 28.2993 60.9512 28.2991 60.9511 28.2989C60.951 28.2987 60.9509 28.2985 60.9508 28.2983C60.9507 28.2981 60.9506 28.2979 60.9505 28.2977C60.9504 28.2975 60.9503 28.2973 60.9502 28.2971C60.9501 28.2969 60.95 28.2967 60.9499 28.2965C60.9498 28.2963 60.9497 28.2961 60.9496 28.2959C60.9495 28.2957 60.9494 28.2955 60.9493 28.2953C60.9492 28.2951 60.9491 28.2949 60.949 28.2947C60.9489 28.2945 60.9488 28.2943 60.9487 28.2941C60.9486 28.2939 60.9485 28.2937 60.9484 28.2935C60.9483 28.2933 60.9482 28.2931 60.9481 28.2929C60.948 28.2927 60.9478 28.2925 60.9478 28.2923C60.9476 28.2921 60.9475 28.2919 60.9474 28.2917C60.9473 28.2915 60.9472 28.2913 60.9471 28.2911C60.947 28.2909 60.9469 28.2906 60.9468 28.2904C60.9467 28.2902 60.9466 28.29 60.9465 28.2898C60.9464 28.2896 60.9463 28.2894 60.9462 28.2892C60.9461 28.289 60.946 28.2888 60.9459 28.2886C60.9458 28.2884 60.9457 28.2882 60.9456 28.2879C60.9455 28.2877 60.9454 28.2875 60.9453 28.2873C60.9452 28.2871 60.945 28.2869 60.9449 28.2867C60.9448 28.2865 60.9447 28.2863 60.9446 28.286C60.9445 28.2858 60.9444 28.2856 60.9443 28.2854C60.9442 28.2852 60.9441 28.285 60.944 28.2848C60.9439 28.2846 60.9438 28.2843 60.9437 28.2841C60.9436 28.2839 60.9435 28.2837 60.9433 28.2835C60.9432 28.2833 60.9431 28.2831 60.943 28.2828C60.9429 28.2826 60.9428 28.2824 60.9427 28.2822C60.9426 28.282 60.9425 28.2818 60.9424 28.2815C60.9423 28.2813 60.9422 28.2811 60.942 28.2809C60.9419 28.2807 60.9418 28.2804 60.9417 28.2802C60.9416 28.28 60.9415 28.2798 60.9414 28.2796C60.9413 28.2794 60.9412 28.2791 60.9411 28.2789C60.9409 28.2787 60.9408 28.2785 60.9407 28.2782C60.9406 28.278 60.9405 28.2778 60.9404 28.2776C60.9403 28.2774 60.9402 28.2771 60.9401 28.2769C60.9399 28.2767 60.9398 28.2765 60.9397 28.2762C60.9396 28.276 60.9395 28.2758 60.9394 28.2756C60.9393 28.2753 60.9392 28.2751 60.939 28.2749C60.9389 28.2747 60.9388 28.2744 60.9387 28.2742C60.9386 28.274 60.9385 28.2738 60.9384 28.2735C60.9383 28.2733 60.9381 28.2731 60.938 28.2729C60.9379 28.2726 60.9378 28.2724 60.9377 28.2722C60.9376 28.2719 60.9375 28.2717 60.9373 28.2715C60.9372 28.2713 60.9371 28.271 60.937 28.2708C60.9369 28.2706 60.9368 28.2703 60.9367 28.2701C60.9365 28.2699 60.9364 28.2697 60.9363 28.2694C60.9362 28.2692 60.9361 28.269 60.936 28.2687C60.9358 28.2685 60.9357 28.2683 60.9356 28.268C60.9355 28.2678 60.9354 28.2676 60.9353 28.2673C60.9352 28.2671 60.935 28.2669 60.9349 28.2666C60.9348 28.2664 60.9347 28.2662 60.9346 28.2659C60.9344 28.2657 60.9343 28.2655 60.9342 28.2652C60.9341 28.265 60.934 28.2647 60.9339 28.2645C60.9337 28.2643 60.9336 28.264 60.9335 28.2638C60.9334 28.2636 60.9333 28.2633 60.9331 28.2631C60.933 28.2629 60.9329 28.2626 60.9328 28.2624C60.9327 28.2621 60.9325 28.2619 60.9324 28.2617C60.9323 28.2614 60.9322 28.2612 60.9321 28.2609C60.9319 28.2607 60.9318 28.2605 60.9317 28.2602C60.9316 28.26 60.9315 28.2597 60.9313 28.2595C60.9312 28.2592 60.9311 28.259 60.931 28.2588C60.9309 28.2585 60.9307 28.2583 60.9306 28.258C60.9305 28.2578 60.9304 28.2575 60.9303 28.2573C60.9301 28.2571 60.93 28.2568 60.9299 28.2566C60.9298 28.2563 60.9296 28.2561 60.9295 28.2558C60.9294 28.2556 60.9293 28.2553 60.9291 28.2551C60.929 28.2549 60.9289 28.2546 60.9288 28.2544C60.9287 28.2541 60.9285 28.2539 60.9284 28.2536C60.9283 28.2534 60.9282 28.2531 60.928 28.2529C60.9279 28.2526 60.9278 28.2524 60.9277 28.2521C60.9275 28.2519 60.9274 28.2516 60.9273 28.2514C60.9272 28.2511 60.927 28.2509 60.9269 28.2506C60.9268 28.2504 60.9267 28.2501 60.9265 28.2499C60.9264 28.2496 60.9263 28.2494 60.9262 28.2491C60.926 28.2489 60.9259 28.2486 60.9258 28.2484C60.9256 28.2481 60.9255 28.2478 60.9254 28.2476C60.9253 28.2473 60.9251 28.2471 60.925 28.2468C60.9249 28.2466 60.9248 28.2463 60.9246 28.2461C60.9245 28.2458 60.9244 28.2456 60.9242 28.2453C60.9241 28.245 60.924 28.2448 60.9239 28.2445C60.9237 28.2443 60.9236 28.244 60.9235 28.2438C60.9233 28.2435 60.9232 28.2432 60.9231 28.243C60.923 28.2427 60.9228 28.2425 60.9227 28.2422C60.9226 28.2419 60.9224 28.2417 60.9223 28.2414C60.9222 28.2412 60.9221 28.2409 60.9219 28.2406C60.9218 28.2404 60.9217 28.2401 60.9215 28.2399C60.9214 28.2396 60.9213 28.2393 60.9211 28.2391C60.921 28.2388 60.9209 28.2385 60.9207 28.2383C60.9206 28.238 60.9205 28.2378 60.9203 28.2375C60.9202 28.2372 60.9201 28.237 60.9199 28.2367C60.9198 28.2364 60.9197 28.2362 60.9195 28.2359C60.9194 28.2356 60.9193 28.2354 60.9192 28.2351C60.919 28.2348 60.9189 28.2346 60.9188 28.2343C60.9186 28.234 60.9185 28.2338 60.9184 28.2335C60.9182 28.2332 60.9181 28.233 60.9179 28.2327C60.9178 28.2324 60.9177 28.2322 60.9175 28.2319C60.9174 28.2316 60.9173 28.2313 60.9171 28.2311C60.917 28.2308 60.9169 28.2305 60.9167 28.2303C60.9166 28.23 60.9165 28.2297 60.9163 28.2295C60.9162 28.2292 60.9161 28.2289 60.9159 28.2286C60.9158 28.2284 60.9156 28.2281 60.9155 28.2278C60.9154 28.2275 60.9152 28.2273 60.9151 28.227C60.915 28.2267 60.9148 28.2264 60.9147 28.2262C60.9146 28.2259 60.9144 28.2256 60.9143 28.2253C60.9141 28.2251 60.914 28.2248 60.9139 28.2245C60.9137 28.2243 60.9136 28.224 60.9134 28.2237C60.9133 28.2234 60.9132 28.2231 60.913 28.2229C60.9129 28.2226 60.9128 28.2223 60.9126 28.222C60.9125 28.2217 60.9123 28.2215 60.9122 28.2212C60.9121 28.2209 60.9119 28.2206 60.9118 28.2204C60.9116 28.2201 60.9115 28.2198 60.9114 28.2195C60.9112 28.2192 60.9111 28.2189 60.9109 28.2187C60.9108 28.2184 60.9107 28.2181 60.9105 28.2178C60.9104 28.2175 60.9102 28.2173 60.9101 28.217C60.9099 28.2167 60.9098 28.2164 60.9097 28.2161C60.9095 28.2158 60.9094 28.2156 60.9092 28.2153C60.9091 28.215 60.909 28.2147 60.9088 28.2144C60.9087 28.2141 60.9085 28.2138 60.9084 28.2136C60.9082 28.2133 60.9081 28.213 60.908 28.2127C60.9078 28.2124 60.9077 28.2121 60.9075 28.2118C60.9074 28.2115 60.9072 28.2113 60.9071 28.211C60.9069 28.2107 60.9068 28.2104 60.9067 28.2101C60.9065 28.2098 60.9064 28.2095 60.9062 28.2092C60.9061 28.2089 60.9059 28.2087 60.9058 28.2084C60.9056 28.2081 60.9055 28.2078 60.9053 28.2075C60.9052 28.2072 60.9051 28.2069 60.9049 28.2066C60.9048 28.2063 60.9046 28.206 60.9045 28.2057C60.9043 28.2055 60.9042 28.2052 60.904 28.2049C60.9039 28.2046 60.9037 28.2043 60.9036 28.204C60.9034 28.2037 60.9033 28.2034 60.9031 28.2031C60.903 28.2028 60.9029 28.2025 60.9027 28.2022C60.9026 28.2019 60.9024 28.2016 60.9023 28.2013C60.9021 28.201 60.902 28.2007 60.9018 28.2004C60.9017 28.2001 60.9015 28.1998 60.9014 28.1995C60.9012 28.1992 60.9011 28.1989 60.9009 28.1986C60.9008 28.1983 60.9006 28.198 60.9005 28.1977C60.9003 28.1974 60.9002 28.1971 60.9 28.1968C60.8999 28.1965 60.8997 28.1962 60.8996 28.1959C60.8994 28.1956 60.8993 28.1953 60.8991 28.195C60.899 28.1947 60.8988 28.1944 60.8987 28.1941C60.8985 28.1938 60.8984 28.1935 60.8982 28.1932C60.8981 28.1929 60.8979 28.1926 60.8978 28.1923C60.8976 28.192 60.8974 28.1917 60.8973 28.1914C60.8971 28.1911 60.897 28.1908 60.8968 28.1905C60.8967 28.1902 60.8965 28.1899 60.8964 28.1896C60.8962 28.1892 60.8961 28.1889 60.8959 28.1886C60.8958 28.1883 60.8956 28.188 60.8955 28.1877C60.8953 28.1874 60.8951 28.1871 60.895 28.1868C60.8948 28.1865 60.8947 28.1862 60.8945 28.1859C60.8944 28.1855 60.8942 28.1852 60.8941 28.1849C60.8939 28.1846 60.8937 28.1843 60.8936 28.184C60.8934 28.1837 60.8933 28.1834 60.8931 28.1831C60.893 28.1827 60.8928 28.1824 60.8927 28.1821C60.8925 28.1818 60.8923 28.1815 60.8922 28.1812C60.892 28.1809 60.8919 28.1805 60.8917 28.1802C60.8916 28.1799 60.8914 28.1796 60.8912 28.1793C60.8911 28.179 60.8909 28.1787 60.8908 28.1783C60.8906 28.178 60.8905 28.1777 60.8903 28.1774C60.8901 28.1771 60.89 28.1768 60.8898 28.1764C60.8897 28.1761 60.8895 28.1758 60.8893 28.1755C60.8892 28.1752 60.889 28.1749 60.8889 28.1745C60.8887 28.1742 60.8885 28.1739 60.8884 28.1736C60.8882 28.1733 60.8881 28.1729 60.8879 28.1726C60.8877 28.1723 60.8876 28.172 60.8874 28.1717C60.8873 28.1713 60.8871 28.171 60.8869 28.1707C60.8868 28.1704 60.8866 28.17 60.8865 28.1697C60.8863 28.1694 60.8861 28.1691 60.886 28.1688C60.8858 28.1684 60.8857 28.1681 60.8855 28.1678C60.8853 28.1675 60.8852 28.1671 60.885 28.1668C60.8848 28.1665 60.8847 28.1662 60.8845 28.1658C60.8844 28.1655 60.8842 28.1652 60.884 28.1649C60.8839 28.1645 60.8837 28.1642 60.8835 28.1639C60.8834 28.1635 60.8832 28.1632 60.883 28.1629C60.8829 28.1626 60.8827 28.1622 60.8826 28.1619C60.8824 28.1616 60.8822 28.1612 60.8821 28.1609C60.8819 28.1606 60.8817 28.1603 60.8816 28.1599C60.8814 28.1596 60.8812 28.1593 60.8811 28.1589C60.8809 28.1586 60.8807 28.1583 60.8806 28.1579C60.8804 28.1576 60.8802 28.1573 60.8801 28.1569C60.8799 28.1566 60.8797 28.1563 60.8796 28.1559C60.8794 28.1556 60.8792 28.1553 60.8791 28.1549C60.8789 28.1546 60.8787 28.1543 60.8786 28.1539C60.8784 28.1536 60.8782 28.1533 60.8781 28.1529C60.8779 28.1526 60.8777 28.1523 60.8776 28.1519C60.8774 28.1516 60.8772 28.1513 60.8771 28.1509C60.8769 28.1506 60.8767 28.1502 60.8765 28.1499C60.8764 28.1496 60.8762 28.1492 60.876 28.1489C60.8759 28.1486 60.8757 28.1482 60.8755 28.1479C60.8754 28.1475 60.8752 28.1472 60.875 28.1469C60.8749 28.1465 60.8747 28.1462 60.8745 28.1458C60.8743 28.1455 60.8742 28.1451 60.874 28.1448C60.8738 28.1445 60.8737 28.1441 60.8735 28.1438C60.8733 28.1434 60.8731 28.1431 60.873 28.1428C60.8728 28.1424 60.8726 28.1421 60.8725 28.1417C60.8723 28.1414 60.8721 28.141 60.8719 28.1407C60.8718 28.1403 60.8716 28.14 60.8714 28.1396C60.8713 28.1393 60.8711 28.139 60.8709 28.1386C60.8707 28.1383 60.8706 28.1379 60.8704 28.1376C60.8702 28.1372 60.87 28.1369 60.8699 28.1365C60.8697 28.1362 60.8695 28.1358 60.8693 28.1355C60.8692 28.1351 60.869 28.1348 60.8688 28.1344C60.8686 28.1341 60.8685 28.1337 60.8683 28.1334C60.8681 28.133 60.8679 28.1327 60.8678 28.1323C60.8676 28.132 60.8674 28.1316 60.8672 28.1313C60.8671 28.1309 60.8669 28.1306 60.8667 28.1302C60.8665 28.1299 60.8664 28.1295 60.8662 28.1292C60.866 28.1288 60.8658 28.1285 60.8657 28.1281C60.8655 28.1278 60.8653 28.1274 60.8651 28.127C60.8649 28.1267 60.8648 28.1263 60.8646 28.126C60.8644 28.1256 60.8642 28.1253 60.8641 28.1249C60.8639 28.1245 60.8637 28.1242 60.8635 28.1238C60.8633 28.1235 60.8632 28.1231 60.863 28.1228C60.8628 28.1224 60.8626 28.1221 60.8624 28.1217C60.8623 28.1213 60.8621 28.121 60.8619 28.1206C60.8617 28.1203 60.8615 28.1199 60.8614 28.1195C60.8612 28.1192 60.861 28.1188 60.8608 28.1185C60.8606 28.1181 60.8605 28.1177 60.8603 28.1174C60.8601 28.117 60.8599 28.1166 60.8597 28.1163C60.8596 28.1159 60.8594 28.1156 60.8592 28.1152C60.859 28.1148 60.8588 28.1145 60.8587 28.1141C60.8585 28.1137 60.8583 28.1134 60.8581 28.113C60.8579 28.1126 60.8577 28.1123 60.8576 28.1119C60.8574 28.1116 60.8572 28.1112 60.857 28.1108C60.8568 28.1105 60.8566 28.1101 60.8565 28.1097C60.8563 28.1094 60.8561 28.109 60.8559 28.1086C60.8557 28.1083 60.8555 28.1079 60.8554 28.1075C60.8552 28.1071 60.855 28.1068 60.8548 28.1064C60.8546 28.106 60.8544 28.1057 60.8542 28.1053C60.8541 28.1049 60.8539 28.1046 60.8537 28.1042C60.8535 28.1038 60.8533 28.1034 60.8531 28.1031C60.853 28.1027 60.8528 28.1023 60.8526 28.102C60.8524 28.1016 60.8522 28.1012 60.852 28.1008C60.8518 28.1005 60.8516 28.1001 60.8515 28.0997C60.8513 28.0993 60.8511 28.099 60.8509 28.0986C60.8507 28.0982 60.8505 28.0978 60.8503 28.0975C60.8501 28.0971 60.85 28.0967 60.8498 28.0963C60.8496 28.096 60.8494 28.0956 60.8492 28.0952C60.849 28.0948 60.8488 28.0945 60.8486 28.0941C60.8484 28.0937 60.8483 28.0933 60.8481 28.0929C60.8479 28.0926 60.8477 28.0922 60.8475 28.0918C60.8473 28.0914 60.8471 28.0911 60.8469 28.0907C60.8467 28.0903 60.8466 28.0899 60.8464 28.0895C60.8462 28.0892 60.846 28.0888 60.8458 28.0884C60.8456 28.088 60.8454 28.0876 60.8452 28.0872C60.845 28.0869 60.8448 28.0865 60.8446 28.0861C60.8445 28.0857 60.8443 28.0853 60.8441 28.0849C60.8439 28.0846 60.8437 28.0842 60.8435 28.0838C60.8433 28.0834 60.8431 28.083 60.8429 28.0826C60.8427 28.0823 60.8425 28.0819 60.8423 28.0815C60.8421 28.0811 60.842 28.0807 60.8418 28.0803C60.8416 28.0799 60.8414 28.0796 60.8412 28.0792C60.841 28.0788 60.8408 28.0784 60.8406 28.078C60.8404 28.0776 60.8402 28.0772 60.84 28.0768C60.8398 28.0764 60.8396 28.0761 60.8394 28.0757C60.8392 28.0753 60.839 28.0749 60.8388 28.0745L57.2612 29.8634C57.2614 29.8638 57.2615 29.8642 57.2617 29.8646C57.2619 29.865 57.2621 29.8653 57.2623 29.8657C57.2625 29.8661 57.2627 29.8665 57.2629 29.8669C57.2631 29.8673 57.2633 29.8677 57.2635 29.8681C57.2637 29.8684 57.2639 29.8688 57.2641 29.8692C57.2643 29.8696 57.2645 29.87 57.2647 29.8704C57.2648 29.8708 57.265 29.8712 57.2652 29.8715C57.2654 29.8719 57.2656 29.8723 57.2658 29.8727C57.266 29.8731 57.2662 29.8735 57.2664 29.8738C57.2666 29.8742 57.2668 29.8746 57.267 29.875C57.2672 29.8754 57.2673 29.8758 57.2675 29.8761C57.2677 29.8765 57.2679 29.8769 57.2681 29.8773C57.2683 29.8777 57.2685 29.8781 57.2687 29.8784C57.2689 29.8788 57.2691 29.8792 57.2692 29.8796C57.2694 29.88 57.2696 29.8803 57.2698 29.8807C57.27 29.8811 57.2702 29.8815 57.2704 29.8819C57.2706 29.8822 57.2708 29.8826 57.271 29.883C57.2711 29.8834 57.2713 29.8837 57.2715 29.8841C57.2717 29.8845 57.2719 29.8849 57.2721 29.8852C57.2723 29.8856 57.2725 29.886 57.2726 29.8864C57.2728 29.8867 57.273 29.8871 57.2732 29.8875C57.2734 29.8879 57.2736 29.8882 57.2738 29.8886C57.274 29.889 57.2741 29.8894 57.2743 29.8897C57.2745 29.8901 57.2747 29.8905 57.2749 29.8909C57.2751 29.8912 57.2753 29.8916 57.2754 29.892C57.2756 29.8923 57.2758 29.8927 57.276 29.8931C57.2762 29.8935 57.2764 29.8938 57.2766 29.8942C57.2767 29.8946 57.2769 29.8949 57.2771 29.8953C57.2773 29.8957 57.2775 29.896 57.2777 29.8964C57.2779 29.8968 57.278 29.8971 57.2782 29.8975C57.2784 29.8979 57.2786 29.8983 57.2788 29.8986C57.279 29.899 57.2791 29.8994 57.2793 29.8997C57.2795 29.9001 57.2797 29.9005 57.2799 29.9008C57.2801 29.9012 57.2802 29.9015 57.2804 29.9019C57.2806 29.9023 57.2808 29.9026 57.281 29.903C57.2811 29.9034 57.2813 29.9037 57.2815 29.9041C57.2817 29.9045 57.2819 29.9048 57.2821 29.9052C57.2822 29.9055 57.2824 29.9059 57.2826 29.9063C57.2828 29.9066 57.283 29.907 57.2831 29.9074C57.2833 29.9077 57.2835 29.9081 57.2837 29.9084C57.2839 29.9088 57.284 29.9092 57.2842 29.9095C57.2844 29.9099 57.2846 29.9102 57.2848 29.9106C57.2849 29.9109 57.2851 29.9113 57.2853 29.9117C57.2855 29.912 57.2857 29.9124 57.2858 29.9127C57.286 29.9131 57.2862 29.9135 57.2864 29.9138C57.2865 29.9142 57.2867 29.9145 57.2869 29.9149C57.2871 29.9152 57.2873 29.9156 57.2874 29.9159C57.2876 29.9163 57.2878 29.9166 57.288 29.917C57.2881 29.9174 57.2883 29.9177 57.2885 29.9181C57.2887 29.9184 57.2888 29.9188 57.289 29.9191C57.2892 29.9195 57.2894 29.9198 57.2896 29.9202C57.2897 29.9205 57.2899 29.9209 57.2901 29.9212C57.2903 29.9216 57.2904 29.9219 57.2906 29.9223C57.2908 29.9226 57.291 29.923 57.2911 29.9233C57.2913 29.9237 57.2915 29.924 57.2917 29.9244C57.2918 29.9247 57.292 29.9251 57.2922 29.9254C57.2924 29.9258 57.2925 29.9261 57.2927 29.9265C57.2929 29.9268 57.293 29.9272 57.2932 29.9275C57.2934 29.9279 57.2936 29.9282 57.2937 29.9285C57.2939 29.9289 57.2941 29.9292 57.2943 29.9296C57.2944 29.9299 57.2946 29.9303 57.2948 29.9306C57.2949 29.931 57.2951 29.9313 57.2953 29.9316C57.2955 29.932 57.2956 29.9323 57.2958 29.9327C57.296 29.933 57.2961 29.9334 57.2963 29.9337C57.2965 29.934 57.2967 29.9344 57.2968 29.9347C57.297 29.9351 57.2972 29.9354 57.2973 29.9357C57.2975 29.9361 57.2977 29.9364 57.2978 29.9368C57.298 29.9371 57.2982 29.9374 57.2984 29.9378C57.2985 29.9381 57.2987 29.9385 57.2989 29.9388C57.299 29.9391 57.2992 29.9395 57.2994 29.9398C57.2995 29.9401 57.2997 29.9405 57.2999 29.9408C57.3 29.9412 57.3002 29.9415 57.3004 29.9418C57.3005 29.9422 57.3007 29.9425 57.3009 29.9428C57.301 29.9432 57.3012 29.9435 57.3014 29.9438C57.3016 29.9442 57.3017 29.9445 57.3019 29.9448C57.3021 29.9452 57.3022 29.9455 57.3024 29.9458C57.3026 29.9462 57.3027 29.9465 57.3029 29.9468C57.303 29.9472 57.3032 29.9475 57.3034 29.9478C57.3035 29.9482 57.3037 29.9485 57.3039 29.9488C57.304 29.9492 57.3042 29.9495 57.3044 29.9498C57.3045 29.9501 57.3047 29.9505 57.3049 29.9508C57.305 29.9511 57.3052 29.9515 57.3054 29.9518C57.3055 29.9521 57.3057 29.9524 57.3058 29.9528C57.306 29.9531 57.3062 29.9534 57.3063 29.9538C57.3065 29.9541 57.3067 29.9544 57.3068 29.9547C57.307 29.9551 57.3072 29.9554 57.3073 29.9557C57.3075 29.956 57.3076 29.9564 57.3078 29.9567C57.308 29.957 57.3081 29.9573 57.3083 29.9576C57.3085 29.958 57.3086 29.9583 57.3088 29.9586C57.3089 29.9589 57.3091 29.9593 57.3093 29.9596C57.3094 29.9599 57.3096 29.9602 57.3097 29.9606C57.3099 29.9609 57.3101 29.9612 57.3102 29.9615C57.3104 29.9618 57.3105 29.9622 57.3107 29.9625C57.3109 29.9628 57.311 29.9631 57.3112 29.9634C57.3113 29.9638 57.3115 29.9641 57.3117 29.9644C57.3118 29.9647 57.312 29.965 57.3121 29.9653C57.3123 29.9657 57.3125 29.966 57.3126 29.9663C57.3128 29.9666 57.3129 29.9669 57.3131 29.9672C57.3132 29.9676 57.3134 29.9679 57.3136 29.9682C57.3137 29.9685 57.3139 29.9688 57.314 29.9691C57.3142 29.9694 57.3143 29.9698 57.3145 29.9701C57.3147 29.9704 57.3148 29.9707 57.315 29.971C57.3151 29.9713 57.3153 29.9716 57.3154 29.972C57.3156 29.9723 57.3158 29.9726 57.3159 29.9729C57.3161 29.9732 57.3162 29.9735 57.3164 29.9738C57.3165 29.9741 57.3167 29.9744 57.3168 29.9747C57.317 29.9751 57.3171 29.9754 57.3173 29.9757C57.3175 29.976 57.3176 29.9763 57.3178 29.9766C57.3179 29.9769 57.3181 29.9772 57.3182 29.9775C57.3184 29.9778 57.3185 29.9781 57.3187 29.9784C57.3188 29.9788 57.319 29.9791 57.3191 29.9794C57.3193 29.9797 57.3195 29.98 57.3196 29.9803C57.3198 29.9806 57.3199 29.9809 57.3201 29.9812C57.3202 29.9815 57.3204 29.9818 57.3205 29.9821C57.3207 29.9824 57.3208 29.9827 57.321 29.983C57.3211 29.9833 57.3213 29.9836 57.3214 29.9839C57.3216 29.9842 57.3217 29.9845 57.3219 29.9848C57.322 29.9851 57.3222 29.9854 57.3223 29.9857C57.3225 29.986 57.3226 29.9863 57.3228 29.9866C57.3229 29.9869 57.3231 29.9872 57.3232 29.9875C57.3234 29.9878 57.3235 29.9881 57.3237 29.9884C57.3238 29.9887 57.324 29.989 57.3241 29.9893C57.3243 29.9896 57.3244 29.9899 57.3246 29.9902C57.3247 29.9905 57.3249 29.9908 57.325 29.9911C57.3252 29.9914 57.3253 29.9917 57.3255 29.992C57.3256 29.9923 57.3258 29.9926 57.3259 29.9929C57.326 29.9932 57.3262 29.9935 57.3263 29.9938C57.3265 29.994 57.3266 29.9943 57.3268 29.9946C57.3269 29.9949 57.3271 29.9952 57.3272 29.9955C57.3274 29.9958 57.3275 29.9961 57.3277 29.9964C57.3278 29.9967 57.3279 29.997 57.3281 29.9973C57.3282 29.9976 57.3284 29.9978 57.3285 29.9981C57.3287 29.9984 57.3288 29.9987 57.329 29.999C57.3291 29.9993 57.3293 29.9996 57.3294 29.9999C57.3295 30.0002 57.3297 30.0005 57.3298 30.0007C57.33 30.001 57.3301 30.0013 57.3303 30.0016C57.3304 30.0019 57.3305 30.0022 57.3307 30.0025C57.3308 30.0027 57.331 30.003 57.3311 30.0033C57.3313 30.0036 57.3314 30.0039 57.3315 30.0042C57.3317 30.0045 57.3318 30.0047 57.332 30.005C57.3321 30.0053 57.3323 30.0056 57.3324 30.0059C57.3325 30.0062 57.3327 30.0064 57.3328 30.0067C57.333 30.007 57.3331 30.0073 57.3332 30.0076C57.3334 30.0078 57.3335 30.0081 57.3337 30.0084C57.3338 30.0087 57.334 30.009 57.3341 30.0092C57.3342 30.0095 57.3344 30.0098 57.3345 30.0101C57.3346 30.0104 57.3348 30.0106 57.3349 30.0109C57.3351 30.0112 57.3352 30.0115 57.3353 30.0118C57.3355 30.012 57.3356 30.0123 57.3358 30.0126C57.3359 30.0129 57.336 30.0131 57.3362 30.0134C57.3363 30.0137 57.3364 30.014 57.3366 30.0143C57.3367 30.0145 57.3369 30.0148 57.337 30.0151C57.3371 30.0154 57.3373 30.0156 57.3374 30.0159C57.3375 30.0162 57.3377 30.0164 57.3378 30.0167C57.338 30.017 57.3381 30.0173 57.3382 30.0175C57.3384 30.0178 57.3385 30.0181 57.3386 30.0183C57.3388 30.0186 57.3389 30.0189 57.339 30.0192C57.3392 30.0194 57.3393 30.0197 57.3395 30.02C57.3396 30.0202 57.3397 30.0205 57.3399 30.0208C57.34 30.0211 57.3401 30.0213 57.3403 30.0216C57.3404 30.0219 57.3405 30.0221 57.3407 30.0224C57.3408 30.0227 57.3409 30.0229 57.3411 30.0232C57.3412 30.0235 57.3413 30.0237 57.3415 30.024C57.3416 30.0243 57.3417 30.0245 57.3419 30.0248C57.342 30.0251 57.3421 30.0253 57.3423 30.0256C57.3424 30.0259 57.3425 30.0261 57.3427 30.0264C57.3428 30.0266 57.3429 30.0269 57.3431 30.0272C57.3432 30.0274 57.3433 30.0277 57.3434 30.028C57.3436 30.0282 57.3437 30.0285 57.3438 30.0287C57.344 30.029 57.3441 30.0293 57.3442 30.0295C57.3444 30.0298 57.3445 30.0301 57.3446 30.0303C57.3448 30.0306 57.3449 30.0308 57.345 30.0311C57.3451 30.0314 57.3453 30.0316 57.3454 30.0319C57.3455 30.0321 57.3457 30.0324 57.3458 30.0326C57.3459 30.0329 57.346 30.0332 57.3462 30.0334C57.3463 30.0337 57.3464 30.0339 57.3466 30.0342C57.3467 30.0344 57.3468 30.0347 57.3469 30.035C57.3471 30.0352 57.3472 30.0355 57.3473 30.0357C57.3475 30.036 57.3476 30.0362 57.3477 30.0365C57.3478 30.0367 57.348 30.037 57.3481 30.0372C57.3482 30.0375 57.3483 30.0378 57.3485 30.038C57.3486 30.0383 57.3487 30.0385 57.3488 30.0388C57.349 30.039 57.3491 30.0393 57.3492 30.0395C57.3493 30.0398 57.3495 30.04 57.3496 30.0403C57.3497 30.0405 57.3498 30.0408 57.35 30.041C57.3501 30.0413 57.3502 30.0415 57.3503 30.0418C57.3505 30.042 57.3506 30.0423 57.3507 30.0425C57.3508 30.0428 57.351 30.043 57.3511 30.0433C57.3512 30.0435 57.3513 30.0437 57.3515 30.044C57.3516 30.0442 57.3517 30.0445 57.3518 30.0447C57.352 30.045 57.3521 30.0452 57.3522 30.0455C57.3523 30.0457 57.3524 30.046 57.3526 30.0462C57.3527 30.0464 57.3528 30.0467 57.3529 30.0469C57.3531 30.0472 57.3532 30.0474 57.3533 30.0477C57.3534 30.0479 57.3535 30.0481 57.3537 30.0484C57.3538 30.0486 57.3539 30.0489 57.354 30.0491C57.3541 30.0494 57.3543 30.0496 57.3544 30.0498C57.3545 30.0501 57.3546 30.0503 57.3547 30.0506C57.3549 30.0508 57.355 30.051 57.3551 30.0513C57.3552 30.0515 57.3553 30.0518 57.3555 30.052C57.3556 30.0522 57.3557 30.0525 57.3558 30.0527C57.3559 30.0529 57.3561 30.0532 57.3562 30.0534C57.3563 30.0536 57.3564 30.0539 57.3565 30.0541C57.3566 30.0544 57.3568 30.0546 57.3569 30.0548C57.357 30.0551 57.3571 30.0553 57.3572 30.0555C57.3573 30.0558 57.3575 30.056 57.3576 30.0562C57.3577 30.0565 57.3578 30.0567 57.3579 30.0569C57.358 30.0572 57.3582 30.0574 57.3583 30.0576C57.3584 30.0579 57.3585 30.0581 57.3586 30.0583C57.3587 30.0586 57.3589 30.0588 57.359 30.059C57.3591 30.0592 57.3592 30.0595 57.3593 30.0597C57.3594 30.0599 57.3595 30.0602 57.3597 30.0604C57.3598 30.0606 57.3599 30.0609 57.36 30.0611C57.3601 30.0613 57.3602 30.0615 57.3603 30.0618C57.3605 30.062 57.3606 30.0622 57.3607 30.0624C57.3608 30.0627 57.3609 30.0629 57.361 30.0631C57.3611 30.0633 57.3613 30.0636 57.3614 30.0638C57.3615 30.064 57.3616 30.0642 57.3617 30.0645C57.3618 30.0647 57.3619 30.0649 57.362 30.0651C57.3621 30.0654 57.3623 30.0656 57.3624 30.0658C57.3625 30.066 57.3626 30.0663 57.3627 30.0665C57.3628 30.0667 57.3629 30.0669 57.363 30.0671C57.3631 30.0674 57.3633 30.0676 57.3634 30.0678C57.3635 30.068 57.3636 30.0682 57.3637 30.0685C57.3638 30.0687 57.3639 30.0689 57.364 30.0691C57.3641 30.0693 57.3642 30.0696 57.3644 30.0698C57.3645 30.07 57.3646 30.0702 57.3647 30.0704C57.3648 30.0706 57.3649 30.0709 57.365 30.0711C57.3651 30.0713 57.3652 30.0715 57.3653 30.0717C57.3654 30.072 57.3655 30.0722 57.3657 30.0724C57.3658 30.0726 57.3659 30.0728 57.366 30.073C57.3661 30.0732 57.3662 30.0735 57.3663 30.0737C57.3664 30.0739 57.3665 30.0741 57.3666 30.0743C57.3667 30.0745 57.3668 30.0747 57.3669 30.0749C57.367 30.0752 57.3671 30.0754 57.3673 30.0756C57.3674 30.0758 57.3675 30.076 57.3676 30.0762C57.3677 30.0764 57.3678 30.0766 57.3679 30.0768C57.368 30.077 57.3681 30.0773 57.3682 30.0775C57.3683 30.0777 57.3684 30.0779 57.3685 30.0781C57.3686 30.0783 57.3687 30.0785 57.3688 30.0787C57.3689 30.0789 57.369 30.0791 57.3691 30.0793C57.3692 30.0796 57.3693 30.0798 57.3694 30.08C57.3695 30.0802 57.3697 30.0804 57.3698 30.0806C57.3699 30.0808 57.37 30.081 57.3701 30.0812C57.3702 30.0814 57.3703 30.0816 57.3704 30.0818C57.3705 30.082 57.3706 30.0822 57.3707 30.0824C57.3708 30.0826 57.3709 30.0828 57.371 30.083C57.3711 30.0832 57.3712 30.0834 57.3713 30.0836C57.3714 30.0838 57.3715 30.084 57.3716 30.0842C57.3717 30.0844 57.3718 30.0846 57.3719 30.0848C57.372 30.085 57.3721 30.0852 57.3722 30.0854C57.3723 30.0856 57.3724 30.0858 57.3725 30.086C57.3726 30.0862 57.3727 30.0864 57.3728 30.0866C57.3729 30.0868 57.373 30.087 57.3731 30.0872C57.3732 30.0874 57.3733 30.0876 57.3734 30.0878C57.3735 30.088 57.3736 30.0882 57.3737 30.0884C57.3738 30.0886 57.3739 30.0888 57.374 30.089C57.3741 30.0892 57.3741 30.0894 57.3742 30.0896C57.3743 30.0898 57.3744 30.0899 57.3745 30.0901C57.3746 30.0903 57.3747 30.0905 57.3748 30.0907C57.3749 30.0909 57.375 30.0911 57.3751 30.0913C57.3752 30.0915 57.3753 30.0917 57.3754 30.0919C57.3755 30.0921 57.3756 30.0922 57.3757 30.0924C57.3758 30.0926 57.3759 30.0928 57.376 30.093C57.3761 30.0932 57.3762 30.0934 57.3763 30.0936C57.3763 30.0938 57.3764 30.0939 57.3765 30.0941C57.3766 30.0943 57.3767 30.0945 57.3768 30.0947C57.3769 30.0949 57.377 30.0951 57.3771 30.0953C57.3772 30.0954 57.3773 30.0956 57.3774 30.0958C57.3775 30.096 57.3776 30.0962 57.3776 30.0964C57.3777 30.0965 57.3778 30.0967 57.3779 30.0969C57.378 30.0971 57.3781 30.0973 57.3782 30.0975C57.3783 30.0977 57.3784 30.0978 57.3785 30.098C57.3786 30.0982 57.3787 30.0984 57.3787 30.0986C57.3788 30.0987 57.3789 30.0989 57.379 30.0991C57.3791 30.0993 57.3792 30.0995 57.3793 30.0996C57.3794 30.0998 57.3795 30.1 57.3796 30.1002C57.3797 30.1004 57.3797 30.1005 57.3798 30.1007C57.3799 30.1009 57.38 30.1011 57.3801 30.1013C57.3802 30.1014 57.3803 30.1016 57.3804 30.1018C57.3804 30.102 57.3805 30.1021 57.3806 30.1023C57.3807 30.1025 57.3808 30.1027 57.3809 30.1029C57.381 30.103 57.3811 30.1032 57.3812 30.1034C57.3812 30.1035 57.3813 30.1037 57.3814 30.1039C57.3815 30.1041 57.3816 30.1042 57.3817 30.1044C57.3818 30.1046 57.3818 30.1048 57.3819 30.1049C57.382 30.1051 57.3821 30.1053 57.3822 30.1055C57.3823 30.1056 57.3824 30.1058 57.3824 30.106C57.3825 30.1061 57.3826 30.1063 57.3827 30.1065C57.3828 30.1066 57.3829 30.1068 57.383 30.107C57.383 30.1072 57.3831 30.1073 57.3832 30.1075C57.3833 30.1077 57.3834 30.1078 57.3835 30.108C57.3835 30.1082 57.3836 30.1083 57.3837 30.1085C57.3838 30.1087 57.3839 30.1088 57.384 30.109C57.384 30.1092 57.3841 30.1093 57.3842 30.1095C57.3843 30.1097 57.3844 30.1098 57.3845 30.11C57.3845 30.1102 57.3846 30.1103 57.3847 30.1105C57.3848 30.1106 57.3849 30.1108 57.385 30.111C57.385 30.1111 57.3851 30.1113 57.3852 30.1115C57.3853 30.1116 57.3854 30.1118 57.3854 30.112C57.3855 30.1121 57.3856 30.1123 57.3857 30.1124C57.3858 30.1126 57.3858 30.1128 57.3859 30.1129C57.386 30.1131 57.3861 30.1132 57.3862 30.1134C57.3862 30.1136 57.3863 30.1137 57.3864 30.1139C57.3865 30.114 57.3866 30.1142 57.3866 30.1143C57.3867 30.1145 57.3868 30.1147 57.3869 30.1148C57.387 30.115 57.387 30.1151 57.3871 30.1153C57.3872 30.1154 57.3873 30.1156 57.3873 30.1158C57.3874 30.1159 57.3875 30.1161 57.3876 30.1162C57.3877 30.1164 57.3877 30.1165 57.3878 30.1167C57.3879 30.1168 57.388 30.117 57.388 30.1171C57.3881 30.1173 57.3882 30.1175 57.3883 30.1176C57.3883 30.1178 57.3884 30.1179 57.3885 30.1181C57.3886 30.1182 57.3887 30.1184 57.3887 30.1185C57.3888 30.1187 57.3889 30.1188 57.389 30.119C57.389 30.1191 57.3891 30.1193 57.3892 30.1194C57.3893 30.1196 57.3893 30.1197 57.3894 30.1199C57.3895 30.12 57.3895 30.1202 57.3896 30.1203C57.3897 30.1205 57.3898 30.1206 57.3898 30.1208C57.3899 30.1209 57.39 30.1211 57.3901 30.1212C57.3901 30.1213 57.3902 30.1215 57.3903 30.1216C57.3904 30.1218 57.3904 30.1219 57.3905 30.1221C57.3906 30.1222 57.3906 30.1224 57.3907 30.1225C57.3908 30.1227 57.3909 30.1228 57.3909 30.1229C57.391 30.1231 57.3911 30.1232 57.3912 30.1234C57.3912 30.1235 57.3913 30.1237 57.3914 30.1238C57.3914 30.1239 57.3915 30.1241 57.3916 30.1242C57.3916 30.1244 57.3917 30.1245 57.3918 30.1246C57.3919 30.1248 57.3919 30.1249 57.392 30.1251C57.3921 30.1252 57.3921 30.1253 57.3922 30.1255C57.3923 30.1256 57.3923 30.1258 57.3924 30.1259C57.3925 30.126 57.3926 30.1262 57.3926 30.1263C57.3927 30.1264 57.3928 30.1266 57.3928 30.1267C57.3929 30.1269 57.393 30.127 57.393 30.1271C57.3931 30.1273 57.3932 30.1274 57.3932 30.1275C57.3933 30.1277 57.3934 30.1278 57.3934 30.1279C57.3935 30.1281 57.3936 30.1282 57.3936 30.1283C57.3937 30.1285 57.3938 30.1286 57.3938 30.1287C57.3939 30.1289 57.394 30.129 57.394 30.1291C57.3941 30.1293 57.3942 30.1294 57.3942 30.1295C57.3943 30.1297 57.3944 30.1298 57.3944 30.1299C57.3945 30.1301 57.3946 30.1302 57.3946 30.1303C57.3947 30.1304 57.3948 30.1306 57.3948 30.1307C57.3949 30.1308 57.3949 30.131 57.395 30.1311C57.3951 30.1312 57.3951 30.1313 57.3952 30.1315C57.3953 30.1316 57.3953 30.1317 57.3954 30.1319C57.3955 30.132 57.3955 30.1321 57.3956 30.1322C57.3956 30.1324 57.3957 30.1325 57.3958 30.1326C57.3958 30.1327 57.3959 30.1329 57.396 30.133C57.396 30.1331 57.3961 30.1332 57.3961 30.1334C57.3962 30.1335 57.3963 30.1336 57.3963 30.1337C57.3964 30.1338 57.3965 30.134 57.3965 30.1341C57.3966 30.1342 57.3966 30.1343 57.3967 30.1345C57.3968 30.1346 57.3968 30.1347 57.3969 30.1348C57.3969 30.1349 57.397 30.1351 57.3971 30.1352C57.3971 30.1353 57.3972 30.1354 57.3972 30.1355C57.3973 30.1357 57.3974 30.1358 57.3974 30.1359C57.3975 30.136 57.3975 30.1361 57.3976 30.1362C57.3976 30.1364 57.3977 30.1365 57.3978 30.1366C57.3978 30.1367 57.3979 30.1368 57.3979 30.1369C57.398 30.1371 57.3981 30.1372 57.3981 30.1373C57.3982 30.1374 57.3982 30.1375 57.3983 30.1376C57.3983 30.1377 57.3984 30.1379 57.3985 30.138C57.3985 30.1381 57.3986 30.1382 57.3986 30.1383C57.3987 30.1384 57.3987 30.1385 57.3988 30.1387C57.3988 30.1388 57.3989 30.1389 57.399 30.139C57.399 30.1391 57.3991 30.1392 57.3991 30.1393C57.3992 30.1394 57.3992 30.1395 57.3993 30.1397C57.3993 30.1398 57.3994 30.1399 57.3995 30.14C57.3995 30.1401 57.3996 30.1402 57.3996 30.1403C57.3997 30.1404 57.3997 30.1405 57.3998 30.1406C57.3998 30.1407 57.3999 30.1408 57.3999 30.141C57.4 30.1411 57.4001 30.1412 57.4001 30.1413C57.4002 30.1414 57.4002 30.1415 57.4003 30.1416C57.4003 30.1417 57.4004 30.1418 57.4004 30.1419C57.4005 30.142 57.4005 30.1421 57.4006 30.1422C57.4006 30.1423 57.4007 30.1424 57.4007 30.1425C57.4008 30.1426 57.4008 30.1427 57.4009 30.1428C57.4009 30.1429 57.401 30.143 57.401 30.1431C57.4011 30.1432 57.4011 30.1433 57.4012 30.1434C57.4012 30.1435 57.4013 30.1436 57.4013 30.1437C57.4014 30.1438 57.4014 30.1439 57.4015 30.144C57.4015 30.1441 57.4016 30.1442 57.4016 30.1443C57.4017 30.1444 57.4017 30.1445 57.4018 30.1446C57.4018 30.1447 57.4019 30.1448 57.4019 30.1449C57.402 30.145 57.402 30.1451 57.4021 30.1452C57.4021 30.1453 57.4022 30.1454 57.4022 30.1455C57.4023 30.1456 57.4023 30.1457 57.4024 30.1458C57.4024 30.1459 57.4025 30.146 57.4025 30.1461C57.4025 30.1462 57.4026 30.1463 57.4026 30.1464C57.4027 30.1464 57.4027 30.1465 57.4028 30.1466C57.4028 30.1467 57.4029 30.1468 57.4029 30.1469C57.403 30.147 57.403 30.1471 57.4031 30.1472C57.4031 30.1473 57.4031 30.1474 57.4032 30.1475C57.4032 30.1475 57.4033 30.1476 57.4033 30.1477C57.4034 30.1478 57.4034 30.1479 57.4035 30.148C57.4035 30.1481 57.4035 30.1482 57.4036 30.1483C57.4036 30.1483 57.4037 30.1484 57.4037 30.1485C57.4038 30.1486 57.4038 30.1487 57.4039 30.1488C57.4039 30.1489 57.4039 30.1489 57.404 30.149C57.404 30.1491 57.4041 30.1492 57.4041 30.1493C57.4042 30.1494 57.4042 30.1495 57.4042 30.1495C57.4043 30.1496 57.4043 30.1497 57.4044 30.1498C57.4044 30.1499 57.4044 30.15 57.4045 30.15C57.4045 30.1501 57.4046 30.1502 57.4046 30.1503C57.4046 30.1504 57.4047 30.1504 57.4047 30.1505C57.4048 30.1506 57.4048 30.1507 57.4049 30.1508C57.4049 30.1508 57.4049 30.1509 57.405 30.151C57.405 30.1511 57.405 30.1512 57.4051 30.1512C57.4051 30.1513 57.4052 30.1514 57.4052 30.1515C57.4052 30.1516 57.4053 30.1516 57.4053 30.1517C57.4054 30.1518 57.4054 30.1519 57.4054 30.1519C57.4055 30.152 57.4055 30.1521 57.4056 30.1522C57.4056 30.1522 57.4056 30.1523 57.4057 30.1524C57.4057 30.1525 57.4057 30.1525 57.4058 30.1526C57.4058 30.1527 57.4058 30.1528 57.4059 30.1528C57.4059 30.1529 57.406 30.153 57.406 30.1531C57.406 30.1531 57.4061 30.1532 57.4061 30.1533C57.4061 30.1533 57.4062 30.1534 57.4062 30.1535C57.4062 30.1536 57.4063 30.1536 57.4063 30.1537C57.4064 30.1538 57.4064 30.1538 57.4064 30.1539C57.4065 30.154 57.4065 30.154 57.4065 30.1541C57.4066 30.1542 57.4066 30.1543 57.4066 30.1543C57.4067 30.1544 57.4067 30.1545 57.4067 30.1545C57.4068 30.1546 57.4068 30.1547 57.4068 30.1547C57.4069 30.1548 57.4069 30.1549 57.4069 30.1549C57.407 30.155 57.407 30.1551 57.407 30.1551C57.4071 30.1552 57.4071 30.1553 57.4071 30.1553C57.4072 30.1554 57.4072 30.1554 57.4072 30.1555C57.4072 30.1556 57.4073 30.1556 57.4073 30.1557C57.4073 30.1558 57.4074 30.1558 57.4074 30.1559C57.4074 30.1559 57.4075 30.156 57.4075 30.1561C57.4075 30.1561 57.4076 30.1562 57.4076 30.1562C57.4076 30.1563 57.4076 30.1564 57.4077 30.1564C57.4077 30.1565 57.4077 30.1565 57.4078 30.1566C57.4078 30.1567 57.4078 30.1567 57.4079 30.1568C57.4079 30.1568 57.4079 30.1569 57.4079 30.157C57.408 30.157 57.408 30.1571 57.408 30.1571C57.4081 30.1572 57.4081 30.1572 57.4081 30.1573C57.4081 30.1573 57.4082 30.1574 57.4082 30.1575C57.4082 30.1575 57.4082 30.1576 57.4083 30.1576C57.4083 30.1577 57.4083 30.1577 57.4084 30.1578C57.4084 30.1578 57.4084 30.1579 57.4084 30.1579C57.4085 30.158 57.4085 30.158 57.4085 30.1581C57.4085 30.1581 57.4086 30.1582 57.4086 30.1582C57.4086 30.1583 57.4086 30.1583 57.4087 30.1584C57.4087 30.1585 57.4087 30.1585 57.4087 30.1586C57.4088 30.1586 57.4088 30.1587 57.4088 30.1587C57.4088 30.1587 57.4089 30.1588 57.4089 30.1588C57.4089 30.1589 57.4089 30.1589 57.409 30.159C57.409 30.159 57.409 30.1591 57.409 30.1591C57.4091 30.1592 57.4091 30.1592 57.4091 30.1593C57.4091 30.1593 57.4091 30.1594 57.4092 30.1594C57.4092 30.1594 57.4092 30.1595 57.4092 30.1595C57.4093 30.1596 57.4093 30.1596 57.4093 30.1597C57.4093 30.1597 57.4093 30.1598 57.4094 30.1598C57.4094 30.1598 57.4094 30.1599 57.4094 30.1599C57.4095 30.16 57.4095 30.16 57.4095 30.16C57.4095 30.1601 57.4095 30.1601 57.4096 30.1602C57.4096 30.1602 57.4096 30.1603 57.4096 30.1603C57.4096 30.1603 57.4097 30.1604 57.4097 30.1604C57.4097 30.1604 57.4097 30.1605 57.4097 30.1605C57.4097 30.1606 57.4098 30.1606 57.4098 30.1606C57.4098 30.1607 57.4098 30.1607 57.4098 30.1608C57.4099 30.1608 57.4099 30.1608 57.4099 30.1609C57.4099 30.1609 57.4099 30.1609 57.41 30.161C57.41 30.161 57.41 30.161 57.41 30.1611C57.41 30.1611 57.41 30.1611 57.4101 30.1612C57.4101 30.1612 57.4101 30.1612 57.4101 30.1613C57.4101 30.1613 57.4101 30.1613 57.4101 30.1614C57.4102 30.1614 57.4102 30.1614 57.4102 30.1615C57.4102 30.1615 57.4102 30.1615 57.4102 30.1616C57.4103 30.1616 57.4103 30.1616 57.4103 30.1616C57.4103 30.1617 57.4103 30.1617 57.4103 30.1617C57.4103 30.1618 57.4104 30.1618 57.4104 30.1618C57.4104 30.1618 57.4104 30.1619 57.4104 30.1619C57.4104 30.1619 57.4104 30.162 57.4105 30.162C57.4105 30.162 57.4105 30.162 57.4105 30.1621C57.4105 30.1621 57.4105 30.1621 57.4105 30.1621C57.4105 30.1622 57.4106 30.1622 57.4106 30.1622C57.4106 30.1622 57.4106 30.1623 57.4106 30.1623C57.4106 30.1623 57.4106 30.1623 57.4106 30.1624C57.4107 30.1624 57.4107 30.1624 57.4107 30.1624C57.4107 30.1624 57.4107 30.1625 57.4107 30.1625C57.4107 30.1625 57.4107 30.1625 57.4107 30.1626C57.4108 30.1626 57.4108 30.1626 57.4108 30.1626C57.4108 30.1626 57.4108 30.1627 57.4108 30.1627C57.4108 30.1627 57.4108 30.1627 57.4108 30.1627C57.4108 30.1627 57.4108 30.1628 57.4109 30.1628C57.4109 30.1628 57.4109 30.1628 57.4109 30.1628C57.4109 30.1628 57.4109 30.1629 57.4109 30.1629C57.4109 30.1629 57.4109 30.1629 57.4109 30.1629C57.4109 30.1629 57.4109 30.163 57.411 30.163C57.411 30.163 57.411 30.163 57.411 30.163C57.411 30.163 57.411 30.163 57.411 30.1631C57.411 30.1631 57.411 30.1631 57.411 30.1631C57.411 30.1631 57.411 30.1631 57.411 30.1631C57.411 30.1631 57.411 30.1632 57.411 30.1632C57.4111 30.1632 57.4111 30.1632 57.4111 30.1632C57.4111 30.1632 57.4111 30.1632 57.4111 30.1632C57.4111 30.1632 57.4111 30.1632 57.4111 30.1632C57.4111 30.1633 57.4111 30.1633 57.4111 30.1633C57.4111 30.1633 57.4111 30.1633 57.4111 30.1633C57.4111 30.1633 57.4111 30.1633 57.4111 30.1633C57.4111 30.1633 57.4111 30.1633 57.4111 30.1633C57.4111 30.1633 57.4111 30.1633 57.4111 30.1633C57.4111 30.1634 57.4111 30.1634 57.4111 30.1634C57.4111 30.1634 57.4111 30.1634 57.4112 30.1634C57.4112 30.1634 57.4112 30.1634 57.4112 30.1634V30.1634C57.4112 30.1634 57.4112 30.1634 57.4112 30.1634C57.4112 30.1634 57.4112 30.1634 59.2 29.2689ZM60.6117 27.7196C59.7165 26.6006 58.4298 26.2015 57.1172 26.389L57.6828 30.3488C57.7747 30.3357 57.7461 30.357 57.654 30.3235C57.6104 30.3077 57.5693 30.2853 57.5355 30.2603C57.5026 30.236 57.4879 30.2179 57.4883 30.2183L60.6117 27.7196ZM55.7899 27.1825C54.3529 29.1327 53.0179 31.1352 51.785 33.1899L55.215 35.2479C56.3821 33.3027 57.6471 31.4052 59.0101 29.5553L55.7899 27.1825ZM51.785 33.1899L48.635 38.4399L52.065 40.4979L55.215 35.2479L51.785 33.1899ZM127.691 9.76894L127.636 7.76971L127.634 7.76976L127.691 9.76894ZM138.191 9.16894L138.367 11.1612C138.387 11.1595 138.406 11.1575 138.425 11.1552L138.191 9.16894ZM148.841 8.11894L149.003 10.1124C149.021 10.111 149.039 10.1093 149.056 10.1074L148.841 8.11894ZM159.791 7.06894L159.625 5.07585L159.791 7.06894ZM169.541 6.76894L169.472 8.76775C169.485 8.76819 169.498 8.76851 169.511 8.7687L169.541 6.76894ZM179.291 10.0689H177.291C177.291 10.2737 177.323 10.4772 177.385 10.6724L179.291 10.0689ZM174.041 28.0689L175.151 29.733C175.157 29.7288 175.163 29.7245 175.17 29.7202L174.041 28.0689ZM162.191 31.6689L162.479 33.6481L162.191 31.6689ZM150.641 32.5689L150.385 34.5525C150.41 34.5557 150.435 34.5585 150.46 34.5607L150.641 32.5689ZM143.291 31.9689V29.9689C142.584 29.9689 141.929 30.3425 141.57 30.9515L143.291 31.9689ZM137.441 41.1189L139.092 42.2483C139.097 42.2417 139.101 42.235 139.106 42.2283L137.441 41.1189ZM129.791 52.5189L128.121 51.4197C128.06 51.5121 128.007 51.6094 127.962 51.7106L129.791 52.5189ZM126.941 58.9689L125.112 58.1606C124.695 59.1039 125.064 60.2095 125.964 60.7136C126.863 61.2178 127.999 60.9553 128.586 60.1074L126.941 58.9689ZM141.041 53.8689L141.251 55.858L141.256 55.8574L141.041 53.8689ZM159.191 55.5189L160.023 53.7002C159.996 53.6878 159.969 53.6759 159.941 53.6647L159.191 55.5189ZM174.641 75.3189L176.634 75.1442C176.633 75.1354 176.632 75.1265 176.631 75.1177L174.641 75.3189ZM170.291 98.1189L172.173 98.7982L172.174 98.7929L170.291 98.1189ZM157.241 117.619L155.863 116.17L155.855 116.178L157.241 117.619ZM139.541 129.319L138.774 127.472C138.768 127.474 138.763 127.477 138.757 127.479L139.541 129.319ZM96.9414 130.519L97.5218 128.605C97.5057 128.6 97.4895 128.595 97.4733 128.591L96.9414 130.519ZM89.7414 126.469L88.3272 127.883L89.7414 126.469ZM85.8414 120.469L87.721 119.785L85.8414 120.469ZM85.0914 113.869L87.0731 114.139L87.0746 114.128L85.0914 113.869ZM87.9414 108.019L89.3556 109.433C89.3684 109.42 89.3809 109.408 89.3933 109.394L87.9414 108.019ZM104.741 104.869L104.305 106.821C104.313 106.822 104.32 106.824 104.328 106.826L104.741 104.869ZM119.741 105.769L120.334 107.679C120.354 107.673 120.374 107.666 120.393 107.66L119.741 105.769ZM127.091 101.419L125.714 99.9689L127.091 101.419ZM131.741 95.5689L130.005 94.5767C130 94.5861 129.994 94.5956 129.989 94.6051L131.741 95.5689ZM134.291 90.769L136.112 91.5966C136.121 91.5772 136.129 91.5578 136.138 91.5382L134.291 90.769ZM135.341 87.1689L137.314 87.4977C137.315 87.4911 137.316 87.4844 137.317 87.4777L135.341 87.1689ZM133.391 81.1689L134.204 79.3413C134.161 79.3225 134.118 79.3052 134.075 79.2894L133.391 81.1689ZM127.841 81.1689L128.146 83.1457L127.841 81.1689ZM119.141 82.5189L118.833 80.5429H118.833L119.141 82.5189ZM109.391 83.8689L109.151 81.8835H109.151L109.391 83.8689ZM100.841 83.8689L101.17 81.8961L100.841 83.8689ZM95.8914 73.9689L97.7681 74.6604C97.9251 74.2342 97.9324 73.7673 97.7888 73.3365L95.8914 73.9689ZM96.3414 74.2689H98.3414C98.3414 73.5817 97.9886 72.9426 97.407 72.5765L96.3414 74.2689ZM92.2914 65.8689L90.4024 65.2119C90.3289 65.4232 90.2914 65.6453 90.2914 65.8689H92.2914ZM98.1414 52.3689L96.3767 51.4278C96.3741 51.4326 96.3715 51.4375 96.369 51.4424L98.1414 52.3689ZM104.141 41.1189L102.388 40.1573C102.384 40.1641 102.38 40.1709 102.377 40.1778L104.141 41.1189ZM108.041 33.9189L106.293 32.9477C106.287 32.9594 106.28 32.9713 106.274 32.9832L108.041 33.9189ZM110.891 28.3689L112.699 29.2251C113.051 28.4817 112.912 27.5985 112.349 26.9991C111.785 26.3998 110.912 26.2065 110.149 26.512L110.891 28.3689ZM110.141 28.2189L108.201 27.7339C108.161 27.8925 108.141 28.0554 108.141 28.2189H110.141ZM110.741 26.7189L109.077 25.6096C109.031 25.6786 108.99 25.7503 108.953 25.8245L110.741 26.7189ZM111.941 24.7689L110.245 23.7089C110.231 23.7312 110.218 23.7538 110.205 23.7767L111.941 24.7689ZM113.141 22.6689L114.93 23.5634C115.159 23.1064 115.204 22.5792 115.056 22.0902L113.141 22.6689ZM117.641 12.6189L118.616 14.3653L118.622 14.3621L117.641 12.6189ZM112.091 26.5689L110.13 26.1767C109.941 27.124 110.455 28.0712 111.353 28.4277C112.251 28.7843 113.275 28.4481 113.787 27.6289L112.091 26.5689ZM113.291 24.4689L111.627 23.3595C111.581 23.4285 111.54 23.5003 111.503 23.5745L113.291 24.4689ZM113.141 23.8689L112.399 22.012C112.347 22.0326 112.297 22.0553 112.247 22.0801L113.141 23.8689ZM112.391 25.0689L114.353 25.4612C114.357 25.4401 114.361 25.4189 114.364 25.3977L112.391 25.0689ZM162.341 10.0689L162.048 8.09054C161.045 8.23919 160.312 9.11541 160.342 10.1293C160.373 11.1431 161.158 11.9736 162.168 12.0614L162.341 10.0689ZM166.091 9.91894L164.427 8.80954V8.80955L166.091 9.91894ZM123.641 78.4689L123.156 80.4092C123.315 80.4489 123.478 80.4689 123.641 80.4689V78.4689ZM123.941 78.4689V80.4689C124.982 80.4689 125.849 79.671 125.935 78.6339C126.02 77.5968 125.297 76.6672 124.27 76.4962L123.941 78.4689ZM127.747 11.7682C131.385 11.6671 134.925 11.4649 138.367 11.1612L138.016 7.17668C134.658 7.47297 131.198 7.67076 127.636 7.76971L127.747 11.7682ZM138.425 11.1552C141.799 10.7583 145.325 10.4106 149.003 10.1124L148.68 6.12548C144.958 6.42727 141.384 6.77959 137.958 7.18264L138.425 11.1552ZM149.056 10.1074C152.741 9.70906 156.374 9.36063 159.958 9.06203L159.625 5.07585C156.009 5.37725 152.342 5.72882 148.626 6.13053L149.056 10.1074ZM159.958 9.06203C163.497 8.76704 166.667 8.67102 169.472 8.76775L169.61 4.77013C166.616 4.66687 163.285 4.77084 159.625 5.07585L159.958 9.06203ZM169.511 8.7687C172.704 8.81783 174.889 9.11538 176.213 9.56337C176.871 9.78611 177.169 9.99831 177.279 10.1066C177.324 10.1514 177.321 10.1615 177.308 10.1325C177.302 10.1196 177.297 10.1046 177.294 10.0899C177.291 10.0753 177.291 10.0675 177.291 10.0689H181.291C181.291 7.66993 179.34 6.39907 177.495 5.77451C175.569 5.1225 172.879 4.82005 169.572 4.76918L169.511 8.7687ZM177.385 10.6724C178.553 14.3654 178.667 17.4204 177.934 19.9339C177.209 22.4191 175.596 24.5842 172.913 26.4177L175.17 29.7202C178.487 27.4537 180.749 24.5688 181.774 21.0539C182.791 17.5675 182.53 13.6725 181.198 9.46553L177.385 10.6724ZM172.932 26.4048C170.915 27.7492 167.333 28.9001 161.904 29.6898L162.479 33.6481C168.05 32.8378 172.367 31.5887 175.151 29.733L172.932 26.4048ZM161.904 29.6898C156.395 30.4911 152.76 30.7533 150.822 30.5772L150.46 34.5607C152.923 34.7846 156.988 34.4468 162.479 33.6481L161.904 29.6898ZM150.897 30.5854C147.764 30.1811 145.217 29.9689 143.291 29.9689V33.9689C144.966 33.9689 147.318 34.1567 150.385 34.5525L150.897 30.5854ZM141.57 30.9515C140.297 33.1047 138.371 36.1193 135.777 40.0095L139.106 42.2283C141.712 38.3186 143.686 35.2332 145.013 32.9864L141.57 30.9515ZM135.791 39.9896C133.184 43.7994 130.627 47.6095 128.121 51.4197L131.462 53.6182C133.956 49.8284 136.499 46.0384 139.092 42.2483L135.791 39.9896ZM127.962 51.7106L125.112 58.1606L128.771 59.7773L131.621 53.3273L127.962 51.7106ZM128.586 60.1074C129.148 59.2953 130.328 58.4093 132.497 57.6247C134.637 56.8505 137.536 56.2489 141.251 55.858L140.832 51.8799C136.946 52.2889 133.696 52.9374 131.136 53.8632C128.605 54.7786 126.535 56.0426 125.297 57.8305L128.586 60.1074ZM141.256 55.8574C148.471 55.0774 154.157 55.641 158.442 57.3732L159.941 53.6647C154.826 51.5968 148.412 51.0605 140.826 51.8805L141.256 55.8574ZM158.359 57.3377C167.233 61.397 171.835 67.4485 172.652 75.5202L176.631 75.1177C175.647 65.3894 169.949 58.2408 160.023 53.7002L158.359 57.3377ZM172.649 75.4937C173.111 80.7647 171.774 88.0401 168.408 97.445L172.174 98.7929C175.608 89.1978 177.171 81.2732 176.634 75.1442L172.649 75.4937ZM168.41 97.4397C165.926 104.319 161.761 110.562 155.863 116.17L158.62 119.068C164.922 113.076 169.457 106.319 172.173 98.7982L168.41 97.4397ZM155.855 116.178C150.726 121.113 145.034 124.872 138.774 127.472L140.309 131.166C147.049 128.366 153.157 124.325 158.628 119.06L155.855 116.178ZM138.757 127.479C126.355 132.767 112.646 133.191 97.5218 128.605L96.361 132.433C112.237 137.247 126.928 136.871 140.326 131.159L138.757 127.479ZM97.4733 128.591C94.8662 127.872 92.7827 126.682 91.1556 125.055L88.3272 127.883C90.5001 130.056 93.2166 131.566 96.4095 132.447L97.4733 128.591ZM91.1556 125.055C89.544 123.443 88.4126 121.687 87.721 119.785L83.9618 121.152C84.8702 123.65 86.3389 125.895 88.3272 127.883L91.1556 125.055ZM87.721 119.785C87.0257 117.873 86.8193 116 87.0731 114.139L83.1097 113.599C82.7635 116.138 83.0572 118.665 83.9618 121.152L87.721 119.785ZM87.0746 114.128C87.3191 112.253 88.0759 110.713 89.3556 109.433L86.5272 106.605C84.607 108.525 83.4637 110.885 83.1082 113.61L87.0746 114.128ZM89.3933 109.394C92.2987 106.328 97.0286 105.193 104.305 106.821L105.178 102.917C97.2542 101.145 90.7841 102.11 86.4895 106.643L89.3933 109.394ZM104.328 106.826C107.936 107.588 111.065 108.057 113.697 108.215C116.302 108.372 118.552 108.232 120.334 107.679L119.149 103.859C118.03 104.206 116.331 104.366 113.936 104.223C111.568 104.08 108.647 103.65 105.155 102.912L104.328 106.826ZM120.393 107.66C123.533 106.577 126.239 104.987 128.469 102.869L125.714 99.9689C123.944 101.651 121.749 102.961 119.089 103.878L120.393 107.66ZM128.469 102.869C130.588 100.856 132.276 98.7462 133.494 96.5328L129.989 94.6051C129.006 96.3917 127.595 98.1822 125.714 99.9689L128.469 102.869ZM133.478 96.5612C134.685 94.4494 135.572 92.784 136.112 91.5966L132.471 89.9413C132.01 90.9539 131.198 92.4884 130.005 94.5767L133.478 96.5612ZM136.138 91.5382C136.692 90.2063 137.087 88.8589 137.314 87.4977L133.369 86.8401C133.195 87.879 132.89 88.9315 132.445 89.9997L136.138 91.5382ZM137.317 87.4777C137.592 85.7193 137.592 84.0679 137.131 82.6508C136.644 81.1524 135.66 79.9887 134.204 79.3413L132.579 82.9966C132.923 83.1492 133.164 83.3855 133.327 83.8871C133.516 84.47 133.591 85.4186 133.365 86.8602L137.317 87.4777ZM134.075 79.2894C132.454 78.7001 130.152 78.7899 127.537 79.1922L128.146 83.1457C130.731 82.748 132.128 82.8378 132.708 83.0485L134.075 79.2894ZM127.537 79.1922C124.935 79.5925 122.034 80.0427 118.833 80.5429L119.45 84.495C122.649 83.9951 125.547 83.5454 128.146 83.1457L127.537 79.1922ZM118.833 80.5429C115.656 81.0393 112.429 81.4862 109.151 81.8835L109.632 85.8544C112.954 85.4517 116.227 84.9986 119.45 84.495L118.833 80.5429ZM109.151 81.8835C105.976 82.2683 103.327 82.2557 101.17 81.8961L100.513 85.8417C103.155 86.2822 106.207 86.2696 109.632 85.8544L109.151 81.8835ZM101.17 81.8961C98.7817 81.4981 97.7623 80.6637 97.3428 79.8245C96.8846 78.9082 96.7905 77.3137 97.7681 74.6604L94.0147 73.2775C92.8923 76.3242 92.5732 79.2297 93.7651 81.6134C94.9955 84.0742 97.5011 85.3398 100.513 85.8417L101.17 81.8961ZM97.7888 73.3365C97.7629 73.2588 97.7848 73.3127 97.8057 73.4173C97.8122 73.4498 97.8275 73.5302 97.8357 73.6368C97.8387 73.6753 97.8727 74.0119 97.7396 74.4115C97.6663 74.6313 97.4772 75.0677 97.0063 75.404C96.474 75.7843 95.8861 75.8237 95.4541 75.7373C95.081 75.6627 94.8238 75.5001 94.7113 75.4222C94.5818 75.3326 94.49 75.246 94.4397 75.1957C94.3399 75.0959 94.2751 75.0088 94.2522 74.9776C94.2225 74.9371 94.202 74.9054 94.1924 74.8904C94.1734 74.8606 94.1652 74.8451 94.1712 74.8559C94.1818 74.875 94.2076 74.9234 94.2525 75.0134L97.8303 73.2245C97.7752 73.1144 97.7197 73.0067 97.6678 72.9133C97.6426 72.8678 97.6078 72.807 97.567 72.7428C97.5524 72.7199 97.4435 72.5426 97.2681 72.3672C97.2147 72.3138 97.1201 72.2248 96.9881 72.1334C96.873 72.0537 96.6135 71.89 96.2385 71.815C95.8046 71.7282 95.215 71.7679 94.6813 72.1492C94.2091 72.4865 94.0188 72.9246 93.9448 73.1467C93.8101 73.5509 93.8438 73.895 93.8475 73.9436C93.8565 74.0604 93.8738 74.1537 93.8834 74.2018C93.9168 74.369 93.9699 74.5291 93.994 74.6014L97.7888 73.3365ZM94.2525 75.0134C94.3191 75.1464 94.4051 75.3076 94.5086 75.4627C94.5602 75.5402 94.6388 75.6505 94.7443 75.7666C94.8308 75.8618 95.04 76.0793 95.372 76.2453C95.744 76.4313 96.4448 76.6221 97.1936 76.2477C97.8397 75.9246 98.0955 75.3813 98.1796 75.1711C98.3463 74.7544 98.3414 74.3622 98.3414 74.2689H94.3414C94.3414 74.2568 94.3416 74.2062 94.3504 74.1314C94.3573 74.0729 94.38 73.8999 94.4657 73.6855C94.5373 73.5065 94.7775 72.9836 95.4048 72.6699C96.1349 72.3049 96.8138 72.4941 97.1608 72.6676C97.4678 72.8211 97.6488 73.0152 97.7041 73.0759C97.7784 73.1577 97.8226 73.2227 97.8368 73.2439C97.8652 73.2866 97.8638 73.2915 97.8303 73.2245L94.2525 75.0134ZM97.407 72.5765C95.4236 71.3277 94.2914 69.2581 94.2914 65.8689H90.2914C90.2914 70.2798 91.8592 73.8102 95.2758 75.9614L97.407 72.5765ZM94.1804 66.526C95.7476 62.0203 97.6584 57.6103 99.9139 53.2954L96.369 51.4424C94.0244 55.9276 92.0352 60.5176 90.4024 65.2119L94.1804 66.526ZM99.9061 53.3101C102.306 48.8101 104.306 45.0601 105.906 42.0601L102.377 40.1778C100.777 43.1778 98.7767 46.9278 96.3767 51.4278L99.9061 53.3101ZM105.895 42.0806C107.597 38.9778 108.902 36.5677 109.809 34.8547L106.274 32.9832C105.381 34.6701 104.086 37.06 102.388 40.1573L105.895 42.0806ZM109.79 34.8902C110.811 33.0517 111.781 31.1633 112.699 29.2251L109.084 27.5128C108.202 29.3746 107.272 31.1862 106.293 32.9477L109.79 34.8902ZM110.149 26.512C110.095 26.5334 110.108 26.5236 110.171 26.5109C110.219 26.5013 110.429 26.4618 110.721 26.5203C111.059 26.5878 111.498 26.7899 111.816 27.2346C112.106 27.6404 112.141 28.0371 112.141 28.2189H108.141C108.141 28.5508 108.208 29.0663 108.561 29.5596C108.941 30.0917 109.474 30.3501 109.937 30.4426C110.679 30.5911 111.345 30.3414 111.634 30.2259L110.149 26.512ZM112.082 28.704C112.131 28.5056 112.26 28.1532 112.53 27.6134L108.953 25.8245C108.622 26.4847 108.352 27.1323 108.201 27.7339L112.082 28.704ZM112.406 27.8283C112.834 27.186 113.258 26.4965 113.678 25.7612L110.205 23.7767C109.825 24.4414 109.449 25.0519 109.077 25.6096L112.406 27.8283ZM113.637 25.8289C114.159 24.9949 114.593 24.2375 114.93 23.5634L111.353 21.7745C111.09 22.3003 110.724 22.9429 110.245 23.7089L113.637 25.8289ZM115.056 22.0902C114.513 20.2936 114.605 18.8916 115.117 17.7488C115.639 16.5819 116.715 15.4264 118.616 14.3653L116.667 10.8725C114.268 12.2115 112.444 13.9309 111.466 16.1141C110.478 18.3212 110.47 20.7443 111.227 23.2477L115.056 22.0902ZM118.622 14.3621C121.554 12.713 124.588 11.8584 127.749 11.7681L127.634 7.76976C123.794 7.87946 120.129 8.92485 116.661 10.8758L118.622 14.3621ZM113.787 27.6289C114.309 26.7949 114.743 26.0375 115.08 25.3634L111.503 23.5745C111.24 24.1003 110.874 24.7429 110.395 25.5089L113.787 27.6289ZM114.956 25.5783C115.084 25.385 115.228 25.1494 115.339 24.8956C115.399 24.7597 115.682 24.1354 115.494 23.3839C115.372 22.8967 115.066 22.4191 114.562 22.1094C114.117 21.8354 113.682 21.7939 113.432 21.7939C112.967 21.7939 112.577 21.9404 112.399 22.012L113.884 25.7259C113.955 25.6974 113.759 25.7939 113.432 25.7939C113.251 25.7939 112.87 25.765 112.466 25.516C112.003 25.2313 111.723 24.7912 111.614 24.354C111.52 23.9793 111.567 23.6808 111.594 23.5548C111.623 23.4135 111.662 23.3203 111.675 23.2923C111.698 23.2385 111.698 23.2529 111.627 23.3595L114.956 25.5783ZM112.247 22.0801C111.083 22.662 110.583 23.7551 110.419 24.7401L114.364 25.3977C114.383 25.2855 114.398 25.3014 114.35 25.3789C114.324 25.42 114.284 25.4725 114.226 25.526C114.168 25.5801 114.102 25.6246 114.036 25.6578L112.247 22.0801ZM110.43 24.6767C110.33 25.1767 110.23 25.6767 110.13 26.1767L114.053 26.9612C114.153 26.4612 114.253 25.9612 114.353 25.4612L110.43 24.6767ZM162.168 12.0614C163.345 12.1637 164.332 12.2099 165.084 12.1798C165.452 12.1651 165.848 12.1295 166.214 12.0412C166.443 11.9859 167.249 11.7879 167.756 11.0283L164.427 8.80955C164.657 8.46557 164.934 8.3021 165.054 8.24059C165.183 8.17406 165.272 8.15361 165.275 8.1529C165.279 8.15211 165.181 8.17278 164.924 8.18304C164.426 8.20295 163.638 8.17415 162.515 8.07646L162.168 12.0614ZM167.756 11.0283C167.886 10.8321 168.072 10.4843 168.107 10.0127C168.145 9.48713 167.981 8.99236 167.687 8.60792C167.216 7.99243 166.563 7.84497 166.433 7.81395C166.009 7.71307 165.543 7.72028 165.224 7.73304C164.484 7.76263 163.407 7.88931 162.048 8.09054L162.635 12.0474C163.976 11.8486 164.873 11.7503 165.384 11.7298C165.69 11.7176 165.667 11.7436 165.506 11.7052C165.448 11.6914 165.323 11.6579 165.17 11.5824C165.025 11.5115 164.751 11.3526 164.51 11.0378C164.236 10.6799 164.081 10.2144 164.117 9.72085C164.149 9.28134 164.322 8.96824 164.427 8.80954L167.756 11.0283ZM124.126 76.5287C124.022 76.5025 124.023 76.5004 124.068 76.5153C124.081 76.5199 124.133 76.5372 124.201 76.5662C124.234 76.5805 124.299 76.6093 124.377 76.653C124.428 76.6813 124.62 76.7876 124.817 76.9844C124.916 77.084 125.685 77.8707 125.299 79.0291C125.125 79.5515 124.787 79.8647 124.565 80.0232C124.346 80.1795 124.144 80.2564 124.036 80.2925C123.821 80.364 123.645 80.381 123.59 80.386C123.511 80.3931 123.45 80.3939 123.416 80.3939C123.27 80.3939 123.174 80.3743 123.302 80.3926C123.367 80.4019 123.469 80.4178 123.613 80.4417L124.27 76.4962C124.114 76.4701 123.978 76.4485 123.868 76.4328C123.821 76.4261 123.613 76.3939 123.416 76.3939C123.377 76.3939 123.31 76.395 123.227 76.4025C123.167 76.4079 122.988 76.4255 122.771 76.4977C122.662 76.5343 122.459 76.6116 122.24 76.7683C122.017 76.9273 121.678 77.241 121.504 77.7641C121.118 78.9236 121.887 79.7117 121.988 79.8128C122.187 80.0112 122.38 80.1193 122.435 80.1496C122.517 80.1952 122.586 80.2262 122.625 80.2428C122.704 80.2765 122.77 80.2992 122.803 80.3101C122.922 80.35 123.061 80.3854 123.156 80.4092L124.126 76.5287ZM123.941 76.4689H123.641V80.4689H123.941V76.4689Z" fill="#EF8354" fill-opacity="0.6"/>
</svg>
