<svg viewBox="0 0 176 137" fill="none" xmlns="http://www.w3.org/2000/svg">
<path d="M22.3 22.7602L24.0717 23.6882L24.0764 23.679L22.3 22.7602ZM40.6 7.16015L39.7595 5.34535L39.7591 5.34553L40.6 7.16015ZM66.1 5.66015L65.2742 7.48172L65.2793 7.48399L66.1 5.66015ZM72.55 9.26015L70.7611 10.1546C70.7982 10.2288 70.8399 10.3006 70.8859 10.3696L72.55 9.26015ZM73 11.2102L71.0201 10.9273V10.9273L73 11.2102ZM73 14.3601L71.0051 14.5026C71.0504 15.1374 71.3952 15.7127 71.9336 16.0521C72.4719 16.3914 73.1397 16.4543 73.7319 16.2214L73 14.3601ZM92.2 22.0101L94.0296 21.2023C94.0269 21.1962 94.0242 21.1902 94.0215 21.1841L92.2 22.0101ZM94.9 53.5102L96.8839 53.7637C96.8845 53.7588 96.8851 53.7539 96.8857 53.749L94.9 53.5102ZM84.85 87.5602L83.0843 86.6209C83.0373 86.7093 82.997 86.8011 82.9637 86.8955L84.85 87.5602ZM67.3 117.11L65.7908 115.798C65.7828 115.807 65.7748 115.816 65.767 115.826L67.3 117.11ZM58.6 125.51L57.449 123.875C57.4258 123.891 57.403 123.908 57.3806 123.925L58.6 125.51ZM53.05 128.21L53.4078 126.242C53.1596 126.197 52.9051 126.2 52.6578 126.249L53.05 128.21ZM47.65 129.41L47.1649 127.47C47.1512 127.473 47.1375 127.477 47.1238 127.481L47.65 129.41ZM41.95 130.31V128.31C41.4196 128.31 40.9109 128.521 40.5358 128.896L41.95 130.31ZM41.35 130.76L40.4556 128.971C40.2633 129.067 40.0878 129.194 39.9358 129.346L41.35 130.76ZM41.05 131.21L41.6247 133.126C42.1529 132.967 42.5922 132.598 42.8388 132.105L41.05 131.21ZM36.55 132.56L35.9753 130.645C35.2166 130.872 34.6637 131.526 34.5654 132.312L36.55 132.56ZM32.65 135.86L32.1649 133.92C32.1398 133.926 32.1148 133.933 32.09 133.94L32.65 135.86ZM24.4 136.31L24.1357 138.293L24.1441 138.294L24.4 136.31ZM15.25 133.61L16.0732 131.787C16.0567 131.78 16.0401 131.773 16.0235 131.766L15.25 133.61ZM8.35 127.91L6.52238 128.722C6.55547 128.797 6.59309 128.869 6.63501 128.939L8.35 127.91ZM3.7 115.01L1.73468 115.381C1.73825 115.4 1.74209 115.419 1.7462 115.438L3.7 115.01ZM4.3 74.2102L2.32141 73.9182L2.32058 73.924L4.3 74.2102ZM13.9 40.3102L15.7291 41.1192C15.7328 41.1108 15.7364 41.1023 15.74 41.0939L13.9 40.3102ZM50.35 39.7102L48.635 38.6812C48.6087 38.7251 48.584 38.7699 48.5611 38.8157L50.35 39.7102ZM35.5 87.4102L33.5213 87.1192C33.5202 87.1266 33.5191 87.134 33.5181 87.1414L35.5 87.4102ZM35.05 103.91L33.0595 104.105C33.1599 105.129 34.021 105.91 35.05 105.91V103.91ZM35.35 103.91V105.91C35.8804 105.91 36.3892 105.699 36.7642 105.324L35.35 103.91ZM35.5 103.76L36.9142 105.174C37.0087 105.08 37.0935 104.976 37.1673 104.865L35.5 103.76ZM59.5 51.7102L61.4215 52.265C61.4235 52.258 61.4255 52.251 61.4275 52.2439L59.5 51.7102ZM61.9 36.2602L59.9007 36.3128C59.9012 36.3303 59.9018 36.3478 59.9028 36.3653L61.9 36.2602ZM59.95 28.9101L61.3015 27.4358C60.5121 26.7123 59.2929 26.7388 58.5358 27.4959L59.95 28.9101ZM59.2 29.5101L57.4112 30.4046C57.7499 31.0822 58.4425 31.5101 59.2 31.5101V29.5101ZM59.05 29.2102L60.8388 28.3157C60.7759 28.1897 60.6997 28.0708 60.6117 27.9608L59.05 29.2102ZM57.4 28.6102L57.1172 26.6302C56.5862 26.7061 56.108 26.992 55.7899 27.4238L57.4 28.6102ZM53.5 34.4602L51.785 33.4312V33.4312L53.5 34.4602ZM24.0764 23.679C25.4246 21.0726 27.6315 18.4185 30.794 15.7352L28.206 12.6851C24.7685 15.6018 22.1754 18.6477 20.5236 21.8413L24.0764 23.679ZM30.794 15.7352C33.9507 13.0567 37.4971 10.8024 41.4409 8.97477L39.7591 5.34553C35.503 7.31788 31.6493 9.7636 28.206 12.6851L30.794 15.7352ZM41.4405 8.97495C50.5667 4.74808 58.4415 4.38423 65.2742 7.48172L66.9258 3.83859C58.7585 0.13607 49.6333 0.772217 39.7595 5.34535L41.4405 8.97495ZM65.2793 7.48399C67.2605 8.37554 68.7372 9.09811 69.7378 9.65655C70.2412 9.93755 70.5827 10.1542 70.794 10.3094C71.0903 10.5271 70.9201 10.4725 70.7611 10.1546L74.3389 8.36572C74.0299 7.74775 73.4784 7.31817 73.1623 7.08589C72.7611 6.79113 72.2588 6.48276 71.6872 6.16376C70.5378 5.52219 68.9395 4.74476 66.9207 3.83631L65.2793 7.48399ZM70.8859 10.3696C71.0189 10.5691 71.049 10.725 71.0201 10.9273L74.9799 11.493C75.151 10.2953 74.8811 9.15123 74.2141 8.15074L70.8859 10.3696ZM71.0201 10.9273C70.8888 11.8464 70.9028 13.0707 71.0051 14.5026L74.9949 14.2177C74.8972 12.8496 74.9112 11.9739 74.9799 11.493L71.0201 10.9273ZM73.7319 16.2214C77.8939 14.5847 81.1644 14.4815 83.7347 15.5056C86.2997 16.5276 88.5616 18.8295 90.3785 22.8362L94.0215 21.1841C91.9384 16.5908 89.0503 13.3177 85.2153 11.7897C81.3856 10.2638 77.0061 10.6356 72.2681 12.4989L73.7319 16.2214ZM90.3704 22.818C93.5635 30.0494 94.4944 40.1367 92.9143 53.2713L96.8857 53.749C98.5056 40.2836 97.6365 29.3709 94.0296 21.2023L90.3704 22.818ZM92.9161 53.2566C91.2392 66.3764 87.9455 77.4818 83.0843 86.6209L86.6158 88.4994C91.7545 78.8386 95.1608 67.2439 96.8839 53.7637L92.9161 53.2566ZM82.9637 86.8955C79.3551 97.1361 73.6412 106.77 65.7908 115.798L68.8092 118.423C76.9588 109.05 82.9449 98.9842 86.7363 88.2249L82.9637 86.8955ZM65.767 115.826C62.7321 119.448 59.958 122.109 57.449 123.875L59.751 127.146C62.642 125.111 65.6679 122.172 68.833 118.395L65.767 115.826ZM57.3806 123.925C56.1327 124.885 55.141 125.52 54.3876 125.887C53.566 126.286 53.3125 126.225 53.4078 126.242L52.6922 130.178C53.8875 130.395 55.109 129.984 56.1374 129.484C57.234 128.95 58.4673 128.135 59.8194 127.095L57.3806 123.925ZM52.6578 126.249C50.6336 126.654 48.8019 127.061 47.1649 127.47L48.1351 131.35C49.6981 130.96 51.4664 130.566 53.4422 130.171L52.6578 126.249ZM47.1238 127.481C45.029 128.052 43.3146 128.31 41.95 128.31V132.31C43.7854 132.31 45.871 131.968 48.1762 131.34L47.1238 127.481ZM40.5358 128.896C40.4942 128.938 40.4652 128.961 40.45 128.973C40.4349 128.984 40.4366 128.981 40.4556 128.971L42.2444 132.549C42.6799 132.331 43.0506 132.038 43.3642 131.724L40.5358 128.896ZM39.9358 129.346C39.6219 129.66 39.4082 130.022 39.2612 130.316L42.8388 132.105C42.8602 132.062 42.8695 132.049 42.8641 132.057C42.8609 132.062 42.852 132.075 42.8367 132.094C42.8215 132.113 42.7977 132.141 42.7642 132.174L39.9358 129.346ZM40.4753 129.295L35.9753 130.645L37.1247 134.476L41.6247 133.126L40.4753 129.295ZM34.5654 132.312C34.5192 132.682 34.259 133.396 32.1649 133.92L33.1351 137.8C35.841 137.124 38.1808 135.638 38.5346 132.808L34.5654 132.312ZM32.09 133.94C30.0121 134.546 27.5488 134.7 24.6559 134.327L24.1441 138.294C27.4512 138.72 30.4879 138.574 33.21 137.78L32.09 133.94ZM24.6643 134.328C21.8796 133.956 19.0173 133.117 16.0732 131.787L14.4268 135.433C17.6827 136.903 20.9204 137.864 24.1357 138.293L24.6643 134.328ZM16.0235 131.766C13.2537 130.604 11.3135 128.962 10.065 126.881L6.63501 128.939C8.38648 131.858 11.0463 134.016 14.4765 135.455L16.0235 131.766ZM10.1776 127.098C7.79629 121.74 6.31056 117.585 5.6538 114.583L1.7462 115.438C2.48944 118.835 4.10371 123.28 6.52238 128.722L10.1776 127.098ZM5.66532 114.639C3.72237 104.342 3.89548 90.9853 6.27942 74.4963L2.32058 73.924C-0.0954758 90.635 -0.322366 104.479 1.73468 115.381L5.66532 114.639ZM6.27858 74.5021C8.05448 62.4654 11.2078 51.3411 15.7291 41.1192L12.0709 39.5011C7.39215 50.0792 4.14552 61.5549 2.32142 73.9182L6.27858 74.5021ZM15.74 41.0939C18.0154 35.7518 20.7914 29.9505 24.0717 23.6882L20.5283 21.8321C17.2086 28.1698 14.3846 34.0685 12.06 39.5264L15.74 41.0939ZM48.5611 38.8157C41.0626 53.8128 36.051 69.9174 33.5213 87.1192L37.4787 87.7011C39.949 70.9029 44.8374 55.2076 52.1389 40.6046L48.5611 38.8157ZM33.5181 87.1414C32.7006 93.1711 32.5422 98.8284 33.0595 104.105L37.0405 103.715C36.5578 98.7919 36.6994 93.4492 37.4819 87.6789L33.5181 87.1414ZM35.05 105.91H35.35V101.91H35.05V105.91ZM36.7642 105.324L36.9142 105.174L34.0858 102.346L33.9358 102.496L36.7642 105.324ZM37.1673 104.865C47.881 88.6931 55.966 71.1573 61.4215 52.265L57.5785 51.1553C52.234 69.663 44.319 86.8273 33.8327 102.656L37.1673 104.865ZM61.4275 52.2439C63.2478 45.6705 64.1141 40.2756 63.8972 36.155L59.9028 36.3653C60.0859 39.8447 59.3522 44.7498 57.5725 51.1764L61.4275 52.2439ZM63.8993 36.2075C63.847 34.2211 63.65 32.4897 63.2706 31.0598C62.8979 29.6548 62.2994 28.3506 61.3015 27.4358L58.5985 30.3845C58.8006 30.5697 59.1271 31.0405 59.4044 32.0855C59.675 33.1056 59.853 34.4992 59.9007 36.3128L63.8993 36.2075ZM58.5358 27.4959C58.355 27.6768 58.2529 27.7666 58.2131 27.7984C58.1904 27.8166 58.228 27.7835 58.3108 27.7362C58.3536 27.7117 58.44 27.6652 58.561 27.6212C58.6708 27.5813 58.8982 27.5101 59.2 27.5101V31.5101C59.7775 31.5101 60.1987 31.2644 60.2954 31.2091C60.4657 31.1118 60.6096 31.0037 60.7119 30.9219C60.9221 30.7537 61.145 30.5435 61.3642 30.3244L58.5358 27.4959ZM59.2 29.5101C60.9888 28.6157 60.9888 28.6157 60.9888 28.6157C60.9888 28.6157 60.9888 28.6157 60.9888 28.6157C60.9888 28.6157 60.9888 28.6157 60.9888 28.6157C60.9888 28.6157 60.9888 28.6157 60.9888 28.6157C60.9888 28.6157 60.9888 28.6157 60.9888 28.6157C60.9888 28.6157 60.9888 28.6156 60.9888 28.6156C60.9888 28.6156 60.9888 28.6156 60.9888 28.6156C60.9888 28.6156 60.9888 28.6156 60.9888 28.6156C60.9888 28.6156 60.9888 28.6156 60.9888 28.6156C60.9888 28.6156 60.9888 28.6156 60.9888 28.6156C60.9888 28.6156 60.9888 28.6155 60.9888 28.6155C60.9888 28.6155 60.9888 28.6155 60.9888 28.6155C60.9887 28.6155 60.9887 28.6155 60.9887 28.6155C60.9887 28.6155 60.9887 28.6155 60.9887 28.6154C60.9887 28.6154 60.9887 28.6154 60.9887 28.6154C60.9887 28.6154 60.9887 28.6154 60.9887 28.6154C60.9887 28.6154 60.9887 28.6153 60.9887 28.6153C60.9887 28.6153 60.9886 28.6153 60.9886 28.6153C60.9886 28.6153 60.9886 28.6153 60.9886 28.6152C60.9886 28.6152 60.9886 28.6152 60.9886 28.6152C60.9886 28.6152 60.9886 28.6152 60.9886 28.6152C60.9886 28.6151 60.9886 28.6151 60.9885 28.6151C60.9885 28.6151 60.9885 28.6151 60.9885 28.615C60.9885 28.615 60.9885 28.615 60.9885 28.615C60.9885 28.615 60.9885 28.6149 60.9885 28.6149C60.9884 28.6149 60.9884 28.6149 60.9884 28.6149C60.9884 28.6148 60.9884 28.6148 60.9884 28.6148C60.9884 28.6148 60.9884 28.6148 60.9884 28.6147C60.9884 28.6147 60.9883 28.6147 60.9883 28.6147C60.9883 28.6146 60.9883 28.6146 60.9883 28.6146C60.9883 28.6146 60.9883 28.6146 60.9883 28.6145C60.9883 28.6145 60.9882 28.6145 60.9882 28.6145C60.9882 28.6144 60.9882 28.6144 60.9882 28.6144C60.9882 28.6143 60.9882 28.6143 60.9881 28.6143C60.9881 28.6143 60.9881 28.6142 60.9881 28.6142C60.9881 28.6142 60.9881 28.6142 60.9881 28.6141C60.988 28.6141 60.988 28.6141 60.988 28.6141C60.988 28.614 60.988 28.614 60.988 28.614C60.988 28.6139 60.9879 28.6139 60.9879 28.6139C60.9879 28.6138 60.9879 28.6138 60.9879 28.6138C60.9879 28.6137 60.9879 28.6137 60.9878 28.6137C60.9878 28.6136 60.9878 28.6136 60.9878 28.6136C60.9878 28.6135 60.9878 28.6135 60.9877 28.6135C60.9877 28.6134 60.9877 28.6134 60.9877 28.6134C60.9877 28.6133 60.9877 28.6133 60.9876 28.6133C60.9876 28.6132 60.9876 28.6132 60.9876 28.6132C60.9876 28.6131 60.9875 28.6131 60.9875 28.6131C60.9875 28.613 60.9875 28.613 60.9875 28.613C60.9875 28.6129 60.9874 28.6129 60.9874 28.6128C60.9874 28.6128 60.9874 28.6128 60.9874 28.6127C60.9873 28.6127 60.9873 28.6126 60.9873 28.6126C60.9873 28.6126 60.9873 28.6125 60.9872 28.6125C60.9872 28.6124 60.9872 28.6124 60.9872 28.6124C60.9872 28.6123 60.9871 28.6123 60.9871 28.6122C60.9871 28.6122 60.9871 28.6122 60.9871 28.6121C60.987 28.6121 60.987 28.612 60.987 28.612C60.987 28.6119 60.9869 28.6119 60.9869 28.6119C60.9869 28.6118 60.9869 28.6118 60.9869 28.6117C60.9868 28.6117 60.9868 28.6116 60.9868 28.6116C60.9868 28.6115 60.9867 28.6115 60.9867 28.6114C60.9867 28.6114 60.9867 28.6114 60.9866 28.6113C60.9866 28.6113 60.9866 28.6112 60.9866 28.6112C60.9866 28.6111 60.9865 28.6111 60.9865 28.611C60.9865 28.611 60.9865 28.6109 60.9864 28.6109C60.9864 28.6108 60.9864 28.6108 60.9864 28.6107C60.9863 28.6107 60.9863 28.6106 60.9863 28.6106C60.9863 28.6105 60.9862 28.6105 60.9862 28.6104C60.9862 28.6104 60.9861 28.6103 60.9861 28.6103C60.9861 28.6102 60.9861 28.6101 60.986 28.6101C60.986 28.61 60.986 28.61 60.986 28.6099C60.9859 28.6099 60.9859 28.6098 60.9859 28.6098C60.9859 28.6097 60.9858 28.6097 60.9858 28.6096C60.9858 28.6095 60.9857 28.6095 60.9857 28.6094C60.9857 28.6094 60.9857 28.6093 60.9856 28.6093C60.9856 28.6092 60.9856 28.6091 60.9855 28.6091C60.9855 28.609 60.9855 28.609 60.9855 28.6089C60.9854 28.6089 60.9854 28.6088 60.9854 28.6087C60.9853 28.6087 60.9853 28.6086 60.9853 28.6086C60.9852 28.6085 60.9852 28.6084 60.9852 28.6084C60.9852 28.6083 60.9851 28.6083 60.9851 28.6082C60.9851 28.6081 60.985 28.6081 60.985 28.608C60.985 28.6079 60.9849 28.6079 60.9849 28.6078C60.9849 28.6077 60.9848 28.6077 60.9848 28.6076C60.9848 28.6076 60.9847 28.6075 60.9847 28.6074C60.9847 28.6074 60.9846 28.6073 60.9846 28.6072C60.9846 28.6072 60.9846 28.6071 60.9845 28.607C60.9845 28.607 60.9845 28.6069 60.9844 28.6068C60.9844 28.6068 60.9843 28.6067 60.9843 28.6066C60.9843 28.6066 60.9842 28.6065 60.9842 28.6064C60.9842 28.6064 60.9841 28.6063 60.9841 28.6062C60.9841 28.6062 60.984 28.6061 60.984 28.606C60.984 28.6059 60.9839 28.6059 60.9839 28.6058C60.9839 28.6057 60.9838 28.6057 60.9838 28.6056C60.9838 28.6055 60.9837 28.6054 60.9837 28.6054C60.9836 28.6053 60.9836 28.6052 60.9836 28.6052C60.9835 28.6051 60.9835 28.605 60.9835 28.6049C60.9834 28.6049 60.9834 28.6048 60.9834 28.6047C60.9833 28.6046 60.9833 28.6046 60.9832 28.6045C60.9832 28.6044 60.9832 28.6043 60.9831 28.6043C60.9831 28.6042 60.983 28.6041 60.983 28.604C60.983 28.604 60.9829 28.6039 60.9829 28.6038C60.9829 28.6037 60.9828 28.6036 60.9828 28.6036C60.9827 28.6035 60.9827 28.6034 60.9827 28.6033C60.9826 28.6032 60.9826 28.6032 60.9825 28.6031C60.9825 28.603 60.9825 28.6029 60.9824 28.6028C60.9824 28.6028 60.9823 28.6027 60.9823 28.6026C60.9823 28.6025 60.9822 28.6024 60.9822 28.6024C60.9821 28.6023 60.9821 28.6022 60.982 28.6021C60.982 28.602 60.982 28.6019 60.9819 28.6019C60.9819 28.6018 60.9818 28.6017 60.9818 28.6016C60.9818 28.6015 60.9817 28.6014 60.9817 28.6013C60.9816 28.6013 60.9816 28.6012 60.9815 28.6011C60.9815 28.601 60.9815 28.6009 60.9814 28.6008C60.9814 28.6007 60.9813 28.6007 60.9813 28.6006C60.9812 28.6005 60.9812 28.6004 60.9811 28.6003C60.9811 28.6002 60.9811 28.6001 60.981 28.6C60.981 28.5999 60.9809 28.5999 60.9809 28.5998C60.9808 28.5997 60.9808 28.5996 60.9807 28.5995C60.9807 28.5994 60.9807 28.5993 60.9806 28.5992C60.9806 28.5991 60.9805 28.599 60.9805 28.5989C60.9804 28.5989 60.9804 28.5988 60.9803 28.5987C60.9803 28.5986 60.9802 28.5985 60.9802 28.5984C60.9801 28.5983 60.9801 28.5982 60.98 28.5981C60.98 28.598 60.98 28.5979 60.9799 28.5978C60.9799 28.5977 60.9798 28.5976 60.9798 28.5975C60.9797 28.5974 60.9797 28.5973 60.9796 28.5972C60.9796 28.5971 60.9795 28.597 60.9795 28.597C60.9794 28.5969 60.9794 28.5968 60.9793 28.5967C60.9793 28.5966 60.9792 28.5965 60.9792 28.5964C60.9791 28.5963 60.9791 28.5962 60.979 28.5961C60.979 28.596 60.9789 28.5959 60.9789 28.5958C60.9788 28.5957 60.9788 28.5956 60.9787 28.5955C60.9787 28.5954 60.9786 28.5953 60.9786 28.5952C60.9785 28.595 60.9785 28.5949 60.9784 28.5948C60.9784 28.5947 60.9783 28.5946 60.9783 28.5945C60.9782 28.5944 60.9782 28.5943 60.9781 28.5942C60.9781 28.5941 60.978 28.594 60.978 28.5939C60.9779 28.5938 60.9778 28.5937 60.9778 28.5936C60.9777 28.5935 60.9777 28.5934 60.9776 28.5933C60.9776 28.5932 60.9775 28.5931 60.9775 28.5929C60.9774 28.5928 60.9774 28.5927 60.9773 28.5926C60.9773 28.5925 60.9772 28.5924 60.9771 28.5923C60.9771 28.5922 60.977 28.5921 60.977 28.592C60.9769 28.5919 60.9769 28.5918 60.9768 28.5916C60.9768 28.5915 60.9767 28.5914 60.9767 28.5913C60.9766 28.5912 60.9765 28.5911 60.9765 28.591C60.9764 28.5909 60.9764 28.5907 60.9763 28.5906C60.9763 28.5905 60.9762 28.5904 60.9761 28.5903C60.9761 28.5902 60.976 28.5901 60.976 28.59C60.9759 28.5898 60.9759 28.5897 60.9758 28.5896C60.9757 28.5895 60.9757 28.5894 60.9756 28.5893C60.9756 28.5891 60.9755 28.589 60.9755 28.5889C60.9754 28.5888 60.9753 28.5887 60.9753 28.5886C60.9752 28.5884 60.9752 28.5883 60.9751 28.5882C60.975 28.5881 60.975 28.588 60.9749 28.5879C60.9749 28.5877 60.9748 28.5876 60.9747 28.5875C60.9747 28.5874 60.9746 28.5872 60.9746 28.5871C60.9745 28.587 60.9744 28.5869 60.9744 28.5868C60.9743 28.5866 60.9743 28.5865 60.9742 28.5864C60.9741 28.5863 60.9741 28.5862 60.974 28.586C60.974 28.5859 60.9739 28.5858 60.9738 28.5857C60.9738 28.5855 60.9737 28.5854 60.9736 28.5853C60.9736 28.5852 60.9735 28.585 60.9735 28.5849C60.9734 28.5848 60.9733 28.5847 60.9733 28.5845C60.9732 28.5844 60.9731 28.5843 60.9731 28.5842C60.973 28.584 60.973 28.5839 60.9729 28.5838C60.9728 28.5837 60.9728 28.5835 60.9727 28.5834C60.9726 28.5833 60.9726 28.5831 60.9725 28.583C60.9724 28.5829 60.9724 28.5828 60.9723 28.5826C60.9722 28.5825 60.9722 28.5824 60.9721 28.5822C60.972 28.5821 60.972 28.582 60.9719 28.5818C60.9719 28.5817 60.9718 28.5816 60.9717 28.5815C60.9717 28.5813 60.9716 28.5812 60.9715 28.5811C60.9715 28.5809 60.9714 28.5808 60.9713 28.5807C60.9713 28.5805 60.9712 28.5804 60.9711 28.5803C60.9711 28.5801 60.971 28.58 60.9709 28.5798C60.9709 28.5797 60.9708 28.5796 60.9707 28.5794C60.9706 28.5793 60.9706 28.5792 60.9705 28.579C60.9704 28.5789 60.9704 28.5788 60.9703 28.5786C60.9702 28.5785 60.9702 28.5783 60.9701 28.5782C60.97 28.5781 60.97 28.5779 60.9699 28.5778C60.9698 28.5777 60.9698 28.5775 60.9697 28.5774C60.9696 28.5772 60.9695 28.5771 60.9695 28.577C60.9694 28.5768 60.9693 28.5767 60.9693 28.5765C60.9692 28.5764 60.9691 28.5762 60.9691 28.5761C60.969 28.576 60.9689 28.5758 60.9688 28.5757C60.9688 28.5755 60.9687 28.5754 60.9686 28.5753C60.9686 28.5751 60.9685 28.575 60.9684 28.5748C60.9683 28.5747 60.9683 28.5745 60.9682 28.5744C60.9681 28.5742 60.968 28.5741 60.968 28.574C60.9679 28.5738 60.9678 28.5737 60.9678 28.5735C60.9677 28.5734 60.9676 28.5732 60.9675 28.5731C60.9675 28.5729 60.9674 28.5728 60.9673 28.5726C60.9672 28.5725 60.9672 28.5723 60.9671 28.5722C60.967 28.572 60.9669 28.5719 60.9669 28.5717C60.9668 28.5716 60.9667 28.5714 60.9666 28.5713C60.9666 28.5711 60.9665 28.571 60.9664 28.5708C60.9663 28.5707 60.9663 28.5705 60.9662 28.5704C60.9661 28.5702 60.966 28.5701 60.966 28.5699C60.9659 28.5698 60.9658 28.5696 60.9657 28.5695C60.9657 28.5693 60.9656 28.5692 60.9655 28.569C60.9654 28.5688 60.9653 28.5687 60.9653 28.5685C60.9652 28.5684 60.9651 28.5682 60.965 28.5681C60.965 28.5679 60.9649 28.5678 60.9648 28.5676C60.9647 28.5675 60.9646 28.5673 60.9646 28.5671C60.9645 28.567 60.9644 28.5668 60.9643 28.5667C60.9642 28.5665 60.9642 28.5663 60.9641 28.5662C60.964 28.566 60.9639 28.5659 60.9639 28.5657C60.9638 28.5656 60.9637 28.5654 60.9636 28.5652C60.9635 28.5651 60.9635 28.5649 60.9634 28.5648C60.9633 28.5646 60.9632 28.5644 60.9631 28.5643C60.963 28.5641 60.963 28.5639 60.9629 28.5638C60.9628 28.5636 60.9627 28.5635 60.9626 28.5633C60.9626 28.5631 60.9625 28.563 60.9624 28.5628C60.9623 28.5626 60.9622 28.5625 60.9622 28.5623C60.9621 28.5621 60.962 28.562 60.9619 28.5618C60.9618 28.5616 60.9617 28.5615 60.9617 28.5613C60.9616 28.5611 60.9615 28.561 60.9614 28.5608C60.9613 28.5606 60.9612 28.5605 60.9612 28.5603C60.9611 28.5601 60.961 28.56 60.9609 28.5598C60.9608 28.5596 60.9607 28.5595 60.9606 28.5593C60.9606 28.5591 60.9605 28.559 60.9604 28.5588C60.9603 28.5586 60.9602 28.5584 60.9601 28.5583C60.96 28.5581 60.96 28.5579 60.9599 28.5578C60.9598 28.5576 60.9597 28.5574 60.9596 28.5573C60.9595 28.5571 60.9594 28.5569 60.9594 28.5567C60.9593 28.5566 60.9592 28.5564 60.9591 28.5562C60.959 28.556 60.9589 28.5559 60.9588 28.5557C60.9588 28.5555 60.9587 28.5553 60.9586 28.5552C60.9585 28.555 60.9584 28.5548 60.9583 28.5546C60.9582 28.5545 60.9581 28.5543 60.958 28.5541C60.958 28.5539 60.9579 28.5537 60.9578 28.5536C60.9577 28.5534 60.9576 28.5532 60.9575 28.553C60.9574 28.5529 60.9573 28.5527 60.9572 28.5525C60.9572 28.5523 60.9571 28.5521 60.957 28.552C60.9569 28.5518 60.9568 28.5516 60.9567 28.5514C60.9566 28.5512 60.9565 28.5511 60.9564 28.5509C60.9563 28.5507 60.9563 28.5505 60.9562 28.5503C60.9561 28.5501 60.956 28.55 60.9559 28.5498C60.9558 28.5496 60.9557 28.5494 60.9556 28.5492C60.9555 28.549 60.9554 28.5489 60.9553 28.5487C60.9552 28.5485 60.9552 28.5483 60.9551 28.5481C60.955 28.5479 60.9549 28.5478 60.9548 28.5476C60.9547 28.5474 60.9546 28.5472 60.9545 28.547C60.9544 28.5468 60.9543 28.5466 60.9542 28.5464C60.9541 28.5463 60.954 28.5461 60.9539 28.5459C60.9538 28.5457 60.9537 28.5455 60.9537 28.5453C60.9536 28.5451 60.9535 28.5449 60.9534 28.5447C60.9533 28.5446 60.9532 28.5444 60.9531 28.5442C60.953 28.544 60.9529 28.5438 60.9528 28.5436C60.9527 28.5434 60.9526 28.5432 60.9525 28.543C60.9524 28.5428 60.9523 28.5426 60.9522 28.5424C60.9521 28.5423 60.952 28.5421 60.9519 28.5419C60.9518 28.5417 60.9517 28.5415 60.9516 28.5413C60.9515 28.5411 60.9514 28.5409 60.9513 28.5407C60.9512 28.5405 60.9512 28.5403 60.9511 28.5401C60.951 28.5399 60.9509 28.5397 60.9508 28.5395C60.9507 28.5393 60.9506 28.5391 60.9505 28.5389C60.9504 28.5387 60.9503 28.5385 60.9502 28.5383C60.9501 28.5381 60.95 28.5379 60.9499 28.5377C60.9498 28.5375 60.9497 28.5373 60.9496 28.5371C60.9495 28.5369 60.9494 28.5367 60.9493 28.5365C60.9492 28.5363 60.9491 28.5361 60.949 28.5359C60.9489 28.5357 60.9488 28.5355 60.9487 28.5353C60.9486 28.5351 60.9485 28.5349 60.9484 28.5347C60.9483 28.5345 60.9482 28.5343 60.9481 28.5341C60.948 28.5339 60.9478 28.5337 60.9478 28.5335C60.9476 28.5333 60.9475 28.5331 60.9474 28.5329C60.9473 28.5327 60.9472 28.5325 60.9471 28.5323C60.947 28.5321 60.9469 28.5319 60.9468 28.5317C60.9467 28.5314 60.9466 28.5312 60.9465 28.531C60.9464 28.5308 60.9463 28.5306 60.9462 28.5304C60.9461 28.5302 60.946 28.53 60.9459 28.5298C60.9458 28.5296 60.9457 28.5294 60.9456 28.5292C60.9455 28.5289 60.9454 28.5287 60.9453 28.5285C60.9452 28.5283 60.945 28.5281 60.9449 28.5279C60.9448 28.5277 60.9447 28.5275 60.9446 28.5273C60.9445 28.527 60.9444 28.5268 60.9443 28.5266C60.9442 28.5264 60.9441 28.5262 60.944 28.526C60.9439 28.5258 60.9438 28.5256 60.9437 28.5253C60.9436 28.5251 60.9435 28.5249 60.9433 28.5247C60.9432 28.5245 60.9431 28.5243 60.943 28.524C60.9429 28.5238 60.9428 28.5236 60.9427 28.5234C60.9426 28.5232 60.9425 28.523 60.9424 28.5228C60.9423 28.5225 60.9422 28.5223 60.942 28.5221C60.9419 28.5219 60.9418 28.5217 60.9417 28.5214C60.9416 28.5212 60.9415 28.521 60.9414 28.5208C60.9413 28.5206 60.9412 28.5203 60.9411 28.5201C60.9409 28.5199 60.9408 28.5197 60.9407 28.5195C60.9406 28.5192 60.9405 28.519 60.9404 28.5188C60.9403 28.5186 60.9402 28.5183 60.9401 28.5181C60.9399 28.5179 60.9398 28.5177 60.9397 28.5175C60.9396 28.5172 60.9395 28.517 60.9394 28.5168C60.9393 28.5166 60.9392 28.5163 60.939 28.5161C60.9389 28.5159 60.9388 28.5157 60.9387 28.5154C60.9386 28.5152 60.9385 28.515 60.9384 28.5148C60.9383 28.5145 60.9381 28.5143 60.938 28.5141C60.9379 28.5138 60.9378 28.5136 60.9377 28.5134C60.9376 28.5132 60.9375 28.5129 60.9373 28.5127C60.9372 28.5125 60.9371 28.5122 60.937 28.512C60.9369 28.5118 60.9368 28.5116 60.9367 28.5113C60.9365 28.5111 60.9364 28.5109 60.9363 28.5106C60.9362 28.5104 60.9361 28.5102 60.936 28.5099C60.9358 28.5097 60.9357 28.5095 60.9356 28.5092C60.9355 28.509 60.9354 28.5088 60.9353 28.5085C60.9352 28.5083 60.935 28.5081 60.9349 28.5078C60.9348 28.5076 60.9347 28.5074 60.9346 28.5071C60.9344 28.5069 60.9343 28.5067 60.9342 28.5064C60.9341 28.5062 60.934 28.506 60.9339 28.5057C60.9337 28.5055 60.9336 28.5052 60.9335 28.505C60.9334 28.5048 60.9333 28.5045 60.9331 28.5043C60.933 28.5041 60.9329 28.5038 60.9328 28.5036C60.9327 28.5033 60.9325 28.5031 60.9324 28.5029C60.9323 28.5026 60.9322 28.5024 60.9321 28.5022C60.9319 28.5019 60.9318 28.5017 60.9317 28.5014C60.9316 28.5012 60.9315 28.5009 60.9313 28.5007C60.9312 28.5005 60.9311 28.5002 60.931 28.5C60.9309 28.4997 60.9307 28.4995 60.9306 28.4992C60.9305 28.499 60.9304 28.4988 60.9303 28.4985C60.9301 28.4983 60.93 28.498 60.9299 28.4978C60.9298 28.4975 60.9296 28.4973 60.9295 28.497C60.9294 28.4968 60.9293 28.4966 60.9291 28.4963C60.929 28.4961 60.9289 28.4958 60.9288 28.4956C60.9287 28.4953 60.9285 28.4951 60.9284 28.4948C60.9283 28.4946 60.9282 28.4943 60.928 28.4941C60.9279 28.4938 60.9278 28.4936 60.9277 28.4933C60.9275 28.4931 60.9274 28.4928 60.9273 28.4926C60.9272 28.4923 60.927 28.4921 60.9269 28.4918C60.9268 28.4916 60.9267 28.4913 60.9265 28.4911C60.9264 28.4908 60.9263 28.4906 60.9262 28.4903C60.926 28.4901 60.9259 28.4898 60.9258 28.4896C60.9256 28.4893 60.9255 28.4891 60.9254 28.4888C60.9253 28.4885 60.9251 28.4883 60.925 28.488C60.9249 28.4878 60.9248 28.4875 60.9246 28.4873C60.9245 28.487 60.9244 28.4868 60.9242 28.4865C60.9241 28.4862 60.924 28.486 60.9239 28.4857C60.9237 28.4855 60.9236 28.4852 60.9235 28.485C60.9233 28.4847 60.9232 28.4844 60.9231 28.4842C60.923 28.4839 60.9228 28.4837 60.9227 28.4834C60.9226 28.4831 60.9224 28.4829 60.9223 28.4826C60.9222 28.4824 60.9221 28.4821 60.9219 28.4818C60.9218 28.4816 60.9217 28.4813 60.9215 28.4811C60.9214 28.4808 60.9213 28.4805 60.9211 28.4803C60.921 28.48 60.9209 28.4798 60.9207 28.4795C60.9206 28.4792 60.9205 28.479 60.9203 28.4787C60.9202 28.4784 60.9201 28.4782 60.9199 28.4779C60.9198 28.4776 60.9197 28.4774 60.9195 28.4771C60.9194 28.4768 60.9193 28.4766 60.9192 28.4763C60.919 28.476 60.9189 28.4758 60.9188 28.4755C60.9186 28.4752 60.9185 28.475 60.9184 28.4747C60.9182 28.4744 60.9181 28.4742 60.9179 28.4739C60.9178 28.4736 60.9177 28.4734 60.9175 28.4731C60.9174 28.4728 60.9173 28.4726 60.9171 28.4723C60.917 28.472 60.9169 28.4717 60.9167 28.4715C60.9166 28.4712 60.9165 28.4709 60.9163 28.4707C60.9162 28.4704 60.9161 28.4701 60.9159 28.4698C60.9158 28.4696 60.9156 28.4693 60.9155 28.469C60.9154 28.4688 60.9152 28.4685 60.9151 28.4682C60.915 28.4679 60.9148 28.4677 60.9147 28.4674C60.9146 28.4671 60.9144 28.4668 60.9143 28.4666C60.9141 28.4663 60.914 28.466 60.9139 28.4657C60.9137 28.4655 60.9136 28.4652 60.9134 28.4649C60.9133 28.4646 60.9132 28.4643 60.913 28.4641C60.9129 28.4638 60.9128 28.4635 60.9126 28.4632C60.9125 28.463 60.9123 28.4627 60.9122 28.4624C60.9121 28.4621 60.9119 28.4618 60.9118 28.4616C60.9116 28.4613 60.9115 28.461 60.9114 28.4607C60.9112 28.4604 60.9111 28.4602 60.9109 28.4599C60.9108 28.4596 60.9107 28.4593 60.9105 28.459C60.9104 28.4587 60.9102 28.4585 60.9101 28.4582C60.9099 28.4579 60.9098 28.4576 60.9097 28.4573C60.9095 28.4571 60.9094 28.4568 60.9092 28.4565C60.9091 28.4562 60.909 28.4559 60.9088 28.4556C60.9087 28.4553 60.9085 28.4551 60.9084 28.4548C60.9082 28.4545 60.9081 28.4542 60.908 28.4539C60.9078 28.4536 60.9077 28.4533 60.9075 28.453C60.9074 28.4528 60.9072 28.4525 60.9071 28.4522C60.9069 28.4519 60.9068 28.4516 60.9067 28.4513C60.9065 28.451 60.9064 28.4507 60.9062 28.4504C60.9061 28.4502 60.9059 28.4499 60.9058 28.4496C60.9056 28.4493 60.9055 28.449 60.9053 28.4487C60.9052 28.4484 60.9051 28.4481 60.9049 28.4478C60.9048 28.4475 60.9046 28.4472 60.9045 28.447C60.9043 28.4467 60.9042 28.4464 60.904 28.4461C60.9039 28.4458 60.9037 28.4455 60.9036 28.4452C60.9034 28.4449 60.9033 28.4446 60.9031 28.4443C60.903 28.444 60.9029 28.4437 60.9027 28.4434C60.9026 28.4431 60.9024 28.4428 60.9023 28.4425C60.9021 28.4422 60.902 28.4419 60.9018 28.4416C60.9017 28.4413 60.9015 28.441 60.9014 28.4407C60.9012 28.4404 60.9011 28.4401 60.9009 28.4398C60.9008 28.4396 60.9006 28.4392 60.9005 28.4389C60.9003 28.4387 60.9002 28.4383 60.9 28.438C60.8999 28.4378 60.8997 28.4374 60.8996 28.4371C60.8994 28.4368 60.8993 28.4365 60.8991 28.4362C60.899 28.4359 60.8988 28.4356 60.8987 28.4353C60.8985 28.435 60.8984 28.4347 60.8982 28.4344C60.8981 28.4341 60.8979 28.4338 60.8978 28.4335C60.8976 28.4332 60.8974 28.4329 60.8973 28.4326C60.8971 28.4323 60.897 28.432 60.8968 28.4317C60.8967 28.4314 60.8965 28.4311 60.8964 28.4308C60.8962 28.4305 60.8961 28.4301 60.8959 28.4298C60.8958 28.4295 60.8956 28.4292 60.8955 28.4289C60.8953 28.4286 60.8951 28.4283 60.895 28.428C60.8948 28.4277 60.8947 28.4274 60.8945 28.4271C60.8944 28.4268 60.8942 28.4264 60.8941 28.4261C60.8939 28.4258 60.8937 28.4255 60.8936 28.4252C60.8934 28.4249 60.8933 28.4246 60.8931 28.4243C60.893 28.424 60.8928 28.4236 60.8927 28.4233C60.8925 28.423 60.8923 28.4227 60.8922 28.4224C60.892 28.4221 60.8919 28.4218 60.8917 28.4214C60.8916 28.4211 60.8914 28.4208 60.8912 28.4205C60.8911 28.4202 60.8909 28.4199 60.8908 28.4196C60.8906 28.4192 60.8905 28.4189 60.8903 28.4186C60.8901 28.4183 60.89 28.418 60.8898 28.4177C60.8897 28.4173 60.8895 28.417 60.8893 28.4167C60.8892 28.4164 60.889 28.4161 60.8889 28.4157C60.8887 28.4154 60.8885 28.4151 60.8884 28.4148C60.8882 28.4145 60.8881 28.4141 60.8879 28.4138C60.8877 28.4135 60.8876 28.4132 60.8874 28.4129C60.8873 28.4125 60.8871 28.4122 60.8869 28.4119C60.8868 28.4116 60.8866 28.4113 60.8865 28.4109C60.8863 28.4106 60.8861 28.4103 60.886 28.41C60.8858 28.4096 60.8857 28.4093 60.8855 28.409C60.8853 28.4087 60.8852 28.4083 60.885 28.408C60.8848 28.4077 60.8847 28.4074 60.8845 28.407C60.8844 28.4067 60.8842 28.4064 60.884 28.4061C60.8839 28.4057 60.8837 28.4054 60.8835 28.4051C60.8834 28.4048 60.8832 28.4044 60.883 28.4041C60.8829 28.4038 60.8827 28.4034 60.8826 28.4031C60.8824 28.4028 60.8822 28.4025 60.8821 28.4021C60.8819 28.4018 60.8817 28.4015 60.8816 28.4011C60.8814 28.4008 60.8812 28.4005 60.8811 28.4001C60.8809 28.3998 60.8807 28.3995 60.8806 28.3992C60.8804 28.3988 60.8802 28.3985 60.8801 28.3982C60.8799 28.3978 60.8797 28.3975 60.8796 28.3972C60.8794 28.3968 60.8792 28.3965 60.8791 28.3962C60.8789 28.3958 60.8787 28.3955 60.8786 28.3951C60.8784 28.3948 60.8782 28.3945 60.8781 28.3941C60.8779 28.3938 60.8777 28.3935 60.8776 28.3931C60.8774 28.3928 60.8772 28.3925 60.8771 28.3921C60.8769 28.3918 60.8767 28.3914 60.8765 28.3911C60.8764 28.3908 60.8762 28.3904 60.876 28.3901C60.8759 28.3898 60.8757 28.3894 60.8755 28.3891C60.8754 28.3887 60.8752 28.3884 60.875 28.3881C60.8749 28.3877 60.8747 28.3874 60.8745 28.387C60.8743 28.3867 60.8742 28.3864 60.874 28.386C60.8738 28.3857 60.8737 28.3853 60.8735 28.385C60.8733 28.3846 60.8731 28.3843 60.873 28.384C60.8728 28.3836 60.8726 28.3833 60.8725 28.3829C60.8723 28.3826 60.8721 28.3822 60.8719 28.3819C60.8718 28.3816 60.8716 28.3812 60.8714 28.3809C60.8713 28.3805 60.8711 28.3802 60.8709 28.3798C60.8707 28.3795 60.8706 28.3791 60.8704 28.3788C60.8702 28.3784 60.87 28.3781 60.8699 28.3777C60.8697 28.3774 60.8695 28.377 60.8693 28.3767C60.8692 28.3763 60.869 28.376 60.8688 28.3756C60.8686 28.3753 60.8685 28.3749 60.8683 28.3746C60.8681 28.3742 60.8679 28.3739 60.8678 28.3736C60.8676 28.3732 60.8674 28.3728 60.8672 28.3725C60.8671 28.3721 60.8669 28.3718 60.8667 28.3714C60.8665 28.3711 60.8664 28.3707 60.8662 28.3704C60.866 28.37 60.8658 28.3697 60.8657 28.3693C60.8655 28.369 60.8653 28.3686 60.8651 28.3683C60.8649 28.3679 60.8648 28.3675 60.8646 28.3672C60.8644 28.3668 60.8642 28.3665 60.8641 28.3661C60.8639 28.3658 60.8637 28.3654 60.8635 28.3651C60.8633 28.3647 60.8632 28.3643 60.863 28.364C60.8628 28.3636 60.8626 28.3633 60.8624 28.3629C60.8623 28.3625 60.8621 28.3622 60.8619 28.3618C60.8617 28.3615 60.8615 28.3611 60.8614 28.3607C60.8612 28.3604 60.861 28.36 60.8608 28.3597C60.8606 28.3593 60.8605 28.3589 60.8603 28.3586C60.8601 28.3582 60.8599 28.3579 60.8597 28.3575C60.8596 28.3571 60.8594 28.3568 60.8592 28.3564C60.859 28.356 60.8588 28.3557 60.8587 28.3553C60.8585 28.355 60.8583 28.3546 60.8581 28.3542C60.8579 28.3539 60.8577 28.3535 60.8576 28.3531C60.8574 28.3528 60.8572 28.3524 60.857 28.352C60.8568 28.3517 60.8566 28.3513 60.8565 28.3509C60.8563 28.3506 60.8561 28.3502 60.8559 28.3498C60.8557 28.3495 60.8555 28.3491 60.8554 28.3487C60.8552 28.3484 60.855 28.348 60.8548 28.3476C60.8546 28.3473 60.8544 28.3469 60.8542 28.3465C60.8541 28.3461 60.8539 28.3458 60.8537 28.3454C60.8535 28.345 60.8533 28.3447 60.8531 28.3443C60.853 28.3439 60.8528 28.3435 60.8526 28.3432C60.8524 28.3428 60.8522 28.3424 60.852 28.342C60.8518 28.3417 60.8516 28.3413 60.8515 28.3409C60.8513 28.3406 60.8511 28.3402 60.8509 28.3398C60.8507 28.3394 60.8505 28.3391 60.8503 28.3387C60.8501 28.3383 60.85 28.3379 60.8498 28.3376C60.8496 28.3372 60.8494 28.3368 60.8492 28.3364C60.849 28.3361 60.8488 28.3357 60.8486 28.3353C60.8484 28.3349 60.8483 28.3345 60.8481 28.3342C60.8479 28.3338 60.8477 28.3334 60.8475 28.333C60.8473 28.3326 60.8471 28.3323 60.8469 28.3319C60.8467 28.3315 60.8466 28.3311 60.8464 28.3307C60.8462 28.3304 60.846 28.33 60.8458 28.3296C60.8456 28.3292 60.8454 28.3288 60.8452 28.3285C60.845 28.3281 60.8448 28.3277 60.8446 28.3273C60.8445 28.3269 60.8443 28.3265 60.8441 28.3262C60.8439 28.3258 60.8437 28.3254 60.8435 28.325C60.8433 28.3246 60.8431 28.3242 60.8429 28.3239C60.8427 28.3235 60.8425 28.3231 60.8423 28.3227C60.8421 28.3223 60.842 28.3219 60.8418 28.3215C60.8416 28.3212 60.8414 28.3208 60.8412 28.3204C60.841 28.32 60.8408 28.3196 60.8406 28.3192C60.8404 28.3188 60.8402 28.3184 60.84 28.318C60.8398 28.3177 60.8396 28.3173 60.8394 28.3169C60.8392 28.3165 60.839 28.3161 60.8388 28.3157L57.2612 30.1046C57.2614 30.105 57.2615 30.1054 57.2617 30.1058C57.2619 30.1062 57.2621 30.1066 57.2623 30.1069C57.2625 30.1073 57.2627 30.1077 57.2629 30.1081C57.2631 30.1085 57.2633 30.1089 57.2635 30.1093C57.2637 30.1097 57.2639 30.11 57.2641 30.1104C57.2643 30.1108 57.2645 30.1112 57.2647 30.1116C57.2648 30.112 57.265 30.1124 57.2652 30.1127C57.2654 30.1131 57.2656 30.1135 57.2658 30.1139C57.266 30.1143 57.2662 30.1147 57.2664 30.1151C57.2666 30.1154 57.2668 30.1158 57.267 30.1162C57.2672 30.1166 57.2673 30.117 57.2675 30.1174C57.2677 30.1177 57.2679 30.1181 57.2681 30.1185C57.2683 30.1189 57.2685 30.1193 57.2687 30.1196C57.2689 30.12 57.2691 30.1204 57.2692 30.1208C57.2694 30.1212 57.2696 30.1215 57.2698 30.1219C57.27 30.1223 57.2702 30.1227 57.2704 30.1231C57.2706 30.1234 57.2708 30.1238 57.271 30.1242C57.2711 30.1246 57.2713 30.1249 57.2715 30.1253C57.2717 30.1257 57.2719 30.1261 57.2721 30.1265C57.2723 30.1268 57.2725 30.1272 57.2726 30.1276C57.2728 30.128 57.273 30.1283 57.2732 30.1287C57.2734 30.1291 57.2736 30.1295 57.2738 30.1298C57.274 30.1302 57.2741 30.1306 57.2743 30.131C57.2745 30.1313 57.2747 30.1317 57.2749 30.1321C57.2751 30.1324 57.2753 30.1328 57.2754 30.1332C57.2756 30.1336 57.2758 30.1339 57.276 30.1343C57.2762 30.1347 57.2764 30.135 57.2766 30.1354C57.2767 30.1358 57.2769 30.1361 57.2771 30.1365C57.2773 30.1369 57.2775 30.1373 57.2777 30.1376C57.2779 30.138 57.278 30.1384 57.2782 30.1387C57.2784 30.1391 57.2786 30.1395 57.2788 30.1398C57.279 30.1402 57.2791 30.1406 57.2793 30.1409C57.2795 30.1413 57.2797 30.1417 57.2799 30.142C57.2801 30.1424 57.2802 30.1428 57.2804 30.1431C57.2806 30.1435 57.2808 30.1439 57.281 30.1442C57.2811 30.1446 57.2813 30.1449 57.2815 30.1453C57.2817 30.1457 57.2819 30.146 57.2821 30.1464C57.2822 30.1468 57.2824 30.1471 57.2826 30.1475C57.2828 30.1478 57.283 30.1482 57.2831 30.1486C57.2833 30.1489 57.2835 30.1493 57.2837 30.1496C57.2839 30.15 57.284 30.1504 57.2842 30.1507C57.2844 30.1511 57.2846 30.1514 57.2848 30.1518C57.2849 30.1522 57.2851 30.1525 57.2853 30.1529C57.2855 30.1532 57.2857 30.1536 57.2858 30.1539C57.286 30.1543 57.2862 30.1547 57.2864 30.155C57.2865 30.1554 57.2867 30.1557 57.2869 30.1561C57.2871 30.1564 57.2873 30.1568 57.2874 30.1572C57.2876 30.1575 57.2878 30.1579 57.288 30.1582C57.2881 30.1586 57.2883 30.1589 57.2885 30.1593C57.2887 30.1596 57.2888 30.16 57.289 30.1603C57.2892 30.1607 57.2894 30.161 57.2896 30.1614C57.2897 30.1617 57.2899 30.1621 57.2901 30.1624C57.2903 30.1628 57.2904 30.1631 57.2906 30.1635C57.2908 30.1638 57.291 30.1642 57.2911 30.1645C57.2913 30.1649 57.2915 30.1652 57.2917 30.1656C57.2918 30.1659 57.292 30.1663 57.2922 30.1666C57.2924 30.167 57.2925 30.1673 57.2927 30.1677C57.2929 30.168 57.293 30.1684 57.2932 30.1687C57.2934 30.1691 57.2936 30.1694 57.2937 30.1698C57.2939 30.1701 57.2941 30.1704 57.2943 30.1708C57.2944 30.1711 57.2946 30.1715 57.2948 30.1718C57.2949 30.1722 57.2951 30.1725 57.2953 30.1729C57.2955 30.1732 57.2956 30.1735 57.2958 30.1739C57.296 30.1742 57.2961 30.1746 57.2963 30.1749C57.2965 30.1753 57.2967 30.1756 57.2968 30.1759C57.297 30.1763 57.2972 30.1766 57.2973 30.177C57.2975 30.1773 57.2977 30.1776 57.2978 30.178C57.298 30.1783 57.2982 30.1787 57.2984 30.179C57.2985 30.1793 57.2987 30.1797 57.2989 30.18C57.299 30.1804 57.2992 30.1807 57.2994 30.181C57.2995 30.1814 57.2997 30.1817 57.2999 30.182C57.3 30.1824 57.3002 30.1827 57.3004 30.183C57.3005 30.1834 57.3007 30.1837 57.3009 30.1841C57.301 30.1844 57.3012 30.1847 57.3014 30.1851C57.3016 30.1854 57.3017 30.1857 57.3019 30.1861C57.3021 30.1864 57.3022 30.1867 57.3024 30.187C57.3026 30.1874 57.3027 30.1877 57.3029 30.188C57.303 30.1884 57.3032 30.1887 57.3034 30.189C57.3035 30.1894 57.3037 30.1897 57.3039 30.19C57.304 30.1904 57.3042 30.1907 57.3044 30.191C57.3045 30.1914 57.3047 30.1917 57.3049 30.192C57.305 30.1923 57.3052 30.1927 57.3054 30.193C57.3055 30.1933 57.3057 30.1937 57.3058 30.194C57.306 30.1943 57.3062 30.1946 57.3063 30.195C57.3065 30.1953 57.3067 30.1956 57.3068 30.1959C57.307 30.1963 57.3072 30.1966 57.3073 30.1969C57.3075 30.1972 57.3076 30.1976 57.3078 30.1979C57.308 30.1982 57.3081 30.1985 57.3083 30.1989C57.3085 30.1992 57.3086 30.1995 57.3088 30.1998C57.3089 30.2002 57.3091 30.2005 57.3093 30.2008C57.3094 30.2011 57.3096 30.2014 57.3097 30.2018C57.3099 30.2021 57.3101 30.2024 57.3102 30.2027C57.3104 30.203 57.3105 30.2034 57.3107 30.2037C57.3109 30.204 57.311 30.2043 57.3112 30.2046C57.3113 30.205 57.3115 30.2053 57.3117 30.2056C57.3118 30.2059 57.312 30.2062 57.3121 30.2066C57.3123 30.2069 57.3125 30.2072 57.3126 30.2075C57.3128 30.2078 57.3129 30.2081 57.3131 30.2085C57.3132 30.2088 57.3134 30.2091 57.3136 30.2094C57.3137 30.2097 57.3139 30.21 57.314 30.2103C57.3142 30.2107 57.3143 30.211 57.3145 30.2113C57.3147 30.2116 57.3148 30.2119 57.315 30.2122C57.3151 30.2125 57.3153 30.2129 57.3154 30.2132C57.3156 30.2135 57.3158 30.2138 57.3159 30.2141C57.3161 30.2144 57.3162 30.2147 57.3164 30.215C57.3165 30.2153 57.3167 30.2157 57.3168 30.216C57.317 30.2163 57.3171 30.2166 57.3173 30.2169C57.3175 30.2172 57.3176 30.2175 57.3178 30.2178C57.3179 30.2181 57.3181 30.2184 57.3182 30.2187C57.3184 30.219 57.3185 30.2194 57.3187 30.2197C57.3188 30.22 57.319 30.2203 57.3191 30.2206C57.3193 30.2209 57.3195 30.2212 57.3196 30.2215C57.3198 30.2218 57.3199 30.2221 57.3201 30.2224C57.3202 30.2227 57.3204 30.223 57.3205 30.2233C57.3207 30.2236 57.3208 30.2239 57.321 30.2242C57.3211 30.2245 57.3213 30.2248 57.3214 30.2251C57.3216 30.2254 57.3217 30.2257 57.3219 30.226C57.322 30.2263 57.3222 30.2266 57.3223 30.2269C57.3225 30.2272 57.3226 30.2275 57.3228 30.2278C57.3229 30.2281 57.3231 30.2284 57.3232 30.2287C57.3234 30.229 57.3235 30.2293 57.3237 30.2296C57.3238 30.2299 57.324 30.2302 57.3241 30.2305C57.3243 30.2308 57.3244 30.2311 57.3246 30.2314C57.3247 30.2317 57.3249 30.232 57.325 30.2323C57.3252 30.2326 57.3253 30.2329 57.3255 30.2332C57.3256 30.2335 57.3258 30.2338 57.3259 30.2341C57.326 30.2344 57.3262 30.2347 57.3263 30.235C57.3265 30.2353 57.3266 30.2356 57.3268 30.2358C57.3269 30.2361 57.3271 30.2364 57.3272 30.2367C57.3274 30.237 57.3275 30.2373 57.3277 30.2376C57.3278 30.2379 57.3279 30.2382 57.3281 30.2385C57.3282 30.2388 57.3284 30.2391 57.3285 30.2393C57.3287 30.2396 57.3288 30.2399 57.329 30.2402C57.3291 30.2405 57.3293 30.2408 57.3294 30.2411C57.3295 30.2414 57.3297 30.2417 57.3298 30.2419C57.33 30.2422 57.3301 30.2425 57.3303 30.2428C57.3304 30.2431 57.3305 30.2434 57.3307 30.2437C57.3308 30.2439 57.331 30.2442 57.3311 30.2445C57.3313 30.2448 57.3314 30.2451 57.3315 30.2454C57.3317 30.2457 57.3318 30.2459 57.332 30.2462C57.3321 30.2465 57.3323 30.2468 57.3324 30.2471C57.3325 30.2474 57.3327 30.2477 57.3328 30.2479C57.333 30.2482 57.3331 30.2485 57.3332 30.2488C57.3334 30.2491 57.3335 30.2493 57.3337 30.2496C57.3338 30.2499 57.334 30.2502 57.3341 30.2505C57.3342 30.2507 57.3344 30.251 57.3345 30.2513C57.3346 30.2516 57.3348 30.2519 57.3349 30.2521C57.3351 30.2524 57.3352 30.2527 57.3353 30.253C57.3355 30.2533 57.3356 30.2535 57.3358 30.2538C57.3359 30.2541 57.336 30.2544 57.3362 30.2546C57.3363 30.2549 57.3364 30.2552 57.3366 30.2555C57.3367 30.2557 57.3369 30.256 57.337 30.2563C57.3371 30.2566 57.3373 30.2568 57.3374 30.2571C57.3375 30.2574 57.3377 30.2577 57.3378 30.2579C57.338 30.2582 57.3381 30.2585 57.3382 30.2587C57.3384 30.259 57.3385 30.2593 57.3386 30.2596C57.3388 30.2598 57.3389 30.2601 57.339 30.2604C57.3392 30.2606 57.3393 30.2609 57.3395 30.2612C57.3396 30.2615 57.3397 30.2617 57.3399 30.262C57.34 30.2623 57.3401 30.2625 57.3403 30.2628C57.3404 30.2631 57.3405 30.2633 57.3407 30.2636C57.3408 30.2639 57.3409 30.2641 57.3411 30.2644C57.3412 30.2647 57.3413 30.2649 57.3415 30.2652C57.3416 30.2655 57.3417 30.2657 57.3419 30.266C57.342 30.2663 57.3421 30.2665 57.3423 30.2668C57.3424 30.2671 57.3425 30.2673 57.3427 30.2676C57.3428 30.2679 57.3429 30.2681 57.3431 30.2684C57.3432 30.2686 57.3433 30.2689 57.3434 30.2692C57.3436 30.2694 57.3437 30.2697 57.3438 30.27C57.344 30.2702 57.3441 30.2705 57.3442 30.2707C57.3444 30.271 57.3445 30.2713 57.3446 30.2715C57.3448 30.2718 57.3449 30.272 57.345 30.2723C57.3451 30.2726 57.3453 30.2728 57.3454 30.2731C57.3455 30.2733 57.3457 30.2736 57.3458 30.2739C57.3459 30.2741 57.346 30.2744 57.3462 30.2746C57.3463 30.2749 57.3464 30.2751 57.3466 30.2754C57.3467 30.2757 57.3468 30.2759 57.3469 30.2762C57.3471 30.2764 57.3472 30.2767 57.3473 30.2769C57.3475 30.2772 57.3476 30.2774 57.3477 30.2777C57.3478 30.278 57.348 30.2782 57.3481 30.2785C57.3482 30.2787 57.3483 30.279 57.3485 30.2792C57.3486 30.2795 57.3487 30.2797 57.3488 30.28C57.349 30.2802 57.3491 30.2805 57.3492 30.2807C57.3493 30.281 57.3495 30.2812 57.3496 30.2815C57.3497 30.2817 57.3498 30.282 57.35 30.2822C57.3501 30.2825 57.3502 30.2827 57.3503 30.283C57.3505 30.2832 57.3506 30.2835 57.3507 30.2837C57.3508 30.284 57.351 30.2842 57.3511 30.2845C57.3512 30.2847 57.3513 30.285 57.3515 30.2852C57.3516 30.2855 57.3517 30.2857 57.3518 30.2859C57.352 30.2862 57.3521 30.2864 57.3522 30.2867C57.3523 30.2869 57.3524 30.2872 57.3526 30.2874C57.3527 30.2877 57.3528 30.2879 57.3529 30.2881C57.3531 30.2884 57.3532 30.2886 57.3533 30.2889C57.3534 30.2891 57.3535 30.2894 57.3537 30.2896C57.3538 30.2898 57.3539 30.2901 57.354 30.2903C57.3541 30.2906 57.3543 30.2908 57.3544 30.291C57.3545 30.2913 57.3546 30.2915 57.3547 30.2918C57.3549 30.292 57.355 30.2922 57.3551 30.2925C57.3552 30.2927 57.3553 30.293 57.3555 30.2932C57.3556 30.2934 57.3557 30.2937 57.3558 30.2939C57.3559 30.2942 57.3561 30.2944 57.3562 30.2946C57.3563 30.2949 57.3564 30.2951 57.3565 30.2953C57.3566 30.2956 57.3568 30.2958 57.3569 30.296C57.357 30.2963 57.3571 30.2965 57.3572 30.2967C57.3573 30.297 57.3575 30.2972 57.3576 30.2974C57.3577 30.2977 57.3578 30.2979 57.3579 30.2981C57.358 30.2984 57.3582 30.2986 57.3583 30.2988C57.3584 30.2991 57.3585 30.2993 57.3586 30.2995C57.3587 30.2998 57.3589 30.3 57.359 30.3002C57.3591 30.3005 57.3592 30.3007 57.3593 30.3009C57.3594 30.3011 57.3595 30.3014 57.3597 30.3016C57.3598 30.3018 57.3599 30.3021 57.36 30.3023C57.3601 30.3025 57.3602 30.3027 57.3603 30.303C57.3605 30.3032 57.3606 30.3034 57.3607 30.3036C57.3608 30.3039 57.3609 30.3041 57.361 30.3043C57.3611 30.3046 57.3613 30.3048 57.3614 30.305C57.3615 30.3052 57.3616 30.3055 57.3617 30.3057C57.3618 30.3059 57.3619 30.3061 57.362 30.3064C57.3621 30.3066 57.3623 30.3068 57.3624 30.307C57.3625 30.3072 57.3626 30.3075 57.3627 30.3077C57.3628 30.3079 57.3629 30.3081 57.363 30.3084C57.3631 30.3086 57.3633 30.3088 57.3634 30.309C57.3635 30.3092 57.3636 30.3095 57.3637 30.3097C57.3638 30.3099 57.3639 30.3101 57.364 30.3103C57.3641 30.3106 57.3642 30.3108 57.3644 30.311C57.3645 30.3112 57.3646 30.3114 57.3647 30.3116C57.3648 30.3119 57.3649 30.3121 57.365 30.3123C57.3651 30.3125 57.3652 30.3127 57.3653 30.3129C57.3654 30.3132 57.3655 30.3134 57.3657 30.3136C57.3658 30.3138 57.3659 30.314 57.366 30.3142C57.3661 30.3145 57.3662 30.3147 57.3663 30.3149C57.3664 30.3151 57.3665 30.3153 57.3666 30.3155C57.3667 30.3157 57.3668 30.3159 57.3669 30.3162C57.367 30.3164 57.3671 30.3166 57.3673 30.3168C57.3674 30.317 57.3675 30.3172 57.3676 30.3174C57.3677 30.3176 57.3678 30.3178 57.3679 30.3181C57.368 30.3183 57.3681 30.3185 57.3682 30.3187C57.3683 30.3189 57.3684 30.3191 57.3685 30.3193C57.3686 30.3195 57.3687 30.3197 57.3688 30.3199C57.3689 30.3201 57.369 30.3203 57.3691 30.3205C57.3692 30.3208 57.3693 30.321 57.3694 30.3212C57.3695 30.3214 57.3697 30.3216 57.3698 30.3218C57.3699 30.322 57.37 30.3222 57.3701 30.3224C57.3702 30.3226 57.3703 30.3228 57.3704 30.323C57.3705 30.3232 57.3706 30.3234 57.3707 30.3236C57.3708 30.3238 57.3709 30.324 57.371 30.3242C57.3711 30.3244 57.3712 30.3246 57.3713 30.3248C57.3714 30.325 57.3715 30.3252 57.3716 30.3254C57.3717 30.3256 57.3718 30.3258 57.3719 30.326C57.372 30.3262 57.3721 30.3264 57.3722 30.3266C57.3723 30.3268 57.3724 30.327 57.3725 30.3272C57.3726 30.3274 57.3727 30.3276 57.3728 30.3278C57.3729 30.328 57.373 30.3282 57.3731 30.3284C57.3732 30.3286 57.3733 30.3288 57.3734 30.329C57.3735 30.3292 57.3736 30.3294 57.3737 30.3296C57.3738 30.3298 57.3739 30.33 57.374 30.3302C57.3741 30.3304 57.3741 30.3306 57.3742 30.3308C57.3743 30.331 57.3744 30.3312 57.3745 30.3313C57.3746 30.3315 57.3747 30.3317 57.3748 30.3319C57.3749 30.3321 57.375 30.3323 57.3751 30.3325C57.3752 30.3327 57.3753 30.3329 57.3754 30.3331C57.3755 30.3333 57.3756 30.3335 57.3757 30.3336C57.3758 30.3338 57.3759 30.334 57.376 30.3342C57.3761 30.3344 57.3762 30.3346 57.3763 30.3348C57.3763 30.335 57.3764 30.3352 57.3765 30.3353C57.3766 30.3355 57.3767 30.3357 57.3768 30.3359C57.3769 30.3361 57.377 30.3363 57.3771 30.3365C57.3772 30.3367 57.3773 30.3368 57.3774 30.337C57.3775 30.3372 57.3776 30.3374 57.3776 30.3376C57.3777 30.3378 57.3778 30.3379 57.3779 30.3381C57.378 30.3383 57.3781 30.3385 57.3782 30.3387C57.3783 30.3389 57.3784 30.339 57.3785 30.3392C57.3786 30.3394 57.3787 30.3396 57.3787 30.3398C57.3788 30.34 57.3789 30.3401 57.379 30.3403C57.3791 30.3405 57.3792 30.3407 57.3793 30.3409C57.3794 30.341 57.3795 30.3412 57.3796 30.3414C57.3797 30.3416 57.3797 30.3418 57.3798 30.3419C57.3799 30.3421 57.38 30.3423 57.3801 30.3425C57.3802 30.3426 57.3803 30.3428 57.3804 30.343C57.3804 30.3432 57.3805 30.3434 57.3806 30.3435C57.3807 30.3437 57.3808 30.3439 57.3809 30.3441C57.381 30.3442 57.3811 30.3444 57.3812 30.3446C57.3812 30.3448 57.3813 30.3449 57.3814 30.3451C57.3815 30.3453 57.3816 30.3455 57.3817 30.3456C57.3818 30.3458 57.3818 30.346 57.3819 30.3461C57.382 30.3463 57.3821 30.3465 57.3822 30.3467C57.3823 30.3468 57.3824 30.347 57.3824 30.3472C57.3825 30.3474 57.3826 30.3475 57.3827 30.3477C57.3828 30.3479 57.3829 30.348 57.383 30.3482C57.383 30.3484 57.3831 30.3485 57.3832 30.3487C57.3833 30.3489 57.3834 30.349 57.3835 30.3492C57.3835 30.3494 57.3836 30.3495 57.3837 30.3497C57.3838 30.3499 57.3839 30.35 57.384 30.3502C57.384 30.3504 57.3841 30.3505 57.3842 30.3507C57.3843 30.3509 57.3844 30.351 57.3845 30.3512C57.3845 30.3514 57.3846 30.3515 57.3847 30.3517C57.3848 30.3519 57.3849 30.352 57.385 30.3522C57.385 30.3524 57.3851 30.3525 57.3852 30.3527C57.3853 30.3528 57.3854 30.353 57.3854 30.3532C57.3855 30.3533 57.3856 30.3535 57.3857 30.3536C57.3858 30.3538 57.3858 30.354 57.3859 30.3541C57.386 30.3543 57.3861 30.3544 57.3862 30.3546C57.3862 30.3548 57.3863 30.3549 57.3864 30.3551C57.3865 30.3552 57.3866 30.3554 57.3866 30.3556C57.3867 30.3557 57.3868 30.3559 57.3869 30.356C57.387 30.3562 57.387 30.3563 57.3871 30.3565C57.3872 30.3567 57.3873 30.3568 57.3873 30.357C57.3874 30.3571 57.3875 30.3573 57.3876 30.3574C57.3877 30.3576 57.3877 30.3577 57.3878 30.3579C57.3879 30.3581 57.388 30.3582 57.388 30.3584C57.3881 30.3585 57.3882 30.3587 57.3883 30.3588C57.3883 30.359 57.3884 30.3591 57.3885 30.3593C57.3886 30.3594 57.3887 30.3596 57.3887 30.3597C57.3888 30.3599 57.3889 30.36 57.389 30.3602C57.389 30.3603 57.3891 30.3605 57.3892 30.3606C57.3893 30.3608 57.3893 30.3609 57.3894 30.3611C57.3895 30.3612 57.3895 30.3614 57.3896 30.3615C57.3897 30.3617 57.3898 30.3618 57.3898 30.362C57.3899 30.3621 57.39 30.3623 57.3901 30.3624C57.3901 30.3626 57.3902 30.3627 57.3903 30.3628C57.3904 30.363 57.3904 30.3631 57.3905 30.3633C57.3906 30.3634 57.3906 30.3636 57.3907 30.3637C57.3908 30.3639 57.3909 30.364 57.3909 30.3642C57.391 30.3643 57.3911 30.3644 57.3912 30.3646C57.3912 30.3647 57.3913 30.3649 57.3914 30.365C57.3914 30.3652 57.3915 30.3653 57.3916 30.3654C57.3916 30.3656 57.3917 30.3657 57.3918 30.3659C57.3919 30.366 57.3919 30.3661 57.392 30.3663C57.3921 30.3664 57.3921 30.3666 57.3922 30.3667C57.3923 30.3668 57.3923 30.367 57.3924 30.3671C57.3925 30.3672 57.3926 30.3674 57.3926 30.3675C57.3927 30.3677 57.3928 30.3678 57.3928 30.3679C57.3929 30.3681 57.393 30.3682 57.393 30.3683C57.3931 30.3685 57.3932 30.3686 57.3932 30.3687C57.3933 30.3689 57.3934 30.369 57.3934 30.3691C57.3935 30.3693 57.3936 30.3694 57.3936 30.3696C57.3937 30.3697 57.3938 30.3698 57.3938 30.3699C57.3939 30.3701 57.394 30.3702 57.394 30.3703C57.3941 30.3705 57.3942 30.3706 57.3942 30.3707C57.3943 30.3709 57.3944 30.371 57.3944 30.3711C57.3945 30.3713 57.3946 30.3714 57.3946 30.3715C57.3947 30.3717 57.3948 30.3718 57.3948 30.3719C57.3949 30.372 57.3949 30.3722 57.395 30.3723C57.3951 30.3724 57.3951 30.3726 57.3952 30.3727C57.3953 30.3728 57.3953 30.3729 57.3954 30.3731C57.3955 30.3732 57.3955 30.3733 57.3956 30.3734C57.3956 30.3736 57.3957 30.3737 57.3958 30.3738C57.3958 30.3739 57.3959 30.3741 57.396 30.3742C57.396 30.3743 57.3961 30.3744 57.3961 30.3746C57.3962 30.3747 57.3963 30.3748 57.3963 30.3749C57.3964 30.3751 57.3965 30.3752 57.3965 30.3753C57.3966 30.3754 57.3966 30.3755 57.3967 30.3757C57.3968 30.3758 57.3968 30.3759 57.3969 30.376C57.3969 30.3762 57.397 30.3763 57.3971 30.3764C57.3971 30.3765 57.3972 30.3766 57.3972 30.3767C57.3973 30.3769 57.3974 30.377 57.3974 30.3771C57.3975 30.3772 57.3975 30.3773 57.3976 30.3775C57.3976 30.3776 57.3977 30.3777 57.3978 30.3778C57.3978 30.3779 57.3979 30.378 57.3979 30.3782C57.398 30.3783 57.3981 30.3784 57.3981 30.3785C57.3982 30.3786 57.3982 30.3787 57.3983 30.3788C57.3983 30.379 57.3984 30.3791 57.3985 30.3792C57.3985 30.3793 57.3986 30.3794 57.3986 30.3795C57.3987 30.3796 57.3987 30.3798 57.3988 30.3799C57.3988 30.38 57.3989 30.3801 57.399 30.3802C57.399 30.3803 57.3991 30.3804 57.3991 30.3805C57.3992 30.3806 57.3992 30.3808 57.3993 30.3809C57.3993 30.381 57.3994 30.3811 57.3995 30.3812C57.3995 30.3813 57.3996 30.3814 57.3996 30.3815C57.3997 30.3816 57.3997 30.3817 57.3998 30.3818C57.3998 30.382 57.3999 30.3821 57.3999 30.3822C57.4 30.3823 57.4001 30.3824 57.4001 30.3825C57.4002 30.3826 57.4002 30.3827 57.4003 30.3828C57.4003 30.3829 57.4004 30.383 57.4004 30.3831C57.4005 30.3832 57.4005 30.3833 57.4006 30.3834C57.4006 30.3835 57.4007 30.3836 57.4007 30.3837C57.4008 30.3838 57.4008 30.3839 57.4009 30.384C57.4009 30.3841 57.401 30.3843 57.401 30.3844C57.4011 30.3845 57.4011 30.3846 57.4012 30.3847C57.4012 30.3848 57.4013 30.3849 57.4013 30.385C57.4014 30.3851 57.4014 30.3852 57.4015 30.3853C57.4015 30.3854 57.4016 30.3855 57.4016 30.3856C57.4017 30.3857 57.4017 30.3857 57.4018 30.3858C57.4018 30.3859 57.4019 30.386 57.4019 30.3861C57.402 30.3862 57.402 30.3863 57.4021 30.3864C57.4021 30.3865 57.4022 30.3866 57.4022 30.3867C57.4023 30.3868 57.4023 30.3869 57.4024 30.387C57.4024 30.3871 57.4025 30.3872 57.4025 30.3873C57.4025 30.3874 57.4026 30.3875 57.4026 30.3876C57.4027 30.3877 57.4027 30.3877 57.4028 30.3878C57.4028 30.3879 57.4029 30.388 57.4029 30.3881C57.403 30.3882 57.403 30.3883 57.4031 30.3884C57.4031 30.3885 57.4031 30.3886 57.4032 30.3887C57.4032 30.3888 57.4033 30.3888 57.4033 30.3889C57.4034 30.389 57.4034 30.3891 57.4035 30.3892C57.4035 30.3893 57.4035 30.3894 57.4036 30.3895C57.4036 30.3895 57.4037 30.3896 57.4037 30.3897C57.4038 30.3898 57.4038 30.3899 57.4039 30.39C57.4039 30.3901 57.4039 30.3902 57.404 30.3902C57.404 30.3903 57.4041 30.3904 57.4041 30.3905C57.4042 30.3906 57.4042 30.3907 57.4042 30.3907C57.4043 30.3908 57.4043 30.3909 57.4044 30.391C57.4044 30.3911 57.4044 30.3912 57.4045 30.3913C57.4045 30.3913 57.4046 30.3914 57.4046 30.3915C57.4046 30.3916 57.4047 30.3917 57.4047 30.3917C57.4048 30.3918 57.4048 30.3919 57.4049 30.392C57.4049 30.3921 57.4049 30.3921 57.405 30.3922C57.405 30.3923 57.405 30.3924 57.4051 30.3925C57.4051 30.3925 57.4052 30.3926 57.4052 30.3927C57.4052 30.3928 57.4053 30.3928 57.4053 30.3929C57.4054 30.393 57.4054 30.3931 57.4054 30.3932C57.4055 30.3932 57.4055 30.3933 57.4056 30.3934C57.4056 30.3935 57.4056 30.3935 57.4057 30.3936C57.4057 30.3937 57.4057 30.3938 57.4058 30.3938C57.4058 30.3939 57.4058 30.394 57.4059 30.3941C57.4059 30.3941 57.406 30.3942 57.406 30.3943C57.406 30.3943 57.4061 30.3944 57.4061 30.3945C57.4061 30.3946 57.4062 30.3946 57.4062 30.3947C57.4062 30.3948 57.4063 30.3948 57.4063 30.3949C57.4064 30.395 57.4064 30.3951 57.4064 30.3951C57.4065 30.3952 57.4065 30.3953 57.4065 30.3953C57.4066 30.3954 57.4066 30.3955 57.4066 30.3955C57.4067 30.3956 57.4067 30.3957 57.4067 30.3957C57.4068 30.3958 57.4068 30.3959 57.4068 30.3959C57.4069 30.396 57.4069 30.3961 57.4069 30.3961C57.407 30.3962 57.407 30.3963 57.407 30.3963C57.4071 30.3964 57.4071 30.3965 57.4071 30.3965C57.4072 30.3966 57.4072 30.3967 57.4072 30.3967C57.4072 30.3968 57.4073 30.3968 57.4073 30.3969C57.4073 30.397 57.4074 30.397 57.4074 30.3971C57.4074 30.3971 57.4075 30.3972 57.4075 30.3973C57.4075 30.3973 57.4076 30.3974 57.4076 30.3975C57.4076 30.3975 57.4076 30.3976 57.4077 30.3976C57.4077 30.3977 57.4077 30.3978 57.4078 30.3978C57.4078 30.3979 57.4078 30.3979 57.4079 30.398C57.4079 30.398 57.4079 30.3981 57.4079 30.3982C57.408 30.3982 57.408 30.3983 57.408 30.3983C57.4081 30.3984 57.4081 30.3984 57.4081 30.3985C57.4081 30.3986 57.4082 30.3986 57.4082 30.3987C57.4082 30.3987 57.4082 30.3988 57.4083 30.3988C57.4083 30.3989 57.4083 30.3989 57.4084 30.399C57.4084 30.399 57.4084 30.3991 57.4084 30.3991C57.4085 30.3992 57.4085 30.3993 57.4085 30.3993C57.4085 30.3994 57.4086 30.3994 57.4086 30.3995C57.4086 30.3995 57.4086 30.3996 57.4087 30.3996C57.4087 30.3997 57.4087 30.3997 57.4087 30.3998C57.4088 30.3998 57.4088 30.3999 57.4088 30.3999C57.4088 30.4 57.4089 30.4 57.4089 30.4001C57.4089 30.4001 57.4089 30.4002 57.409 30.4002C57.409 30.4002 57.409 30.4003 57.409 30.4003C57.4091 30.4004 57.4091 30.4004 57.4091 30.4005C57.4091 30.4005 57.4091 30.4006 57.4092 30.4006C57.4092 30.4007 57.4092 30.4007 57.4092 30.4007C57.4093 30.4008 57.4093 30.4008 57.4093 30.4009C57.4093 30.4009 57.4093 30.401 57.4094 30.401C57.4094 30.4011 57.4094 30.4011 57.4094 30.4011C57.4095 30.4012 57.4095 30.4012 57.4095 30.4013C57.4095 30.4013 57.4095 30.4013 57.4096 30.4014C57.4096 30.4014 57.4096 30.4015 57.4096 30.4015C57.4096 30.4015 57.4097 30.4016 57.4097 30.4016C57.4097 30.4017 57.4097 30.4017 57.4097 30.4017C57.4097 30.4018 57.4098 30.4018 57.4098 30.4018C57.4098 30.4019 57.4098 30.4019 57.4098 30.402C57.4099 30.402 57.4099 30.402 57.4099 30.4021C57.4099 30.4021 57.4099 30.4021 57.41 30.4022C57.41 30.4022 57.41 30.4022 57.41 30.4023C57.41 30.4023 57.41 30.4024 57.4101 30.4024C57.4101 30.4024 57.4101 30.4025 57.4101 30.4025C57.4101 30.4025 57.4101 30.4025 57.4101 30.4026C57.4102 30.4026 57.4102 30.4026 57.4102 30.4027C57.4102 30.4027 57.4102 30.4027 57.4102 30.4028C57.4103 30.4028 57.4103 30.4028 57.4103 30.4029C57.4103 30.4029 57.4103 30.4029 57.4103 30.4029C57.4103 30.403 57.4104 30.403 57.4104 30.403C57.4104 30.4031 57.4104 30.4031 57.4104 30.4031C57.4104 30.4031 57.4104 30.4032 57.4105 30.4032C57.4105 30.4032 57.4105 30.4033 57.4105 30.4033C57.4105 30.4033 57.4105 30.4033 57.4105 30.4034C57.4105 30.4034 57.4106 30.4034 57.4106 30.4034C57.4106 30.4035 57.4106 30.4035 57.4106 30.4035C57.4106 30.4035 57.4106 30.4035 57.4106 30.4036C57.4107 30.4036 57.4107 30.4036 57.4107 30.4036C57.4107 30.4037 57.4107 30.4037 57.4107 30.4037C57.4107 30.4037 57.4107 30.4037 57.4107 30.4038C57.4108 30.4038 57.4108 30.4038 57.4108 30.4038C57.4108 30.4038 57.4108 30.4039 57.4108 30.4039C57.4108 30.4039 57.4108 30.4039 57.4108 30.4039C57.4108 30.404 57.4108 30.404 57.4109 30.404C57.4109 30.404 57.4109 30.404 57.4109 30.404C57.4109 30.4041 57.4109 30.4041 57.4109 30.4041C57.4109 30.4041 57.4109 30.4041 57.4109 30.4041C57.4109 30.4042 57.4109 30.4042 57.411 30.4042C57.411 30.4042 57.411 30.4042 57.411 30.4042C57.411 30.4042 57.411 30.4043 57.411 30.4043C57.411 30.4043 57.411 30.4043 57.411 30.4043C57.411 30.4043 57.411 30.4043 57.411 30.4043C57.411 30.4044 57.411 30.4044 57.411 30.4044C57.4111 30.4044 57.4111 30.4044 57.4111 30.4044C57.4111 30.4044 57.4111 30.4044 57.4111 30.4044C57.4111 30.4044 57.4111 30.4044 57.4111 30.4045C57.4111 30.4045 57.4111 30.4045 57.4111 30.4045C57.4111 30.4045 57.4111 30.4045 57.4111 30.4045C57.4111 30.4045 57.4111 30.4045 57.4111 30.4045C57.4111 30.4045 57.4111 30.4045 57.4111 30.4045C57.4111 30.4045 57.4111 30.4045 57.4111 30.4046C57.4111 30.4046 57.4111 30.4046 57.4111 30.4046C57.4111 30.4046 57.4111 30.4046 57.4112 30.4046C57.4112 30.4046 57.4112 30.4046 57.4112 30.4046V30.4046C57.4112 30.4046 57.4112 30.4046 57.4112 30.4046C57.4112 30.4046 57.4112 30.4046 59.2 29.5101ZM60.6117 27.9608C59.7165 26.8418 58.4298 26.4427 57.1172 26.6302L57.6828 30.59C57.7747 30.5769 57.7461 30.5982 57.654 30.5647C57.6104 30.5489 57.5693 30.5265 57.5355 30.5015C57.5026 30.4772 57.4879 30.4591 57.4883 30.4595L60.6117 27.9608ZM55.7899 27.4238C54.3529 29.3739 53.0179 31.3764 51.785 33.4312L55.215 35.4891C56.3821 33.5439 57.6471 31.6464 59.0101 29.7965L55.7899 27.4238ZM51.785 33.4312L48.635 38.6812L52.065 40.7391L55.215 35.4891L51.785 33.4312ZM154.091 5.21015L153.443 3.31826C153.421 3.32559 153.4 3.33328 153.379 3.34134L154.091 5.21015ZM165.341 5.66015L164.639 7.53281C164.648 7.53612 164.657 7.53936 164.666 7.54254L165.341 5.66015ZM169.691 11.2102L171.512 12.0378C171.517 12.0277 171.521 12.0177 171.526 12.0076L169.691 11.2102ZM169.691 13.9102L168.064 15.0726L168.064 15.0726L169.691 13.9102ZM171.641 16.0102L170.324 17.5153C170.362 17.5484 170.401 17.58 170.441 17.6102L171.641 16.0102ZM173.891 17.8102L172.59 19.3287C172.666 19.3938 172.747 19.4531 172.831 19.5061L173.891 17.8102ZM175.241 19.6102L173.262 19.893C173.269 19.9437 173.278 19.994 173.289 20.044L175.241 19.6102ZM169.091 26.0602L169.694 27.9673C169.822 27.9269 169.945 27.8737 170.063 27.8085L169.091 26.0602ZM162.791 28.9101L163.717 30.6833C163.736 30.673 163.756 30.6623 163.776 30.6513L162.791 28.9101ZM146.891 38.6602L148.201 40.1715L148.205 40.1683L146.891 38.6602ZM138.341 47.2102L136.833 45.8966C136.823 45.9084 136.813 45.9203 136.803 45.9324L138.341 47.2102ZM124.841 67.7602L123.071 66.8296C122.618 67.6918 122.852 68.7551 123.625 69.3476C124.398 69.9401 125.486 69.8895 126.2 69.2277L124.841 67.7602ZM134.291 62.0602L134.971 63.9413C134.98 63.9378 134.99 63.9343 134.999 63.9307L134.291 62.0602ZM144.641 60.2602L144.517 62.2563C144.537 62.2576 144.558 62.2585 144.579 62.2592L144.641 60.2602ZM153.791 62.9602L152.78 64.6855C152.788 64.6905 152.797 64.6954 152.805 64.7002L153.791 62.9602ZM161.441 69.7102L159.841 70.9102C159.845 70.9155 159.849 70.9207 159.853 70.926L161.441 69.7102ZM166.991 91.0102L165.015 90.706L166.991 91.0102ZM160.991 110.96L159.209 110.053C159.205 110.061 159.2 110.07 159.196 110.079L160.991 110.96ZM150.941 124.46L152.243 125.979C152.248 125.974 152.253 125.97 152.258 125.965L150.941 124.46ZM120.191 134.36L120.077 136.357C120.115 136.359 120.153 136.36 120.191 136.36V134.36ZM91.6914 119.51L89.9364 120.469L89.9386 120.473L91.6914 119.51ZM89.2914 84.4102L87.3448 83.951C87.341 83.9673 87.3373 83.9837 87.3339 84.0001L89.2914 84.4102ZM110.891 36.2602L112.47 37.488L112.472 37.4856L110.891 36.2602ZM135.941 83.5102L136.224 81.5303C135.825 81.4733 135.419 81.5381 135.057 81.7161L135.941 83.5102ZM121.541 100.46L123.414 101.162C123.421 101.144 123.428 101.126 123.434 101.107L121.541 100.46ZM119.891 107.51L117.899 107.337C117.864 107.742 117.953 108.149 118.155 108.502L119.891 107.51ZM121.091 108.86L122.249 107.229C122.165 107.17 122.077 107.117 121.986 107.071L121.091 108.86ZM130.391 105.71L132.014 106.88C132.019 106.872 132.025 106.865 132.03 106.857L130.391 105.71ZM135.791 94.1602L137.746 94.5828L137.749 94.5722L135.791 94.1602ZM154.74 7.10204C157.735 6.07533 161.003 6.1692 164.639 7.53281L166.044 3.78749C161.68 2.1511 157.448 1.94498 153.443 3.31826L154.74 7.10204ZM164.666 7.54254C166.497 8.19992 167.404 8.85236 167.78 9.33141C167.942 9.538 167.983 9.68317 167.994 9.78513C168.006 9.89503 167.997 10.0921 167.857 10.4127L171.526 12.0076C171.886 11.1782 172.071 10.2815 171.97 9.35392C171.869 8.41838 171.491 7.58231 170.928 6.86389C169.854 5.49295 168.086 4.52038 166.017 3.77776L164.666 7.54254ZM167.871 10.3825C167.209 11.8391 166.99 13.5695 168.064 15.0726L171.319 12.7477C171.314 12.7406 171.317 12.7434 171.319 12.7511C171.321 12.7579 171.316 12.7477 171.316 12.7102C171.316 12.6257 171.342 12.4122 171.512 12.0378L167.871 10.3825ZM168.064 15.0726C168.672 15.9239 169.434 16.7363 170.324 17.5153L172.958 14.505C172.249 13.884 171.711 13.2964 171.319 12.7477L168.064 15.0726ZM170.441 17.6102C171.21 18.1863 171.925 18.7592 172.59 19.3287L175.193 16.2916C174.457 15.6611 173.673 15.034 172.841 14.4101L170.441 17.6102ZM172.831 19.5061C173.074 19.6579 173.184 19.7759 173.229 19.8351C173.25 19.8633 173.257 19.8793 173.259 19.8832C173.26 19.8865 173.261 19.8884 173.262 19.893L177.221 19.3273C177.012 17.8642 176.074 16.8157 174.951 16.1142L172.831 19.5061ZM173.289 20.044C173.29 20.0468 173.292 20.0548 173.289 20.0778C173.286 20.1035 173.276 20.161 173.237 20.2549C173.153 20.4538 172.961 20.7683 172.556 21.1925C171.736 22.0525 170.303 23.0992 168.12 24.3118L170.063 27.8085C172.38 26.5211 174.221 25.2428 175.451 23.9528C176.648 22.6978 177.61 21.0503 177.194 19.1763L173.289 20.044ZM168.489 24.153C166.422 24.8059 164.192 25.8213 161.807 27.169L163.776 30.6513C165.991 29.3991 167.961 28.5144 169.694 27.9673L168.489 24.153ZM161.866 27.137C159.578 28.3311 157.138 29.5758 154.547 30.8713L156.336 34.449C158.945 33.1445 161.405 31.8892 163.717 30.6833L161.866 27.137ZM154.547 30.8713C151.748 32.2708 148.757 34.3829 145.578 37.152L148.205 40.1683C151.226 37.5374 153.935 35.6495 156.336 34.449L154.547 30.8713ZM145.582 37.1488C142.508 39.8121 139.592 42.7286 136.833 45.8966L139.85 48.5237C142.49 45.4917 145.274 42.7082 148.201 40.1715L145.582 37.1488ZM136.803 45.9324C131.802 51.9542 127.227 58.9239 123.071 66.8296L126.612 68.6907C130.656 60.9964 135.081 54.2661 139.88 48.488L136.803 45.9324ZM126.2 69.2277C128.696 66.917 131.612 65.154 134.971 63.9413L133.612 60.179C129.771 61.5663 126.387 63.6033 123.483 66.2926L126.2 69.2277ZM134.999 63.9307C138.494 62.6083 141.658 62.0776 144.517 62.2563L144.766 58.264C141.225 58.0427 137.489 58.712 133.584 60.1896L134.999 63.9307ZM144.579 62.2592C147.428 62.3482 150.154 63.1459 152.78 64.6855L154.803 61.2348C151.629 59.3744 148.255 58.3721 144.704 58.2611L144.579 62.2592ZM152.805 64.7002C155.562 66.2623 157.904 68.3271 159.841 70.9102L163.041 68.5102C160.779 65.4932 158.021 63.058 154.777 61.2201L152.805 64.7002ZM159.853 70.926C164.43 76.9038 166.13 83.4573 165.015 90.706L168.968 91.3143C170.253 82.963 168.253 75.3165 163.029 68.4943L159.853 70.926ZM165.015 90.706C163.838 98.3515 161.89 104.787 159.209 110.053L162.774 111.868C165.693 106.134 167.744 99.2688 168.968 91.3143L165.015 90.706ZM159.196 110.079C156.595 115.377 153.397 119.654 149.624 122.955L152.258 125.965C156.486 122.266 159.988 117.543 162.787 111.842L159.196 110.079ZM149.64 122.942C142.389 129.156 132.643 132.36 120.191 132.36V136.36C133.34 136.36 144.093 132.964 152.243 125.979L149.64 122.942ZM120.306 132.363C106.724 131.587 98.0007 126.84 93.4442 118.547L89.9386 120.473C95.3821 130.381 105.659 135.533 120.077 136.357L120.306 132.363ZM93.4464 118.551C89.0703 110.544 88.1959 99.3959 91.2489 84.8202L87.3339 84.0001C84.1869 99.0244 84.9125 111.277 89.9364 120.469L93.4464 118.551ZM91.238 84.8693C95.7883 65.5798 102.886 49.8111 112.47 37.488L109.313 35.0323C99.2973 47.9092 91.9945 64.2405 87.3448 83.951L91.238 84.8693ZM112.472 37.4856C122.923 24.0067 137.008 13.8629 154.804 7.07896L153.379 3.34134C134.975 10.3574 120.26 20.9136 109.311 35.0347L112.472 37.4856ZM135.057 81.7161C127.64 85.3712 122.504 91.4597 119.649 99.8133L123.434 101.107C125.979 93.6606 130.443 88.4491 136.825 85.3042L135.057 81.7161ZM119.669 99.7579C118.712 102.309 118.116 104.837 117.899 107.337L121.884 107.683C122.067 105.583 122.571 103.411 123.414 101.162L119.669 99.7579ZM118.155 108.502C118.614 109.306 119.259 110.18 120.197 110.649L121.986 107.071C122.077 107.117 122.072 107.141 121.986 107.044C121.903 106.95 121.781 106.785 121.628 106.518L118.155 108.502ZM119.934 110.491C121.91 111.894 124.122 112.383 126.383 111.617C128.504 110.899 130.358 109.176 132.014 106.88L128.769 104.541C127.324 106.545 126.079 107.497 125.1 107.828C124.261 108.112 123.373 108.027 122.249 107.229L119.934 110.491ZM132.03 106.857C134.94 102.7 136.876 98.6064 137.746 94.5828L133.837 93.7375C133.107 97.1139 131.443 100.721 128.753 104.563L132.03 106.857ZM137.749 94.5722C138.548 90.774 138.991 87.8906 138.991 86.0602H134.991C134.991 87.4297 134.635 89.9463 133.834 93.7481L137.749 94.5722ZM138.991 86.0602C138.991 85.1636 138.901 84.2438 138.578 83.4612C138.226 82.6062 137.487 81.7106 136.224 81.5303L135.659 85.4901C135.438 85.4586 135.223 85.3572 135.059 85.2088C134.914 85.0775 134.873 84.968 134.88 84.9842C134.886 85.0007 134.918 85.0891 134.946 85.2836C134.973 85.4737 134.991 85.729 134.991 86.0602H138.991Z" fill="#EF8354" fill-opacity="0.6"/>
</svg>
