<svg viewBox="0 0 191 138" fill="none" xmlns="http://www.w3.org/2000/svg">
<path d="M22.3 22.35L24.0717 23.278L24.0764 23.2688L22.3 22.35ZM40.6 6.75L39.7595 4.9352L39.7591 4.93538L40.6 6.75ZM66.1 5.25L65.2742 7.07157L65.2793 7.07384L66.1 5.25ZM72.55 8.84999L70.7611 9.74442C70.7982 9.8186 70.8399 9.8904 70.8859 9.9594L72.55 8.84999ZM73 10.8L71.0201 10.5171V10.5172L73 10.8ZM73 13.95L71.0051 14.0925C71.0504 14.7273 71.3952 15.3026 71.9336 15.6419C72.4719 15.9813 73.1397 16.0442 73.7319 15.8112L73 13.95ZM92.2 21.6L94.0296 20.7921C94.0269 20.7861 94.0242 20.78 94.0215 20.774L92.2 21.6ZM94.9 53.1L96.8839 53.3536C96.8845 53.3487 96.8851 53.3438 96.8857 53.3389L94.9 53.1ZM84.85 87.15L83.0843 86.2108C83.0373 86.2991 82.997 86.3909 82.9637 86.4853L84.85 87.15ZM67.3 116.7L65.7908 115.388C65.7828 115.397 65.7748 115.406 65.767 115.416L67.3 116.7ZM58.6 125.1L57.449 123.464C57.4258 123.481 57.403 123.497 57.3806 123.515L58.6 125.1ZM53.05 127.8L53.4078 125.832C53.1596 125.787 52.9051 125.789 52.6578 125.839L53.05 127.8ZM47.65 129L47.1649 127.06C47.1512 127.063 47.1375 127.067 47.1238 127.07L47.65 129ZM41.95 129.9V127.9C41.4196 127.9 40.9109 128.111 40.5358 128.486L41.95 129.9ZM41.35 130.35L40.4556 128.561C40.2633 128.657 40.0878 128.784 39.9358 128.936L41.35 130.35ZM41.05 130.8L41.6247 132.716C42.1529 132.557 42.5922 132.188 42.8388 131.694L41.05 130.8ZM36.55 132.15L35.9753 130.234C35.2166 130.462 34.6637 131.116 34.5654 131.902L36.55 132.15ZM32.65 135.45L32.1649 133.51C32.1398 133.516 32.1148 133.523 32.09 133.53L32.65 135.45ZM24.4 135.9L24.1357 137.882L24.1441 137.884L24.4 135.9ZM15.25 133.2L16.0732 131.377C16.0567 131.37 16.0401 131.363 16.0235 131.356L15.25 133.2ZM8.35 127.5L6.52238 128.312C6.55547 128.387 6.59309 128.459 6.63501 128.529L8.35 127.5ZM3.7 114.6L1.73468 114.971C1.73825 114.99 1.74209 115.009 1.7462 115.027L3.7 114.6ZM4.3 73.8L2.32141 73.5081L2.32058 73.5138L4.3 73.8ZM13.9 39.9L15.7291 40.709C15.7328 40.7006 15.7364 40.6922 15.74 40.6837L13.9 39.9ZM50.35 39.3L48.635 38.271C48.6087 38.3149 48.584 38.3598 48.5611 38.4056L50.35 39.3ZM35.5 87L33.5213 86.709C33.5202 86.7164 33.5191 86.7238 33.5181 86.7313L35.5 87ZM35.05 103.5L33.0595 103.695C33.1599 104.719 34.021 105.5 35.05 105.5V103.5ZM35.35 103.5V105.5C35.8804 105.5 36.3892 105.289 36.7642 104.914L35.35 103.5ZM35.5 103.35L36.9142 104.764C37.0087 104.67 37.0935 104.566 37.1673 104.455L35.5 103.35ZM59.5 51.3L61.4215 51.8549C61.4235 51.8478 61.4255 51.8408 61.4275 51.8338L59.5 51.3ZM61.9 35.85L59.9007 35.9026C59.9012 35.9201 59.9018 35.9376 59.9028 35.9551L61.9 35.85ZM59.95 28.5L61.3015 27.0257C60.5121 26.3021 59.2929 26.3286 58.5358 27.0858L59.95 28.5ZM59.2 29.1L57.4112 29.9944C57.7499 30.672 58.4425 31.1 59.2 31.1V29.1ZM59.05 28.8L60.8388 27.9055C60.7759 27.7796 60.6997 27.6606 60.6117 27.5506L59.05 28.8ZM57.4 28.2L57.1172 26.2201C56.5862 26.2959 56.108 26.5818 55.7899 27.0136L57.4 28.2ZM53.5 34.05L51.785 33.021V33.021L53.5 34.05ZM24.0764 23.2688C25.4246 20.6624 27.6315 18.0083 30.794 15.325L28.206 12.275C24.7685 15.1917 22.1754 18.2375 20.5236 21.4312L24.0764 23.2688ZM30.794 15.325C33.9507 12.6465 37.4971 10.3923 41.4409 8.56462L39.7591 4.93538C35.503 6.90773 31.6493 9.35344 28.206 12.275L30.794 15.325ZM41.4405 8.56479C50.5667 4.33792 58.4415 3.97407 65.2742 7.07156L66.9258 3.42843C58.7585 -0.274086 49.6333 0.362061 39.7595 4.9352L41.4405 8.56479ZM65.2793 7.07384C67.2605 7.96539 68.7372 8.68796 69.7378 9.24639C70.2412 9.52739 70.5827 9.74402 70.794 9.89926C71.0903 10.117 70.9201 10.0624 70.7611 9.74442L74.3389 7.95557C74.0299 7.33759 73.4784 6.90802 73.1623 6.67573C72.7611 6.38097 72.2588 6.07261 71.6872 5.7536C70.5378 5.11203 68.9395 4.33461 66.9207 3.42616L65.2793 7.07384ZM70.8859 9.9594C71.0189 10.1589 71.049 10.3148 71.0201 10.5171L74.9799 11.0829C75.151 9.88518 74.8811 8.74108 74.2141 7.74059L70.8859 9.9594ZM71.0201 10.5172C70.8888 11.4362 70.9028 12.6605 71.0051 14.0925L74.9949 13.8075C74.8972 12.4394 74.9112 11.5638 74.9799 11.0828L71.0201 10.5172ZM73.7319 15.8112C77.8939 14.1745 81.1644 14.0713 83.7347 15.0954C86.2997 16.1174 88.5616 18.4193 90.3785 22.426L94.0215 20.774C91.9384 16.1806 89.0503 12.9075 85.2153 11.3795C81.3856 9.85366 77.0061 10.2255 72.2681 12.0887L73.7319 15.8112ZM90.3704 22.4079C93.5635 29.6392 94.4944 39.7266 92.9143 52.8611L96.8857 53.3389C98.5056 39.8734 97.6365 28.9608 94.0296 20.7921L90.3704 22.4079ZM92.9161 52.8464C91.2392 65.9662 87.9455 77.0716 83.0843 86.2108L86.6158 88.0892C91.7545 78.4284 95.1608 66.8338 96.8839 53.3536L92.9161 52.8464ZM82.9637 86.4853C79.3551 96.7259 73.6412 106.36 65.7908 115.388L68.8092 118.012C76.9588 108.64 82.9449 98.5741 86.7363 87.8147L82.9637 86.4853ZM65.767 115.416C62.7321 119.038 59.958 121.699 57.449 123.464L59.751 126.736C62.642 124.701 65.6679 121.762 68.833 117.984L65.767 115.416ZM57.3806 123.515C56.1327 124.475 55.141 125.11 54.3876 125.477C53.566 125.876 53.3125 125.815 53.4078 125.832L52.6922 129.768C53.8875 129.985 55.109 129.574 56.1374 129.073C57.234 128.54 58.4673 127.725 59.8194 126.685L57.3806 123.515ZM52.6578 125.839C50.6336 126.244 48.8019 126.65 47.1649 127.06L48.1351 130.94C49.6981 130.55 51.4664 130.156 53.4422 129.761L52.6578 125.839ZM47.1238 127.07C45.029 127.642 43.3146 127.9 41.95 127.9V131.9C43.7854 131.9 45.871 131.558 48.1762 130.93L47.1238 127.07ZM40.5358 128.486C40.4942 128.527 40.4652 128.551 40.45 128.562C40.4349 128.574 40.4366 128.571 40.4556 128.561L42.2444 132.139C42.6799 131.921 43.0506 131.628 43.3642 131.314L40.5358 128.486ZM39.9358 128.936C39.6219 129.25 39.4082 129.611 39.2612 129.906L42.8388 131.694C42.8602 131.652 42.8695 131.639 42.8641 131.647C42.8609 131.652 42.852 131.665 42.8367 131.684C42.8215 131.703 42.7977 131.731 42.7642 131.764L39.9358 128.936ZM40.4753 128.884L35.9753 130.234L37.1247 134.066L41.6247 132.716L40.4753 128.884ZM34.5654 131.902C34.5192 132.272 34.259 132.986 32.1649 133.51L33.1351 137.39C35.841 136.714 38.1808 135.228 38.5346 132.398L34.5654 131.902ZM32.09 133.53C30.0121 134.136 27.5488 134.29 24.6559 133.916L24.1441 137.884C27.4512 138.31 30.4879 138.164 33.21 137.37L32.09 133.53ZM24.6643 133.918C21.8796 133.546 19.0173 132.707 16.0732 131.377L14.4268 135.023C17.6827 136.493 20.9204 137.454 24.1357 137.882L24.6643 133.918ZM16.0235 131.356C13.2537 130.194 11.3135 128.552 10.065 126.471L6.63501 128.529C8.38648 131.448 11.0463 133.606 14.4765 135.044L16.0235 131.356ZM10.1776 126.688C7.79629 121.33 6.31056 117.175 5.6538 114.173L1.7462 115.027C2.48944 118.425 4.10371 122.87 6.52238 128.312L10.1776 126.688ZM5.66532 114.229C3.72237 103.932 3.89548 90.5751 6.27942 74.0862L2.32058 73.5138C-0.0954758 90.2249 -0.322366 104.068 1.73468 114.971L5.66532 114.229ZM6.27858 74.0919C8.05448 62.0553 11.2078 50.9309 15.7291 40.709L12.0709 39.091C7.39215 49.6691 4.14552 61.1447 2.32142 73.5081L6.27858 74.0919ZM15.74 40.6837C18.0154 35.3416 20.7914 29.5403 24.0717 23.278L20.5283 21.422C17.2086 27.7597 14.3846 33.6583 12.06 39.1163L15.74 40.6837ZM48.5611 38.4056C41.0626 53.4026 36.051 69.5072 33.5213 86.709L37.4787 87.291C39.949 70.4928 44.8374 54.7974 52.1389 40.1944L48.5611 38.4056ZM33.5181 86.7313C32.7006 92.7609 32.5422 98.4182 33.0595 103.695L37.0405 103.305C36.5578 98.3818 36.6994 93.0391 37.4819 87.2687L33.5181 86.7313ZM35.05 105.5H35.35V101.5H35.05V105.5ZM36.7642 104.914L36.9142 104.764L34.0858 101.936L33.9358 102.086L36.7642 104.914ZM37.1673 104.455C47.881 88.2829 55.966 70.7472 61.4215 51.8549L57.5785 50.7451C52.234 69.2528 44.319 86.4171 33.8327 102.245L37.1673 104.455ZM61.4275 51.8338C63.2478 45.2603 64.1141 39.8654 63.8972 35.7449L59.9028 35.9551C60.0859 39.4346 59.3522 44.3396 57.5725 50.7662L61.4275 51.8338ZM63.8993 35.7974C63.847 33.811 63.65 32.0796 63.2706 30.6496C62.8979 29.2447 62.2994 27.9405 61.3015 27.0257L58.5985 29.9743C58.8006 30.1595 59.1271 30.6303 59.4044 31.6754C59.675 32.6954 59.853 34.089 59.9007 35.9026L63.8993 35.7974ZM58.5358 27.0858C58.355 27.2666 58.2529 27.3564 58.2131 27.3883C58.1904 27.4064 58.228 27.3733 58.3108 27.326C58.3536 27.3016 58.44 27.255 58.561 27.211C58.6708 27.1711 58.8982 27.1 59.2 27.1V31.1C59.7775 31.1 60.1987 30.8542 60.2954 30.799C60.4657 30.7016 60.6096 30.5936 60.7119 30.5117C60.9221 30.3436 61.145 30.1334 61.3642 29.9142L58.5358 27.0858ZM59.2 29.1C60.9888 28.2055 60.9888 28.2055 60.9888 28.2055C60.9888 28.2055 60.9888 28.2055 60.9888 28.2055C60.9888 28.2055 60.9888 28.2055 60.9888 28.2055C60.9888 28.2055 60.9888 28.2055 60.9888 28.2055C60.9888 28.2055 60.9888 28.2055 60.9888 28.2055C60.9888 28.2055 60.9888 28.2055 60.9888 28.2055C60.9888 28.2055 60.9888 28.2055 60.9888 28.2055C60.9888 28.2055 60.9888 28.2055 60.9888 28.2055C60.9888 28.2054 60.9888 28.2054 60.9888 28.2054C60.9888 28.2054 60.9888 28.2054 60.9888 28.2054C60.9888 28.2054 60.9888 28.2054 60.9888 28.2054C60.9888 28.2054 60.9888 28.2054 60.9888 28.2054C60.9887 28.2053 60.9887 28.2053 60.9887 28.2053C60.9887 28.2053 60.9887 28.2053 60.9887 28.2053C60.9887 28.2053 60.9887 28.2053 60.9887 28.2053C60.9887 28.2052 60.9887 28.2052 60.9887 28.2052C60.9887 28.2052 60.9887 28.2052 60.9887 28.2052C60.9887 28.2052 60.9886 28.2051 60.9886 28.2051C60.9886 28.2051 60.9886 28.2051 60.9886 28.2051C60.9886 28.2051 60.9886 28.2051 60.9886 28.205C60.9886 28.205 60.9886 28.205 60.9886 28.205C60.9886 28.205 60.9886 28.205 60.9885 28.2049C60.9885 28.2049 60.9885 28.2049 60.9885 28.2049C60.9885 28.2049 60.9885 28.2048 60.9885 28.2048C60.9885 28.2048 60.9885 28.2048 60.9885 28.2048C60.9884 28.2048 60.9884 28.2047 60.9884 28.2047C60.9884 28.2047 60.9884 28.2047 60.9884 28.2047C60.9884 28.2046 60.9884 28.2046 60.9884 28.2046C60.9884 28.2046 60.9883 28.2045 60.9883 28.2045C60.9883 28.2045 60.9883 28.2045 60.9883 28.2044C60.9883 28.2044 60.9883 28.2044 60.9883 28.2044C60.9883 28.2043 60.9882 28.2043 60.9882 28.2043C60.9882 28.2043 60.9882 28.2042 60.9882 28.2042C60.9882 28.2042 60.9882 28.2042 60.9881 28.2041C60.9881 28.2041 60.9881 28.2041 60.9881 28.2041C60.9881 28.204 60.9881 28.204 60.9881 28.204C60.988 28.2039 60.988 28.2039 60.988 28.2039C60.988 28.2039 60.988 28.2038 60.988 28.2038C60.988 28.2038 60.9879 28.2037 60.9879 28.2037C60.9879 28.2037 60.9879 28.2037 60.9879 28.2036C60.9879 28.2036 60.9879 28.2036 60.9878 28.2035C60.9878 28.2035 60.9878 28.2035 60.9878 28.2034C60.9878 28.2034 60.9878 28.2034 60.9877 28.2033C60.9877 28.2033 60.9877 28.2033 60.9877 28.2032C60.9877 28.2032 60.9877 28.2032 60.9876 28.2031C60.9876 28.2031 60.9876 28.203 60.9876 28.203C60.9876 28.203 60.9875 28.2029 60.9875 28.2029C60.9875 28.2029 60.9875 28.2028 60.9875 28.2028C60.9875 28.2028 60.9874 28.2027 60.9874 28.2027C60.9874 28.2026 60.9874 28.2026 60.9874 28.2026C60.9873 28.2025 60.9873 28.2025 60.9873 28.2025C60.9873 28.2024 60.9873 28.2024 60.9872 28.2023C60.9872 28.2023 60.9872 28.2022 60.9872 28.2022C60.9872 28.2022 60.9871 28.2021 60.9871 28.2021C60.9871 28.202 60.9871 28.202 60.9871 28.202C60.987 28.2019 60.987 28.2019 60.987 28.2018C60.987 28.2018 60.9869 28.2017 60.9869 28.2017C60.9869 28.2017 60.9869 28.2016 60.9869 28.2016C60.9868 28.2015 60.9868 28.2015 60.9868 28.2014C60.9868 28.2014 60.9867 28.2013 60.9867 28.2013C60.9867 28.2012 60.9867 28.2012 60.9866 28.2011C60.9866 28.2011 60.9866 28.201 60.9866 28.201C60.9866 28.201 60.9865 28.2009 60.9865 28.2009C60.9865 28.2008 60.9865 28.2008 60.9864 28.2007C60.9864 28.2007 60.9864 28.2006 60.9864 28.2006C60.9863 28.2005 60.9863 28.2005 60.9863 28.2004C60.9863 28.2004 60.9862 28.2003 60.9862 28.2003C60.9862 28.2002 60.9861 28.2001 60.9861 28.2001C60.9861 28.2 60.9861 28.2 60.986 28.1999C60.986 28.1999 60.986 28.1998 60.986 28.1998C60.9859 28.1997 60.9859 28.1997 60.9859 28.1996C60.9859 28.1996 60.9858 28.1995 60.9858 28.1994C60.9858 28.1994 60.9857 28.1993 60.9857 28.1993C60.9857 28.1992 60.9857 28.1992 60.9856 28.1991C60.9856 28.1991 60.9856 28.199 60.9855 28.1989C60.9855 28.1989 60.9855 28.1988 60.9855 28.1988C60.9854 28.1987 60.9854 28.1986 60.9854 28.1986C60.9853 28.1985 60.9853 28.1985 60.9853 28.1984C60.9852 28.1983 60.9852 28.1983 60.9852 28.1982C60.9852 28.1982 60.9851 28.1981 60.9851 28.198C60.9851 28.198 60.985 28.1979 60.985 28.1979C60.985 28.1978 60.9849 28.1977 60.9849 28.1977C60.9849 28.1976 60.9848 28.1975 60.9848 28.1975C60.9848 28.1974 60.9847 28.1973 60.9847 28.1973C60.9847 28.1972 60.9846 28.1971 60.9846 28.1971C60.9846 28.197 60.9846 28.1969 60.9845 28.1969C60.9845 28.1968 60.9845 28.1967 60.9844 28.1967C60.9844 28.1966 60.9843 28.1965 60.9843 28.1965C60.9843 28.1964 60.9842 28.1963 60.9842 28.1963C60.9842 28.1962 60.9841 28.1961 60.9841 28.1961C60.9841 28.196 60.984 28.1959 60.984 28.1959C60.984 28.1958 60.9839 28.1957 60.9839 28.1956C60.9839 28.1956 60.9838 28.1955 60.9838 28.1954C60.9838 28.1954 60.9837 28.1953 60.9837 28.1952C60.9836 28.1951 60.9836 28.1951 60.9836 28.195C60.9835 28.1949 60.9835 28.1948 60.9835 28.1948C60.9834 28.1947 60.9834 28.1946 60.9834 28.1946C60.9833 28.1945 60.9833 28.1944 60.9832 28.1943C60.9832 28.1943 60.9832 28.1942 60.9831 28.1941C60.9831 28.194 60.983 28.1939 60.983 28.1939C60.983 28.1938 60.9829 28.1937 60.9829 28.1936C60.9829 28.1936 60.9828 28.1935 60.9828 28.1934C60.9827 28.1933 60.9827 28.1932 60.9827 28.1932C60.9826 28.1931 60.9826 28.193 60.9825 28.1929C60.9825 28.1928 60.9825 28.1928 60.9824 28.1927C60.9824 28.1926 60.9823 28.1925 60.9823 28.1924C60.9823 28.1924 60.9822 28.1923 60.9822 28.1922C60.9821 28.1921 60.9821 28.192 60.982 28.1919C60.982 28.1919 60.982 28.1918 60.9819 28.1917C60.9819 28.1916 60.9818 28.1915 60.9818 28.1914C60.9818 28.1914 60.9817 28.1913 60.9817 28.1912C60.9816 28.1911 60.9816 28.191 60.9815 28.1909C60.9815 28.1908 60.9815 28.1908 60.9814 28.1907C60.9814 28.1906 60.9813 28.1905 60.9813 28.1904C60.9812 28.1903 60.9812 28.1902 60.9811 28.1901C60.9811 28.1901 60.9811 28.19 60.981 28.1899C60.981 28.1898 60.9809 28.1897 60.9809 28.1896C60.9808 28.1895 60.9808 28.1894 60.9807 28.1893C60.9807 28.1892 60.9807 28.1892 60.9806 28.1891C60.9806 28.189 60.9805 28.1889 60.9805 28.1888C60.9804 28.1887 60.9804 28.1886 60.9803 28.1885C60.9803 28.1884 60.9802 28.1883 60.9802 28.1882C60.9801 28.1881 60.9801 28.188 60.98 28.188C60.98 28.1879 60.98 28.1878 60.9799 28.1877C60.9799 28.1876 60.9798 28.1875 60.9798 28.1874C60.9797 28.1873 60.9797 28.1872 60.9796 28.1871C60.9796 28.187 60.9795 28.1869 60.9795 28.1868C60.9794 28.1867 60.9794 28.1866 60.9793 28.1865C60.9793 28.1864 60.9792 28.1863 60.9792 28.1862C60.9791 28.1861 60.9791 28.186 60.979 28.1859C60.979 28.1858 60.9789 28.1857 60.9789 28.1856C60.9788 28.1855 60.9788 28.1854 60.9787 28.1853C60.9787 28.1852 60.9786 28.1851 60.9786 28.185C60.9785 28.1849 60.9785 28.1848 60.9784 28.1847C60.9784 28.1846 60.9783 28.1845 60.9783 28.1844C60.9782 28.1843 60.9782 28.1842 60.9781 28.1841C60.9781 28.184 60.978 28.1839 60.978 28.1838C60.9779 28.1836 60.9778 28.1835 60.9778 28.1834C60.9777 28.1833 60.9777 28.1832 60.9776 28.1831C60.9776 28.183 60.9775 28.1829 60.9775 28.1828C60.9774 28.1827 60.9774 28.1826 60.9773 28.1825C60.9773 28.1824 60.9772 28.1823 60.9771 28.1821C60.9771 28.182 60.977 28.1819 60.977 28.1818C60.9769 28.1817 60.9769 28.1816 60.9768 28.1815C60.9768 28.1814 60.9767 28.1813 60.9767 28.1812C60.9766 28.181 60.9765 28.1809 60.9765 28.1808C60.9764 28.1807 60.9764 28.1806 60.9763 28.1805C60.9763 28.1804 60.9762 28.1803 60.9761 28.1801C60.9761 28.18 60.976 28.1799 60.976 28.1798C60.9759 28.1797 60.9759 28.1796 60.9758 28.1795C60.9757 28.1793 60.9757 28.1792 60.9756 28.1791C60.9756 28.179 60.9755 28.1789 60.9755 28.1788C60.9754 28.1786 60.9753 28.1785 60.9753 28.1784C60.9752 28.1783 60.9752 28.1782 60.9751 28.178C60.975 28.1779 60.975 28.1778 60.9749 28.1777C60.9749 28.1776 60.9748 28.1775 60.9747 28.1773C60.9747 28.1772 60.9746 28.1771 60.9746 28.177C60.9745 28.1769 60.9744 28.1767 60.9744 28.1766C60.9743 28.1765 60.9743 28.1764 60.9742 28.1762C60.9741 28.1761 60.9741 28.176 60.974 28.1759C60.974 28.1758 60.9739 28.1756 60.9738 28.1755C60.9738 28.1754 60.9737 28.1753 60.9736 28.1751C60.9736 28.175 60.9735 28.1749 60.9735 28.1748C60.9734 28.1746 60.9733 28.1745 60.9733 28.1744C60.9732 28.1743 60.9731 28.1741 60.9731 28.174C60.973 28.1739 60.973 28.1738 60.9729 28.1736C60.9728 28.1735 60.9728 28.1734 60.9727 28.1732C60.9726 28.1731 60.9726 28.173 60.9725 28.1729C60.9724 28.1727 60.9724 28.1726 60.9723 28.1725C60.9722 28.1723 60.9722 28.1722 60.9721 28.1721C60.972 28.172 60.972 28.1718 60.9719 28.1717C60.9719 28.1716 60.9718 28.1714 60.9717 28.1713C60.9717 28.1712 60.9716 28.171 60.9715 28.1709C60.9715 28.1708 60.9714 28.1706 60.9713 28.1705C60.9713 28.1704 60.9712 28.1702 60.9711 28.1701C60.9711 28.17 60.971 28.1698 60.9709 28.1697C60.9709 28.1696 60.9708 28.1694 60.9707 28.1693C60.9706 28.1692 60.9706 28.169 60.9705 28.1689C60.9704 28.1687 60.9704 28.1686 60.9703 28.1685C60.9702 28.1683 60.9702 28.1682 60.9701 28.1681C60.97 28.1679 60.97 28.1678 60.9699 28.1676C60.9698 28.1675 60.9698 28.1674 60.9697 28.1672C60.9696 28.1671 60.9695 28.1669 60.9695 28.1668C60.9694 28.1667 60.9693 28.1665 60.9693 28.1664C60.9692 28.1662 60.9691 28.1661 60.9691 28.166C60.969 28.1658 60.9689 28.1657 60.9688 28.1655C60.9688 28.1654 60.9687 28.1652 60.9686 28.1651C60.9686 28.165 60.9685 28.1648 60.9684 28.1647C60.9683 28.1645 60.9683 28.1644 60.9682 28.1642C60.9681 28.1641 60.968 28.1639 60.968 28.1638C60.9679 28.1637 60.9678 28.1635 60.9678 28.1634C60.9677 28.1632 60.9676 28.1631 60.9675 28.1629C60.9675 28.1628 60.9674 28.1626 60.9673 28.1625C60.9672 28.1623 60.9672 28.1622 60.9671 28.162C60.967 28.1619 60.9669 28.1617 60.9669 28.1616C60.9668 28.1614 60.9667 28.1613 60.9666 28.1611C60.9666 28.161 60.9665 28.1608 60.9664 28.1607C60.9663 28.1605 60.9663 28.1604 60.9662 28.1602C60.9661 28.1601 60.966 28.1599 60.966 28.1598C60.9659 28.1596 60.9658 28.1595 60.9657 28.1593C60.9657 28.1592 60.9656 28.159 60.9655 28.1589C60.9654 28.1587 60.9653 28.1585 60.9653 28.1584C60.9652 28.1582 60.9651 28.1581 60.965 28.1579C60.965 28.1578 60.9649 28.1576 60.9648 28.1574C60.9647 28.1573 60.9646 28.1571 60.9646 28.157C60.9645 28.1568 60.9644 28.1567 60.9643 28.1565C60.9642 28.1563 60.9642 28.1562 60.9641 28.156C60.964 28.1559 60.9639 28.1557 60.9639 28.1556C60.9638 28.1554 60.9637 28.1552 60.9636 28.1551C60.9635 28.1549 60.9635 28.1548 60.9634 28.1546C60.9633 28.1544 60.9632 28.1543 60.9631 28.1541C60.963 28.1539 60.963 28.1538 60.9629 28.1536C60.9628 28.1535 60.9627 28.1533 60.9626 28.1531C60.9626 28.153 60.9625 28.1528 60.9624 28.1526C60.9623 28.1525 60.9622 28.1523 60.9622 28.1522C60.9621 28.152 60.962 28.1518 60.9619 28.1517C60.9618 28.1515 60.9617 28.1513 60.9617 28.1512C60.9616 28.151 60.9615 28.1508 60.9614 28.1507C60.9613 28.1505 60.9612 28.1503 60.9612 28.1502C60.9611 28.15 60.961 28.1498 60.9609 28.1497C60.9608 28.1495 60.9607 28.1493 60.9606 28.1491C60.9606 28.149 60.9605 28.1488 60.9604 28.1486C60.9603 28.1485 60.9602 28.1483 60.9601 28.1481C60.96 28.1479 60.96 28.1478 60.9599 28.1476C60.9598 28.1474 60.9597 28.1473 60.9596 28.1471C60.9595 28.1469 60.9594 28.1468 60.9594 28.1466C60.9593 28.1464 60.9592 28.1462 60.9591 28.1461C60.959 28.1459 60.9589 28.1457 60.9588 28.1455C60.9588 28.1454 60.9587 28.1452 60.9586 28.145C60.9585 28.1448 60.9584 28.1447 60.9583 28.1445C60.9582 28.1443 60.9581 28.1441 60.958 28.144C60.958 28.1438 60.9579 28.1436 60.9578 28.1434C60.9577 28.1432 60.9576 28.1431 60.9575 28.1429C60.9574 28.1427 60.9573 28.1425 60.9572 28.1423C60.9572 28.1422 60.9571 28.142 60.957 28.1418C60.9569 28.1416 60.9568 28.1414 60.9567 28.1413C60.9566 28.1411 60.9565 28.1409 60.9564 28.1407C60.9563 28.1405 60.9563 28.1404 60.9562 28.1402C60.9561 28.14 60.956 28.1398 60.9559 28.1396C60.9558 28.1394 60.9557 28.1393 60.9556 28.1391C60.9555 28.1389 60.9554 28.1387 60.9553 28.1385C60.9552 28.1383 60.9552 28.1382 60.9551 28.138C60.955 28.1378 60.9549 28.1376 60.9548 28.1374C60.9547 28.1372 60.9546 28.137 60.9545 28.1368C60.9544 28.1367 60.9543 28.1365 60.9542 28.1363C60.9541 28.1361 60.954 28.1359 60.9539 28.1357C60.9538 28.1355 60.9537 28.1353 60.9537 28.1352C60.9536 28.135 60.9535 28.1348 60.9534 28.1346C60.9533 28.1344 60.9532 28.1342 60.9531 28.134C60.953 28.1338 60.9529 28.1336 60.9528 28.1334C60.9527 28.1333 60.9526 28.1331 60.9525 28.1329C60.9524 28.1327 60.9523 28.1325 60.9522 28.1323C60.9521 28.1321 60.952 28.1319 60.9519 28.1317C60.9518 28.1315 60.9517 28.1313 60.9516 28.1311C60.9515 28.1309 60.9514 28.1307 60.9513 28.1305C60.9512 28.1303 60.9512 28.1302 60.9511 28.13C60.951 28.1298 60.9509 28.1296 60.9508 28.1294C60.9507 28.1292 60.9506 28.129 60.9505 28.1288C60.9504 28.1286 60.9503 28.1284 60.9502 28.1282C60.9501 28.128 60.95 28.1278 60.9499 28.1276C60.9498 28.1274 60.9497 28.1272 60.9496 28.127C60.9495 28.1268 60.9494 28.1266 60.9493 28.1264C60.9492 28.1262 60.9491 28.126 60.949 28.1258C60.9489 28.1256 60.9488 28.1254 60.9487 28.1252C60.9486 28.125 60.9485 28.1248 60.9484 28.1246C60.9483 28.1244 60.9482 28.1242 60.9481 28.124C60.948 28.1238 60.9478 28.1236 60.9478 28.1234C60.9476 28.1231 60.9475 28.1229 60.9474 28.1227C60.9473 28.1225 60.9472 28.1223 60.9471 28.1221C60.947 28.1219 60.9469 28.1217 60.9468 28.1215C60.9467 28.1213 60.9466 28.1211 60.9465 28.1209C60.9464 28.1207 60.9463 28.1205 60.9462 28.1203C60.9461 28.12 60.946 28.1198 60.9459 28.1196C60.9458 28.1194 60.9457 28.1192 60.9456 28.119C60.9455 28.1188 60.9454 28.1186 60.9453 28.1184C60.9452 28.1182 60.945 28.118 60.9449 28.1177C60.9448 28.1175 60.9447 28.1173 60.9446 28.1171C60.9445 28.1169 60.9444 28.1167 60.9443 28.1165C60.9442 28.1162 60.9441 28.116 60.944 28.1158C60.9439 28.1156 60.9438 28.1154 60.9437 28.1152C60.9436 28.115 60.9435 28.1148 60.9433 28.1145C60.9432 28.1143 60.9431 28.1141 60.943 28.1139C60.9429 28.1137 60.9428 28.1135 60.9427 28.1132C60.9426 28.113 60.9425 28.1128 60.9424 28.1126C60.9423 28.1124 60.9422 28.1122 60.942 28.1119C60.9419 28.1117 60.9418 28.1115 60.9417 28.1113C60.9416 28.1111 60.9415 28.1108 60.9414 28.1106C60.9413 28.1104 60.9412 28.1102 60.9411 28.11C60.9409 28.1097 60.9408 28.1095 60.9407 28.1093C60.9406 28.1091 60.9405 28.1089 60.9404 28.1086C60.9403 28.1084 60.9402 28.1082 60.9401 28.108C60.9399 28.1077 60.9398 28.1075 60.9397 28.1073C60.9396 28.1071 60.9395 28.1068 60.9394 28.1066C60.9393 28.1064 60.9392 28.1062 60.939 28.106C60.9389 28.1057 60.9388 28.1055 60.9387 28.1053C60.9386 28.105 60.9385 28.1048 60.9384 28.1046C60.9383 28.1044 60.9381 28.1041 60.938 28.1039C60.9379 28.1037 60.9378 28.1035 60.9377 28.1032C60.9376 28.103 60.9375 28.1028 60.9373 28.1025C60.9372 28.1023 60.9371 28.1021 60.937 28.1019C60.9369 28.1016 60.9368 28.1014 60.9367 28.1012C60.9365 28.1009 60.9364 28.1007 60.9363 28.1005C60.9362 28.1003 60.9361 28.1 60.936 28.0998C60.9358 28.0996 60.9357 28.0993 60.9356 28.0991C60.9355 28.0989 60.9354 28.0986 60.9353 28.0984C60.9352 28.0982 60.935 28.0979 60.9349 28.0977C60.9348 28.0975 60.9347 28.0972 60.9346 28.097C60.9344 28.0967 60.9343 28.0965 60.9342 28.0963C60.9341 28.096 60.934 28.0958 60.9339 28.0956C60.9337 28.0953 60.9336 28.0951 60.9335 28.0949C60.9334 28.0946 60.9333 28.0944 60.9331 28.0941C60.933 28.0939 60.9329 28.0937 60.9328 28.0934C60.9327 28.0932 60.9325 28.0929 60.9324 28.0927C60.9323 28.0925 60.9322 28.0922 60.9321 28.092C60.9319 28.0918 60.9318 28.0915 60.9317 28.0913C60.9316 28.091 60.9315 28.0908 60.9313 28.0905C60.9312 28.0903 60.9311 28.0901 60.931 28.0898C60.9309 28.0896 60.9307 28.0893 60.9306 28.0891C60.9305 28.0888 60.9304 28.0886 60.9303 28.0884C60.9301 28.0881 60.93 28.0879 60.9299 28.0876C60.9298 28.0874 60.9296 28.0871 60.9295 28.0869C60.9294 28.0866 60.9293 28.0864 60.9291 28.0862C60.929 28.0859 60.9289 28.0857 60.9288 28.0854C60.9287 28.0852 60.9285 28.0849 60.9284 28.0847C60.9283 28.0844 60.9282 28.0842 60.928 28.0839C60.9279 28.0837 60.9278 28.0834 60.9277 28.0832C60.9275 28.0829 60.9274 28.0827 60.9273 28.0824C60.9272 28.0822 60.927 28.0819 60.9269 28.0817C60.9268 28.0814 60.9267 28.0812 60.9265 28.0809C60.9264 28.0807 60.9263 28.0804 60.9262 28.0802C60.926 28.0799 60.9259 28.0797 60.9258 28.0794C60.9256 28.0792 60.9255 28.0789 60.9254 28.0786C60.9253 28.0784 60.9251 28.0781 60.925 28.0779C60.9249 28.0776 60.9248 28.0774 60.9246 28.0771C60.9245 28.0769 60.9244 28.0766 60.9242 28.0763C60.9241 28.0761 60.924 28.0758 60.9239 28.0756C60.9237 28.0753 60.9236 28.0751 60.9235 28.0748C60.9233 28.0745 60.9232 28.0743 60.9231 28.074C60.923 28.0738 60.9228 28.0735 60.9227 28.0732C60.9226 28.073 60.9224 28.0727 60.9223 28.0725C60.9222 28.0722 60.9221 28.072 60.9219 28.0717C60.9218 28.0714 60.9217 28.0712 60.9215 28.0709C60.9214 28.0706 60.9213 28.0704 60.9211 28.0701C60.921 28.0699 60.9209 28.0696 60.9207 28.0693C60.9206 28.0691 60.9205 28.0688 60.9203 28.0685C60.9202 28.0683 60.9201 28.068 60.9199 28.0677C60.9198 28.0675 60.9197 28.0672 60.9195 28.067C60.9194 28.0667 60.9193 28.0664 60.9192 28.0662C60.919 28.0659 60.9189 28.0656 60.9188 28.0654C60.9186 28.0651 60.9185 28.0648 60.9184 28.0646C60.9182 28.0643 60.9181 28.064 60.9179 28.0638C60.9178 28.0635 60.9177 28.0632 60.9175 28.0629C60.9174 28.0627 60.9173 28.0624 60.9171 28.0621C60.917 28.0619 60.9169 28.0616 60.9167 28.0613C60.9166 28.0611 60.9165 28.0608 60.9163 28.0605C60.9162 28.0602 60.9161 28.06 60.9159 28.0597C60.9158 28.0594 60.9156 28.0592 60.9155 28.0589C60.9154 28.0586 60.9152 28.0583 60.9151 28.0581C60.915 28.0578 60.9148 28.0575 60.9147 28.0572C60.9146 28.057 60.9144 28.0567 60.9143 28.0564C60.9141 28.0561 60.914 28.0559 60.9139 28.0556C60.9137 28.0553 60.9136 28.055 60.9134 28.0547C60.9133 28.0545 60.9132 28.0542 60.913 28.0539C60.9129 28.0536 60.9128 28.0534 60.9126 28.0531C60.9125 28.0528 60.9123 28.0525 60.9122 28.0522C60.9121 28.052 60.9119 28.0517 60.9118 28.0514C60.9116 28.0511 60.9115 28.0508 60.9114 28.0506C60.9112 28.0503 60.9111 28.05 60.9109 28.0497C60.9108 28.0494 60.9107 28.0492 60.9105 28.0489C60.9104 28.0486 60.9102 28.0483 60.9101 28.048C60.9099 28.0477 60.9098 28.0475 60.9097 28.0472C60.9095 28.0469 60.9094 28.0466 60.9092 28.0463C60.9091 28.046 60.909 28.0458 60.9088 28.0455C60.9087 28.0452 60.9085 28.0449 60.9084 28.0446C60.9082 28.0443 60.9081 28.044 60.908 28.0438C60.9078 28.0435 60.9077 28.0432 60.9075 28.0429C60.9074 28.0426 60.9072 28.0423 60.9071 28.042C60.9069 28.0417 60.9068 28.0415 60.9067 28.0412C60.9065 28.0409 60.9064 28.0406 60.9062 28.0403C60.9061 28.04 60.9059 28.0397 60.9058 28.0394C60.9056 28.0391 60.9055 28.0388 60.9053 28.0386C60.9052 28.0383 60.9051 28.038 60.9049 28.0377C60.9048 28.0374 60.9046 28.0371 60.9045 28.0368C60.9043 28.0365 60.9042 28.0362 60.904 28.0359C60.9039 28.0356 60.9037 28.0353 60.9036 28.035C60.9034 28.0347 60.9033 28.0344 60.9031 28.0341C60.903 28.0339 60.9029 28.0336 60.9027 28.0333C60.9026 28.033 60.9024 28.0327 60.9023 28.0324C60.9021 28.0321 60.902 28.0318 60.9018 28.0315C60.9017 28.0312 60.9015 28.0309 60.9014 28.0306C60.9012 28.0303 60.9011 28.03 60.9009 28.0297C60.9008 28.0294 60.9006 28.0291 60.9005 28.0288C60.9003 28.0285 60.9002 28.0282 60.9 28.0279C60.8999 28.0276 60.8997 28.0273 60.8996 28.027C60.8994 28.0267 60.8993 28.0264 60.8991 28.0261C60.899 28.0258 60.8988 28.0255 60.8987 28.0252C60.8985 28.0249 60.8984 28.0246 60.8982 28.0243C60.8981 28.024 60.8979 28.0237 60.8978 28.0234C60.8976 28.023 60.8974 28.0227 60.8973 28.0224C60.8971 28.0221 60.897 28.0218 60.8968 28.0215C60.8967 28.0212 60.8965 28.0209 60.8964 28.0206C60.8962 28.0203 60.8961 28.02 60.8959 28.0197C60.8958 28.0194 60.8956 28.0191 60.8955 28.0188C60.8953 28.0185 60.8951 28.0181 60.895 28.0178C60.8948 28.0175 60.8947 28.0172 60.8945 28.0169C60.8944 28.0166 60.8942 28.0163 60.8941 28.016C60.8939 28.0157 60.8937 28.0154 60.8936 28.015C60.8934 28.0147 60.8933 28.0144 60.8931 28.0141C60.893 28.0138 60.8928 28.0135 60.8927 28.0132C60.8925 28.0129 60.8923 28.0125 60.8922 28.0122C60.892 28.0119 60.8919 28.0116 60.8917 28.0113C60.8916 28.011 60.8914 28.0107 60.8912 28.0103C60.8911 28.01 60.8909 28.0097 60.8908 28.0094C60.8906 28.0091 60.8905 28.0088 60.8903 28.0085C60.8901 28.0081 60.89 28.0078 60.8898 28.0075C60.8897 28.0072 60.8895 28.0069 60.8893 28.0065C60.8892 28.0062 60.889 28.0059 60.8889 28.0056C60.8887 28.0053 60.8885 28.005 60.8884 28.0046C60.8882 28.0043 60.8881 28.004 60.8879 28.0037C60.8877 28.0033 60.8876 28.003 60.8874 28.0027C60.8873 28.0024 60.8871 28.0021 60.8869 28.0017C60.8868 28.0014 60.8866 28.0011 60.8865 28.0008C60.8863 28.0005 60.8861 28.0001 60.886 27.9998C60.8858 27.9995 60.8857 27.9992 60.8855 27.9988C60.8853 27.9985 60.8852 27.9982 60.885 27.9979C60.8848 27.9975 60.8847 27.9972 60.8845 27.9969C60.8844 27.9966 60.8842 27.9962 60.884 27.9959C60.8839 27.9956 60.8837 27.9953 60.8835 27.9949C60.8834 27.9946 60.8832 27.9943 60.883 27.9939C60.8829 27.9936 60.8827 27.9933 60.8826 27.993C60.8824 27.9926 60.8822 27.9923 60.8821 27.992C60.8819 27.9916 60.8817 27.9913 60.8816 27.991C60.8814 27.9907 60.8812 27.9903 60.8811 27.99C60.8809 27.9897 60.8807 27.9893 60.8806 27.989C60.8804 27.9887 60.8802 27.9883 60.8801 27.988C60.8799 27.9877 60.8797 27.9873 60.8796 27.987C60.8794 27.9867 60.8792 27.9863 60.8791 27.986C60.8789 27.9857 60.8787 27.9853 60.8786 27.985C60.8784 27.9847 60.8782 27.9843 60.8781 27.984C60.8779 27.9837 60.8777 27.9833 60.8776 27.983C60.8774 27.9826 60.8772 27.9823 60.8771 27.982C60.8769 27.9816 60.8767 27.9813 60.8765 27.981C60.8764 27.9806 60.8762 27.9803 60.876 27.9799C60.8759 27.9796 60.8757 27.9793 60.8755 27.9789C60.8754 27.9786 60.8752 27.9782 60.875 27.9779C60.8749 27.9776 60.8747 27.9772 60.8745 27.9769C60.8743 27.9765 60.8742 27.9762 60.874 27.9759C60.8738 27.9755 60.8737 27.9752 60.8735 27.9748C60.8733 27.9745 60.8731 27.9742 60.873 27.9738C60.8728 27.9735 60.8726 27.9731 60.8725 27.9728C60.8723 27.9724 60.8721 27.9721 60.8719 27.9717C60.8718 27.9714 60.8716 27.971 60.8714 27.9707C60.8713 27.9704 60.8711 27.97 60.8709 27.9697C60.8707 27.9693 60.8706 27.969 60.8704 27.9686C60.8702 27.9683 60.87 27.9679 60.8699 27.9676C60.8697 27.9672 60.8695 27.9669 60.8693 27.9665C60.8692 27.9662 60.869 27.9658 60.8688 27.9655C60.8686 27.9651 60.8685 27.9648 60.8683 27.9644C60.8681 27.9641 60.8679 27.9637 60.8678 27.9634C60.8676 27.963 60.8674 27.9627 60.8672 27.9623C60.8671 27.962 60.8669 27.9616 60.8667 27.9613C60.8665 27.9609 60.8664 27.9606 60.8662 27.9602C60.866 27.9599 60.8658 27.9595 60.8657 27.9592C60.8655 27.9588 60.8653 27.9585 60.8651 27.9581C60.8649 27.9577 60.8648 27.9574 60.8646 27.957C60.8644 27.9567 60.8642 27.9563 60.8641 27.956C60.8639 27.9556 60.8637 27.9553 60.8635 27.9549C60.8633 27.9545 60.8632 27.9542 60.863 27.9538C60.8628 27.9535 60.8626 27.9531 60.8624 27.9528C60.8623 27.9524 60.8621 27.952 60.8619 27.9517C60.8617 27.9513 60.8615 27.951 60.8614 27.9506C60.8612 27.9502 60.861 27.9499 60.8608 27.9495C60.8606 27.9492 60.8605 27.9488 60.8603 27.9484C60.8601 27.9481 60.8599 27.9477 60.8597 27.9473C60.8596 27.947 60.8594 27.9466 60.8592 27.9463C60.859 27.9459 60.8588 27.9455 60.8587 27.9452C60.8585 27.9448 60.8583 27.9444 60.8581 27.9441C60.8579 27.9437 60.8577 27.9433 60.8576 27.943C60.8574 27.9426 60.8572 27.9422 60.857 27.9419C60.8568 27.9415 60.8566 27.9411 60.8565 27.9408C60.8563 27.9404 60.8561 27.94 60.8559 27.9397C60.8557 27.9393 60.8555 27.9389 60.8554 27.9386C60.8552 27.9382 60.855 27.9378 60.8548 27.9375C60.8546 27.9371 60.8544 27.9367 60.8542 27.9364C60.8541 27.936 60.8539 27.9356 60.8537 27.9352C60.8535 27.9349 60.8533 27.9345 60.8531 27.9341C60.853 27.9338 60.8528 27.9334 60.8526 27.933C60.8524 27.9326 60.8522 27.9323 60.852 27.9319C60.8518 27.9315 60.8516 27.9312 60.8515 27.9308C60.8513 27.9304 60.8511 27.93 60.8509 27.9296C60.8507 27.9293 60.8505 27.9289 60.8503 27.9285C60.8501 27.9282 60.85 27.9278 60.8498 27.9274C60.8496 27.927 60.8494 27.9267 60.8492 27.9263C60.849 27.9259 60.8488 27.9255 60.8486 27.9251C60.8484 27.9248 60.8483 27.9244 60.8481 27.924C60.8479 27.9236 60.8477 27.9232 60.8475 27.9229C60.8473 27.9225 60.8471 27.9221 60.8469 27.9217C60.8467 27.9213 60.8466 27.921 60.8464 27.9206C60.8462 27.9202 60.846 27.9198 60.8458 27.9194C60.8456 27.9191 60.8454 27.9187 60.8452 27.9183C60.845 27.9179 60.8448 27.9175 60.8446 27.9172C60.8445 27.9168 60.8443 27.9164 60.8441 27.916C60.8439 27.9156 60.8437 27.9152 60.8435 27.9148C60.8433 27.9145 60.8431 27.9141 60.8429 27.9137C60.8427 27.9133 60.8425 27.9129 60.8423 27.9125C60.8421 27.9122 60.842 27.9118 60.8418 27.9114C60.8416 27.911 60.8414 27.9106 60.8412 27.9102C60.841 27.9098 60.8408 27.9094 60.8406 27.909C60.8404 27.9087 60.8402 27.9083 60.84 27.9079C60.8398 27.9075 60.8396 27.9071 60.8394 27.9067C60.8392 27.9063 60.839 27.9059 60.8388 27.9055L57.2612 29.6944C57.2614 29.6948 57.2615 29.6952 57.2617 29.6956C57.2619 29.696 57.2621 29.6964 57.2623 29.6968C57.2625 29.6972 57.2627 29.6976 57.2629 29.698C57.2631 29.6983 57.2633 29.6987 57.2635 29.6991C57.2637 29.6995 57.2639 29.6999 57.2641 29.7003C57.2643 29.7007 57.2645 29.701 57.2647 29.7014C57.2648 29.7018 57.265 29.7022 57.2652 29.7026C57.2654 29.703 57.2656 29.7034 57.2658 29.7038C57.266 29.7041 57.2662 29.7045 57.2664 29.7049C57.2666 29.7053 57.2668 29.7057 57.267 29.706C57.2672 29.7064 57.2673 29.7068 57.2675 29.7072C57.2677 29.7076 57.2679 29.708 57.2681 29.7083C57.2683 29.7087 57.2685 29.7091 57.2687 29.7095C57.2689 29.7099 57.2691 29.7103 57.2692 29.7106C57.2694 29.711 57.2696 29.7114 57.2698 29.7118C57.27 29.7121 57.2702 29.7125 57.2704 29.7129C57.2706 29.7133 57.2708 29.7137 57.271 29.714C57.2711 29.7144 57.2713 29.7148 57.2715 29.7152C57.2717 29.7155 57.2719 29.7159 57.2721 29.7163C57.2723 29.7167 57.2725 29.717 57.2726 29.7174C57.2728 29.7178 57.273 29.7182 57.2732 29.7186C57.2734 29.7189 57.2736 29.7193 57.2738 29.7197C57.274 29.72 57.2741 29.7204 57.2743 29.7208C57.2745 29.7212 57.2747 29.7215 57.2749 29.7219C57.2751 29.7223 57.2753 29.7227 57.2754 29.723C57.2756 29.7234 57.2758 29.7238 57.276 29.7241C57.2762 29.7245 57.2764 29.7249 57.2766 29.7253C57.2767 29.7256 57.2769 29.726 57.2771 29.7264C57.2773 29.7267 57.2775 29.7271 57.2777 29.7275C57.2779 29.7278 57.278 29.7282 57.2782 29.7286C57.2784 29.7289 57.2786 29.7293 57.2788 29.7297C57.279 29.73 57.2791 29.7304 57.2793 29.7308C57.2795 29.7311 57.2797 29.7315 57.2799 29.7319C57.2801 29.7322 57.2802 29.7326 57.2804 29.733C57.2806 29.7333 57.2808 29.7337 57.281 29.7341C57.2811 29.7344 57.2813 29.7348 57.2815 29.7351C57.2817 29.7355 57.2819 29.7359 57.2821 29.7362C57.2822 29.7366 57.2824 29.737 57.2826 29.7373C57.2828 29.7377 57.283 29.738 57.2831 29.7384C57.2833 29.7388 57.2835 29.7391 57.2837 29.7395C57.2839 29.7398 57.284 29.7402 57.2842 29.7406C57.2844 29.7409 57.2846 29.7413 57.2848 29.7416C57.2849 29.742 57.2851 29.7424 57.2853 29.7427C57.2855 29.7431 57.2857 29.7434 57.2858 29.7438C57.286 29.7441 57.2862 29.7445 57.2864 29.7449C57.2865 29.7452 57.2867 29.7456 57.2869 29.7459C57.2871 29.7463 57.2873 29.7466 57.2874 29.747C57.2876 29.7474 57.2878 29.7477 57.288 29.7481C57.2881 29.7484 57.2883 29.7488 57.2885 29.7491C57.2887 29.7495 57.2888 29.7498 57.289 29.7502C57.2892 29.7505 57.2894 29.7509 57.2896 29.7512C57.2897 29.7516 57.2899 29.7519 57.2901 29.7523C57.2903 29.7526 57.2904 29.753 57.2906 29.7533C57.2908 29.7537 57.291 29.754 57.2911 29.7544C57.2913 29.7547 57.2915 29.7551 57.2917 29.7554C57.2918 29.7558 57.292 29.7561 57.2922 29.7565C57.2924 29.7568 57.2925 29.7572 57.2927 29.7575C57.2929 29.7579 57.293 29.7582 57.2932 29.7586C57.2934 29.7589 57.2936 29.7593 57.2937 29.7596C57.2939 29.7599 57.2941 29.7603 57.2943 29.7606C57.2944 29.761 57.2946 29.7613 57.2948 29.7617C57.2949 29.762 57.2951 29.7624 57.2953 29.7627C57.2955 29.763 57.2956 29.7634 57.2958 29.7637C57.296 29.7641 57.2961 29.7644 57.2963 29.7648C57.2965 29.7651 57.2967 29.7654 57.2968 29.7658C57.297 29.7661 57.2972 29.7665 57.2973 29.7668C57.2975 29.7671 57.2977 29.7675 57.2978 29.7678C57.298 29.7682 57.2982 29.7685 57.2984 29.7688C57.2985 29.7692 57.2987 29.7695 57.2989 29.7699C57.299 29.7702 57.2992 29.7705 57.2994 29.7709C57.2995 29.7712 57.2997 29.7715 57.2999 29.7719C57.3 29.7722 57.3002 29.7726 57.3004 29.7729C57.3005 29.7732 57.3007 29.7736 57.3009 29.7739C57.301 29.7742 57.3012 29.7746 57.3014 29.7749C57.3016 29.7752 57.3017 29.7756 57.3019 29.7759C57.3021 29.7762 57.3022 29.7766 57.3024 29.7769C57.3026 29.7772 57.3027 29.7776 57.3029 29.7779C57.303 29.7782 57.3032 29.7786 57.3034 29.7789C57.3035 29.7792 57.3037 29.7795 57.3039 29.7799C57.304 29.7802 57.3042 29.7805 57.3044 29.7809C57.3045 29.7812 57.3047 29.7815 57.3049 29.7819C57.305 29.7822 57.3052 29.7825 57.3054 29.7828C57.3055 29.7832 57.3057 29.7835 57.3058 29.7838C57.306 29.7842 57.3062 29.7845 57.3063 29.7848C57.3065 29.7851 57.3067 29.7855 57.3068 29.7858C57.307 29.7861 57.3072 29.7864 57.3073 29.7868C57.3075 29.7871 57.3076 29.7874 57.3078 29.7877C57.308 29.7881 57.3081 29.7884 57.3083 29.7887C57.3085 29.789 57.3086 29.7894 57.3088 29.7897C57.3089 29.79 57.3091 29.7903 57.3093 29.7906C57.3094 29.791 57.3096 29.7913 57.3097 29.7916C57.3099 29.7919 57.3101 29.7923 57.3102 29.7926C57.3104 29.7929 57.3105 29.7932 57.3107 29.7935C57.3109 29.7939 57.311 29.7942 57.3112 29.7945C57.3113 29.7948 57.3115 29.7951 57.3117 29.7954C57.3118 29.7958 57.312 29.7961 57.3121 29.7964C57.3123 29.7967 57.3125 29.797 57.3126 29.7973C57.3128 29.7977 57.3129 29.798 57.3131 29.7983C57.3132 29.7986 57.3134 29.7989 57.3136 29.7992C57.3137 29.7996 57.3139 29.7999 57.314 29.8002C57.3142 29.8005 57.3143 29.8008 57.3145 29.8011C57.3147 29.8014 57.3148 29.8018 57.315 29.8021C57.3151 29.8024 57.3153 29.8027 57.3154 29.803C57.3156 29.8033 57.3158 29.8036 57.3159 29.8039C57.3161 29.8043 57.3162 29.8046 57.3164 29.8049C57.3165 29.8052 57.3167 29.8055 57.3168 29.8058C57.317 29.8061 57.3171 29.8064 57.3173 29.8067C57.3175 29.807 57.3176 29.8074 57.3178 29.8077C57.3179 29.808 57.3181 29.8083 57.3182 29.8086C57.3184 29.8089 57.3185 29.8092 57.3187 29.8095C57.3188 29.8098 57.319 29.8101 57.3191 29.8104C57.3193 29.8107 57.3195 29.811 57.3196 29.8113C57.3198 29.8116 57.3199 29.812 57.3201 29.8123C57.3202 29.8126 57.3204 29.8129 57.3205 29.8132C57.3207 29.8135 57.3208 29.8138 57.321 29.8141C57.3211 29.8144 57.3213 29.8147 57.3214 29.815C57.3216 29.8153 57.3217 29.8156 57.3219 29.8159C57.322 29.8162 57.3222 29.8165 57.3223 29.8168C57.3225 29.8171 57.3226 29.8174 57.3228 29.8177C57.3229 29.818 57.3231 29.8183 57.3232 29.8186C57.3234 29.8189 57.3235 29.8192 57.3237 29.8195C57.3238 29.8198 57.324 29.8201 57.3241 29.8204C57.3243 29.8207 57.3244 29.821 57.3246 29.8213C57.3247 29.8216 57.3249 29.8219 57.325 29.8222C57.3252 29.8225 57.3253 29.8228 57.3255 29.823C57.3256 29.8233 57.3258 29.8236 57.3259 29.8239C57.326 29.8242 57.3262 29.8245 57.3263 29.8248C57.3265 29.8251 57.3266 29.8254 57.3268 29.8257C57.3269 29.826 57.3271 29.8263 57.3272 29.8266C57.3274 29.8269 57.3275 29.8272 57.3277 29.8274C57.3278 29.8277 57.3279 29.828 57.3281 29.8283C57.3282 29.8286 57.3284 29.8289 57.3285 29.8292C57.3287 29.8295 57.3288 29.8298 57.329 29.8301C57.3291 29.8303 57.3293 29.8306 57.3294 29.8309C57.3295 29.8312 57.3297 29.8315 57.3298 29.8318C57.33 29.8321 57.3301 29.8324 57.3303 29.8326C57.3304 29.8329 57.3305 29.8332 57.3307 29.8335C57.3308 29.8338 57.331 29.8341 57.3311 29.8344C57.3313 29.8347 57.3314 29.8349 57.3315 29.8352C57.3317 29.8355 57.3318 29.8358 57.332 29.8361C57.3321 29.8364 57.3323 29.8366 57.3324 29.8369C57.3325 29.8372 57.3327 29.8375 57.3328 29.8378C57.333 29.8381 57.3331 29.8383 57.3332 29.8386C57.3334 29.8389 57.3335 29.8392 57.3337 29.8395C57.3338 29.8397 57.334 29.84 57.3341 29.8403C57.3342 29.8406 57.3344 29.8409 57.3345 29.8411C57.3346 29.8414 57.3348 29.8417 57.3349 29.842C57.3351 29.8423 57.3352 29.8425 57.3353 29.8428C57.3355 29.8431 57.3356 29.8434 57.3358 29.8436C57.3359 29.8439 57.336 29.8442 57.3362 29.8445C57.3363 29.8447 57.3364 29.845 57.3366 29.8453C57.3367 29.8456 57.3369 29.8459 57.337 29.8461C57.3371 29.8464 57.3373 29.8467 57.3374 29.847C57.3375 29.8472 57.3377 29.8475 57.3378 29.8478C57.338 29.848 57.3381 29.8483 57.3382 29.8486C57.3384 29.8489 57.3385 29.8491 57.3386 29.8494C57.3388 29.8497 57.3389 29.8499 57.339 29.8502C57.3392 29.8505 57.3393 29.8508 57.3395 29.851C57.3396 29.8513 57.3397 29.8516 57.3399 29.8518C57.34 29.8521 57.3401 29.8524 57.3403 29.8526C57.3404 29.8529 57.3405 29.8532 57.3407 29.8535C57.3408 29.8537 57.3409 29.854 57.3411 29.8543C57.3412 29.8545 57.3413 29.8548 57.3415 29.8551C57.3416 29.8553 57.3417 29.8556 57.3419 29.8559C57.342 29.8561 57.3421 29.8564 57.3423 29.8566C57.3424 29.8569 57.3425 29.8572 57.3427 29.8574C57.3428 29.8577 57.3429 29.858 57.3431 29.8582C57.3432 29.8585 57.3433 29.8588 57.3434 29.859C57.3436 29.8593 57.3437 29.8595 57.3438 29.8598C57.344 29.8601 57.3441 29.8603 57.3442 29.8606C57.3444 29.8608 57.3445 29.8611 57.3446 29.8614C57.3448 29.8616 57.3449 29.8619 57.345 29.8622C57.3451 29.8624 57.3453 29.8627 57.3454 29.8629C57.3455 29.8632 57.3457 29.8634 57.3458 29.8637C57.3459 29.864 57.346 29.8642 57.3462 29.8645C57.3463 29.8647 57.3464 29.865 57.3466 29.8652C57.3467 29.8655 57.3468 29.8658 57.3469 29.866C57.3471 29.8663 57.3472 29.8665 57.3473 29.8668C57.3475 29.867 57.3476 29.8673 57.3477 29.8675C57.3478 29.8678 57.348 29.868 57.3481 29.8683C57.3482 29.8686 57.3483 29.8688 57.3485 29.8691C57.3486 29.8693 57.3487 29.8696 57.3488 29.8698C57.349 29.8701 57.3491 29.8703 57.3492 29.8706C57.3493 29.8708 57.3495 29.8711 57.3496 29.8713C57.3497 29.8716 57.3498 29.8718 57.35 29.8721C57.3501 29.8723 57.3502 29.8726 57.3503 29.8728C57.3505 29.8731 57.3506 29.8733 57.3507 29.8736C57.3508 29.8738 57.351 29.8741 57.3511 29.8743C57.3512 29.8746 57.3513 29.8748 57.3515 29.875C57.3516 29.8753 57.3517 29.8755 57.3518 29.8758C57.352 29.876 57.3521 29.8763 57.3522 29.8765C57.3523 29.8768 57.3524 29.877 57.3526 29.8773C57.3527 29.8775 57.3528 29.8777 57.3529 29.878C57.3531 29.8782 57.3532 29.8785 57.3533 29.8787C57.3534 29.879 57.3535 29.8792 57.3537 29.8794C57.3538 29.8797 57.3539 29.8799 57.354 29.8802C57.3541 29.8804 57.3543 29.8806 57.3544 29.8809C57.3545 29.8811 57.3546 29.8814 57.3547 29.8816C57.3549 29.8819 57.355 29.8821 57.3551 29.8823C57.3552 29.8826 57.3553 29.8828 57.3555 29.883C57.3556 29.8833 57.3557 29.8835 57.3558 29.8838C57.3559 29.884 57.3561 29.8842 57.3562 29.8845C57.3563 29.8847 57.3564 29.8849 57.3565 29.8852C57.3566 29.8854 57.3568 29.8856 57.3569 29.8859C57.357 29.8861 57.3571 29.8864 57.3572 29.8866C57.3573 29.8868 57.3575 29.8871 57.3576 29.8873C57.3577 29.8875 57.3578 29.8877 57.3579 29.888C57.358 29.8882 57.3582 29.8885 57.3583 29.8887C57.3584 29.8889 57.3585 29.8891 57.3586 29.8894C57.3587 29.8896 57.3589 29.8898 57.359 29.8901C57.3591 29.8903 57.3592 29.8905 57.3593 29.8908C57.3594 29.891 57.3595 29.8912 57.3597 29.8914C57.3598 29.8917 57.3599 29.8919 57.36 29.8921C57.3601 29.8924 57.3602 29.8926 57.3603 29.8928C57.3605 29.893 57.3606 29.8933 57.3607 29.8935C57.3608 29.8937 57.3609 29.894 57.361 29.8942C57.3611 29.8944 57.3613 29.8946 57.3614 29.8949C57.3615 29.8951 57.3616 29.8953 57.3617 29.8955C57.3618 29.8958 57.3619 29.896 57.362 29.8962C57.3621 29.8964 57.3623 29.8966 57.3624 29.8969C57.3625 29.8971 57.3626 29.8973 57.3627 29.8975C57.3628 29.8978 57.3629 29.898 57.363 29.8982C57.3631 29.8984 57.3633 29.8986 57.3634 29.8989C57.3635 29.8991 57.3636 29.8993 57.3637 29.8995C57.3638 29.8997 57.3639 29.9 57.364 29.9002C57.3641 29.9004 57.3642 29.9006 57.3644 29.9008C57.3645 29.9011 57.3646 29.9013 57.3647 29.9015C57.3648 29.9017 57.3649 29.9019 57.365 29.9021C57.3651 29.9024 57.3652 29.9026 57.3653 29.9028C57.3654 29.903 57.3655 29.9032 57.3657 29.9034C57.3658 29.9036 57.3659 29.9039 57.366 29.9041C57.3661 29.9043 57.3662 29.9045 57.3663 29.9047C57.3664 29.9049 57.3665 29.9052 57.3666 29.9054C57.3667 29.9056 57.3668 29.9058 57.3669 29.906C57.367 29.9062 57.3671 29.9064 57.3673 29.9066C57.3674 29.9068 57.3675 29.9071 57.3676 29.9073C57.3677 29.9075 57.3678 29.9077 57.3679 29.9079C57.368 29.9081 57.3681 29.9083 57.3682 29.9085C57.3683 29.9087 57.3684 29.9089 57.3685 29.9091C57.3686 29.9094 57.3687 29.9096 57.3688 29.9098C57.3689 29.91 57.369 29.9102 57.3691 29.9104C57.3692 29.9106 57.3693 29.9108 57.3694 29.911C57.3695 29.9112 57.3697 29.9114 57.3698 29.9116C57.3699 29.9118 57.37 29.912 57.3701 29.9122C57.3702 29.9125 57.3703 29.9127 57.3704 29.9129C57.3705 29.9131 57.3706 29.9133 57.3707 29.9135C57.3708 29.9137 57.3709 29.9139 57.371 29.9141C57.3711 29.9143 57.3712 29.9145 57.3713 29.9147C57.3714 29.9149 57.3715 29.9151 57.3716 29.9153C57.3717 29.9155 57.3718 29.9157 57.3719 29.9159C57.372 29.9161 57.3721 29.9163 57.3722 29.9165C57.3723 29.9167 57.3724 29.9169 57.3725 29.9171C57.3726 29.9173 57.3727 29.9175 57.3728 29.9177C57.3729 29.9179 57.373 29.9181 57.3731 29.9183C57.3732 29.9185 57.3733 29.9187 57.3734 29.9189C57.3735 29.9191 57.3736 29.9193 57.3737 29.9194C57.3738 29.9196 57.3739 29.9198 57.374 29.92C57.3741 29.9202 57.3741 29.9204 57.3742 29.9206C57.3743 29.9208 57.3744 29.921 57.3745 29.9212C57.3746 29.9214 57.3747 29.9216 57.3748 29.9218C57.3749 29.922 57.375 29.9221 57.3751 29.9223C57.3752 29.9225 57.3753 29.9227 57.3754 29.9229C57.3755 29.9231 57.3756 29.9233 57.3757 29.9235C57.3758 29.9237 57.3759 29.9239 57.376 29.9241C57.3761 29.9242 57.3762 29.9244 57.3763 29.9246C57.3763 29.9248 57.3764 29.925 57.3765 29.9252C57.3766 29.9254 57.3767 29.9256 57.3768 29.9258C57.3769 29.9259 57.377 29.9261 57.3771 29.9263C57.3772 29.9265 57.3773 29.9267 57.3774 29.9269C57.3775 29.9271 57.3776 29.9272 57.3776 29.9274C57.3777 29.9276 57.3778 29.9278 57.3779 29.928C57.378 29.9282 57.3781 29.9283 57.3782 29.9285C57.3783 29.9287 57.3784 29.9289 57.3785 29.9291C57.3786 29.9293 57.3787 29.9294 57.3787 29.9296C57.3788 29.9298 57.3789 29.93 57.379 29.9302C57.3791 29.9303 57.3792 29.9305 57.3793 29.9307C57.3794 29.9309 57.3795 29.9311 57.3796 29.9312C57.3797 29.9314 57.3797 29.9316 57.3798 29.9318C57.3799 29.932 57.38 29.9321 57.3801 29.9323C57.3802 29.9325 57.3803 29.9327 57.3804 29.9328C57.3804 29.933 57.3805 29.9332 57.3806 29.9334C57.3807 29.9335 57.3808 29.9337 57.3809 29.9339C57.381 29.9341 57.3811 29.9342 57.3812 29.9344C57.3812 29.9346 57.3813 29.9348 57.3814 29.935C57.3815 29.9351 57.3816 29.9353 57.3817 29.9355C57.3818 29.9356 57.3818 29.9358 57.3819 29.936C57.382 29.9362 57.3821 29.9363 57.3822 29.9365C57.3823 29.9367 57.3824 29.9369 57.3824 29.937C57.3825 29.9372 57.3826 29.9374 57.3827 29.9375C57.3828 29.9377 57.3829 29.9379 57.383 29.938C57.383 29.9382 57.3831 29.9384 57.3832 29.9385C57.3833 29.9387 57.3834 29.9389 57.3835 29.9391C57.3835 29.9392 57.3836 29.9394 57.3837 29.9396C57.3838 29.9397 57.3839 29.9399 57.384 29.9401C57.384 29.9402 57.3841 29.9404 57.3842 29.9406C57.3843 29.9407 57.3844 29.9409 57.3845 29.941C57.3845 29.9412 57.3846 29.9414 57.3847 29.9415C57.3848 29.9417 57.3849 29.9419 57.385 29.942C57.385 29.9422 57.3851 29.9424 57.3852 29.9425C57.3853 29.9427 57.3854 29.9428 57.3854 29.943C57.3855 29.9432 57.3856 29.9433 57.3857 29.9435C57.3858 29.9436 57.3858 29.9438 57.3859 29.944C57.386 29.9441 57.3861 29.9443 57.3862 29.9445C57.3862 29.9446 57.3863 29.9448 57.3864 29.9449C57.3865 29.9451 57.3866 29.9452 57.3866 29.9454C57.3867 29.9456 57.3868 29.9457 57.3869 29.9459C57.387 29.946 57.387 29.9462 57.3871 29.9464C57.3872 29.9465 57.3873 29.9467 57.3873 29.9468C57.3874 29.947 57.3875 29.9471 57.3876 29.9473C57.3877 29.9474 57.3877 29.9476 57.3878 29.9477C57.3879 29.9479 57.388 29.9481 57.388 29.9482C57.3881 29.9484 57.3882 29.9485 57.3883 29.9487C57.3883 29.9488 57.3884 29.949 57.3885 29.9491C57.3886 29.9493 57.3887 29.9494 57.3887 29.9496C57.3888 29.9497 57.3889 29.9499 57.389 29.95C57.389 29.9502 57.3891 29.9503 57.3892 29.9505C57.3893 29.9506 57.3893 29.9508 57.3894 29.9509C57.3895 29.9511 57.3895 29.9512 57.3896 29.9514C57.3897 29.9515 57.3898 29.9517 57.3898 29.9518C57.3899 29.952 57.39 29.9521 57.3901 29.9523C57.3901 29.9524 57.3902 29.9525 57.3903 29.9527C57.3904 29.9528 57.3904 29.953 57.3905 29.9531C57.3906 29.9533 57.3906 29.9534 57.3907 29.9536C57.3908 29.9537 57.3909 29.9538 57.3909 29.954C57.391 29.9541 57.3911 29.9543 57.3912 29.9544C57.3912 29.9546 57.3913 29.9547 57.3914 29.9548C57.3914 29.955 57.3915 29.9551 57.3916 29.9553C57.3916 29.9554 57.3917 29.9556 57.3918 29.9557C57.3919 29.9558 57.3919 29.956 57.392 29.9561C57.3921 29.9563 57.3921 29.9564 57.3922 29.9565C57.3923 29.9567 57.3923 29.9568 57.3924 29.9569C57.3925 29.9571 57.3926 29.9572 57.3926 29.9574C57.3927 29.9575 57.3928 29.9576 57.3928 29.9578C57.3929 29.9579 57.393 29.958 57.393 29.9582C57.3931 29.9583 57.3932 29.9585 57.3932 29.9586C57.3933 29.9587 57.3934 29.9589 57.3934 29.959C57.3935 29.9591 57.3936 29.9593 57.3936 29.9594C57.3937 29.9595 57.3938 29.9597 57.3938 29.9598C57.3939 29.9599 57.394 29.9601 57.394 29.9602C57.3941 29.9603 57.3942 29.9605 57.3942 29.9606C57.3943 29.9607 57.3944 29.9608 57.3944 29.961C57.3945 29.9611 57.3946 29.9612 57.3946 29.9614C57.3947 29.9615 57.3948 29.9616 57.3948 29.9618C57.3949 29.9619 57.3949 29.962 57.395 29.9621C57.3951 29.9623 57.3951 29.9624 57.3952 29.9625C57.3953 29.9627 57.3953 29.9628 57.3954 29.9629C57.3955 29.963 57.3955 29.9632 57.3956 29.9633C57.3956 29.9634 57.3957 29.9635 57.3958 29.9637C57.3958 29.9638 57.3959 29.9639 57.396 29.964C57.396 29.9642 57.3961 29.9643 57.3961 29.9644C57.3962 29.9645 57.3963 29.9647 57.3963 29.9648C57.3964 29.9649 57.3965 29.965 57.3965 29.9651C57.3966 29.9653 57.3966 29.9654 57.3967 29.9655C57.3968 29.9656 57.3968 29.9658 57.3969 29.9659C57.3969 29.966 57.397 29.9661 57.3971 29.9662C57.3971 29.9664 57.3972 29.9665 57.3972 29.9666C57.3973 29.9667 57.3974 29.9668 57.3974 29.9669C57.3975 29.9671 57.3975 29.9672 57.3976 29.9673C57.3976 29.9674 57.3977 29.9675 57.3978 29.9677C57.3978 29.9678 57.3979 29.9679 57.3979 29.968C57.398 29.9681 57.3981 29.9682 57.3981 29.9683C57.3982 29.9685 57.3982 29.9686 57.3983 29.9687C57.3983 29.9688 57.3984 29.9689 57.3985 29.969C57.3985 29.9691 57.3986 29.9693 57.3986 29.9694C57.3987 29.9695 57.3987 29.9696 57.3988 29.9697C57.3988 29.9698 57.3989 29.9699 57.399 29.97C57.399 29.9702 57.3991 29.9703 57.3991 29.9704C57.3992 29.9705 57.3992 29.9706 57.3993 29.9707C57.3993 29.9708 57.3994 29.9709 57.3995 29.971C57.3995 29.9711 57.3996 29.9713 57.3996 29.9714C57.3997 29.9715 57.3997 29.9716 57.3998 29.9717C57.3998 29.9718 57.3999 29.9719 57.3999 29.972C57.4 29.9721 57.4001 29.9722 57.4001 29.9723C57.4002 29.9724 57.4002 29.9725 57.4003 29.9726C57.4003 29.9728 57.4004 29.9729 57.4004 29.973C57.4005 29.9731 57.4005 29.9732 57.4006 29.9733C57.4006 29.9734 57.4007 29.9735 57.4007 29.9736C57.4008 29.9737 57.4008 29.9738 57.4009 29.9739C57.4009 29.974 57.401 29.9741 57.401 29.9742C57.4011 29.9743 57.4011 29.9744 57.4012 29.9745C57.4012 29.9746 57.4013 29.9747 57.4013 29.9748C57.4014 29.9749 57.4014 29.975 57.4015 29.9751C57.4015 29.9752 57.4016 29.9753 57.4016 29.9754C57.4017 29.9755 57.4017 29.9756 57.4018 29.9757C57.4018 29.9758 57.4019 29.9759 57.4019 29.976C57.402 29.9761 57.402 29.9762 57.4021 29.9763C57.4021 29.9764 57.4022 29.9765 57.4022 29.9766C57.4023 29.9767 57.4023 29.9768 57.4024 29.9768C57.4024 29.9769 57.4025 29.977 57.4025 29.9771C57.4025 29.9772 57.4026 29.9773 57.4026 29.9774C57.4027 29.9775 57.4027 29.9776 57.4028 29.9777C57.4028 29.9778 57.4029 29.9779 57.4029 29.978C57.403 29.9781 57.403 29.9781 57.4031 29.9782C57.4031 29.9783 57.4031 29.9784 57.4032 29.9785C57.4032 29.9786 57.4033 29.9787 57.4033 29.9788C57.4034 29.9789 57.4034 29.979 57.4035 29.979C57.4035 29.9791 57.4035 29.9792 57.4036 29.9793C57.4036 29.9794 57.4037 29.9795 57.4037 29.9796C57.4038 29.9797 57.4038 29.9797 57.4039 29.9798C57.4039 29.9799 57.4039 29.98 57.404 29.9801C57.404 29.9802 57.4041 29.9803 57.4041 29.9803C57.4042 29.9804 57.4042 29.9805 57.4042 29.9806C57.4043 29.9807 57.4043 29.9808 57.4044 29.9808C57.4044 29.9809 57.4044 29.981 57.4045 29.9811C57.4045 29.9812 57.4046 29.9813 57.4046 29.9813C57.4046 29.9814 57.4047 29.9815 57.4047 29.9816C57.4048 29.9817 57.4048 29.9817 57.4049 29.9818C57.4049 29.9819 57.4049 29.982 57.405 29.9821C57.405 29.9821 57.405 29.9822 57.4051 29.9823C57.4051 29.9824 57.4052 29.9825 57.4052 29.9825C57.4052 29.9826 57.4053 29.9827 57.4053 29.9828C57.4054 29.9828 57.4054 29.9829 57.4054 29.983C57.4055 29.9831 57.4055 29.9831 57.4056 29.9832C57.4056 29.9833 57.4056 29.9834 57.4057 29.9835C57.4057 29.9835 57.4057 29.9836 57.4058 29.9837C57.4058 29.9837 57.4058 29.9838 57.4059 29.9839C57.4059 29.984 57.406 29.984 57.406 29.9841C57.406 29.9842 57.4061 29.9843 57.4061 29.9843C57.4061 29.9844 57.4062 29.9845 57.4062 29.9845C57.4062 29.9846 57.4063 29.9847 57.4063 29.9848C57.4064 29.9848 57.4064 29.9849 57.4064 29.985C57.4065 29.985 57.4065 29.9851 57.4065 29.9852C57.4066 29.9852 57.4066 29.9853 57.4066 29.9854C57.4067 29.9854 57.4067 29.9855 57.4067 29.9856C57.4068 29.9856 57.4068 29.9857 57.4068 29.9858C57.4069 29.9858 57.4069 29.9859 57.4069 29.986C57.407 29.986 57.407 29.9861 57.407 29.9862C57.4071 29.9862 57.4071 29.9863 57.4071 29.9864C57.4072 29.9864 57.4072 29.9865 57.4072 29.9866C57.4072 29.9866 57.4073 29.9867 57.4073 29.9867C57.4073 29.9868 57.4074 29.9869 57.4074 29.9869C57.4074 29.987 57.4075 29.9871 57.4075 29.9871C57.4075 29.9872 57.4076 29.9872 57.4076 29.9873C57.4076 29.9874 57.4076 29.9874 57.4077 29.9875C57.4077 29.9875 57.4077 29.9876 57.4078 29.9877C57.4078 29.9877 57.4078 29.9878 57.4079 29.9878C57.4079 29.9879 57.4079 29.9879 57.4079 29.988C57.408 29.9881 57.408 29.9881 57.408 29.9882C57.4081 29.9882 57.4081 29.9883 57.4081 29.9883C57.4081 29.9884 57.4082 29.9885 57.4082 29.9885C57.4082 29.9886 57.4082 29.9886 57.4083 29.9887C57.4083 29.9887 57.4083 29.9888 57.4084 29.9888C57.4084 29.9889 57.4084 29.9889 57.4084 29.989C57.4085 29.989 57.4085 29.9891 57.4085 29.9892C57.4085 29.9892 57.4086 29.9893 57.4086 29.9893C57.4086 29.9894 57.4086 29.9894 57.4087 29.9895C57.4087 29.9895 57.4087 29.9896 57.4087 29.9896C57.4088 29.9897 57.4088 29.9897 57.4088 29.9898C57.4088 29.9898 57.4089 29.9899 57.4089 29.9899C57.4089 29.9899 57.4089 29.99 57.409 29.99C57.409 29.9901 57.409 29.9901 57.409 29.9902C57.4091 29.9902 57.4091 29.9903 57.4091 29.9903C57.4091 29.9904 57.4091 29.9904 57.4092 29.9905C57.4092 29.9905 57.4092 29.9905 57.4092 29.9906C57.4093 29.9906 57.4093 29.9907 57.4093 29.9907C57.4093 29.9908 57.4093 29.9908 57.4094 29.9909C57.4094 29.9909 57.4094 29.9909 57.4094 29.991C57.4095 29.991 57.4095 29.9911 57.4095 29.9911C57.4095 29.9911 57.4095 29.9912 57.4096 29.9912C57.4096 29.9913 57.4096 29.9913 57.4096 29.9913C57.4096 29.9914 57.4097 29.9914 57.4097 29.9915C57.4097 29.9915 57.4097 29.9915 57.4097 29.9916C57.4097 29.9916 57.4098 29.9917 57.4098 29.9917C57.4098 29.9917 57.4098 29.9918 57.4098 29.9918C57.4099 29.9918 57.4099 29.9919 57.4099 29.9919C57.4099 29.992 57.4099 29.992 57.41 29.992C57.41 29.9921 57.41 29.9921 57.41 29.9921C57.41 29.9922 57.41 29.9922 57.4101 29.9922C57.4101 29.9923 57.4101 29.9923 57.4101 29.9923C57.4101 29.9924 57.4101 29.9924 57.4101 29.9924C57.4102 29.9925 57.4102 29.9925 57.4102 29.9925C57.4102 29.9925 57.4102 29.9926 57.4102 29.9926C57.4103 29.9926 57.4103 29.9927 57.4103 29.9927C57.4103 29.9927 57.4103 29.9928 57.4103 29.9928C57.4103 29.9928 57.4104 29.9928 57.4104 29.9929C57.4104 29.9929 57.4104 29.9929 57.4104 29.993C57.4104 29.993 57.4104 29.993 57.4105 29.993C57.4105 29.9931 57.4105 29.9931 57.4105 29.9931C57.4105 29.9931 57.4105 29.9932 57.4105 29.9932C57.4105 29.9932 57.4106 29.9932 57.4106 29.9933C57.4106 29.9933 57.4106 29.9933 57.4106 29.9933C57.4106 29.9934 57.4106 29.9934 57.4106 29.9934C57.4107 29.9934 57.4107 29.9935 57.4107 29.9935C57.4107 29.9935 57.4107 29.9935 57.4107 29.9935C57.4107 29.9936 57.4107 29.9936 57.4107 29.9936C57.4108 29.9936 57.4108 29.9936 57.4108 29.9937C57.4108 29.9937 57.4108 29.9937 57.4108 29.9937C57.4108 29.9937 57.4108 29.9938 57.4108 29.9938C57.4108 29.9938 57.4108 29.9938 57.4109 29.9938C57.4109 29.9939 57.4109 29.9939 57.4109 29.9939C57.4109 29.9939 57.4109 29.9939 57.4109 29.9939C57.4109 29.9939 57.4109 29.994 57.4109 29.994C57.4109 29.994 57.4109 29.994 57.411 29.994C57.411 29.994 57.411 29.9941 57.411 29.9941C57.411 29.9941 57.411 29.9941 57.411 29.9941C57.411 29.9941 57.411 29.9941 57.411 29.9941C57.411 29.9942 57.411 29.9942 57.411 29.9942C57.411 29.9942 57.411 29.9942 57.411 29.9942C57.4111 29.9942 57.4111 29.9942 57.4111 29.9942C57.4111 29.9943 57.4111 29.9943 57.4111 29.9943C57.4111 29.9943 57.4111 29.9943 57.4111 29.9943C57.4111 29.9943 57.4111 29.9943 57.4111 29.9943C57.4111 29.9943 57.4111 29.9943 57.4111 29.9943C57.4111 29.9944 57.4111 29.9944 57.4111 29.9944C57.4111 29.9944 57.4111 29.9944 57.4111 29.9944C57.4111 29.9944 57.4111 29.9944 57.4111 29.9944C57.4111 29.9944 57.4111 29.9944 57.4111 29.9944C57.4111 29.9944 57.4111 29.9944 57.4112 29.9944C57.4112 29.9944 57.4112 29.9944 57.4112 29.9944V29.9944C57.4112 29.9944 57.4112 29.9944 57.4112 29.9944C57.4112 29.9944 57.4112 29.9944 59.2 29.1ZM60.6117 27.5506C59.7165 26.4316 58.4298 26.0326 57.1172 26.2201L57.6828 30.1799C57.7747 30.1668 57.7461 30.1881 57.654 30.1546C57.6104 30.1387 57.5693 30.1163 57.5355 30.0914C57.5026 30.0671 57.4879 30.049 57.4883 30.0494L60.6117 27.5506ZM55.7899 27.0136C54.3529 28.9638 53.0179 30.9663 51.785 33.021L55.215 35.079C56.3821 33.1337 57.6471 31.2362 59.0101 29.3864L55.7899 27.0136ZM51.785 33.021L48.635 38.271L52.065 40.329L55.215 35.079L51.785 33.021ZM153.791 1.65L153.705 3.64815C153.734 3.64938 153.763 3.65 153.791 3.65V1.65ZM163.241 2.4L163.82 0.485573C163.797 0.478577 163.774 0.472 163.75 0.465847L163.241 2.4ZM172.541 11.1L170.699 11.8779C171.065 12.7439 171.984 13.2384 172.908 13.0661L172.541 11.1ZM186.041 18.3L187.818 17.3811L187.812 17.3697L186.041 18.3ZM187.691 37.35L185.763 36.819C185.759 36.8358 185.754 36.8526 185.75 36.8694L187.691 37.35ZM170.141 64.2L171.411 65.7455C171.419 65.7389 171.427 65.7322 171.435 65.7255L170.141 64.2ZM161.291 70.8L160.17 69.1442C159.625 69.5129 159.297 70.1255 159.291 70.7829C159.286 71.4402 159.604 72.0584 160.142 72.4364L161.291 70.8ZM170.141 83.1L172.019 82.4104C172.014 82.3964 172.008 82.3825 172.003 82.3687L170.141 83.1ZM172.091 98.85L170.099 98.6721C170.098 98.6839 170.097 98.6957 170.096 98.7075L172.091 98.85ZM167.291 114.15L165.583 113.11L165.576 113.121L167.291 114.15ZM157.541 125.4L156.302 123.83C156.287 123.842 156.272 123.854 156.257 123.867L157.541 125.4ZM145.991 132.6L146.774 134.441L145.991 132.6ZM121.091 136.65L121.011 134.652C120.998 134.652 120.985 134.653 120.972 134.654L121.091 136.65ZM106.991 135.15L107.558 133.232C107.545 133.228 107.531 133.224 107.518 133.22L106.991 135.15ZM95.4414 128.25L94.0056 129.642L94.0062 129.643L95.4414 128.25ZM88.9914 113.1L87.0041 113.325C87.0077 113.357 87.012 113.388 87.0171 113.419L88.9914 113.1ZM93.9414 87.6L95.6543 88.6324C95.6577 88.6268 95.6611 88.6211 95.6645 88.6154L93.9414 87.6ZM110.141 72L109.14 70.2685C109.114 70.2836 109.089 70.2992 109.063 70.3155L110.141 72ZM119.741 66.45L120.742 68.1815C121.255 67.8851 121.61 67.3768 121.712 66.7934C121.813 66.2101 121.651 65.6116 121.269 65.1593L119.741 66.45ZM110.291 52.05L108.409 52.7257C108.411 52.731 108.413 52.7362 108.415 52.7414L110.291 52.05ZM108.041 41.55L110.04 41.4855L108.041 41.55ZM109.841 31.05L107.959 30.3743C107.954 30.3886 107.949 30.4031 107.944 30.4175L109.841 31.05ZM116.441 19.65L117.995 20.9096C118 20.9029 118.006 20.8961 118.011 20.8893L116.441 19.65ZM126.941 9.9L128.06 11.5577C128.065 11.5549 128.069 11.552 128.073 11.5492L126.941 9.9ZM133.391 105.75L133.171 107.738L133.182 107.739L133.391 105.75ZM138.341 105L137.496 103.188C137.479 103.195 137.463 103.203 137.447 103.211L138.341 105ZM141.341 100.2L139.38 99.8078L141.341 100.2ZM140.291 93.15L138.487 94.0129C138.502 94.0449 138.519 94.0765 138.536 94.1077L140.291 93.15ZM135.641 85.5L137.269 84.3375C136.743 83.6007 135.787 83.3094 134.939 83.6273L135.641 85.5ZM132.041 86.85L131.339 84.9773C131.285 84.9978 131.231 85.0206 131.178 85.0457L132.041 86.85ZM125.741 91.8L124.612 90.1494L125.741 91.8ZM122.591 96.15L120.607 95.9019L122.591 96.15ZM123.791 100.65L122.164 101.812C122.178 101.832 122.192 101.851 122.206 101.869L123.791 100.65ZM127.991 104.1L127.02 105.848C127.045 105.862 127.071 105.876 127.097 105.889L127.991 104.1ZM154.691 31.65L152.808 32.3227C152.945 32.707 153.197 33.0402 153.529 33.2775L154.691 31.65ZM148.241 31.05L149.38 32.6944C149.388 32.6888 149.396 32.6832 149.404 32.6775L148.241 31.05ZM144.341 34.95L145.93 36.1649L144.341 34.95ZM141.341 40.8L143.219 41.4896C143.229 41.4621 143.238 41.4343 143.247 41.4064L141.341 40.8ZM142.541 54.3L144.256 53.271C144.248 53.2569 144.239 53.2428 144.23 53.2289L142.541 54.3ZM142.991 55.05L141.276 56.079C141.593 56.6071 142.136 56.9598 142.747 57.035C143.358 57.1103 143.97 56.8997 144.406 56.4642L142.991 55.05ZM146.141 52.35L147.318 53.9675L146.141 52.35ZM149.741 49.5L151.033 51.0268C151.067 50.9985 151.099 50.9692 151.131 50.9388L149.741 49.5ZM157.991 39.3L156.473 37.9984C156.415 38.0654 156.363 38.1361 156.315 38.21L157.991 39.3ZM157.391 35.7L159.115 34.686L157.391 35.7ZM155.741 32.4L157.703 32.0078C157.603 31.5095 157.317 31.0679 156.904 30.7725L155.741 32.4ZM153.791 3.65C158.178 3.65 161.103 3.90523 162.732 4.33414L163.75 0.465847C161.58 -0.105236 158.205 -0.350002 153.791 -0.350002V3.65ZM162.663 4.31442C166.339 5.42593 169.007 7.8714 170.699 11.8779L174.384 10.322C172.276 5.3286 168.744 1.97407 163.82 0.485573L162.663 4.31442ZM172.908 13.0661C175.494 12.584 177.619 12.8896 179.4 13.8397C181.202 14.8009 182.851 16.5275 184.271 19.2303L187.812 17.3697C186.132 14.1725 183.98 11.7491 181.283 10.3103C178.564 8.86042 175.489 8.51603 172.175 9.13387L172.908 13.0661ZM184.265 19.2188C187.011 24.5273 187.544 30.3536 185.763 36.819L189.62 37.881C191.639 30.5464 191.072 23.6727 187.818 17.3811L184.265 19.2188ZM185.75 36.8694C183.366 46.4993 177.78 55.1014 168.848 62.6745L171.435 65.7255C180.902 57.6986 187.016 48.4007 189.633 37.8305L185.75 36.8694ZM168.872 62.6545C166.121 64.9142 163.22 67.0775 160.17 69.1442L162.413 72.4558C165.562 70.3225 168.562 68.0858 171.411 65.7455L168.872 62.6545ZM160.142 72.4364C163.431 74.7476 166.177 78.478 168.28 83.8313L172.003 82.3687C169.706 76.5219 166.552 72.0524 162.441 69.1636L160.142 72.4364ZM168.264 83.7896C169.955 88.3916 170.575 93.3432 170.099 98.6721L174.083 99.0279C174.608 93.1568 173.928 87.6084 172.019 82.4104L168.264 83.7896ZM170.096 98.7075C169.718 104.004 168.21 108.794 165.583 113.11L169 115.19C171.973 110.306 173.665 104.896 174.086 98.9925L170.096 98.7075ZM165.576 113.121C162.99 117.431 159.897 120.992 156.302 123.83L158.781 126.97C162.786 123.808 166.192 119.869 169.006 115.179L165.576 113.121ZM156.257 123.867C152.692 126.854 149.009 129.145 145.209 130.759L146.774 134.441C150.974 132.655 154.991 130.146 158.826 126.933L156.257 123.867ZM145.209 130.759C141.367 132.392 137.66 133.384 134.082 133.761L134.501 137.739C138.523 137.316 142.616 136.208 146.774 134.441L145.209 130.759ZM134.082 133.761C130.336 134.155 125.981 134.453 121.011 134.652L121.171 138.648C126.202 138.447 130.647 138.145 134.501 137.739L134.082 133.761ZM120.972 134.654C116.182 134.941 111.716 134.46 107.558 133.232L106.425 137.068C111.067 138.44 116.001 138.959 121.211 138.646L120.972 134.654ZM107.518 133.22C103.477 132.118 99.9373 130.01 96.8766 126.857L94.0062 129.643C97.5456 133.29 101.706 135.782 106.465 137.08L107.518 133.22ZM96.8772 126.858C94.0721 123.965 92.0311 119.366 90.9657 112.781L87.0171 113.419C88.1517 120.434 90.4107 125.935 94.0056 129.642L96.8772 126.858ZM90.9787 112.875C89.9208 103.546 91.5142 95.5012 95.6543 88.6324L92.2285 86.5676C87.5686 94.2988 85.862 103.254 87.0041 113.325L90.9787 112.875ZM95.6645 88.6154C98.7572 83.3671 103.891 78.3746 111.22 73.6845L109.063 70.3155C101.392 75.2254 95.7256 80.6329 92.2183 86.5846L95.6645 88.6154ZM111.142 73.7315L120.742 68.1815L118.74 64.7185L109.14 70.2685L111.142 73.7315ZM121.269 65.1593C116.412 59.4098 113.445 54.8248 112.168 51.3586L108.415 52.7414C109.938 56.8752 113.271 61.8902 118.214 67.7407L121.269 65.1593ZM112.174 51.3743C110.822 47.609 110.132 44.3202 110.04 41.4855L106.042 41.6145C106.151 44.9798 106.961 48.691 108.409 52.7257L112.174 51.3743ZM110.04 41.4855C109.95 38.685 110.491 35.4268 111.739 31.6824L107.944 30.4175C106.592 34.4732 105.933 38.215 106.042 41.6145L110.04 41.4855ZM111.724 31.7257C113.037 28.0665 115.116 24.4606 117.995 20.9096L114.888 18.3904C111.767 22.2394 109.445 26.2335 107.959 30.3743L111.724 31.7257ZM118.011 20.8893C120.884 17.2506 124.232 14.1419 128.06 11.5577L125.822 8.2423C121.651 11.0581 117.999 14.4494 114.872 18.4107L118.011 20.8893ZM128.073 11.5492C136.361 5.86332 144.89 3.26899 153.705 3.64815L153.877 -0.348156C144.093 -0.768997 134.722 2.13667 125.81 8.2508L128.073 11.5492ZM133.182 107.739C135.377 107.97 137.426 107.694 139.236 106.789L137.447 103.211C136.457 103.706 135.205 103.93 133.601 103.761L133.182 107.739ZM139.187 106.812C141.523 105.722 142.747 103.369 143.303 100.592L139.38 99.8078C138.936 102.031 138.16 102.878 137.496 103.188L139.187 106.812ZM143.303 100.592C143.893 97.6408 143.476 94.812 142.047 92.1923L138.536 94.1077C139.507 95.888 139.79 97.7592 139.38 99.8078L143.303 100.592ZM142.096 92.2871C140.932 89.8533 139.315 87.2017 137.269 84.3375L134.014 86.6625C135.968 89.3983 137.451 91.8467 138.487 94.0129L142.096 92.2871ZM134.939 83.6273L131.339 84.9773L132.744 88.7227L136.344 87.3727L134.939 83.6273ZM131.178 85.0457C130.011 85.604 129.076 86.0884 128.414 86.4916C128.091 86.688 127.764 86.9063 127.495 87.1408C127.362 87.2561 127.182 87.4272 127.021 87.6515C126.884 87.8425 126.591 88.3015 126.591 88.95H130.591C130.591 89.5235 130.335 89.8949 130.269 89.986C130.22 90.0542 130.179 90.1 130.157 90.1229C130.134 90.1469 130.12 90.1591 130.119 90.1592C130.119 90.1598 130.126 90.1534 130.144 90.1399C130.161 90.1265 130.186 90.1085 130.219 90.0856C130.285 90.0392 130.376 89.9803 130.494 89.9084C130.981 89.6116 131.772 89.196 132.904 88.6543L131.178 85.0457ZM126.591 88.95C126.591 88.7613 126.629 88.6194 126.656 88.5384C126.671 88.497 126.684 88.4668 126.693 88.4485C126.702 88.4301 126.708 88.4207 126.708 88.4205C126.708 88.4203 126.704 88.427 126.694 88.4409C126.684 88.4547 126.669 88.474 126.649 88.4989C126.607 88.5494 126.547 88.6157 126.465 88.6983C126.117 89.0457 125.521 89.5274 124.612 90.1494L126.871 93.4506C127.862 92.7726 128.691 92.1293 129.293 91.5267C129.594 91.2256 129.889 90.8857 130.118 90.5107C130.338 90.1526 130.591 89.6123 130.591 88.95H126.591ZM124.612 90.1494C122.447 91.6307 120.904 93.5241 120.607 95.9019L124.576 96.3981C124.679 95.5759 125.236 94.5693 126.871 93.4506L124.612 90.1494ZM120.607 95.9019C120.34 98.0356 120.893 100.034 122.164 101.812L125.419 99.4875C124.689 98.4662 124.443 97.4644 124.576 96.3981L120.607 95.9019ZM122.206 101.869C123.409 103.433 125.04 104.748 127.02 105.848L128.963 102.352C127.342 101.452 126.174 100.467 125.377 99.4306L122.206 101.869ZM127.097 105.889C129.085 106.883 131.111 107.509 133.171 107.738L133.612 103.762C132.071 103.591 130.498 103.117 128.886 102.311L127.097 105.889ZM156.575 30.9773C156.244 30.052 155.736 29.1778 154.95 28.5311C154.134 27.8591 153.161 27.55 152.141 27.55V31.55C152.322 31.55 152.374 31.5909 152.408 31.6189C152.472 31.6722 152.638 31.848 152.808 32.3227L156.575 30.9773ZM152.141 27.55C150.379 27.55 148.677 28.2813 147.079 29.4225L149.404 32.6775C150.606 31.8187 151.504 31.55 152.141 31.55V27.55ZM147.103 29.4056C145.583 30.458 144.138 31.9238 142.753 33.7351L145.93 36.1649C147.145 34.5762 148.3 33.442 149.38 32.6944L147.103 29.4056ZM142.753 33.7351C141.302 35.6321 140.2 37.7913 139.436 40.1936L143.247 41.4064C143.883 39.4086 144.781 37.6679 145.93 36.1649L142.753 33.7351ZM139.464 40.1104C137.468 45.5437 137.891 50.7013 140.852 55.3711L144.23 53.2289C141.992 49.6987 141.615 45.8563 143.219 41.4896L139.464 40.1104ZM140.826 55.329L141.276 56.079L144.706 54.021L144.256 53.271L140.826 55.329ZM144.406 56.4642C145.335 55.5351 146.305 54.7037 147.318 53.9675L144.965 50.7325C143.777 51.5963 142.648 52.5648 141.577 53.6358L144.406 56.4642ZM147.318 53.9675C148.466 53.1326 149.705 52.1509 151.033 51.0268L148.45 47.9732C147.178 49.0491 146.017 49.9674 144.965 50.7325L147.318 53.9675ZM151.131 50.9388C154.157 48.0167 157 44.4943 159.668 40.39L156.315 38.21C153.782 42.1057 151.126 45.3833 148.352 48.0612L151.131 50.9388ZM159.51 40.6016C160.31 39.6685 160.428 38.5309 160.264 37.5462C160.107 36.601 159.672 35.6324 159.115 34.686L155.668 36.714C156.111 37.4676 156.276 37.949 156.319 38.2038C156.355 38.4191 156.273 38.2314 156.473 37.9984L159.51 40.6016ZM159.115 34.686C158.626 33.8548 158.264 33.1983 158.018 32.7056C157.742 32.1539 157.695 31.9677 157.703 32.0078L153.78 32.7922C153.888 33.3323 154.166 33.9461 154.44 34.4944C154.744 35.1017 155.156 35.8452 155.668 36.714L159.115 34.686ZM156.904 30.7725L155.854 30.0225L153.529 33.2775L154.579 34.0275L156.904 30.7725Z" fill="#EF8354" fill-opacity="0.6"/>
</svg>
