<?xml version="1.0" encoding="UTF-8"?>
<svg width="1036px" height="351px" viewBox="0 0 1036 351" version="1.1" xmlns="http://www.w3.org/2000/svg" xmlns:xlink="http://www.w3.org/1999/xlink">
    <title>gef-logo</title>
    <g id="Page-1" stroke="none" stroke-width="1" fill="none" fill-rule="evenodd">
        <g id="gef-logo" transform="translate(0.226600, 0.900000)">
            <path d="M350.0974,318.118 C350.0974,322.675 349.2834,326.907 347.6564,330.813 C346.0284,334.719 343.7504,338.137 340.8204,341.067 C338.0534,343.834 334.7164,346.031 330.8104,347.659 C326.9044,349.286 322.6724,350.1 318.1154,350.1 L89.1114,350.1 C83.2524,350.1 76.9044,349.449 70.0684,348.147 C63.3951,346.682 56.722,344.485 50.0488,341.555 C43.5384,338.625 37.2721,334.882 31.25,330.325 C25.2278,325.605 19.8567,319.989 15.1367,313.479 C10.5794,306.806 6.9173,299.156 4.1504,290.53 C1.3834,281.741 2.84217094e-14,271.894 2.84217094e-14,260.989 L2.84217094e-14,89.114 C2.84217094e-14,83.254 0.651,76.988 1.9531,70.315 C3.4179,63.479 5.6152,56.806 8.5449,50.295 C11.4746,43.622 15.2994,37.274 20.0195,31.252 C24.7395,25.23 30.3548,19.94 36.8652,15.383 C43.5384,10.663 51.1881,6.92 59.8144,4.153 C68.4404,1.386 78.2064,0.002 89.1114,0.002 L347.1684,0.002 L347.1684,63.479 L89.1114,63.479 C80.8104,63.479 74.4624,65.676 70.0684,70.071 C65.6738,74.465 63.4765,80.976 63.4765,89.602 L63.4765,260.989 C63.4765,269.127 65.6738,275.474 70.0684,280.032 C74.6254,284.426 80.9734,286.623 89.1114,286.623 L286.6214,286.623 L286.6214,207.034 L117.6754,207.034 L117.6754,143.069 L318.1154,143.069 C322.6724,143.069 326.9044,143.964 330.8104,145.754 C334.7164,147.382 338.0534,149.661 340.8204,152.59 C343.7504,155.52 346.0284,158.938 347.6564,162.844 C349.2834,166.588 350.0974,170.657 350.0974,175.051 L350.0974,318.118 Z" id="Path" fill="#08073F" fill-rule="nonzero"></path>
            <path d="M407.0664,207.034 L607.5054,207.034 L607.5054,143.069 L407.0664,143.069 L407.0664,207.034 Z M378.5024,350.1 L607.5054,350.1 C616.2944,350.1 625.8974,348.554 636.3144,345.461 C646.7314,342.369 656.4154,337.323 665.3674,330.325 C674.1564,323.163 681.5614,313.967 687.5844,302.737 C693.4434,291.343 696.3734,277.427 696.3734,260.989 L696.3734,31.985 C696.3734,27.59 695.5594,23.44 693.9314,19.534 C692.3044,15.627 690.1064,12.209 687.3394,9.28 C684.4104,6.35 680.9924,4.071 677.0854,2.444 C673.1794,0.816 668.9474,0.002 664.3904,0.002 L378.5024,0.002 L378.5024,63.479 L632.8964,63.479 L632.8964,260.989 C632.8964,269.289 630.6994,275.637 626.3044,280.032 C621.9104,284.426 615.4814,286.623 607.0174,286.623 L378.5024,286.623 L378.5024,350.1 Z" id="Shape" fill="#08073F" fill-rule="nonzero"></path>
            <path d="M745.3574,207.034 L946.0414,207.034 L946.0414,143.069 L745.3574,143.069 L745.3574,207.034 Z M717.0374,63.479 L971.4334,63.479 L971.4334,350.1 L1034.9034,350.1 L1034.9034,31.985 C1034.9034,27.59 1034.0934,23.44 1032.4634,19.534 C1030.8434,15.627 1028.6434,12.209 1025.8734,9.28 C1022.9434,6.35 1019.5234,4.071 1015.6234,2.444 C1011.7134,0.816 1007.4834,0.002 1002.9234,0.002 L717.0374,0.002 L717.0374,63.479 Z" id="Shape" fill="#08073F" fill-rule="nonzero"></path>
            <line x1="613.7734" y1="31.75" x2="717.7914" y2="31.75" id="Path" stroke="#08073F" stroke-width="63.5"></line>
            <line x1="363.2734" y1="63.48" x2="363.2734" y2="0" id="Path" stroke="#08073F" stroke-width="33"></line>
        </g>
    </g>
</svg>